G04*
G04 #@! TF.GenerationSoftware,Altium Limited,Altium Designer,22.10.1 (41)*
G04*
G04 Layer_Color=32896*
%FSLAX25Y25*%
%MOIN*%
G70*
G04*
G04 #@! TF.SameCoordinates,0AD24C9F-CA8A-4173-ACEB-545809BFA2C4*
G04*
G04*
G04 #@! TF.FilePolarity,Positive*
G04*
G01*
G75*
%ADD50C,0.00500*%
D50*
X143831Y57225D02*
X143414Y54255D01*
X143553Y55245D01*
X141851Y57503D01*
X143127Y55809D01*
X141434Y54533D01*
X140722Y56652D02*
X140513Y55167D01*
X139949Y54742D01*
X138464Y54950D01*
X138394Y54455D01*
X138820Y53891D01*
X139315Y53821D01*
X138464Y54950D02*
X138742Y56930D01*
X137474Y55089D02*
X136484Y55229D01*
X136979Y55159D01*
X137396Y58129D01*
X137891Y58059D01*
X133514Y55646D02*
X134504Y55507D01*
X135069Y55932D01*
X135208Y56922D01*
X134782Y57487D01*
X133792Y57626D01*
X133228Y57200D01*
X133158Y56705D01*
X135138Y56427D01*
X129059Y56272D02*
X129477Y59242D01*
X127992Y59451D01*
X127427Y59025D01*
X127288Y58035D01*
X127714Y57471D01*
X129199Y57262D01*
X128208Y57401D02*
X127079Y56550D01*
X126090Y56689D02*
X126159Y57184D01*
X125664Y57254D01*
X125594Y56759D01*
X126090Y56689D01*
X121062Y60425D02*
X120645Y57455D01*
X119160Y57663D01*
X118734Y58228D01*
X119013Y60208D01*
X119577Y60633D01*
X121062Y60425D01*
X116190Y58081D02*
X117180Y57942D01*
X117745Y58367D01*
X117884Y59357D01*
X117458Y59921D01*
X116468Y60061D01*
X115904Y59635D01*
X115834Y59140D01*
X117814Y58862D01*
X114705Y58289D02*
X113220Y58498D01*
X112795Y59063D01*
X113359Y59488D01*
X114349Y59349D01*
X114914Y59774D01*
X114488Y60339D01*
X113004Y60548D01*
X111735Y58707D02*
X110745Y58846D01*
X111240Y58776D01*
X111519Y60756D01*
X112013Y60687D01*
X108131Y58204D02*
X107636Y58273D01*
X107211Y58838D01*
X107559Y61313D01*
X109044Y61104D01*
X109469Y60540D01*
X109330Y59550D01*
X108765Y59124D01*
X107281Y59333D01*
X106290Y59472D02*
X106569Y61452D01*
X105084Y61661D01*
X104519Y61235D01*
X104311Y59750D01*
X103321Y59889D02*
X101836Y60098D01*
X101410Y60663D01*
X101975Y61088D01*
X102965Y60949D01*
X103529Y61374D01*
X103104Y61939D01*
X101619Y62147D01*
X167634Y20183D02*
X168050Y20599D01*
X168884D01*
X169300Y20183D01*
Y19766D01*
X168884Y19350D01*
X168050D01*
X167634Y18933D01*
Y18517D01*
X168050Y18100D01*
X168884D01*
X169300Y18517D01*
X163734Y32599D02*
X165400D01*
Y31350D01*
X164567Y31766D01*
X164150D01*
X163734Y31350D01*
Y30516D01*
X164150Y30100D01*
X164983D01*
X165400Y30516D01*
X162901Y32599D02*
Y30933D01*
X162068Y30100D01*
X161235Y30933D01*
Y32599D01*
X232196Y60216D02*
X231779Y63185D01*
X230216Y59937D01*
X229799Y62907D01*
X227741Y59589D02*
X228731Y59728D01*
X229157Y60293D01*
X229018Y61283D01*
X228453Y61708D01*
X227463Y61569D01*
X227038Y61005D01*
X227107Y60510D01*
X229087Y60788D01*
X225762Y59311D02*
X224771Y59172D01*
X224207Y59597D01*
X224068Y60587D01*
X224493Y61152D01*
X225483Y61291D01*
X226048Y60866D01*
X226187Y59876D01*
X225762Y59311D01*
X223426Y57973D02*
X223008Y60943D01*
X221523Y60735D01*
X221098Y60170D01*
X221237Y59180D01*
X221802Y58755D01*
X223287Y58963D01*
X220317Y58546D02*
X219327Y58407D01*
X219822Y58476D01*
X219544Y60456D01*
X220039Y60526D01*
X217564Y60178D02*
X215862Y57920D01*
X216713Y59049D01*
X215584Y59900D01*
X217842Y58198D01*
X213387Y57572D02*
X214377Y57711D01*
X214803Y58276D01*
X214663Y59266D01*
X214099Y59691D01*
X213109Y59552D01*
X212684Y58987D01*
X212753Y58492D01*
X214733Y58771D01*
X211902Y57363D02*
X210912Y57224D01*
X211407Y57294D01*
X210990Y60264D01*
X211485Y60333D01*
X204130Y58795D02*
X204555Y59359D01*
X205545Y59499D01*
X206110Y59073D01*
X206179Y58578D01*
X205754Y58013D01*
X204764Y57874D01*
X204339Y57310D01*
X204408Y56815D01*
X204973Y56389D01*
X205962Y56529D01*
X206388Y57093D01*
X202645Y58586D02*
X202714Y58091D01*
X203209Y58161D01*
X202219Y58022D01*
X202714Y58091D01*
X202923Y56606D01*
X202498Y56042D01*
X200240Y57743D02*
X199250Y57604D01*
X198824Y57040D01*
X199033Y55555D01*
X200518Y55763D01*
X200943Y56328D01*
X200379Y56753D01*
X198894Y56545D01*
X197765Y57395D02*
X198043Y55416D01*
X197904Y56406D01*
X197339Y56831D01*
X196775Y57256D01*
X196280Y57187D01*
X192103Y54581D02*
X191686Y57551D01*
X190201Y57342D01*
X189776Y56777D01*
X189915Y55787D01*
X190479Y55362D01*
X191964Y55571D01*
X190974Y55432D02*
X190123Y54303D01*
X187648Y53955D02*
X188638Y54094D01*
X189064Y54658D01*
X188925Y55648D01*
X188360Y56074D01*
X187370Y55935D01*
X186945Y55370D01*
X187014Y54875D01*
X188994Y55153D01*
X185885Y55726D02*
X185174Y53607D01*
X183905Y55448D01*
X180224Y52911D02*
X179946Y54891D01*
X178816Y55742D01*
X177966Y54613D01*
X178244Y52633D01*
X178035Y54118D01*
X180015Y54396D01*
X168700Y13250D02*
X167034D01*
M02*
