G04*
G04 #@! TF.GenerationSoftware,Altium Limited,Altium Designer,22.10.1 (41)*
G04*
G04 Layer_Color=8421504*
%FSLAX25Y25*%
%MOIN*%
G70*
G04*
G04 #@! TF.SameCoordinates,0AD24C9F-CA8A-4173-ACEB-545809BFA2C4*
G04*
G04*
G04 #@! TF.FilePolarity,Positive*
G04*
G01*
G75*
%ADD15P,0.03897X4X340.0*%
G04:AMPARAMS|DCode=16|XSize=39.37mil|YSize=35.43mil|CornerRadius=0mil|HoleSize=0mil|Usage=FLASHONLY|Rotation=290.000|XOffset=0mil|YOffset=0mil|HoleType=Round|Shape=Rectangle|*
%AMROTATEDRECTD16*
4,1,4,-0.02338,0.01244,0.00991,0.02456,0.02338,-0.01244,-0.00991,-0.02456,-0.02338,0.01244,0.0*
%
%ADD16ROTATEDRECTD16*%

%ADD17R,0.03937X0.03543*%
G04:AMPARAMS|DCode=18|XSize=39.37mil|YSize=35.43mil|CornerRadius=0mil|HoleSize=0mil|Usage=FLASHONLY|Rotation=75.000|XOffset=0mil|YOffset=0mil|HoleType=Round|Shape=Rectangle|*
%AMROTATEDRECTD18*
4,1,4,0.01202,-0.02360,-0.02221,-0.01443,-0.01202,0.02360,0.02221,0.01443,0.01202,-0.02360,0.0*
%
%ADD18ROTATEDRECTD18*%

G04:AMPARAMS|DCode=19|XSize=39.37mil|YSize=35.43mil|CornerRadius=0mil|HoleSize=0mil|Usage=FLASHONLY|Rotation=150.000|XOffset=0mil|YOffset=0mil|HoleType=Round|Shape=Rectangle|*
%AMROTATEDRECTD19*
4,1,4,0.02591,0.00550,0.00819,-0.02519,-0.02591,-0.00550,-0.00819,0.02519,0.02591,0.00550,0.0*
%
%ADD19ROTATEDRECTD19*%

G04:AMPARAMS|DCode=20|XSize=39.37mil|YSize=35.43mil|CornerRadius=0mil|HoleSize=0mil|Usage=FLASHONLY|Rotation=215.000|XOffset=0mil|YOffset=0mil|HoleType=Round|Shape=Rectangle|*
%AMROTATEDRECTD20*
4,1,4,0.00596,0.02580,0.02629,-0.00322,-0.00596,-0.02580,-0.02629,0.00322,0.00596,0.02580,0.0*
%
%ADD20ROTATEDRECTD20*%

%ADD21P,0.03897X4X110.0*%
%ADD22P,0.03897X4X53.0*%
%ADD23P,0.03897X4X180.0*%
%ADD24P,0.03897X4X125.0*%
%ADD25P,0.03897X4X254.0*%
%ADD26P,0.03897X4X195.0*%
%ADD27P,0.03897X4X325.0*%
%ADD28P,0.03897X4X270.0*%
%ADD29P,0.03897X4X395.0*%
D15*
X157643Y28778D02*
D03*
X160687Y22249D02*
D03*
X156762Y20418D02*
D03*
X153718Y26948D02*
D03*
X146843Y51078D02*
D03*
X149887Y44548D02*
D03*
X145962Y42718D02*
D03*
X142918Y49248D02*
D03*
X152155Y39930D02*
D03*
X155200Y33400D02*
D03*
X151275Y31570D02*
D03*
X148230Y38100D02*
D03*
D16*
X94840Y61523D02*
D03*
X100760Y63677D02*
D03*
D17*
X162800Y8850D02*
D03*
X162800Y15150D02*
D03*
D18*
X230042Y61185D02*
D03*
X223958Y62815D02*
D03*
D19*
X204575Y145628D02*
D03*
X201425Y140172D02*
D03*
D20*
X120793Y145180D02*
D03*
X124407Y140020D02*
D03*
D21*
X169506Y21365D02*
D03*
X172551Y27895D02*
D03*
X168626Y29725D02*
D03*
X165581Y23196D02*
D03*
X175881Y45496D02*
D03*
X178926Y52025D02*
D03*
X182851Y50195D02*
D03*
X179806Y43665D02*
D03*
X170781Y34295D02*
D03*
X173826Y40825D02*
D03*
X177751Y38995D02*
D03*
X174706Y32465D02*
D03*
D22*
X185858Y53668D02*
D03*
X192992Y54671D02*
D03*
X192390Y58959D02*
D03*
X185255Y57957D02*
D03*
X197455Y59757D02*
D03*
X204590Y60759D02*
D03*
X205192Y56471D02*
D03*
X198058Y55468D02*
D03*
X210168Y57209D02*
D03*
X217303Y58211D02*
D03*
X216700Y62500D02*
D03*
X209565Y61497D02*
D03*
D23*
X219472Y67592D02*
D03*
X214377Y72686D02*
D03*
X217439Y75748D02*
D03*
X222534Y70654D02*
D03*
X214234Y79054D02*
D03*
X209139Y84149D02*
D03*
X206077Y81086D02*
D03*
X211172Y75992D02*
D03*
X202471Y84392D02*
D03*
X197377Y89486D02*
D03*
X200439Y92549D02*
D03*
X205534Y87454D02*
D03*
D24*
X197121Y98627D02*
D03*
X198372Y105722D02*
D03*
X194107Y106474D02*
D03*
X192856Y99379D02*
D03*
X194956Y111579D02*
D03*
X196207Y118674D02*
D03*
X200472Y117922D02*
D03*
X199221Y110827D02*
D03*
X201421Y122927D02*
D03*
X202672Y130022D02*
D03*
X198407Y130774D02*
D03*
X197156Y123679D02*
D03*
D25*
X195126Y135658D02*
D03*
X188825Y132165D02*
D03*
X186726Y135953D02*
D03*
X193027Y139446D02*
D03*
X182427Y133346D02*
D03*
X176126Y129853D02*
D03*
X178225Y126065D02*
D03*
X184527Y129558D02*
D03*
X174027Y123358D02*
D03*
X167725Y119865D02*
D03*
X165626Y123653D02*
D03*
X171927Y127146D02*
D03*
D26*
X159829Y123463D02*
D03*
X153590Y127065D02*
D03*
X151424Y123315D02*
D03*
X157664Y119712D02*
D03*
X146964Y126112D02*
D03*
X140724Y129715D02*
D03*
X142890Y133465D02*
D03*
X149129Y129863D02*
D03*
X138329Y135763D02*
D03*
X132090Y139365D02*
D03*
X129924Y135615D02*
D03*
X136164Y132012D02*
D03*
D27*
X126421Y131514D02*
D03*
X127672Y124419D02*
D03*
X123407Y123667D02*
D03*
X122156Y130762D02*
D03*
X124456Y118562D02*
D03*
X125707Y111467D02*
D03*
X129972Y112219D02*
D03*
X128721Y119314D02*
D03*
X130721Y107214D02*
D03*
X131972Y100119D02*
D03*
X127707Y99367D02*
D03*
X126456Y106462D02*
D03*
D28*
X130708Y91672D02*
D03*
X125614Y86577D02*
D03*
X122552Y89639D02*
D03*
X127646Y94734D02*
D03*
X122108Y82671D02*
D03*
X117014Y77577D02*
D03*
X113952Y80639D02*
D03*
X119046Y85734D02*
D03*
X113608Y73571D02*
D03*
X108514Y68477D02*
D03*
X105452Y71539D02*
D03*
X110546Y76634D02*
D03*
D29*
X108179Y62944D02*
D03*
X115274Y61693D02*
D03*
X114522Y57428D02*
D03*
X107427Y58679D02*
D03*
X120605Y60851D02*
D03*
X127700Y59600D02*
D03*
X126948Y55335D02*
D03*
X119853Y56586D02*
D03*
X132700Y58800D02*
D03*
X139795Y57549D02*
D03*
X139043Y53284D02*
D03*
X131948Y54535D02*
D03*
M02*
