G04*
G04 #@! TF.GenerationSoftware,Altium Limited,Altium Designer,22.10.1 (41)*
G04*
G04 Layer_Physical_Order=1*
G04 Layer_Color=255*
%FSLAX25Y25*%
%MOIN*%
G70*
G04*
G04 #@! TF.SameCoordinates,0AD24C9F-CA8A-4173-ACEB-545809BFA2C4*
G04*
G04*
G04 #@! TF.FilePolarity,Positive*
G04*
G01*
G75*
%ADD13C,0.01000*%
%ADD15P,0.03897X4X340.0*%
G04:AMPARAMS|DCode=16|XSize=39.37mil|YSize=35.43mil|CornerRadius=0mil|HoleSize=0mil|Usage=FLASHONLY|Rotation=290.000|XOffset=0mil|YOffset=0mil|HoleType=Round|Shape=Rectangle|*
%AMROTATEDRECTD16*
4,1,4,-0.02338,0.01244,0.00991,0.02456,0.02338,-0.01244,-0.00991,-0.02456,-0.02338,0.01244,0.0*
%
%ADD16ROTATEDRECTD16*%

%ADD17R,0.03937X0.03543*%
G04:AMPARAMS|DCode=18|XSize=39.37mil|YSize=35.43mil|CornerRadius=0mil|HoleSize=0mil|Usage=FLASHONLY|Rotation=75.000|XOffset=0mil|YOffset=0mil|HoleType=Round|Shape=Rectangle|*
%AMROTATEDRECTD18*
4,1,4,0.01202,-0.02360,-0.02221,-0.01443,-0.01202,0.02360,0.02221,0.01443,0.01202,-0.02360,0.0*
%
%ADD18ROTATEDRECTD18*%

G04:AMPARAMS|DCode=19|XSize=39.37mil|YSize=35.43mil|CornerRadius=0mil|HoleSize=0mil|Usage=FLASHONLY|Rotation=150.000|XOffset=0mil|YOffset=0mil|HoleType=Round|Shape=Rectangle|*
%AMROTATEDRECTD19*
4,1,4,0.02591,0.00550,0.00819,-0.02519,-0.02591,-0.00550,-0.00819,0.02519,0.02591,0.00550,0.0*
%
%ADD19ROTATEDRECTD19*%

G04:AMPARAMS|DCode=20|XSize=39.37mil|YSize=35.43mil|CornerRadius=0mil|HoleSize=0mil|Usage=FLASHONLY|Rotation=215.000|XOffset=0mil|YOffset=0mil|HoleType=Round|Shape=Rectangle|*
%AMROTATEDRECTD20*
4,1,4,0.00596,0.02580,0.02629,-0.00322,-0.00596,-0.02580,-0.02629,0.00322,0.00596,0.02580,0.0*
%
%ADD20ROTATEDRECTD20*%

%ADD21P,0.03897X4X110.0*%
%ADD22P,0.03897X4X53.0*%
%ADD23P,0.03897X4X180.0*%
%ADD24P,0.03897X4X125.0*%
%ADD25P,0.03897X4X254.0*%
%ADD26P,0.03897X4X195.0*%
%ADD27P,0.03897X4X325.0*%
%ADD28P,0.03897X4X270.0*%
%ADD29P,0.03897X4X395.0*%
%ADD45C,0.00600*%
%ADD46C,0.01800*%
G36*
X206246Y151097D02*
X206484Y151066D01*
X206710Y151034D01*
X206965Y150966D01*
X207194Y150900D01*
X207353Y150834D01*
X207411Y150810D01*
X207785Y150609D01*
X207828Y150586D01*
X207842Y150577D01*
X208051Y150417D01*
X208340Y150165D01*
X208580Y149882D01*
X208582Y149880D01*
X208760Y149626D01*
X208950Y149266D01*
X208974Y149207D01*
X209118Y148800D01*
X209176Y148444D01*
X209180Y148409D01*
X209186Y148326D01*
X209192Y148203D01*
X209195Y148088D01*
X209193Y147974D01*
X209193Y147930D01*
X209185Y147796D01*
X209172Y147655D01*
X209164Y147591D01*
X209163Y147583D01*
X209110Y147085D01*
X201550Y100638D01*
X201554Y100523D01*
X201456Y99784D01*
X201638Y98404D01*
X202171Y97118D01*
X202974Y96072D01*
X202984Y96082D01*
X202985Y96082D01*
X235189Y63006D01*
X235320Y62864D01*
X235428Y62741D01*
X235526Y62626D01*
X235632Y62498D01*
X235708Y62401D01*
X235722Y62383D01*
X235808Y62257D01*
X235847Y62199D01*
X235943Y62040D01*
X236055Y61830D01*
X236123Y61675D01*
X236253Y61362D01*
X236319Y60862D01*
X236323Y60623D01*
X236325Y60390D01*
X236297Y60143D01*
X236281Y60026D01*
X236157Y59556D01*
X236082Y59374D01*
X235875Y58940D01*
X235875Y58939D01*
X235721Y58739D01*
X235559Y58535D01*
X235233Y58219D01*
X235161Y58164D01*
X234923Y57994D01*
X234551Y57797D01*
X234536Y57790D01*
X234464Y57761D01*
X234324Y57711D01*
X234164Y57661D01*
X234048Y57630D01*
X233846Y57581D01*
X233795Y57572D01*
X233795Y57572D01*
X233305Y57469D01*
X232317Y57318D01*
X232039Y57717D01*
X232039Y57717D01*
X232007Y57808D01*
X232007Y57808D01*
X233488Y63335D01*
X228133Y64770D01*
X226597Y59035D01*
X231539Y57710D01*
X231553Y57707D01*
X231549Y57646D01*
X231549Y57646D01*
X231549Y57645D01*
D01*
X231474Y57189D01*
X189207Y50718D01*
X189118Y50686D01*
X188633Y50622D01*
X187350Y50090D01*
X186249Y49245D01*
X185403Y48143D01*
X185254Y47783D01*
X185214Y47728D01*
X166257Y7254D01*
X165769Y7363D01*
Y11622D01*
X159832D01*
Y6860D01*
X159332Y6749D01*
X140138Y47728D01*
X140097Y47783D01*
X139948Y48143D01*
X139103Y49245D01*
X138001Y50090D01*
X136718Y50622D01*
X136233Y50686D01*
X136144Y50718D01*
X91942Y57485D01*
X91592Y57557D01*
X91593Y57567D01*
X91580Y57570D01*
X91407Y57604D01*
X91282Y57636D01*
X91229Y57650D01*
X91125Y57680D01*
X90962Y57734D01*
X90876Y57766D01*
X90707Y57843D01*
X90339Y58049D01*
X89969Y58333D01*
X89790Y58546D01*
X89658Y58703D01*
X89613Y58761D01*
X89433Y59044D01*
X89289Y59327D01*
X89169Y59617D01*
X89103Y59776D01*
X89050Y60177D01*
X89022Y60476D01*
X89037Y60893D01*
X89073Y61163D01*
X89073Y61163D01*
X89073Y61163D01*
X89208Y61627D01*
X89223Y61663D01*
X89288Y61811D01*
X89447Y62114D01*
X89625Y62377D01*
X89640Y62397D01*
X89711Y62487D01*
X89816Y62616D01*
X89920Y62737D01*
X90015Y62845D01*
X90113Y62952D01*
X90205Y63049D01*
X122367Y96082D01*
X122367Y96082D01*
X122378Y96072D01*
X123181Y97118D01*
X123713Y98404D01*
X123895Y99784D01*
X123798Y100523D01*
X123802Y100638D01*
X116549Y145195D01*
X117024Y145388D01*
X119952Y141207D01*
X124815Y144612D01*
X121635Y149153D01*
X116946Y145869D01*
X116411Y146041D01*
X116235Y147123D01*
X116191Y147549D01*
X116193Y147551D01*
X116191Y147559D01*
X116183Y147626D01*
X116173Y147716D01*
X116163Y147857D01*
X116161Y147882D01*
X116156Y148013D01*
X116157Y148080D01*
X116158Y148183D01*
X116166Y148352D01*
X116182Y148503D01*
X116227Y148845D01*
X116360Y149167D01*
X116477Y149425D01*
X116700Y149789D01*
X116770Y149880D01*
X116913Y150051D01*
X117200Y150340D01*
X117457Y150537D01*
X117664Y150696D01*
X117835Y150767D01*
X118046Y150854D01*
X118114Y150879D01*
X118358Y150963D01*
X118606Y151020D01*
X118749Y151049D01*
X119213Y151102D01*
X119525Y151061D01*
X119694Y151032D01*
X119897Y150986D01*
X120076Y150935D01*
X120216Y150887D01*
X120257Y150872D01*
X120336Y150841D01*
X120381Y150823D01*
X120522Y150760D01*
X120661Y150695D01*
X120789Y150633D01*
X120906Y150574D01*
X121056Y150496D01*
X160113Y128859D01*
X160107Y128849D01*
X161301Y128354D01*
X162676Y128173D01*
X164050Y128354D01*
X165244Y128849D01*
Y128849D01*
X165249Y128866D01*
X202950Y149750D01*
X203313Y149380D01*
X203159Y149112D01*
X200618Y144712D01*
X205760Y141743D01*
X208531Y146544D01*
X203777Y149289D01*
X203469Y149466D01*
X203367Y149981D01*
X204261Y150477D01*
X204381Y150540D01*
X204500Y150602D01*
X204627Y150665D01*
X204761Y150729D01*
X204903Y150793D01*
X205021Y150844D01*
X205134Y150890D01*
X205332Y150951D01*
X205381Y150966D01*
X205570Y151014D01*
X205779Y151054D01*
X206173Y151106D01*
X206246Y151097D01*
D02*
G37*
%LPC*%
G36*
X200240Y144057D02*
X199104Y142090D01*
X201242Y140855D01*
X202378Y142823D01*
X200240Y144057D01*
D02*
G37*
G36*
X125248Y143993D02*
X123226Y142577D01*
X124529Y140716D01*
X126551Y142132D01*
X125248Y143993D01*
D02*
G37*
G36*
X193954Y142678D02*
X192311Y141768D01*
X193222Y140125D01*
X194864Y141036D01*
X193954Y142678D01*
D02*
G37*
G36*
X203244Y142323D02*
X202108Y140355D01*
X204246Y139121D01*
X205382Y141088D01*
X203244Y142323D01*
D02*
G37*
G36*
X191437Y141283D02*
X189794Y140373D01*
X190705Y138730D01*
X192347Y139640D01*
X191437Y141283D01*
D02*
G37*
G36*
X122407Y142004D02*
X120385Y140588D01*
X121688Y138727D01*
X123710Y140143D01*
X122407Y142004D01*
D02*
G37*
G36*
X127125Y141313D02*
X125103Y139897D01*
X126406Y138036D01*
X128428Y139452D01*
X127125Y141313D01*
D02*
G37*
G36*
X198604Y141224D02*
X197469Y139256D01*
X199606Y138022D01*
X200742Y139989D01*
X198604Y141224D01*
D02*
G37*
G36*
X187653Y139185D02*
X183493Y136880D01*
Y136880D01*
X183151Y136466D01*
X181711Y135668D01*
X182864Y133588D01*
X182427Y133346D01*
X182669Y132908D01*
X180590Y131755D01*
X181500Y130113D01*
X181500Y130113D01*
X183600Y126325D01*
X187759Y128631D01*
Y128631D01*
X188101Y129045D01*
X192058Y131238D01*
X189752Y135398D01*
X189752Y135398D01*
X187653Y139185D01*
D02*
G37*
G36*
X137459Y139011D02*
X136520Y137385D01*
X138146Y136446D01*
X139085Y138072D01*
X137459Y139011D01*
D02*
G37*
G36*
X201608Y139489D02*
X200472Y137522D01*
X202610Y136288D01*
X203746Y138255D01*
X201608Y139489D01*
D02*
G37*
G36*
X124284Y139324D02*
X122262Y137908D01*
X123565Y136047D01*
X125587Y137463D01*
X124284Y139324D01*
D02*
G37*
G36*
X131219Y142613D02*
X130212Y140870D01*
X130096Y140702D01*
X130084Y140647D01*
X128841Y138495D01*
X128841Y138495D01*
X126676Y134744D01*
X127065Y134520D01*
X126978Y134027D01*
X125829Y133825D01*
X125339Y133922D01*
X124832Y133821D01*
X124557Y133637D01*
X124085Y133517D01*
X124085Y133517D01*
X124085Y133517D01*
X122236Y133191D01*
X122649Y130849D01*
X123062Y128507D01*
X124492Y128760D01*
Y128760D01*
X129176Y129585D01*
X129122Y129892D01*
X129443Y130274D01*
X130118D01*
X130299Y130311D01*
X130484Y130326D01*
X130551Y130361D01*
X130625Y130375D01*
X130779Y130478D01*
X130943Y130563D01*
X131107Y130693D01*
X131107Y130693D01*
X132905Y132124D01*
X133291Y131792D01*
X132915Y131142D01*
X137034Y128764D01*
X137034Y128764D01*
X137476Y128844D01*
X141595Y126466D01*
X143973Y130585D01*
X143973Y130585D01*
X146138Y134335D01*
X142019Y136714D01*
X142019Y136714D01*
X141577Y136633D01*
X139951Y137572D01*
X138762Y135513D01*
X138329Y135763D01*
X138079Y135330D01*
X136020Y136519D01*
X135081Y134892D01*
X135081Y134892D01*
X134500Y133886D01*
X134029Y134071D01*
X134364Y135524D01*
X134368Y135652D01*
X134395Y135857D01*
X134429Y136119D01*
X134510Y136281D01*
X134486Y136337D01*
X134425Y136394D01*
Y136926D01*
X134441D01*
X134278Y138166D01*
X134221Y138302D01*
X135338Y140235D01*
X131219Y142613D01*
D02*
G37*
G36*
X180837Y135183D02*
X179194Y134273D01*
X180105Y132630D01*
X181747Y133540D01*
X180837Y135183D01*
D02*
G37*
G36*
X121251Y133017D02*
X119402Y132691D01*
X119728Y130842D01*
X121577Y131168D01*
X121251Y133017D01*
D02*
G37*
G36*
X148259Y133111D02*
X147320Y131485D01*
X148946Y130546D01*
X149885Y132172D01*
X148259Y133111D01*
D02*
G37*
G36*
X150751Y131672D02*
X149562Y129613D01*
X149129Y129863D01*
X148879Y129430D01*
X146820Y130619D01*
X146114Y129396D01*
X145881Y128992D01*
X145648Y128589D01*
X143715Y125242D01*
X147834Y122864D01*
X149002Y124888D01*
X149009Y124887D01*
X149293Y124378D01*
X148176Y122444D01*
X152295Y120066D01*
X154673Y124185D01*
X154673Y124185D01*
X156838Y127936D01*
X152719Y130314D01*
X151856Y128818D01*
X151849D01*
X151560Y129318D01*
X152377Y130733D01*
X150751Y131672D01*
D02*
G37*
G36*
X121751Y130183D02*
X119901Y129857D01*
X120227Y128008D01*
X122077Y128334D01*
X121751Y130183D01*
D02*
G37*
G36*
X195349Y140161D02*
X193269Y139008D01*
X191190Y137856D01*
X191875Y136620D01*
X192100Y136213D01*
X192325Y135806D01*
X194200Y132425D01*
X195947Y133394D01*
X196398Y133072D01*
X195652Y128845D01*
X200336Y128019D01*
Y128019D01*
X204601Y127267D01*
X205427Y131951D01*
X203469Y132296D01*
X201720Y134045D01*
X201379Y134411D01*
X201379Y134411D01*
X200039Y135510D01*
X198510Y136327D01*
X197265Y136705D01*
X196279Y138484D01*
X196054Y138891D01*
X195828Y139297D01*
X195349Y140161D01*
D02*
G37*
G36*
X170337Y128983D02*
X168694Y128073D01*
X169605Y126430D01*
X171247Y127340D01*
X170337Y128983D01*
D02*
G37*
G36*
X187899Y124797D02*
X187413Y124733D01*
X187154Y124699D01*
X187144Y124701D01*
X186925Y124669D01*
X186925Y124669D01*
X186610Y124627D01*
X186579Y124615D01*
X186579Y124615D01*
X186385Y124541D01*
X186203Y124475D01*
X186152Y124455D01*
X186089Y124434D01*
X185987Y124393D01*
X185984Y124391D01*
X185980Y124390D01*
X185888Y124351D01*
X185887Y124350D01*
X185887Y124350D01*
X185819Y124318D01*
X185800Y124310D01*
X185800Y124310D01*
X185446Y124145D01*
X185019Y123896D01*
X164038Y112297D01*
X164033Y112307D01*
X163403Y112046D01*
X162676Y111951D01*
X161948Y112046D01*
X161319Y112307D01*
X161314Y112297D01*
X139947Y124109D01*
X139910Y124129D01*
X139905Y124146D01*
X139560Y124306D01*
X139522Y124323D01*
X139473Y124346D01*
X139462Y124351D01*
X139389Y124382D01*
X139377Y124388D01*
X139361Y124393D01*
X139271Y124430D01*
X139211Y124451D01*
X139157Y124472D01*
X138866Y124579D01*
X138791Y124607D01*
X138791Y124607D01*
X138742Y124627D01*
X138730Y124629D01*
X138730Y124629D01*
X138622Y124643D01*
X137453Y124797D01*
X137429Y124794D01*
X137078Y124750D01*
X137052Y124755D01*
X137006Y124746D01*
X136804Y124716D01*
X136729Y124707D01*
X136728Y124707D01*
X136520Y124674D01*
X136157Y124626D01*
X136157Y124626D01*
X136138Y124618D01*
X136137Y124618D01*
X135715Y124462D01*
X135663Y124427D01*
X135321Y124280D01*
X134918Y124113D01*
X134205Y123566D01*
X133845Y123290D01*
X133838Y123281D01*
X133820Y123258D01*
X133603Y122990D01*
X133598Y122983D01*
X133594Y122977D01*
X133470Y122810D01*
X133413Y122739D01*
X133354Y122655D01*
X133064Y122272D01*
X133064D01*
X133036Y122232D01*
X133011Y122173D01*
X133011Y122173D01*
X132869Y121829D01*
X132539Y121034D01*
X132489Y120656D01*
X132463Y120463D01*
X132462Y120459D01*
X132462Y120458D01*
X132431Y120300D01*
X132431Y120300D01*
X132416Y120152D01*
X132405Y120075D01*
X132405Y120074D01*
X132404Y120069D01*
X132374Y119784D01*
X132368Y119741D01*
X132368Y119737D01*
X132369Y119726D01*
X132382Y119624D01*
X132410Y119335D01*
X132413Y119320D01*
X132420Y119249D01*
X132425Y119217D01*
X132431Y119162D01*
X132462Y119007D01*
X132459Y118894D01*
X136562Y93740D01*
X136616Y93242D01*
X136616Y93242D01*
X136670Y92754D01*
X136579Y92065D01*
X136298Y91387D01*
X135873Y90833D01*
X135879Y90827D01*
X118206Y72713D01*
X118022Y72525D01*
X118000Y72525D01*
X117775Y72248D01*
X117769Y72238D01*
X117706Y72161D01*
X117680Y72122D01*
X117634Y72065D01*
X117498Y71876D01*
X117384Y71724D01*
X117301Y71613D01*
X117300Y71613D01*
X117222Y71511D01*
X117216Y71502D01*
X117163Y71374D01*
X117118Y71267D01*
X117116Y71262D01*
X116737Y70346D01*
X116737Y70346D01*
X116737D01*
X116718Y70301D01*
X116709Y70226D01*
X116709Y70226D01*
X116644Y69739D01*
X116612Y69576D01*
X116612Y69576D01*
X116594Y69374D01*
X116577Y69250D01*
X116577Y69250D01*
X116577Y69250D01*
X116575Y69211D01*
X116547Y69001D01*
X116559Y68914D01*
X116559Y68912D01*
X116591Y68582D01*
X116614Y68465D01*
X116623Y68422D01*
X116722Y67671D01*
X116970Y67073D01*
X116970Y67073D01*
X116990Y66968D01*
X116996Y66960D01*
X117002Y66950D01*
X117209Y66495D01*
X117238Y66424D01*
X117291Y66356D01*
X117554Y66013D01*
X117565Y65999D01*
X117629Y65904D01*
X117663Y65854D01*
X117663Y65854D01*
X117760Y65738D01*
X117860Y65605D01*
X117860Y65605D01*
X117927Y65527D01*
X118046Y65373D01*
X118089Y65340D01*
X118089Y65340D01*
X118140Y65301D01*
X119046Y64606D01*
X119046Y64606D01*
X119077Y64582D01*
X119263Y64500D01*
X119499Y64396D01*
X119535Y64372D01*
X119664Y64319D01*
X119732Y64288D01*
X119732Y64288D01*
X119825Y64255D01*
X119885Y64231D01*
X120253Y64094D01*
X120295Y64077D01*
X120303Y64076D01*
X120390Y64064D01*
X120394Y64063D01*
X120868Y63980D01*
X121133Y63940D01*
X144732Y60334D01*
X145218Y60232D01*
D01*
X145692Y60122D01*
X146202Y59911D01*
X146785Y59464D01*
X147231Y58882D01*
X147322Y58662D01*
X147346Y58672D01*
X157966Y36046D01*
X158067Y35831D01*
X158125Y35706D01*
X158269Y35392D01*
X158270Y35392D01*
X158272Y35387D01*
X158285Y35356D01*
X158291Y35349D01*
X158337Y35288D01*
X158415Y35187D01*
X158420Y35181D01*
X158420Y35181D01*
X158431Y35166D01*
X158575Y34973D01*
X158711Y34785D01*
X158711Y34784D01*
X158735Y34756D01*
X158800Y34667D01*
X158801Y34665D01*
X158874Y34590D01*
X158875Y34588D01*
X158919Y34522D01*
X158932Y34513D01*
X159092Y34305D01*
X159958Y33641D01*
X159958Y33641D01*
X159958Y33641D01*
X160120Y33516D01*
X160260Y33459D01*
X160260Y33459D01*
X160430Y33380D01*
X160446Y33370D01*
X160546Y33324D01*
X160709Y33250D01*
X160714Y33247D01*
X160720Y33245D01*
X160981Y33147D01*
X160981Y33147D01*
X161120Y33102D01*
X161338Y33012D01*
X161342Y33011D01*
X161436Y32999D01*
X161534Y32986D01*
X162676Y32836D01*
X163221Y32907D01*
X163256Y32900D01*
X163415Y32932D01*
X163905Y32997D01*
X163916Y32999D01*
X164009Y33011D01*
X164013Y33012D01*
X164230Y33102D01*
X164370Y33147D01*
X164370Y33147D01*
X164371Y33147D01*
X164543Y33212D01*
X164632Y33245D01*
X164632Y33245D01*
X164637Y33247D01*
X164643Y33250D01*
X164913Y33374D01*
X164990Y33416D01*
X165232Y33517D01*
X166233Y34286D01*
X166234Y34286D01*
X166259Y34305D01*
X166272Y34323D01*
X166358Y34434D01*
X166420Y34508D01*
X166421Y34509D01*
X166422Y34511D01*
X166539Y34650D01*
X166539Y34651D01*
X166600Y34734D01*
X166629Y34769D01*
X166629Y34769D01*
X166827Y35045D01*
X166999Y35269D01*
X166999Y35269D01*
X167066Y35356D01*
X167067Y35357D01*
X167067Y35357D01*
X167071Y35368D01*
X167072Y35369D01*
X167187Y35620D01*
X167187Y35620D01*
X167229Y35710D01*
X167274Y35808D01*
X167374Y36022D01*
X178006Y58672D01*
X178029Y58662D01*
X178120Y58882D01*
X178567Y59464D01*
X179149Y59911D01*
X179827Y60191D01*
X180133Y60232D01*
X180129Y60259D01*
X180129Y60259D01*
X204100Y63922D01*
X204483Y63980D01*
X204943Y64061D01*
X205025Y64072D01*
X205057Y64077D01*
X205086Y64089D01*
X205454Y64227D01*
X205458Y64228D01*
X205506Y64247D01*
X205610Y64284D01*
X205611Y64284D01*
X205686Y64319D01*
X205808Y64368D01*
X205842Y64391D01*
X206274Y64582D01*
X206756Y64952D01*
X206785Y64971D01*
X206785Y64971D01*
X206908Y65053D01*
X206908Y65053D01*
X207271Y65347D01*
X207306Y65373D01*
X207417Y65518D01*
X207491Y65605D01*
X207500Y65618D01*
X207584Y65730D01*
X207688Y65854D01*
X207689Y65856D01*
X207786Y65999D01*
X208060Y66356D01*
X208061Y66356D01*
X208061Y66356D01*
X208113Y66424D01*
X208266Y66795D01*
X208266Y66795D01*
X208269Y66801D01*
X208629Y67671D01*
X208648Y67812D01*
X208689Y68126D01*
X208728Y68422D01*
X208760Y68582D01*
X208792Y68910D01*
X208798Y68957D01*
X208804Y69001D01*
X208777Y69211D01*
X208774Y69250D01*
X208774Y69250D01*
X208772Y69262D01*
X208758Y69368D01*
X208741Y69561D01*
X208739Y69585D01*
X208723Y69661D01*
X208706Y69749D01*
X208641Y70238D01*
X208633Y70300D01*
X208425Y70802D01*
X208404Y70910D01*
X208403Y70910D01*
X208403Y70910D01*
X208340Y71044D01*
X208193Y71363D01*
X208135Y71503D01*
X208128Y71512D01*
X208056Y71606D01*
X208026Y71645D01*
X207866Y71859D01*
X207723Y72057D01*
X207679Y72112D01*
X207655Y72148D01*
X207651Y72153D01*
X207590Y72230D01*
X207582Y72241D01*
X207352Y72524D01*
X206996Y72867D01*
X189478Y90820D01*
X189479Y90833D01*
X189479Y90833D01*
X189479Y90833D01*
X189053Y91387D01*
X188772Y92065D01*
X188681Y92754D01*
X188735Y93242D01*
Y93242D01*
X188789Y93740D01*
X192892Y118894D01*
X192889Y119000D01*
X192919Y119152D01*
X192925Y119213D01*
X192931Y119239D01*
X192938Y119314D01*
X192940Y119326D01*
X192967Y119612D01*
X192983Y119731D01*
X192983Y119736D01*
X192979Y119772D01*
X192948Y120065D01*
X192925Y120179D01*
X192813Y121033D01*
X192647Y121434D01*
X192513Y121756D01*
X192497Y121835D01*
X192497Y121835D01*
X192390Y122058D01*
X192338Y122179D01*
X192315Y122235D01*
X192310Y122241D01*
X192288Y122270D01*
X192287Y122271D01*
X192217Y122362D01*
X192039Y122597D01*
X191939Y122739D01*
X191814Y122892D01*
X191754Y122983D01*
X191733Y122997D01*
X191512Y123282D01*
X191505Y123291D01*
X190433Y124114D01*
X190014Y124296D01*
X189974Y124323D01*
X189811Y124385D01*
X189636Y124462D01*
X189214Y124618D01*
X189214Y124618D01*
X189194Y124626D01*
X189109Y124637D01*
X188837Y124673D01*
X188832Y124674D01*
X188623Y124707D01*
X188607Y124704D01*
X188348Y124738D01*
X187899Y124797D01*
D02*
G37*
G36*
X166552Y126885D02*
X162524Y124653D01*
X161451Y125272D01*
X160262Y123213D01*
X159829Y123463D01*
X159579Y123030D01*
X157520Y124219D01*
X156831Y123025D01*
X156581Y122592D01*
X156331Y122159D01*
X154415Y118842D01*
X158534Y116464D01*
X159999Y119002D01*
X160333Y118958D01*
X161012Y119047D01*
X161645Y119309D01*
X162188Y119726D01*
X162580Y120238D01*
X162608Y120269D01*
X163426Y121685D01*
X164000Y121680D01*
X164699Y120420D01*
X164699Y120420D01*
X166798Y116632D01*
X170958Y118938D01*
X168652Y123098D01*
X168652Y123098D01*
X166552Y126885D01*
D02*
G37*
G36*
X158959Y126711D02*
X158020Y125085D01*
X159646Y124146D01*
X160585Y125772D01*
X158959Y126711D01*
D02*
G37*
G36*
X202326Y125182D02*
X202000Y123332D01*
X203850Y123006D01*
X204176Y124856D01*
X202326Y125182D01*
D02*
G37*
G36*
X177052Y133085D02*
X173010Y130844D01*
X172893Y130780D01*
Y130780D01*
X172854Y130378D01*
X171211Y129468D01*
X172364Y127388D01*
X171927Y127146D01*
X172169Y126708D01*
X170090Y125556D01*
X171000Y123913D01*
X171000Y123913D01*
X173100Y120125D01*
X176361Y121933D01*
X176377Y121921D01*
X177009Y121659D01*
X177688Y121569D01*
X178367Y121659D01*
X178866Y121865D01*
X178962Y121896D01*
X181366Y123229D01*
X181368Y123230D01*
X181369Y123230D01*
X181370Y123231D01*
X181391Y123249D01*
X181410Y123257D01*
X181953Y123673D01*
X182369Y124217D01*
X182632Y124849D01*
X182721Y125528D01*
X182632Y126207D01*
X182421Y126714D01*
X182392Y126805D01*
X181062Y129205D01*
X181042Y129228D01*
X181033Y129249D01*
X180617Y129793D01*
X180073Y130209D01*
X179441Y130471D01*
X178762Y130561D01*
X178473Y130523D01*
X177052Y133085D01*
D02*
G37*
G36*
X129601Y127174D02*
X124917Y126348D01*
Y126348D01*
X120652Y125596D01*
X121478Y120912D01*
X121512Y120918D01*
X121701Y120491D01*
X121788Y119999D01*
X122028Y118642D01*
X124369Y119055D01*
X124456Y118562D01*
X124949Y118649D01*
X125362Y116307D01*
X126719Y116547D01*
X127211Y116633D01*
X127703Y116720D01*
X131476Y117385D01*
X130650Y122069D01*
X130616Y122063D01*
X130419Y122536D01*
X129601Y127174D01*
D02*
G37*
G36*
X124051Y117983D02*
X122201Y117657D01*
X122527Y115808D01*
X124377Y116134D01*
X124051Y117983D01*
D02*
G37*
G36*
X195227Y126434D02*
X194425Y121883D01*
X194278Y121429D01*
X194278Y121429D01*
X194278D01*
X193452Y116745D01*
X198136Y115919D01*
Y115919D01*
X202401Y115167D01*
X203199Y119691D01*
X203350Y120172D01*
X203350D01*
X203350Y120172D01*
X203676Y122021D01*
X201334Y122434D01*
X201421Y122927D01*
X200928Y123014D01*
X201341Y125355D01*
X199492Y125681D01*
Y125681D01*
X198757Y125811D01*
X198635Y125858D01*
X198504Y125856D01*
X195227Y126434D01*
D02*
G37*
G36*
X200126Y113082D02*
X199800Y111232D01*
X201649Y110906D01*
X201976Y112756D01*
X200126Y113082D01*
D02*
G37*
G36*
X131901Y114974D02*
X127217Y114148D01*
Y114148D01*
X122952Y113396D01*
X123744Y108906D01*
X123701Y108391D01*
X123701Y108391D01*
X123702Y108391D01*
X124028Y106542D01*
X126369Y106955D01*
X126456Y106462D01*
X126949Y106549D01*
X127362Y104207D01*
X129211Y104533D01*
Y104533D01*
X133476Y105285D01*
X132684Y109775D01*
X132727Y110290D01*
X132727Y110290D01*
X132727Y110290D01*
X131901Y114974D01*
D02*
G37*
G36*
X126051Y105883D02*
X124201Y105557D01*
X124527Y103708D01*
X126377Y104034D01*
X126051Y105883D01*
D02*
G37*
G36*
X193027Y114333D02*
X192212Y109709D01*
X192201Y109650D01*
X192201D01*
X192178Y109229D01*
X192178D01*
X191352Y104545D01*
X195151Y103875D01*
X195617Y103793D01*
X196083Y103711D01*
X200301Y102967D01*
X201116Y107591D01*
X201127Y107651D01*
X201127D01*
X201150Y108072D01*
X201150D01*
X201476Y109921D01*
X199134Y110334D01*
X199221Y110827D01*
X198729Y110914D01*
X199141Y113255D01*
X197292Y113582D01*
Y113582D01*
X196557Y113711D01*
X196435Y113759D01*
X196304Y113756D01*
X193027Y114333D01*
D02*
G37*
G36*
X198026Y100882D02*
X197700Y99032D01*
X199549Y98706D01*
X199876Y100556D01*
X198026Y100882D01*
D02*
G37*
G36*
X133901Y102874D02*
X129218Y102048D01*
Y102048D01*
X124952Y101296D01*
X125778Y96612D01*
X125778Y96612D01*
X125778D01*
X125697Y96148D01*
X124283Y94734D01*
X125611Y93406D01*
X127293Y95087D01*
X128000Y94380D01*
X126318Y92699D01*
X127646Y91371D01*
X127646Y91371D01*
X130708Y88309D01*
X134071Y91672D01*
X132139Y93604D01*
X132178Y94343D01*
X132172Y94388D01*
X132217Y94734D01*
X132128Y95412D01*
X131866Y96045D01*
X131470Y96561D01*
X131449Y96593D01*
X130965Y97076D01*
X131115Y97553D01*
X134727Y98190D01*
X133901Y102874D01*
D02*
G37*
G36*
X205534Y90817D02*
X204206Y89489D01*
X205534Y88161D01*
X206862Y89489D01*
X205534Y90817D01*
D02*
G37*
G36*
X190927Y102134D02*
X190101Y97450D01*
X192977Y96943D01*
X192991Y96830D01*
X193254Y96198D01*
X193670Y95655D01*
X194213Y95238D01*
X194846Y94976D01*
X194983Y94958D01*
X195074Y94923D01*
X195516Y94845D01*
X197444Y92916D01*
X194014Y89486D01*
X197377Y86123D01*
X200439Y89186D01*
X203802Y92549D01*
X200439Y95911D01*
X199319Y94791D01*
X198651Y95458D01*
X198882Y95902D01*
X199050Y95872D01*
X199376Y97721D01*
X197034Y98134D01*
X197121Y98627D01*
X196628Y98714D01*
X197041Y101055D01*
X195192Y101382D01*
Y101382D01*
X194457Y101511D01*
X194335Y101558D01*
X194204Y101556D01*
X190927Y102134D01*
D02*
G37*
G36*
X117011Y87062D02*
X115683Y85734D01*
X117011Y84406D01*
X118339Y85734D01*
X117011Y87062D01*
D02*
G37*
G36*
X214234Y82417D02*
X212906Y81089D01*
X214234Y79761D01*
X215562Y81089D01*
X214234Y82417D01*
D02*
G37*
G36*
X122552Y93002D02*
X119189Y89639D01*
X119362Y89466D01*
X119046Y89097D01*
X117718Y87769D01*
X119400Y86087D01*
X119046Y85734D01*
X119400Y85380D01*
X117718Y83699D01*
X119046Y82371D01*
X119046Y82371D01*
X122108Y79309D01*
X125471Y82671D01*
X125298Y82845D01*
X125614Y83214D01*
X128977Y86577D01*
X125614Y89940D01*
X125614Y89940D01*
X122552Y93002D01*
D02*
G37*
G36*
X203499Y88782D02*
X202171Y87454D01*
X202171Y87454D01*
X199109Y84392D01*
X201565Y81936D01*
X201503Y81625D01*
Y80548D01*
X201604Y80040D01*
X201891Y79610D01*
X204601Y76900D01*
X205031Y76613D01*
X205539Y76512D01*
X206615D01*
X207123Y76613D01*
X207553Y76900D01*
X210263Y79610D01*
X210550Y80041D01*
X210651Y80548D01*
Y81625D01*
X210550Y82132D01*
X210524Y82171D01*
X212502Y84149D01*
X209139Y87511D01*
X209139Y87511D01*
X209139D01*
X208698Y87653D01*
X207569Y88782D01*
X205887Y87100D01*
X205534Y87454D01*
X205180Y87100D01*
X203499Y88782D01*
D02*
G37*
G36*
X108511Y77962D02*
X107183Y76634D01*
X108511Y75306D01*
X109839Y76634D01*
X108511Y77962D01*
D02*
G37*
G36*
X222534Y74017D02*
X221206Y72689D01*
X222534Y71361D01*
X223862Y72689D01*
X222534Y74017D01*
D02*
G37*
G36*
X113952Y84002D02*
X110589Y80639D01*
X110862Y80366D01*
X110546Y79997D01*
X109218Y78669D01*
X110900Y76987D01*
X110546Y76634D01*
X110900Y76280D01*
X109218Y74599D01*
X110546Y73271D01*
X110546Y73271D01*
X113608Y70209D01*
X116971Y73571D01*
X116698Y73845D01*
X117014Y74214D01*
X120377Y77577D01*
X117014Y80940D01*
X117014Y80940D01*
X113952Y84002D01*
D02*
G37*
G36*
X224569Y71982D02*
X223241Y70654D01*
X224569Y69326D01*
X225897Y70654D01*
X224569Y71982D01*
D02*
G37*
G36*
X212199Y80382D02*
X210871Y79054D01*
X210871Y79054D01*
X207809Y75992D01*
X209977Y73823D01*
X209957Y73634D01*
X209911Y73524D01*
X209933Y73470D01*
X209933Y73470D01*
X209928Y73445D01*
X209895Y73365D01*
X209806Y72686D01*
X209895Y72007D01*
X210157Y71375D01*
X210553Y70859D01*
X210574Y70827D01*
X212517Y68884D01*
X212549Y68863D01*
X213066Y68466D01*
X213698Y68204D01*
X214377Y68115D01*
X215056Y68204D01*
X215688Y68466D01*
X216204Y68862D01*
X216236Y68884D01*
X218179Y70827D01*
X218201Y70859D01*
X218597Y71375D01*
X218859Y72007D01*
X218948Y72686D01*
X218859Y73365D01*
X218730Y73676D01*
X220802Y75748D01*
X217547Y79004D01*
X217597Y79054D01*
X216269Y80382D01*
X214587Y78700D01*
X214234Y79054D01*
X213880Y78700D01*
X212199Y80382D01*
D02*
G37*
G36*
X105452Y74902D02*
X102089Y71539D01*
X105151Y68477D01*
X107701Y65927D01*
X107470Y65484D01*
X106250Y65699D01*
X105498Y61434D01*
X105498D01*
X105172Y59584D01*
X107514Y59171D01*
X109855Y58759D01*
X110108Y60189D01*
X110108D01*
X110709Y63600D01*
X112069Y64960D01*
X112080Y64948D01*
X112406Y65436D01*
X112550Y65652D01*
X112550Y65652D01*
X112637Y65991D01*
X112758Y66323D01*
X112819Y66602D01*
X112843Y66661D01*
X112934Y67352D01*
X112987Y67431D01*
X113088Y67939D01*
Y69015D01*
X112987Y69523D01*
X112700Y69953D01*
X109831Y72821D01*
X109401Y73109D01*
X108894Y73209D01*
X107321D01*
X107174Y73180D01*
X105452Y74902D01*
D02*
G37*
G36*
X102349Y67415D02*
X100214Y66638D01*
X101058Y64318D01*
X103193Y65095D01*
X102349Y67415D01*
D02*
G37*
G36*
X211589Y64183D02*
X206880Y63521D01*
X206880Y63521D01*
X206390Y63414D01*
X201904Y62783D01*
X202566Y58074D01*
X202566D01*
X203169Y53785D01*
X207878Y54447D01*
X207878Y54447D01*
X208368Y54554D01*
X210004Y54784D01*
X209673Y57139D01*
X210168Y57209D01*
X210099Y57704D01*
X212453Y58035D01*
X212192Y59895D01*
X212192D01*
X211589Y64183D01*
D02*
G37*
G36*
X99274Y66296D02*
X97140Y65519D01*
X97984Y63199D01*
X100119Y63976D01*
X99274Y66296D01*
D02*
G37*
G36*
X225209Y65553D02*
X224570Y63169D01*
X226764Y62581D01*
X227403Y64965D01*
X225209Y65553D01*
D02*
G37*
G36*
X199479Y62442D02*
X194769Y61780D01*
X194769Y61780D01*
X194286Y61627D01*
X189704Y60983D01*
X190366Y56274D01*
X190366D01*
X190969Y51985D01*
X195585Y52634D01*
X195678Y52647D01*
X195678Y52647D01*
X196034Y52782D01*
Y52782D01*
X197894Y53044D01*
X197563Y55398D01*
X198058Y55468D01*
X197988Y55963D01*
X200343Y56294D01*
X200082Y58154D01*
X200082D01*
X199479Y62442D01*
D02*
G37*
G36*
X103535Y64155D02*
X101400Y63378D01*
X102245Y61059D01*
X104379Y61836D01*
X103535Y64155D01*
D02*
G37*
G36*
X220499Y71982D02*
X219171Y70654D01*
X219171Y70654D01*
X216109Y67592D01*
X218071Y65629D01*
X218051Y65091D01*
X214014Y64524D01*
X214676Y59814D01*
X214676D01*
X215279Y55526D01*
X219988Y56188D01*
X219584Y59069D01*
X220111Y59473D01*
X220527Y60016D01*
X220768Y60597D01*
X222706Y60077D01*
X223475Y62945D01*
X224243Y65812D01*
X222286Y66336D01*
X222118Y66875D01*
X222834Y67592D01*
X222834Y67592D01*
X223862Y68619D01*
X222180Y70300D01*
X220499Y71982D01*
D02*
G37*
G36*
X100461Y63036D02*
X98326Y62259D01*
X99171Y59940D01*
X101305Y60717D01*
X100461Y63036D01*
D02*
G37*
G36*
X224311Y62203D02*
X223672Y59818D01*
X225867Y59231D01*
X226505Y61615D01*
X224311Y62203D01*
D02*
G37*
G36*
X96430Y65260D02*
X91220Y63364D01*
X93251Y57785D01*
X98460Y59681D01*
X96430Y65260D01*
D02*
G37*
G36*
X113345Y64448D02*
X112519Y59764D01*
X112519Y59764D01*
X111767Y55499D01*
X116451Y54673D01*
X116706Y56120D01*
X116857Y56172D01*
X117299Y55797D01*
X117098Y54657D01*
X118947Y54331D01*
X119360Y56673D01*
X119853Y56586D01*
X119939Y57079D01*
X122281Y56666D01*
X122608Y58515D01*
X122607D01*
X123360Y62780D01*
X118676Y63606D01*
X118232Y61091D01*
X118080Y61034D01*
X117637Y61401D01*
X118029Y63622D01*
X113345Y64448D01*
D02*
G37*
G36*
X104998Y58600D02*
X104672Y56750D01*
X106521Y56424D01*
X106848Y58274D01*
X104998Y58600D01*
D02*
G37*
G36*
X107832Y58100D02*
X107506Y56251D01*
X109356Y55924D01*
X109682Y57774D01*
X107832Y58100D01*
D02*
G37*
G36*
X212593Y57045D02*
X210733Y56783D01*
X210994Y54923D01*
X212854Y55185D01*
X212593Y57045D01*
D02*
G37*
G36*
X125771Y62355D02*
X125019Y58090D01*
X124193Y53406D01*
X128720Y52608D01*
X128877Y52580D01*
D01*
X129193Y52606D01*
X129193Y52606D01*
X131043Y52280D01*
X131456Y54622D01*
X131948Y54535D01*
X132035Y55028D01*
X134377Y54615D01*
X134703Y56464D01*
X134703D01*
X135455Y60729D01*
X130928Y61527D01*
X130771Y61555D01*
D01*
X130455Y61529D01*
X130455Y61529D01*
X125771Y62355D01*
D02*
G37*
G36*
X120258Y56007D02*
X119932Y54158D01*
X121782Y53831D01*
X122108Y55681D01*
X120258Y56007D01*
D02*
G37*
G36*
X187279Y60642D02*
X182569Y59980D01*
X182919Y57495D01*
X181914Y56490D01*
X181626Y56060D01*
X181526Y55552D01*
Y53902D01*
X181104Y53633D01*
X177776Y55185D01*
X175766Y50875D01*
X180076Y48865D01*
X180076Y48865D01*
X184001Y47035D01*
X185983Y51284D01*
X188544Y51644D01*
X188282Y53504D01*
X185927Y53173D01*
X185788Y54163D01*
X188143Y54494D01*
X187882Y56354D01*
X187882D01*
X187279Y60642D01*
D02*
G37*
G36*
X200482Y55304D02*
X198623Y55042D01*
X198884Y53183D01*
X200744Y53444D01*
X200482Y55304D01*
D02*
G37*
G36*
X132354Y53956D02*
X132027Y52106D01*
X133877Y51780D01*
X134203Y53630D01*
X132354Y53956D01*
D02*
G37*
G36*
X137866Y60304D02*
X137197Y56505D01*
X137114Y56039D01*
X137114D01*
X136288Y51355D01*
X139711Y50752D01*
X139758Y50398D01*
X139969Y49945D01*
X140551Y48696D01*
X142706Y49701D01*
X142918Y49248D01*
X143371Y49459D01*
X144376Y47304D01*
X146078Y48098D01*
X146078Y48098D01*
X150003Y49928D01*
X147993Y54238D01*
X146061Y53338D01*
X144913Y53951D01*
X143248Y54456D01*
X142130Y54566D01*
X142126Y54569D01*
X141779Y55103D01*
X142550Y59478D01*
X137866Y60304D01*
D02*
G37*
G36*
X142676Y48583D02*
X140974Y47790D01*
X141767Y46088D01*
X143469Y46881D01*
X142676Y48583D01*
D02*
G37*
G36*
X174731Y48656D02*
X172767Y44444D01*
X172721Y44345D01*
X172721D01*
X172676Y43985D01*
X172466Y43536D01*
X170666Y39675D01*
X174976Y37665D01*
X174976Y37665D01*
X178901Y35835D01*
X180911Y40145D01*
X180911Y40145D01*
X181022Y40645D01*
X181750Y42207D01*
X179595Y43212D01*
X179806Y43665D01*
X179353Y43877D01*
X180358Y46032D01*
X178656Y46825D01*
Y46825D01*
X174731Y48656D01*
D02*
G37*
G36*
X181264Y45609D02*
X180471Y43907D01*
X182173Y43113D01*
X182966Y44815D01*
X181264Y45609D01*
D02*
G37*
G36*
X151038Y47709D02*
X146727Y45699D01*
X146727Y45699D01*
X142802Y43868D01*
X144812Y39558D01*
X144812Y39558D01*
X145117Y39149D01*
X145864Y37548D01*
X148019Y38553D01*
X148230Y38100D01*
X148683Y38311D01*
X149688Y36156D01*
X151390Y36949D01*
Y36949D01*
X155315Y38780D01*
X153305Y43090D01*
X153305Y43090D01*
X153000Y43499D01*
X151038Y47709D01*
D02*
G37*
G36*
X147988Y37435D02*
X146286Y36641D01*
X147080Y34939D01*
X148782Y35733D01*
X147988Y37435D01*
D02*
G37*
G36*
X169631Y37456D02*
X167707Y33329D01*
X167476Y32885D01*
X167476D01*
X167476Y32885D01*
X165466Y28575D01*
X169776Y26565D01*
X169776Y26565D01*
X173701Y24735D01*
X175629Y28869D01*
X175856Y29305D01*
X175856Y29305D01*
X175856Y29305D01*
X176650Y31007D01*
X174495Y32012D01*
X174706Y32465D01*
X174253Y32677D01*
X175258Y34832D01*
X173556Y35625D01*
Y35625D01*
X169631Y37456D01*
D02*
G37*
G36*
X176164Y34409D02*
X175371Y32707D01*
X177073Y31913D01*
X177866Y33615D01*
X176164Y34409D01*
D02*
G37*
G36*
X170964Y23309D02*
X170171Y21607D01*
X171873Y20813D01*
X172666Y22515D01*
X170964Y23309D01*
D02*
G37*
G36*
X156350Y36560D02*
X152040Y34550D01*
X152040Y34550D01*
X148115Y32720D01*
X150125Y28410D01*
X150285Y28484D01*
X150572Y28067D01*
X151351Y26396D01*
X153506Y27401D01*
X153929Y26495D01*
X151774Y25490D01*
X152567Y23788D01*
X154877Y24865D01*
X155300Y24510D01*
Y23922D01*
X155589Y23224D01*
X155778Y23035D01*
X155691Y22543D01*
X153602Y21568D01*
X155612Y17258D01*
X159923Y19268D01*
X159923Y19268D01*
X161326Y19922D01*
X161713Y19551D01*
X161600Y19278D01*
Y18522D01*
X161677Y18337D01*
X161399Y17921D01*
X159832D01*
Y15650D01*
X165769D01*
Y17921D01*
X165601D01*
X165323Y18337D01*
X165400Y18522D01*
Y18637D01*
X166460Y19697D01*
X166697Y20051D01*
X166731Y20035D01*
Y20035D01*
X168048Y19421D01*
X169053Y21577D01*
X170058Y23732D01*
X168356Y24525D01*
Y24525D01*
X164668Y26245D01*
X164700Y26322D01*
Y27078D01*
X164411Y27776D01*
X163876Y28311D01*
X163300Y28549D01*
Y26700D01*
X162300D01*
Y28549D01*
X161724Y28311D01*
X161255Y27842D01*
X160902Y27832D01*
X160688Y27873D01*
X160643Y27970D01*
X158793Y31938D01*
X158633Y31864D01*
X158360Y32250D01*
X158149Y32703D01*
X156350Y36560D01*
D02*
G37*
G36*
X169748Y20701D02*
X168954Y18999D01*
X170656Y18205D01*
X171450Y19907D01*
X169748Y20701D01*
D02*
G37*
G36*
X165769Y14650D02*
X163300D01*
Y12378D01*
X165769D01*
Y14650D01*
D02*
G37*
G36*
X162300D02*
X159832D01*
Y12378D01*
X162300D01*
Y14650D01*
D02*
G37*
%LPD*%
D13*
X163500Y18900D02*
X165379Y20779D01*
Y22993D02*
X165581Y23196D01*
X165379Y20779D02*
Y22993D01*
X162800Y5200D02*
Y8850D01*
X162700Y5100D02*
X162800Y5200D01*
D15*
X157643Y28778D02*
D03*
X160687Y22249D02*
D03*
X156762Y20418D02*
D03*
X153718Y26948D02*
D03*
X146843Y51078D02*
D03*
X149887Y44548D02*
D03*
X145962Y42718D02*
D03*
X142918Y49248D02*
D03*
X152155Y39930D02*
D03*
X155200Y33400D02*
D03*
X151275Y31570D02*
D03*
X148230Y38100D02*
D03*
D16*
X94840Y61523D02*
D03*
X100760Y63677D02*
D03*
D17*
X162800Y8850D02*
D03*
X162800Y15150D02*
D03*
D18*
X230042Y61185D02*
D03*
X223958Y62815D02*
D03*
D19*
X204575Y145628D02*
D03*
X201425Y140172D02*
D03*
D20*
X120793Y145180D02*
D03*
X124407Y140020D02*
D03*
D21*
X169506Y21365D02*
D03*
X172551Y27895D02*
D03*
X168626Y29725D02*
D03*
X165581Y23196D02*
D03*
X175881Y45496D02*
D03*
X178926Y52025D02*
D03*
X182851Y50195D02*
D03*
X179806Y43665D02*
D03*
X170781Y34295D02*
D03*
X173826Y40825D02*
D03*
X177751Y38995D02*
D03*
X174706Y32465D02*
D03*
D22*
X185858Y53668D02*
D03*
X192992Y54671D02*
D03*
X192390Y58959D02*
D03*
X185255Y57957D02*
D03*
X197455Y59757D02*
D03*
X204590Y60759D02*
D03*
X205192Y56471D02*
D03*
X198058Y55468D02*
D03*
X210168Y57209D02*
D03*
X217303Y58211D02*
D03*
X216700Y62500D02*
D03*
X209565Y61497D02*
D03*
D23*
X219472Y67592D02*
D03*
X214377Y72686D02*
D03*
X217439Y75748D02*
D03*
X222534Y70654D02*
D03*
X214234Y79054D02*
D03*
X209139Y84149D02*
D03*
X206077Y81086D02*
D03*
X211172Y75992D02*
D03*
X202471Y84392D02*
D03*
X197377Y89486D02*
D03*
X200439Y92549D02*
D03*
X205534Y87454D02*
D03*
D24*
X197121Y98627D02*
D03*
X198372Y105722D02*
D03*
X194107Y106474D02*
D03*
X192856Y99379D02*
D03*
X194956Y111579D02*
D03*
X196207Y118674D02*
D03*
X200472Y117922D02*
D03*
X199221Y110827D02*
D03*
X201421Y122927D02*
D03*
X202672Y130022D02*
D03*
X198407Y130774D02*
D03*
X197156Y123679D02*
D03*
D25*
X195126Y135658D02*
D03*
X188825Y132165D02*
D03*
X186726Y135953D02*
D03*
X193027Y139446D02*
D03*
X182427Y133346D02*
D03*
X176126Y129853D02*
D03*
X178225Y126065D02*
D03*
X184527Y129558D02*
D03*
X174027Y123358D02*
D03*
X167725Y119865D02*
D03*
X165626Y123653D02*
D03*
X171927Y127146D02*
D03*
D26*
X159829Y123463D02*
D03*
X153590Y127065D02*
D03*
X151424Y123315D02*
D03*
X157664Y119712D02*
D03*
X146964Y126112D02*
D03*
X140724Y129715D02*
D03*
X142890Y133465D02*
D03*
X149129Y129863D02*
D03*
X138329Y135763D02*
D03*
X132090Y139365D02*
D03*
X129924Y135615D02*
D03*
X136164Y132012D02*
D03*
D27*
X126421Y131514D02*
D03*
X127672Y124419D02*
D03*
X123407Y123667D02*
D03*
X122156Y130762D02*
D03*
X124456Y118562D02*
D03*
X125707Y111467D02*
D03*
X129972Y112219D02*
D03*
X128721Y119314D02*
D03*
X130721Y107214D02*
D03*
X131972Y100119D02*
D03*
X127707Y99367D02*
D03*
X126456Y106462D02*
D03*
D28*
X130708Y91672D02*
D03*
X125614Y86577D02*
D03*
X122552Y89639D02*
D03*
X127646Y94734D02*
D03*
X122108Y82671D02*
D03*
X117014Y77577D02*
D03*
X113952Y80639D02*
D03*
X119046Y85734D02*
D03*
X113608Y73571D02*
D03*
X108514Y68477D02*
D03*
X105452Y71539D02*
D03*
X110546Y76634D02*
D03*
D29*
X108179Y62944D02*
D03*
X115274Y61693D02*
D03*
X114522Y57428D02*
D03*
X107427Y58679D02*
D03*
X120605Y60851D02*
D03*
X127700Y59600D02*
D03*
X126948Y55335D02*
D03*
X119853Y56586D02*
D03*
X132700Y58800D02*
D03*
X139795Y57549D02*
D03*
X139043Y53284D02*
D03*
X131948Y54535D02*
D03*
D45*
X203807Y84203D02*
X203906Y84168D01*
X111415Y66609D02*
X111658Y67834D01*
X111132Y65897D02*
X111372Y66427D01*
X111415Y66609D02*
X111372Y66427D01*
X126628Y131600D02*
X126421Y131514D01*
X133100Y136273D02*
X133102Y136229D01*
X133072Y135821D02*
X133102Y136229D01*
X125451Y132438D02*
X125339Y132596D01*
X133100Y136926D02*
X133017Y137677D01*
X132773Y138392D01*
X219419Y66120D02*
X219414Y66063D01*
X219308Y63252D02*
X219313Y63151D01*
X218406Y60036D02*
X218068Y59868D01*
X218436Y60040D02*
X219188Y60421D01*
X219548Y61184D01*
X217933Y59733D02*
X217466Y59035D01*
X217303Y58211D01*
X219548Y61184D02*
X219544Y61509D01*
X200430Y133461D02*
X199692Y134108D01*
X198876Y134653D01*
X197996Y135087D01*
X197068Y135402D01*
X196105Y135594D01*
X195126Y135658D01*
X155659Y30374D02*
X155106Y30401D01*
X156797Y29573D02*
X155659Y30374D01*
X152899Y31416D02*
X152506Y31482D01*
X153354Y31021D02*
X154089Y30347D01*
X155085Y30391D01*
X153330Y31074D02*
X152899Y31416D01*
X151322Y40730D02*
X150291Y41486D01*
X148046Y42162D02*
X148764Y41500D01*
X149741Y41526D01*
X147595Y42555D02*
X147195Y42625D01*
X148045Y42162D02*
X148043Y42168D01*
X148019Y42218D02*
X147595Y42555D01*
X150291Y41486D02*
X149741Y41526D01*
X146843Y51078D02*
X146102Y51728D01*
X145283Y52275D01*
X144399Y52711D01*
X143466Y53027D01*
X142500Y53220D01*
X141517Y53284D01*
X130997Y57421D02*
X131489Y57589D01*
X129532Y56256D02*
X129532Y56256D01*
X129187Y55809D02*
X129532Y56256D01*
X130997Y57421D02*
X130060Y57179D01*
X129550Y56357D01*
X128068Y55450D02*
X129187Y55809D01*
X118901Y59472D02*
X119394Y59640D01*
X115642Y57526D02*
X116390Y57706D01*
X117111Y57973D01*
X117455Y58412D01*
X118901Y59472D02*
X117966Y59231D01*
X117455Y58412D01*
X113952Y76760D02*
X113894Y77013D01*
X113894Y78142D02*
X113952Y78394D01*
X113867Y74837D02*
X113952Y75141D01*
X113894Y78142D02*
X113894Y77013D01*
X113608Y73571D02*
X113952Y74400D01*
X122494Y87142D02*
X122552Y87394D01*
Y85760D02*
X122494Y86013D01*
X122430Y83874D02*
X122552Y84233D01*
X122494Y87142D02*
X122494Y86013D01*
X122108Y82671D02*
X122552Y83741D01*
X130855Y94413D02*
X130511Y95656D01*
X130791Y93221D02*
X130791Y93222D01*
X130778Y93127D02*
X130791Y93221D01*
X127899Y98298D02*
X127969Y98126D01*
X128568Y97599D02*
X128238Y97840D01*
X127969Y98126D02*
X128238Y97840D01*
X128694Y109241D02*
X128458Y109385D01*
X128695Y109240D02*
X128694Y109241D01*
X129621Y108314D02*
X129620Y108315D01*
X129742Y108136D02*
X129621Y108314D01*
X127616Y110227D02*
X128458Y109385D01*
X127008Y110927D02*
X127007Y110929D01*
X127616Y110227D02*
X127467Y110468D01*
X127007Y110929D02*
X125707Y111467D01*
X127624Y120411D02*
X127624Y120412D01*
X127744Y120237D02*
X127624Y120411D01*
X125274Y122598D02*
X125637Y121901D01*
X126336Y121541D01*
X125272Y122610D02*
X125105Y122930D01*
X125052Y122983D02*
X125048Y122987D01*
X126664Y121371D02*
X126336Y121541D01*
X125048Y122987D02*
X124295Y123490D01*
X123407Y123667D01*
X141612Y133408D02*
X141359Y133465D01*
X140436D02*
X139934Y133189D01*
X138181Y132756D02*
X139145Y132618D01*
X139934Y133189D01*
X137946Y132892D02*
X137377Y132903D01*
X137947Y132891D02*
X137946Y132892D01*
X137377Y132903D02*
X137074Y132731D01*
X152314Y127011D02*
X152069Y127065D01*
X150776D02*
X150417Y126944D01*
X148976Y126859D02*
X149710Y126683D01*
X150417Y126944D01*
X148898Y126904D02*
X148457Y126963D01*
X148899Y126903D02*
X148898Y126904D01*
X148457Y126963D02*
X147950Y126788D01*
X164206Y123548D02*
X164404Y123617D01*
X163017Y123296D02*
X162667Y123023D01*
X164206Y123548D02*
X163017Y123296D01*
X159182Y120744D02*
X158765Y120810D01*
X159183Y120743D02*
X159182Y120744D01*
X159679Y120457D02*
X160668Y120324D01*
X161460Y120932D01*
X180724Y124388D02*
X181348Y125170D01*
X181233Y126163D01*
X180724Y124388D02*
X180724Y124388D01*
X176126Y128425D02*
X176814Y128345D01*
X176550Y123563D02*
X177330Y122942D01*
X178320Y123056D01*
X176550Y123564D02*
X176550Y123563D01*
X174773Y124235D02*
X174992Y124557D01*
X176017Y124524D02*
X174992Y124557D01*
X179903Y128562D02*
X179124Y129187D01*
X178132Y129075D01*
X186709Y134366D02*
X186724Y134720D01*
X185275Y130431D02*
X185880Y131406D01*
X186322Y133839D02*
X185702Y133058D01*
X185818Y132067D01*
X185880Y131406D02*
X185873Y131967D01*
X186405Y133885D02*
X186709Y134366D01*
X200366Y119035D02*
X200025Y120174D01*
X199588Y120531D01*
X198535Y121974D02*
X198765Y121056D01*
X199556Y120537D01*
X198535Y121974D02*
X198362Y122473D01*
X196165Y110370D02*
X196164Y110371D01*
X196335Y109874D02*
X196165Y110370D01*
X198266Y106835D02*
X197883Y108072D01*
X196335Y109874D02*
X196578Y108938D01*
X197399Y108429D01*
X197883Y108072D02*
X197435Y108422D01*
X199154Y93081D02*
X200439Y92549D01*
X195973Y96110D02*
X195973Y96110D01*
X196291Y95944D02*
X195973Y96110D01*
X194068Y98167D02*
X194067Y98168D01*
X194235Y97674D02*
X194068Y98167D01*
X194235Y97674D02*
X194479Y96736D01*
X195304Y96228D01*
X202471Y84392D02*
X203059Y84149D01*
X215951Y75114D02*
X216124Y74726D01*
X217242Y71764D02*
X217626Y72687D01*
X217241Y73609D01*
X213455Y69821D02*
X214377Y69437D01*
X215299Y69821D01*
X211268Y74434D02*
X211249Y74545D01*
X211263Y73262D02*
X211146Y72473D01*
X211511Y71764D01*
X211263Y73262D02*
X211321Y73564D01*
X202828Y81625D02*
X204406Y83203D01*
X203906Y84168D02*
X204016D01*
X208981Y81969D02*
Y82466D01*
X209139Y82624D01*
X205539Y77837D02*
X206615D01*
X209326Y80548D01*
X204406Y83203D02*
Y83777D01*
X202828Y80548D02*
Y81625D01*
X209326Y80548D02*
Y81625D01*
X207950Y83813D02*
X209139Y82624D01*
X202828Y80548D02*
X205539Y77837D01*
X204016Y84168D02*
X204406Y83777D01*
X208981Y81969D02*
X209326Y81625D01*
X207312Y58590D02*
Y58920D01*
X207446Y59054D02*
Y59378D01*
X209565Y61497D01*
X207312Y58920D02*
X207446Y59054D01*
X205192Y56471D02*
X207312Y58590D01*
X197455Y59641D02*
Y59757D01*
X195246Y57132D02*
Y57432D01*
X197455Y59641D01*
X192992Y54878D02*
X195246Y57132D01*
X176019Y43116D02*
Y45357D01*
Y43116D02*
X177751Y41384D01*
X175881Y45496D02*
X176019Y45357D01*
X171166Y31670D02*
Y33911D01*
Y31670D02*
X172551Y30284D01*
X106976Y71539D02*
X107321Y71884D01*
X108894D01*
X111763Y67939D02*
Y69015D01*
X105452Y71539D02*
X106976D01*
X108894Y71884D02*
X111763Y69015D01*
X111658Y67834D02*
X111763Y67939D01*
X108179Y62944D02*
X111132Y65897D01*
X130282Y131730D02*
X132407Y133422D01*
X132553Y133568D02*
X132592Y133736D01*
X133072Y135821D01*
X130118Y131600D02*
X130282Y131730D01*
X132407Y133422D02*
X132553Y133568D01*
X126628Y131600D02*
X130118D01*
X133100Y136273D02*
Y136273D01*
Y136926D01*
X125451Y132438D02*
X126421Y131514D01*
X131311Y140173D02*
X132090Y139365D01*
X132773Y138392D01*
X219419Y66120D02*
X219472Y67592D01*
X219419Y66120D02*
Y66120D01*
X219308Y63252D02*
X219414Y66063D01*
X219313Y63151D02*
X219544Y61509D01*
X218406Y60036D02*
X218436Y60040D01*
X218068Y59868D02*
X218068Y59868D01*
X217933Y59733D02*
X218068Y59868D01*
X195126Y135658D02*
X195223Y136944D01*
X200430Y133461D02*
X202672Y131219D01*
X155085Y30391D02*
X155106Y30401D01*
X156797Y29573D02*
X157380Y29041D01*
X151275Y31570D02*
X152506Y31482D01*
X153330Y31074D02*
X153354Y31021D01*
X157380Y29041D02*
X157643Y28778D01*
X151322Y40730D02*
X151774Y40311D01*
X145962Y42718D02*
X147195Y42625D01*
X148045Y42162D02*
X148046Y42162D01*
X148019Y42218D02*
X148043Y42168D01*
X151774Y40311D02*
X152155Y39930D01*
X139043Y53284D02*
X141517D01*
X131489Y57589D02*
X131545Y57909D01*
X129532Y56256D02*
X129550Y56357D01*
X129532Y56256D02*
X129532Y56256D01*
X128063Y55451D02*
X128068Y55450D01*
X131545Y57909D02*
X132700Y58800D01*
X126948Y55335D02*
X128063Y55451D01*
X119394Y59640D02*
X119450Y59960D01*
X115642Y57526D02*
X115642D01*
X115634Y57528D02*
X115642Y57526D01*
X119450Y59960D02*
X120605Y60851D01*
X114522Y57428D02*
X115634Y57528D01*
X113952Y78394D02*
Y80639D01*
Y78394D02*
Y78394D01*
Y75141D02*
Y76760D01*
Y75141D02*
Y75141D01*
X113867Y74837D02*
X113952Y74400D01*
X122552Y87394D02*
Y89639D01*
Y87394D02*
Y87394D01*
X122430Y83874D02*
X122552Y83741D01*
Y84233D02*
Y85760D01*
Y84233D02*
Y84233D01*
X130791Y93222D02*
X130855Y94413D01*
X130791Y93221D02*
X130791Y93222D01*
X127898Y98306D02*
X127899Y98298D01*
X128568Y97599D02*
X130511Y95656D01*
X127707Y99367D02*
X127898Y98306D01*
X130708Y91672D02*
X130778Y93127D01*
X129620Y108315D02*
X129621Y108314D01*
X128695Y109240D02*
X129620Y108315D01*
X128694Y109241D02*
X128695Y109240D01*
X129742Y108136D02*
X130721Y107214D01*
X129742Y108136D02*
X129742Y108136D01*
X127008Y110927D02*
X127467Y110468D01*
X127744Y120237D02*
X128721Y119314D01*
X127744Y120237D02*
X127744Y120237D01*
X126664Y121371D02*
X127624Y120412D01*
X127624Y120411D01*
X125272Y122610D02*
X125274Y122598D01*
X125052Y122983D02*
X125105Y122930D01*
X140436Y133465D02*
X141359D01*
X140436D02*
X140436D01*
X137947Y132891D02*
X138181Y132756D01*
X137946Y132892D02*
X137947Y132891D01*
X136164Y132012D02*
X137074Y132731D01*
X141612Y133408D02*
X142890Y133465D01*
X152314Y127011D02*
X153590Y127065D01*
X152314Y127011D02*
X152314D01*
X150776Y127065D02*
X152069D01*
X150776D02*
X150776D01*
X150417Y126944D02*
Y126944D01*
X148899Y126903D02*
X148976Y126859D01*
X148898Y126904D02*
X148899Y126903D01*
X146964Y126112D02*
X147950Y126788D01*
X164404Y123617D02*
X164411Y123620D01*
X163017Y123296D02*
X163017Y123296D01*
X158761Y120809D02*
X158765Y120810D01*
X159183Y120743D02*
X159679Y120457D01*
X159182Y120744D02*
X159183Y120743D01*
X161460Y120932D02*
X162667Y123023D01*
X164411Y123620D02*
X165626Y123653D01*
X157664Y119712D02*
X158761Y120809D01*
X176927Y128407D02*
X178132Y129075D01*
X176814Y128345D02*
X176927Y128407D01*
X180724Y124388D02*
X180724Y124388D01*
X178320Y123056D02*
X180724Y124388D01*
X176126Y128425D02*
Y129853D01*
Y128425D02*
Y128425D01*
X176126Y128425D02*
X176126Y128425D01*
X176017Y124524D02*
X176550Y123564D01*
X176550Y123563D01*
X174027Y123358D02*
X174773Y124235D01*
X179903Y128562D02*
X181233Y126163D01*
X186724Y134720D02*
X186726Y134867D01*
X184527Y129558D02*
X185275Y130431D01*
X185818Y132067D02*
X185873Y131967D01*
X186322Y133839D02*
X186405Y133885D01*
X186726Y134867D02*
Y135953D01*
X195221Y136948D02*
X195223Y136944D01*
X200366Y119035D02*
X200472Y117922D01*
X199556Y120537D02*
X199588Y120531D01*
X198217Y123492D02*
X198405Y124553D01*
X198086Y122748D02*
X198217Y123492D01*
X198086Y122748D02*
X198362Y122473D01*
X197156Y123679D02*
X198405Y124553D01*
X198266Y106835D02*
X198372Y105722D01*
X196018Y111392D02*
X196205Y112453D01*
X195886Y110648D02*
X196018Y111392D01*
X196164Y110371D02*
X196165Y110370D01*
X195886Y110648D02*
X196164Y110371D01*
X197399Y108429D02*
X197435Y108422D01*
X194956Y111579D02*
X196205Y112453D01*
X195973Y96110D02*
X195973Y96110D01*
X195304Y96228D02*
X195973Y96110D01*
X196291Y95944D02*
X199154Y93081D01*
X193918Y99192D02*
X194105Y100253D01*
X193786Y98448D02*
X193918Y99192D01*
X193786Y98448D02*
X194067Y98168D01*
X194068Y98167D01*
X192856Y99379D02*
X194105Y100253D01*
X203059Y84149D02*
X203807Y84203D01*
X207950Y83813D02*
X209139Y84149D01*
X215951Y75114D02*
X216250Y75413D01*
X215951Y75114D02*
X215951Y75114D01*
X216124Y74726D02*
X216270Y74580D01*
X217241Y73609D01*
X217242Y71764D02*
X217242Y71764D01*
X215299Y69821D02*
X217242Y71764D01*
X211511Y71764D02*
X213455Y69821D01*
X211249Y74545D02*
X212696Y75992D01*
X211268Y74434D02*
Y74434D01*
Y74434D02*
X211321Y73564D01*
X211172Y75992D02*
X212696D01*
X216250Y75413D02*
X217439Y75748D01*
X192992Y54671D02*
Y54878D01*
X182851Y50195D02*
Y55552D01*
X185255Y57957D01*
X177751Y38995D02*
Y41384D01*
X158726Y22791D02*
X160145D01*
X157200Y24300D02*
X157217D01*
X160145Y22791D02*
X160687Y22249D01*
X157217Y24300D02*
X158726Y22791D01*
X170781Y34295D02*
X171166Y33911D01*
X172551Y27895D02*
Y30284D01*
D46*
X120744Y145130D02*
D03*
X94790Y61473D02*
D03*
X192390Y58959D02*
D03*
X204590Y60759D02*
D03*
X157200Y24300D02*
D03*
X149887Y44548D02*
D03*
X139795Y57549D02*
D03*
X127700Y59600D02*
D03*
X115274Y61693D02*
D03*
X108414Y68577D02*
D03*
X117014Y77377D02*
D03*
X125414Y86577D02*
D03*
X131972Y100119D02*
D03*
X129972Y112219D02*
D03*
X127672Y124419D02*
D03*
X129924Y135615D02*
D03*
X140724Y129715D02*
D03*
X151424Y123315D02*
D03*
X167725Y119865D02*
D03*
X178225Y126065D02*
D03*
X188825Y132165D02*
D03*
X204575Y145628D02*
D03*
X198407Y130774D02*
D03*
X196207Y118674D02*
D03*
X194107Y106474D02*
D03*
X197377Y89486D02*
D03*
X206077Y81086D02*
D03*
X214377Y72686D02*
D03*
X216690Y62459D02*
D03*
X230042Y61185D02*
D03*
X178926Y51825D02*
D03*
X173826Y40825D02*
D03*
X155200Y33400D02*
D03*
X168626Y29725D02*
D03*
X162800Y26700D02*
D03*
X163500Y18900D02*
D03*
X162700Y5100D02*
D03*
M02*
