G04*
G04 #@! TF.GenerationSoftware,Altium Limited,Altium Designer,22.10.1 (41)*
G04*
G04 Layer_Color=32768*
%FSLAX25Y25*%
%MOIN*%
G70*
G04*
G04 #@! TF.SameCoordinates,0AD24C9F-CA8A-4173-ACEB-545809BFA2C4*
G04*
G04*
G04 #@! TF.FilePolarity,Positive*
G04*
G01*
G75*
%ADD52C,0.00197*%
D52*
X97160Y64357D02*
X98440Y60843D01*
X96043Y61960D02*
X99557Y63240D01*
X91241Y63355D02*
X102339Y67395D01*
X93261Y57806D02*
X104359Y61845D01*
X91241Y63355D02*
X93261Y57806D01*
X102339Y67395D02*
X104359Y61845D01*
X160930Y12000D02*
X164670D01*
X162800Y13870D02*
X162800Y10130D01*
X159847Y6095D02*
Y17906D01*
X165753Y6095D02*
X165753Y17906D01*
X159847Y6095D02*
X165753D01*
X159847Y17906D02*
X165753D01*
X226516Y60194D02*
X227484Y63806D01*
X225194Y62484D02*
X228806Y61516D01*
X220532Y60676D02*
X231940Y57619D01*
X222060Y66381D02*
X233469Y63324D01*
X231940Y57619D02*
X233469Y63324D01*
X220532Y60676D02*
X222060Y66381D01*
X201380Y143835D02*
X204620Y141965D01*
X202065Y141280D02*
X203935Y144520D01*
X202604Y136309D02*
X208510Y146538D01*
X197490Y139262D02*
X203396Y149491D01*
X208510Y146538D01*
X197490Y139262D02*
X202604Y136309D01*
X121068Y141527D02*
X124132Y143673D01*
X121527Y144132D02*
X123673Y141068D01*
X121632Y149131D02*
X128406Y139456D01*
X116794Y145744D02*
X123568Y136069D01*
X116794Y145744D02*
X121632Y149131D01*
X123568Y136069D02*
X128406Y139456D01*
M02*
