G04*
G04 #@! TF.GenerationSoftware,Altium Limited,Altium Designer,22.10.1 (41)*
G04*
G04 Layer_Color=128*
%FSLAX25Y25*%
%MOIN*%
G70*
G04*
G04 #@! TF.SameCoordinates,0AD24C9F-CA8A-4173-ACEB-545809BFA2C4*
G04*
G04*
G04 #@! TF.FilePolarity,Positive*
G04*
G01*
G75*
%ADD12C,0.00200*%
D12*
X120343Y145130D02*
X121143D01*
X120744Y144730D02*
Y145530D01*
X94390Y61473D02*
X95190D01*
X94790Y61073D02*
Y61873D01*
X191990Y58959D02*
X192790D01*
X192390Y58559D02*
Y59359D01*
X204190Y60759D02*
X204990D01*
X204590Y60359D02*
Y61159D01*
X156800Y24300D02*
X157600D01*
X157200Y23900D02*
Y24700D01*
X149487Y44548D02*
X150287D01*
X149887Y44148D02*
Y44949D01*
X139395Y57549D02*
X140195D01*
X139795Y57149D02*
Y57949D01*
X127300Y59600D02*
X128100D01*
X127700Y59200D02*
Y60000D01*
X114874Y61693D02*
X115674D01*
X115274Y61293D02*
Y62093D01*
X108014Y68577D02*
X108814D01*
X108414Y68177D02*
Y68977D01*
X116614Y77377D02*
X117414D01*
X117014Y76977D02*
Y77777D01*
X125014Y86577D02*
X125814D01*
X125414Y86177D02*
Y86977D01*
X131572Y100119D02*
X132372D01*
X131972Y99719D02*
Y100519D01*
X129572Y112219D02*
X130372D01*
X129972Y111819D02*
Y112619D01*
X127272Y124419D02*
X128072D01*
X127672Y124019D02*
Y124819D01*
X129524Y135615D02*
X130324D01*
X129924Y135215D02*
Y136015D01*
X140324Y129715D02*
X141124D01*
X140724Y129315D02*
Y130115D01*
X151024Y123315D02*
X151824D01*
X151424Y122915D02*
Y123715D01*
X167325Y119865D02*
X168125D01*
X167725Y119465D02*
Y120265D01*
X177825Y126065D02*
X178625D01*
X178225Y125665D02*
Y126465D01*
X188425Y132165D02*
X189225D01*
X188825Y131765D02*
Y132565D01*
X204175Y145628D02*
X204975D01*
X204575Y145228D02*
Y146028D01*
X198007Y130774D02*
X198807D01*
X198407Y130374D02*
Y131174D01*
X195807Y118674D02*
X196607D01*
X196207Y118274D02*
Y119074D01*
X193707Y106474D02*
X194507D01*
X194107Y106074D02*
Y106874D01*
X196977Y89486D02*
X197777D01*
X197377Y89086D02*
Y89886D01*
X205677Y81086D02*
X206477D01*
X206077Y80686D02*
Y81486D01*
X213977Y72686D02*
X214777D01*
X214377Y72286D02*
Y73086D01*
X216290Y62459D02*
X217090D01*
X216690Y62059D02*
Y62859D01*
X229642Y61185D02*
X230442D01*
X230042Y60785D02*
Y61585D01*
X178526Y51825D02*
X179326D01*
X178926Y51425D02*
Y52225D01*
X173426Y40825D02*
X174226D01*
X173826Y40425D02*
Y41225D01*
X154800Y33400D02*
X155600D01*
X155200Y33000D02*
Y33800D01*
X168226Y29725D02*
X169026D01*
X168626Y29325D02*
Y30125D01*
X162400Y26700D02*
X163200D01*
X162800Y26300D02*
Y27100D01*
X163100Y18900D02*
X163900D01*
X163500Y18500D02*
Y19300D01*
X162300Y5100D02*
X163100D01*
X162700Y4700D02*
Y5500D01*
M02*
