G04*
G04 #@! TF.GenerationSoftware,Altium Limited,Altium Designer,22.10.1 (41)*
G04*
G04 Layer_Physical_Order=2*
G04 Layer_Color=16711680*
%FSLAX25Y25*%
%MOIN*%
G70*
G04*
G04 #@! TF.SameCoordinates,0AD24C9F-CA8A-4173-ACEB-545809BFA2C4*
G04*
G04*
G04 #@! TF.FilePolarity,Positive*
G04*
G01*
G75*
%ADD13C,0.01000*%
%ADD46C,0.01800*%
%ADD47C,0.00800*%
G04:AMPARAMS|DCode=48|XSize=50mil|YSize=60mil|CornerRadius=0mil|HoleSize=0mil|Usage=FLASHONLY|Rotation=90.000|XOffset=0mil|YOffset=0mil|HoleType=Round|Shape=Octagon|*
%AMOCTAGOND48*
4,1,8,-0.03000,-0.01250,-0.03000,0.01250,-0.01750,0.02500,0.01750,0.02500,0.03000,0.01250,0.03000,-0.01250,0.01750,-0.02500,-0.01750,-0.02500,-0.03000,-0.01250,0.0*
%
%ADD48OCTAGOND48*%

D13*
X204575Y145628D02*
Y147528D01*
Y145628D02*
X206475D01*
X202675D02*
X204575D01*
Y143728D02*
Y145628D01*
X212477Y72686D02*
X214377D01*
X206077Y81086D02*
Y82986D01*
Y81086D02*
X207977D01*
X206077Y79186D02*
Y81086D01*
X214377Y72686D02*
Y74586D01*
Y72686D02*
X216277D01*
X214377Y70786D02*
Y72686D01*
X204177Y81086D02*
X206077D01*
X198407Y130774D02*
Y132674D01*
Y130774D02*
X200307D01*
X196507D02*
X198407D01*
X188825Y132165D02*
Y134065D01*
Y132165D02*
X190725D01*
X188825Y130265D02*
Y132165D01*
X186925D02*
X188825D01*
X198407Y128874D02*
Y130774D01*
X178225Y126065D02*
Y127965D01*
Y126065D02*
X180125D01*
X178225Y124165D02*
Y126065D01*
X176325D02*
X178225D01*
X194307Y118674D02*
X196207D01*
Y120574D01*
Y118674D02*
X198107D01*
X196207Y116774D02*
Y118674D01*
X197377Y89486D02*
Y91386D01*
Y89486D02*
X199277D01*
X197377Y87586D02*
Y89486D01*
X195477D02*
X197377D01*
X194107Y106474D02*
X196007D01*
X194107Y104574D02*
Y106474D01*
Y108374D01*
X167725Y119865D02*
X169625D01*
X167725D02*
Y121765D01*
Y117965D02*
Y119865D01*
X165825D02*
X167725D01*
X192207Y106474D02*
X194107D01*
X216690Y62459D02*
X218590D01*
X216690D02*
Y64359D01*
X214790Y62459D02*
X216690D01*
X230042Y61185D02*
Y63085D01*
X216690Y60559D02*
Y62459D01*
X204590Y60759D02*
Y62659D01*
X230042Y61185D02*
X231942D01*
X230042Y59285D02*
Y61185D01*
X228142D02*
X230042D01*
X204590Y60759D02*
X206490D01*
X204590Y58859D02*
Y60759D01*
X202690D02*
X204590D01*
X192390Y58959D02*
X194290D01*
X192390D02*
Y60859D01*
Y57059D02*
Y58959D01*
X190490D02*
X192390D01*
X178926Y51825D02*
X180826D01*
X178926D02*
Y53725D01*
X177026Y51825D02*
X178926D01*
Y49925D02*
Y51825D01*
X173826Y38925D02*
Y40825D01*
Y42725D01*
Y40825D02*
X175726D01*
X171926D02*
X173826D01*
X168626Y29725D02*
X170526D01*
X168626D02*
Y31625D01*
Y27825D02*
Y29725D01*
X166726D02*
X168626D01*
X162463Y13051D02*
X166463D01*
X162463Y9551D02*
Y13051D01*
X162700Y5100D02*
X164600D01*
X162700D02*
Y7000D01*
X140724Y129715D02*
X142624D01*
X140724Y127815D02*
Y129715D01*
Y131615D01*
X138824Y129715D02*
X140724D01*
X149524Y123315D02*
X151424D01*
Y125215D01*
Y123315D02*
X153324D01*
X151424Y121415D02*
Y123315D01*
X131972Y100119D02*
X133872D01*
X129924Y135615D02*
Y137515D01*
Y135615D02*
X131824D01*
X129924Y133715D02*
Y135615D01*
X128024D02*
X129924D01*
X120744Y143230D02*
Y145130D01*
X125772Y124419D02*
X127672D01*
Y126319D01*
X120744Y145130D02*
X122643D01*
X127672Y124419D02*
X129572D01*
X129972Y112219D02*
Y114119D01*
X127672Y122519D02*
Y124419D01*
X118843Y145130D02*
X120744D01*
Y147030D01*
X129972Y112219D02*
X131872D01*
X131972Y100119D02*
Y102019D01*
Y98219D02*
Y100119D01*
X130072D02*
X131972D01*
X128072Y112219D02*
X129972D01*
Y110319D02*
Y112219D01*
X125414Y86577D02*
X127314D01*
X125414D02*
Y88477D01*
Y84677D02*
Y86577D01*
X123514D02*
X125414D01*
X117014Y77377D02*
Y79277D01*
Y77377D02*
X118914D01*
X115114D02*
X117014D01*
Y75477D02*
Y77377D01*
X149887Y44548D02*
Y46448D01*
Y44548D02*
X151787D01*
X149887Y42649D02*
Y44548D01*
X147987D02*
X149887D01*
X155200Y33400D02*
X157100D01*
X155200D02*
Y35300D01*
X139795Y57549D02*
X141695D01*
X158463Y13051D02*
X162463D01*
X160800Y5100D02*
X162700D01*
X157200Y22400D02*
Y24300D01*
Y26200D01*
X153300Y33400D02*
X155200D01*
Y31500D02*
Y33400D01*
X155300Y24300D02*
X157200D01*
X108414Y68577D02*
Y70477D01*
Y68577D02*
X110314D01*
X108414Y66677D02*
Y68577D01*
X115274Y61693D02*
Y63593D01*
X106514Y68577D02*
X108414D01*
X94790Y61473D02*
Y63373D01*
X137895Y57549D02*
X139795D01*
Y59449D01*
X127700Y59600D02*
X129600D01*
X127700D02*
Y61500D01*
Y57700D02*
Y59600D01*
X125800D02*
X127700D01*
X139795Y55649D02*
Y57549D01*
X115274Y61693D02*
X117174D01*
X115274Y59793D02*
Y61693D01*
X113374D02*
X115274D01*
X94790Y61473D02*
X96690D01*
X94790Y59573D02*
Y61473D01*
X92890D02*
X94790D01*
D46*
X120744Y145130D02*
D03*
X94790Y61473D02*
D03*
X192390Y58959D02*
D03*
X204590Y60759D02*
D03*
X157200Y24300D02*
D03*
X149887Y44548D02*
D03*
X139795Y57549D02*
D03*
X127700Y59600D02*
D03*
X115274Y61693D02*
D03*
X108414Y68577D02*
D03*
X117014Y77377D02*
D03*
X125414Y86577D02*
D03*
X131972Y100119D02*
D03*
X129972Y112219D02*
D03*
X127672Y124419D02*
D03*
X129924Y135615D02*
D03*
X140724Y129715D02*
D03*
X151424Y123315D02*
D03*
X167725Y119865D02*
D03*
X178225Y126065D02*
D03*
X188825Y132165D02*
D03*
X204575Y145628D02*
D03*
X198407Y130774D02*
D03*
X196207Y118674D02*
D03*
X194107Y106474D02*
D03*
X197377Y89486D02*
D03*
X206077Y81086D02*
D03*
X214377Y72686D02*
D03*
X216690Y62459D02*
D03*
X230042Y61185D02*
D03*
X178926Y51825D02*
D03*
X173826Y40825D02*
D03*
X155200Y33400D02*
D03*
X168626Y29725D02*
D03*
X162800Y26700D02*
D03*
X163500Y18900D02*
D03*
X162700Y5100D02*
D03*
D47*
X207640Y150283D02*
X207272Y150487D01*
X208144Y149856D02*
X207644Y150280D01*
X208832Y148379D02*
X208653Y149068D01*
X206656Y150685D02*
X205668Y150681D01*
X206875Y145628D02*
X206647Y146626D01*
X206009Y147426D01*
X205087Y147870D01*
X204063D01*
X203141Y147426D01*
X202503Y146626D01*
X202275Y145628D01*
X202503Y144630D01*
X203141Y143829D01*
X204063Y143385D01*
X205087D01*
X206009Y143829D01*
X206647Y144630D01*
X206875Y145628D01*
X216677Y72686D02*
X216449Y73684D01*
X215811Y74484D01*
X214889Y74928D01*
X213865D01*
X212943Y74484D01*
X212305Y73684D01*
X212077Y72686D01*
X212305Y71688D01*
X212943Y70888D01*
X213865Y70444D01*
X214889D01*
X215811Y70888D01*
X216449Y71688D01*
X216677Y72686D01*
X209100Y69809D02*
X208753Y71055D01*
X209150Y69345D02*
X209100Y69809D01*
X208751Y71061D02*
X208523Y71541D01*
X209161Y69001D02*
X209150Y69345D01*
X209130Y68424D02*
X209160Y68906D01*
X201176Y100699D02*
X201104Y99642D01*
X201229Y98589D01*
X201547Y97578D01*
X202048Y96644D01*
X202713Y95818D01*
X208377Y81086D02*
X208149Y82084D01*
X207511Y82884D01*
X206589Y83328D01*
X205565D01*
X204643Y82884D01*
X204005Y82084D01*
X203777Y81086D01*
X204005Y80088D01*
X204643Y79288D01*
X205565Y78844D01*
X206589D01*
X207511Y79288D01*
X208149Y80088D01*
X208377Y81086D01*
X191125Y132165D02*
X190897Y133163D01*
X190259Y133963D01*
X189337Y134407D01*
X188313D01*
X187391Y133963D01*
X186753Y133163D01*
X186525Y132165D01*
X186753Y131167D01*
X187391Y130367D01*
X188313Y129923D01*
X189337D01*
X190259Y130367D01*
X190897Y131167D01*
X191125Y132165D01*
X200707Y130774D02*
X200479Y131772D01*
X199841Y132572D01*
X198919Y133016D01*
X197895D01*
X196973Y132572D01*
X196335Y131772D01*
X196107Y130774D01*
X196335Y129776D01*
X196973Y128976D01*
X197895Y128532D01*
X198919D01*
X199841Y128976D01*
X200479Y129776D01*
X200707Y130774D01*
X192120Y123142D02*
X191233Y124004D01*
X190177Y124647D01*
X190177Y124647D02*
X189712Y124838D01*
X188906Y125058D02*
X187877Y125154D01*
X186849Y125050D01*
X189309Y124965D02*
X188905Y125058D01*
X189712Y124838D02*
X189308Y124965D01*
X186849Y125050D02*
X186542Y124978D01*
X180525Y126065D02*
X180297Y127063D01*
X179659Y127863D01*
X178737Y128307D01*
X177713D01*
X176791Y127863D01*
X176153Y127063D01*
X175925Y126065D01*
X176153Y125067D01*
X176791Y124267D01*
X177713Y123823D01*
X178737D01*
X179659Y124267D01*
X180297Y125067D01*
X180525Y126065D01*
X198507Y118674D02*
X198279Y119672D01*
X197641Y120472D01*
X196719Y120916D01*
X195695D01*
X194773Y120472D01*
X194135Y119672D01*
X193907Y118674D01*
X194135Y117676D01*
X194773Y116876D01*
X195695Y116432D01*
X196719D01*
X197641Y116876D01*
X198279Y117676D01*
X198507Y118674D01*
X192600Y122456D02*
X192376Y122804D01*
X192813Y122056D02*
X192599Y122456D01*
X192376Y122804D02*
X192120Y123142D01*
X193321Y120190D02*
X193152Y121146D01*
X192813Y122056D01*
X199677Y89486D02*
X199449Y90484D01*
X198811Y91284D01*
X197889Y91729D01*
X196865D01*
X195943Y91284D01*
X195305Y90484D01*
X195077Y89486D01*
X195305Y88488D01*
X195943Y87688D01*
X196865Y87244D01*
X197889D01*
X198811Y87688D01*
X199449Y88488D01*
X199677Y89486D01*
X170025Y119865D02*
X169797Y120863D01*
X169159Y121663D01*
X168237Y122107D01*
X167213D01*
X166291Y121663D01*
X165653Y120863D01*
X165425Y119865D01*
X165653Y118867D01*
X166291Y118067D01*
X167213Y117623D01*
X168237D01*
X169159Y118067D01*
X169797Y118867D01*
X170025Y119865D01*
X161501Y112627D02*
X162676Y112325D01*
X163851Y112627D01*
X196407Y106474D02*
X196179Y107472D01*
X195541Y108272D01*
X194619Y108716D01*
X193595D01*
X192673Y108272D01*
X192035Y107472D01*
X191807Y106474D01*
X192035Y105476D01*
X192673Y104676D01*
X193595Y104232D01*
X194619D01*
X195541Y104676D01*
X196179Y105476D01*
X196407Y106474D01*
X189082Y93181D02*
X189163Y92059D01*
X189740Y91094D01*
X209010Y67726D02*
X209130Y68424D01*
X208375Y66168D02*
X208752Y66923D01*
X209010Y67726D01*
X208109Y65765D02*
X208375Y66168D01*
X232342Y61185D02*
X232115Y62183D01*
X231476Y62983D01*
X230554Y63427D01*
X229531D01*
X228608Y62983D01*
X227970Y62183D01*
X227742Y61185D01*
X227970Y60187D01*
X228608Y59387D01*
X229531Y58943D01*
X230554D01*
X231476Y59387D01*
X232115Y60187D01*
X232342Y61185D01*
X218990Y62459D02*
X218762Y63457D01*
X218124Y64258D01*
X217201Y64702D01*
X216178D01*
X215256Y64258D01*
X214617Y63457D01*
X214390Y62459D01*
X214617Y61461D01*
X215256Y60661D01*
X216178Y60217D01*
X217201D01*
X218124Y60661D01*
X218762Y61461D01*
X218990Y62459D01*
X207836Y65420D02*
X208109Y65765D01*
X207525Y65088D02*
X207836Y65420D01*
X207027Y64655D02*
X207521Y65084D01*
X206002Y64040D02*
X207027Y64655D01*
X206890Y60759D02*
X206662Y61757D01*
X206024Y62558D01*
X205101Y63002D01*
X204078D01*
X203156Y62558D01*
X202518Y61757D01*
X202290Y60759D01*
X202518Y59761D01*
X203156Y58961D01*
X204078Y58517D01*
X205101D01*
X206024Y58961D01*
X206662Y59761D01*
X206890Y60759D01*
X235968Y60830D02*
X235690Y61783D01*
X235566Y59135D02*
X235932Y60085D01*
X234413Y58119D02*
X234943Y58437D01*
X194690Y58959D02*
X194462Y59957D01*
X193824Y60757D01*
X192902Y61202D01*
X191878D01*
X190956Y60757D01*
X190317Y59957D01*
X190090Y58959D01*
X190317Y57961D01*
X190956Y57161D01*
X191878Y56717D01*
X192902D01*
X193824Y57161D01*
X194462Y57961D01*
X194690Y58959D01*
X189149Y51092D02*
X188248Y50877D01*
X187394Y50518D01*
X186609Y50025D01*
X185916Y49411D01*
X185331Y48693D01*
X184871Y47888D01*
X180186Y59885D02*
X179096Y59428D01*
X178348Y58512D01*
X181226Y51825D02*
X180998Y52823D01*
X180360Y53623D01*
X179438Y54067D01*
X178414D01*
X177492Y53623D01*
X176854Y52823D01*
X176626Y51825D01*
X176854Y50827D01*
X177492Y50027D01*
X178414Y49583D01*
X179438D01*
X180360Y50027D01*
X180998Y50827D01*
X181226Y51825D01*
X176126Y40825D02*
X175898Y41823D01*
X175260Y42623D01*
X174338Y43067D01*
X173314D01*
X172392Y42623D01*
X171754Y41823D01*
X171526Y40825D01*
X171754Y39827D01*
X172392Y39027D01*
X173314Y38583D01*
X174338D01*
X175260Y39027D01*
X175898Y39827D01*
X176126Y40825D01*
X166488Y34028D02*
X166757Y34315D01*
X165164Y33074D02*
X165863Y33500D01*
X166487Y34028D01*
X164783Y32898D02*
X165165Y33074D01*
X166937Y28163D02*
X167677Y27630D01*
X168566Y27426D01*
X169465Y27584D01*
X170231Y28078D01*
X170745Y28831D01*
X170926Y29725D01*
X170693Y30735D01*
X170040Y31539D01*
X169101Y31976D01*
X168065Y31956D01*
X167143Y31483D01*
X166522Y30654D01*
X166328Y29636D01*
X166600Y28637D01*
X166937Y28163D01*
X164420Y32762D02*
X164783Y32898D01*
X164004Y32642D02*
X164414Y32760D01*
X163472Y32537D02*
X164004Y32642D01*
X160937Y32760D02*
X161347Y32642D01*
X161348Y32641D02*
X162405Y32487D01*
X163472Y32537D01*
X159930Y128528D02*
X160801Y128138D01*
X161725Y127899D01*
X162676Y127819D01*
X163627Y127899D01*
X164551Y128138D01*
X165421Y128528D01*
X153724Y123315D02*
X153496Y124312D01*
X152858Y125113D01*
X151936Y125557D01*
X150912D01*
X149990Y125113D01*
X149352Y124312D01*
X149124Y123315D01*
X149352Y122317D01*
X149990Y121516D01*
X150912Y121072D01*
X151936D01*
X152858Y121516D01*
X153496Y122317D01*
X153724Y123315D01*
X143024Y129715D02*
X142796Y130712D01*
X142158Y131513D01*
X141236Y131957D01*
X140212D01*
X139290Y131513D01*
X138652Y130712D01*
X138424Y129715D01*
X138652Y128717D01*
X139290Y127916D01*
X140212Y127472D01*
X141236D01*
X142158Y127916D01*
X142796Y128717D01*
X143024Y129715D01*
X132224Y135615D02*
X131996Y136612D01*
X131358Y137413D01*
X130436Y137857D01*
X129412D01*
X128490Y137413D01*
X127852Y136612D01*
X127624Y135615D01*
X127852Y134617D01*
X128490Y133816D01*
X129412Y133372D01*
X130436D01*
X131358Y133816D01*
X131996Y134617D01*
X132224Y135615D01*
X138823Y124975D02*
X137865Y125138D01*
X136895Y125125D01*
X136888Y125124D02*
X136446Y125058D01*
X136446Y125058D02*
X136043Y124965D01*
X136043Y124965D02*
X135639Y124838D01*
X135638Y124838D02*
X134528Y124293D01*
X133567Y123515D01*
X133567Y123515D02*
X133231Y123141D01*
X133231Y123141D02*
X132976Y122804D01*
X135608Y91091D02*
X136121Y91874D01*
X136301Y92793D01*
X136269Y93185D01*
X132976Y122804D02*
X132752Y122456D01*
X132752Y122457D02*
X132316Y121520D01*
X132068Y120516D01*
X132272Y112219D02*
X132044Y113217D01*
X131406Y114017D01*
X130484Y114461D01*
X129460D01*
X128538Y114017D01*
X127900Y113217D01*
X127672Y112219D01*
X127900Y111221D01*
X128538Y110421D01*
X129460Y109977D01*
X130484D01*
X131406Y110421D01*
X132044Y111221D01*
X132272Y112219D01*
X134272Y100119D02*
X134045Y101117D01*
X133406Y101917D01*
X132484Y102361D01*
X131460D01*
X130538Y101917D01*
X129900Y101117D01*
X129672Y100119D01*
X129900Y99121D01*
X130538Y98321D01*
X131460Y97877D01*
X132484D01*
X133406Y98321D01*
X134045Y99121D01*
X134272Y100119D01*
X129972Y124419D02*
X129744Y125417D01*
X129106Y126217D01*
X128184Y126661D01*
X127160D01*
X126238Y126217D01*
X125600Y125417D01*
X125372Y124419D01*
X125600Y123421D01*
X126238Y122621D01*
X127160Y122177D01*
X128184D01*
X129106Y122621D01*
X129744Y123421D01*
X129972Y124419D01*
X132068Y120516D02*
X132032Y120203D01*
X123044Y145130D02*
X122816Y146128D01*
X122178Y146928D01*
X121255Y147372D01*
X120232D01*
X119309Y146928D01*
X118671Y146128D01*
X118444Y145130D01*
X118671Y144132D01*
X119309Y143332D01*
X120232Y142888D01*
X121255D01*
X122178Y143332D01*
X122816Y144132D01*
X123044Y145130D01*
X119772Y150661D02*
X119033Y150727D01*
X118187Y150534D02*
X117328Y149978D01*
X116871Y149409D02*
X116530Y148457D01*
X124249Y99784D02*
X124175Y100699D01*
X127714Y86577D02*
X127486Y87575D01*
X126848Y88375D01*
X125926Y88819D01*
X124902D01*
X123980Y88375D01*
X123342Y87575D01*
X123114Y86577D01*
X123342Y85579D01*
X123980Y84779D01*
X124902Y84335D01*
X125926D01*
X126848Y84779D01*
X127486Y85579D01*
X127714Y86577D01*
X122638Y95818D02*
X123323Y96674D01*
X123831Y97644D01*
X124144Y98694D01*
X124249Y99784D01*
X119314Y77377D02*
X119086Y78375D01*
X118448Y79175D01*
X117526Y79619D01*
X116502D01*
X115580Y79175D01*
X114942Y78375D01*
X114714Y77377D01*
X114942Y76379D01*
X115580Y75579D01*
X116502Y75135D01*
X117526D01*
X118448Y75579D01*
X119086Y76379D01*
X119314Y77377D01*
X116835Y71552D02*
X116387Y70444D01*
X152187Y44548D02*
X151960Y45546D01*
X151321Y46347D01*
X150399Y46791D01*
X149376D01*
X148453Y46347D01*
X147815Y45546D01*
X147587Y44548D01*
X147815Y43551D01*
X148453Y42750D01*
X149376Y42306D01*
X150399D01*
X151321Y42750D01*
X151960Y43551D01*
X152187Y44548D01*
X147003Y58512D02*
X146256Y59428D01*
X145165Y59885D01*
X157500Y33400D02*
X157272Y34398D01*
X156634Y35198D01*
X155712Y35642D01*
X154688D01*
X153766Y35198D01*
X153128Y34398D01*
X152900Y33400D01*
X153128Y32402D01*
X153766Y31602D01*
X154688Y31158D01*
X155712D01*
X156634Y31602D01*
X157272Y32402D01*
X157500Y33400D01*
X158577Y34334D02*
X159129Y33784D01*
X159755Y33320D01*
X142095Y57549D02*
X141867Y58547D01*
X141229Y59347D01*
X140307Y59791D01*
X139284D01*
X138361Y59347D01*
X137723Y58547D01*
X137495Y57549D01*
X137723Y56551D01*
X138361Y55751D01*
X139284Y55307D01*
X140307D01*
X141229Y55751D01*
X141867Y56551D01*
X142095Y57549D01*
X160197Y33068D02*
X160568Y32898D01*
X160568Y32898D02*
X160937Y32760D01*
X159755Y33320D02*
X160197Y33068D01*
X164975Y5437D02*
X164651Y6318D01*
X164002Y6996D01*
X163136Y7358D01*
X162198Y7344D01*
X161343Y6957D01*
X160714Y6261D01*
X160416Y5371D01*
X158137Y26400D02*
X157189Y26600D01*
X156242Y26391D01*
X155466Y25811D01*
X154997Y24962D01*
X154920Y23996D01*
X155248Y23084D01*
X155923Y22387D01*
X156824Y22031D01*
X157792Y22078D01*
X158655Y22519D01*
X159260Y23277D01*
X116387Y70443D02*
X116249Y69797D01*
X116221Y68423D02*
X116374Y67594D01*
X116652Y66797D01*
X116250Y69797D02*
X116201Y69345D01*
X116976Y66168D02*
X117243Y65765D01*
X117243Y65765D02*
X117515Y65420D01*
X116655Y66792D02*
X116976Y66168D01*
X116201Y69345D02*
X116191Y68906D01*
X116191Y68906D02*
X116220Y68430D01*
X117834Y65080D02*
X118862Y64294D01*
X118862Y64294D02*
X119338Y64045D01*
X117516Y65420D02*
X117834Y65080D01*
X117574Y61693D02*
X117346Y62691D01*
X116708Y63491D01*
X115786Y63935D01*
X114762D01*
X113840Y63491D01*
X113202Y62691D01*
X112974Y61693D01*
X113202Y60695D01*
X113840Y59895D01*
X114762Y59451D01*
X115786D01*
X116708Y59895D01*
X117346Y60695D01*
X117574Y61693D01*
X110714Y68577D02*
X110486Y69575D01*
X109848Y70375D01*
X108926Y70819D01*
X107902D01*
X106980Y70375D01*
X106342Y69575D01*
X106114Y68577D01*
X106342Y67579D01*
X106980Y66779D01*
X107902Y66335D01*
X108926D01*
X109848Y66779D01*
X110486Y67579D01*
X110714Y68577D01*
X97090Y61473D02*
X96863Y62471D01*
X96224Y63271D01*
X95302Y63715D01*
X94279D01*
X93356Y63271D01*
X92718Y62471D01*
X92490Y61473D01*
X92718Y60475D01*
X93356Y59675D01*
X94279Y59230D01*
X95302D01*
X96224Y59675D01*
X96863Y60475D01*
X97090Y61473D01*
X140480Y47888D02*
X140020Y48693D01*
X139436Y49411D01*
X138742Y50025D01*
X137958Y50518D01*
X137103Y50877D01*
X136202Y51092D01*
X130000Y59600D02*
X129772Y60598D01*
X129134Y61398D01*
X128212Y61842D01*
X127188D01*
X126266Y61398D01*
X125628Y60598D01*
X125400Y59600D01*
X125628Y58602D01*
X126266Y57802D01*
X127188Y57358D01*
X128212D01*
X129134Y57802D01*
X129772Y58602D01*
X130000Y59600D01*
X89731Y61908D02*
X89422Y61094D01*
X89378Y60420D02*
X89673Y59336D01*
X90223Y58596D02*
X90648Y58272D01*
X205398Y150611D02*
X208754Y147255D01*
X206791Y146242D02*
X208841Y148292D01*
X205468Y147747D02*
X207850Y150129D01*
X203538Y149643D02*
X205410Y147771D01*
X201717Y148635D02*
X203025Y147327D01*
X206718Y146463D02*
X208358Y144822D01*
X206274Y144078D02*
X207962Y142390D01*
X201176Y100701D02*
X208811Y147605D01*
X204158Y143366D02*
X207566Y139957D01*
X200575Y131541D02*
X207289Y138255D01*
X199155Y132949D02*
X207839Y141634D01*
X199897Y147626D02*
X202313Y145211D01*
X200568Y129985D02*
X205191Y125362D01*
X199133Y128592D02*
X204795Y122930D01*
X198429Y118082D02*
X205090Y124742D01*
X198077Y146618D02*
X207171Y137525D01*
X196257Y145610D02*
X206774Y135092D01*
X188498Y125120D02*
X208389Y145012D01*
X194437Y144602D02*
X206379Y132660D01*
X195577Y120886D02*
X206190Y131499D01*
X193121Y121258D02*
X206739Y134877D01*
X189306Y134414D02*
X205544Y150653D01*
X190893Y133173D02*
X202455Y144735D01*
X165421Y128528D02*
X204882Y150388D01*
X192617Y143593D02*
X205983Y130227D01*
X190796Y142585D02*
X205587Y127795D01*
X184701Y124153D02*
X203960Y143411D01*
X197827Y120307D02*
X205640Y128120D01*
X190899Y131169D02*
X204003Y118065D01*
X185336Y139560D02*
X204399Y120497D01*
X194701Y108696D02*
X203990Y117985D01*
X194701Y108696D02*
X203990Y117985D01*
X191562Y108386D02*
X204540Y121364D01*
X198407Y118004D02*
X203211Y113200D01*
X193077Y117677D02*
X202419Y108335D01*
X189320Y129919D02*
X203607Y115632D01*
X197049Y116534D02*
X202815Y110767D01*
X192681Y115245D02*
X202023Y105903D01*
X208112Y80014D02*
X213372Y74755D01*
X207243Y73155D02*
X216128Y82040D01*
X205846Y74587D02*
X214733Y83473D01*
X214707Y74962D02*
X218919Y79174D01*
X216384Y73810D02*
X220314Y77741D01*
X206159Y83385D02*
X210547Y87773D01*
X207980Y82377D02*
X211942Y86339D01*
X206477Y78821D02*
X212128Y73170D01*
X208500Y71583D02*
X217524Y80607D01*
X209146Y69401D02*
X212101Y72356D01*
X196219Y107386D02*
X203440Y114607D01*
X189908Y98246D02*
X202890Y111229D01*
X189356Y94867D02*
X202340Y107850D01*
X199331Y90699D02*
X203570Y94938D01*
X196069Y84608D02*
X204965Y93505D01*
X192284Y112813D02*
X201627Y103470D01*
X195060Y104381D02*
X201365Y98076D01*
X189219Y91901D02*
X201790Y104472D01*
X197581Y91777D02*
X202212Y96409D01*
X191878Y88903D02*
X201294Y98319D01*
X190481Y90334D02*
X201240Y101093D01*
X197465Y83176D02*
X206361Y92072D01*
X198862Y81745D02*
X207756Y90639D01*
X189743Y91091D02*
X207611Y72778D01*
X204449Y76018D02*
X213337Y84906D01*
X200259Y80313D02*
X209152Y89206D01*
X199507Y88619D02*
X205005Y83121D01*
X198020Y87278D02*
X203812Y81486D01*
X203052Y77450D02*
X204786Y79183D01*
X201656Y78882D02*
X203778Y81004D01*
X188976Y141577D02*
X197618Y132935D01*
X187156Y140568D02*
X196225Y131500D01*
X183516Y138552D02*
X187829Y134238D01*
X181696Y137544D02*
X186579Y132660D01*
X190621Y124416D02*
X196232Y130026D01*
X192145Y123111D02*
X197640Y128606D01*
X180474Y125582D02*
X186576Y131684D01*
X179802Y127739D02*
X199432Y147369D01*
X178056Y135527D02*
X188458Y125125D01*
X177474Y128239D02*
X193091Y143856D01*
X176235Y134519D02*
X185963Y124791D01*
X174415Y133510D02*
X184104Y123822D01*
X172595Y132502D02*
X177053Y128044D01*
X170775Y131494D02*
X175940Y126329D01*
X179876Y136535D02*
X195537Y120874D01*
X168955Y130486D02*
X178639Y120801D01*
X168453Y122047D02*
X186750Y140343D01*
X180204Y124893D02*
X182282Y122815D01*
X178377Y120656D02*
X187818Y130097D01*
X163855Y112629D02*
X185269Y124467D01*
X167134Y129477D02*
X176818Y119794D01*
X165313Y128470D02*
X174996Y118788D01*
X163119Y127836D02*
X173175Y117781D01*
X169887Y120651D02*
X176051Y126816D01*
X165727Y113664D02*
X176551Y124488D01*
X192664Y115145D02*
X194574Y117054D01*
X193314Y120269D02*
X194067Y119516D01*
X193216Y118525D02*
X193995Y119304D01*
X196341Y105928D02*
X201231Y101038D01*
X194672Y86040D02*
X196164Y87532D01*
X193275Y87471D02*
X195086Y89282D01*
X178489Y123780D02*
X180461Y121808D01*
X172052Y117160D02*
X178708Y123816D01*
X169597Y118529D02*
X171353Y116774D01*
X192113Y111765D02*
X196799Y116452D01*
X167733Y117565D02*
X169531Y115767D01*
X161744Y112509D02*
X166939Y117704D01*
X191887Y110381D02*
X193561Y108708D01*
X189083Y93189D02*
X193265Y118829D01*
X189904Y98223D02*
X196510Y91616D01*
X189507Y95791D02*
X195169Y90129D01*
X191491Y107950D02*
X192014Y107427D01*
X191010Y105006D02*
X191885Y105880D01*
X191010Y105006D02*
X191885Y105880D01*
X190459Y101626D02*
X193195Y104362D01*
X218135Y64248D02*
X225895Y72009D01*
X218982Y62266D02*
X227291Y70575D01*
X215464Y64405D02*
X224500Y73442D01*
X231201Y63172D02*
X232872Y64843D01*
X209025Y67788D02*
X214390Y62423D01*
X208857Y70784D02*
X215328Y64313D01*
X221199Y55999D02*
X231477Y66276D01*
X217860Y55488D02*
X230081Y67709D01*
X214520Y54976D02*
X228686Y69142D01*
X232325Y61467D02*
X234267Y63410D01*
X216446Y71681D02*
X228000Y60126D01*
X214861Y70438D02*
X228224Y57074D01*
X208155Y65830D02*
X218412Y55572D01*
X190697Y103086D02*
X230315Y63469D01*
X202717Y95815D02*
X235210Y62442D01*
X190301Y100654D02*
X228286Y62669D01*
X206799Y61398D02*
X221709Y76308D01*
X205461Y62888D02*
X213253Y70680D01*
X204696Y63632D02*
X205426Y62902D01*
X202244Y63255D02*
X203040Y62459D01*
X191094Y105518D02*
X235978Y60633D01*
X201161Y52931D02*
X223105Y74875D01*
X189111Y93359D02*
X225771Y56699D01*
X206719Y64437D02*
X215959Y55197D01*
X204501Y53442D02*
X214743Y63685D01*
X191142Y51397D02*
X203136Y63392D01*
X187477Y50561D02*
X199798Y62881D01*
X180195Y59886D02*
X204539Y63606D01*
X199790Y62880D02*
X202328Y60343D01*
X197337Y62506D02*
X206148Y53694D01*
X232326Y61457D02*
X235158Y58625D01*
X234986Y58471D02*
X235361Y58847D01*
X231527Y59428D02*
X233130Y57825D01*
X231219Y57533D02*
X235611Y61925D01*
X218544Y61098D02*
X223318Y56323D01*
X216653Y60160D02*
X220865Y55948D01*
X228984Y59143D02*
X230677Y57450D01*
X227879Y57021D02*
X229760Y58902D01*
X224539Y56510D02*
X228055Y60026D01*
X211180Y54465D02*
X216883Y60167D01*
X207840Y53953D02*
X214901Y61014D01*
X206733Y61595D02*
X213507Y54821D01*
X206289Y59210D02*
X211054Y54445D01*
X204173Y58497D02*
X208601Y54070D01*
X194311Y60223D02*
X196459Y62371D01*
X194883Y62131D02*
X203695Y53319D01*
X192515Y61256D02*
X193121Y61861D01*
X194604Y59582D02*
X201242Y52943D01*
X192430Y61756D02*
X193012Y61173D01*
X189976Y61381D02*
X190767Y60590D01*
X187522Y61006D02*
X190169Y58359D01*
X197821Y52420D02*
X203951Y58550D01*
X194481Y51908D02*
X202461Y59888D01*
X185069Y60631D02*
X193884Y51817D01*
X194020Y57337D02*
X198789Y52568D01*
X191790Y56739D02*
X196336Y52192D01*
X189150Y51092D02*
X233700Y57913D01*
X181075Y52644D02*
X189782Y61351D01*
X182615Y60256D02*
X191431Y51441D01*
X174329Y43069D02*
X190093Y58834D01*
X175902Y41814D02*
X191126Y57038D01*
X179621Y54018D02*
X186444Y60841D01*
X175750Y52976D02*
X183105Y60331D01*
X180162Y59881D02*
X188980Y51063D01*
X178472Y58743D02*
X186952Y50263D01*
X178252Y58306D02*
X179707Y59761D01*
X176655Y54903D02*
X177754Y53804D01*
X175751Y52978D02*
X176641Y52089D01*
X177558Y56828D02*
X185483Y48904D01*
X174848Y51054D02*
X182683Y43218D01*
X180905Y50653D02*
X184488Y47070D01*
X179189Y49540D02*
X183586Y45144D01*
X173944Y49129D02*
X181781Y41292D01*
X176065Y41351D02*
X179977Y37439D01*
X175420Y39167D02*
X179075Y35513D01*
X173248Y47646D02*
X176733Y51131D01*
X170746Y42315D02*
X178107Y49676D01*
X167597Y35607D02*
X178346Y58507D01*
X173041Y47204D02*
X180879Y39365D01*
X173124Y38635D02*
X178172Y33587D01*
X172137Y45279D02*
X174352Y43064D01*
X171234Y43354D02*
X172168Y42419D01*
X170330Y41429D02*
X171636Y40124D01*
X168244Y36985D02*
X171582Y40322D01*
X168922Y32006D02*
X184933Y48017D01*
X170619Y30874D02*
X182438Y42693D01*
X165096Y5670D02*
X184871Y47888D01*
X169427Y39504D02*
X177270Y31661D01*
X168523Y37579D02*
X176368Y29734D01*
X165580Y23007D02*
X179945Y37372D01*
X167620Y35654D02*
X175466Y27808D01*
X164337Y30249D02*
X172837Y38749D01*
X166452Y33994D02*
X168429Y32017D01*
X170917Y29528D02*
X174564Y25882D01*
X169843Y27774D02*
X173661Y23956D01*
X166937Y27851D02*
X172759Y22029D01*
X166937Y27193D02*
X167477Y27733D01*
X166937Y24399D02*
Y28163D01*
Y25023D02*
X171857Y20103D01*
X166937Y18707D02*
X174961Y26731D01*
X166937Y21536D02*
X177453Y32052D01*
X166937Y19366D02*
X170053Y16251D01*
X166863Y12976D02*
X169977Y16090D01*
X166461Y15402D02*
X172469Y21411D01*
X166937Y17750D02*
Y21650D01*
X166863Y11101D02*
Y15001D01*
X166331Y17144D02*
X169150Y14325D01*
X166863Y13784D02*
X168248Y12398D01*
X166790Y11028D02*
X167346Y10472D01*
X164738Y32879D02*
X166674Y30942D01*
X164987Y30249D02*
X166600Y28637D01*
X166077Y29160D02*
X166345Y29429D01*
X165563Y23025D02*
X166937Y21650D01*
X165563Y23025D02*
X166937Y24399D01*
X161509Y30249D02*
X163870Y32610D01*
X162296Y32493D02*
X164539Y30249D01*
X165835Y23297D02*
X170955Y18177D01*
X165525Y16338D02*
X166863Y15001D01*
X165525Y16338D02*
X166937Y17750D01*
X164913Y9151D02*
X166863Y11101D01*
X163823Y7107D02*
X167485Y10770D01*
X165376Y9614D02*
X166444Y8546D01*
X163010Y9151D02*
X165541Y6620D01*
X152116Y125508D02*
X156845Y130237D01*
X143518Y122567D02*
X153205Y132254D01*
X141696Y123574D02*
X151384Y133262D01*
X159186Y128940D02*
X166389Y121737D01*
X153572Y124136D02*
X158665Y129229D01*
X141512Y131875D02*
X145924Y136287D01*
X142906Y130441D02*
X147744Y135279D01*
X139871Y124577D02*
X149564Y134270D01*
X146504Y135966D02*
X167710Y114760D01*
X158090Y114512D02*
X180409Y136831D01*
X140163Y139478D02*
X165888Y113753D01*
X154447Y116526D02*
X167727Y129805D01*
X156269Y115519D02*
X174068Y133318D01*
X152845Y132453D02*
X165425Y119873D01*
X145339Y121560D02*
X155025Y131246D01*
X150804Y118540D02*
X160512Y128248D01*
X142669Y128487D02*
X154857Y116299D01*
X152626Y117533D02*
X162917Y127824D01*
X140906Y127422D02*
X148532Y119795D01*
X127863Y126711D02*
X140464Y139312D01*
X133822Y142991D02*
X151208Y125604D01*
X120472Y150386D02*
X159928Y128529D01*
X129621Y125641D02*
X142284Y138303D01*
X130506Y137840D02*
X135003Y142337D01*
X121140Y150016D02*
X139497Y131659D01*
X119466Y129628D02*
X133183Y143345D01*
X132031Y136537D02*
X136823Y141328D01*
X132156Y136172D02*
X138431Y129896D01*
X127481Y146504D02*
X149465Y124519D01*
X121842Y115033D02*
X144104Y137295D01*
X120654Y122331D02*
X138643Y140320D01*
X137617Y125152D02*
X139998Y127532D01*
X131531Y133969D02*
X142208Y123292D01*
X122238Y112601D02*
X138564Y128926D01*
X129257Y133413D02*
X137517Y125154D01*
X117927Y139087D02*
X133534Y123480D01*
X117377Y142466D02*
X135189Y124654D01*
X120126Y125574D02*
X133103Y112598D01*
X119576Y128952D02*
X132551Y115977D01*
X147161Y120553D02*
X149231Y122623D01*
X152629Y121355D02*
X161181Y112803D01*
X153714Y123099D02*
X164067Y112746D01*
X140082Y124467D02*
X161497Y112629D01*
X148983Y119546D02*
X150602Y121166D01*
X159912Y113505D02*
X165543Y119137D01*
X133791Y101527D02*
X134752Y102487D01*
X134272Y100114D02*
X135308Y99079D01*
X133737Y98644D02*
X135149Y100056D01*
X133310Y98248D02*
X135859Y95699D01*
X131869Y110918D02*
X133165Y112214D01*
X131903Y110969D02*
X133654Y109218D01*
X121776Y115439D02*
X134757Y102459D01*
X130120Y109924D02*
X134205Y105838D01*
X131852Y102416D02*
X134355Y104919D01*
X124212Y100433D02*
X133562Y109783D01*
X129964Y124222D02*
X132412Y121773D01*
X129807Y114513D02*
X132372Y117078D01*
X131773Y113650D02*
X132768Y114646D01*
X132087Y118826D02*
X136269Y93188D01*
X123976Y101926D02*
X135214Y90687D01*
X123426Y105304D02*
X136277Y92453D01*
X126517Y88595D02*
X135545Y97624D01*
X127686Y86936D02*
X135942Y95192D01*
X117740Y72778D02*
X135608Y91091D01*
X123397Y96789D02*
X133958Y107351D01*
X124179Y98894D02*
X133817Y89255D01*
X123419Y96825D02*
X132421Y87824D01*
X123038Y145290D02*
X130482Y137846D01*
X122172Y143327D02*
X128278Y137221D01*
X122411Y146715D02*
X124082Y148386D01*
X122925Y144400D02*
X125902Y147378D01*
X128889Y122468D02*
X132027Y119330D01*
X122634Y110169D02*
X132015Y119549D01*
X121446Y117466D02*
X126451Y122470D01*
X121050Y119898D02*
X125380Y124228D01*
X121226Y118817D02*
X127677Y112366D01*
X120676Y122195D02*
X128722Y114150D01*
X117920Y150407D02*
X120903Y147424D01*
X120242Y147375D02*
X122262Y149395D01*
X116695Y146656D02*
X120442Y150403D01*
X117090Y144223D02*
X118499Y145631D01*
X116827Y145844D02*
X118858Y143813D01*
X116627Y148873D02*
X118941Y146558D01*
X118674Y134493D02*
X129543Y145361D01*
X119070Y132061D02*
X131363Y144353D01*
X118278Y136926D02*
X127723Y146370D01*
X119862Y127196D02*
X127699Y135033D01*
X120258Y124763D02*
X129002Y133507D01*
X119426Y143245D02*
X127723Y134948D01*
X117487Y141791D02*
X119159Y143463D01*
X117882Y139358D02*
X121473Y142949D01*
X116540Y147606D02*
X124175Y100699D01*
X119026Y132331D02*
X125721Y125636D01*
X118476Y135709D02*
X127475Y126711D01*
X123822Y102871D02*
X131273Y110322D01*
X122326Y112061D02*
X131967Y102419D01*
X123030Y107736D02*
X127678Y112384D01*
X123426Y105304D02*
X128541Y110419D01*
X122876Y108682D02*
X130101Y101457D01*
X127692Y86896D02*
X129627Y84961D01*
X122125Y95291D02*
X131024Y86392D01*
X126920Y84839D02*
X128230Y83529D01*
X124435Y84496D02*
X126833Y82097D01*
X120730Y93858D02*
X125733Y88855D01*
X119334Y92425D02*
X123676Y88083D01*
X117939Y90992D02*
X123333Y85598D01*
X116544Y89559D02*
X125436Y80666D01*
X117538Y79616D02*
X123396Y85474D01*
X119098Y78349D02*
X125055Y84305D01*
X115148Y88126D02*
X124040Y79234D01*
X112358Y85259D02*
X118420Y79197D01*
X113753Y86693D02*
X122643Y77802D01*
X110962Y83826D02*
X115599Y79190D01*
X118834Y78783D02*
X121246Y76371D01*
X108172Y80960D02*
X117117Y72015D01*
X118827Y75962D02*
X119849Y74939D01*
X116879Y75081D02*
X118452Y73508D01*
X109567Y82393D02*
X114718Y77242D01*
X108771Y70849D02*
X114774Y76853D01*
X106776Y79527D02*
X116287Y70016D01*
X102590Y75228D02*
X107255Y70563D01*
X151729Y45926D02*
X152533Y46729D01*
X151817Y45800D02*
X153989Y43628D01*
X151681Y43108D02*
X156491Y38298D01*
X155609Y35663D02*
X157051Y37105D01*
X145597Y36965D02*
X153437Y44805D01*
X149823Y46848D02*
X151630Y48654D01*
X149704Y42256D02*
X161711Y30249D01*
X147006Y58505D02*
X157752Y35610D01*
X157239Y34465D02*
X157968Y35194D01*
X151010Y25407D02*
X159269Y33667D01*
X147401Y33112D02*
X155244Y40955D01*
X148303Y31186D02*
X156147Y39030D01*
X146499Y35039D02*
X154340Y42880D01*
X143068Y60206D02*
X148985Y54289D01*
X141836Y58609D02*
X151487Y48958D01*
X136934Y50929D02*
X145731Y59727D01*
X140153Y48491D02*
X148016Y56354D01*
X141086Y46596D02*
X148919Y54429D01*
X138808Y49975D02*
X147112Y58279D01*
X140166Y59819D02*
X140887Y60539D01*
X141819Y58643D02*
X143340Y60164D01*
X120817Y63605D02*
X145159Y59886D01*
X136934Y50929D02*
X145731Y59727D01*
X141552Y56065D02*
X151139Y46478D01*
X142890Y42743D02*
X150726Y50579D01*
X129960Y59172D02*
X153861Y35270D01*
X142300Y44003D02*
X152900Y33403D01*
X144792Y38683D02*
X156895Y26580D01*
X140480Y47888D02*
X160254Y5671D01*
X139523Y55265D02*
X148447Y46342D01*
X141988Y44670D02*
X149823Y52504D01*
X129714Y62246D02*
X147595Y44365D01*
X144695Y38891D02*
X148510Y42707D01*
X143792Y40817D02*
X147588Y44613D01*
X160087Y30249D02*
X164987D01*
X158137Y21650D02*
X159512Y23025D01*
X158137Y28299D02*
X160087Y30249D01*
X159260Y23277D02*
X159512Y23025D01*
X158343Y22304D02*
X158567Y22080D01*
X158137Y26400D02*
Y28299D01*
Y17750D02*
Y21650D01*
Y17750D02*
X159475Y16413D01*
X158063Y15001D02*
X159475Y16413D01*
X160182Y9151D02*
X162032Y7301D01*
X160032Y6145D02*
X163038Y9151D01*
X160013D02*
X164913D01*
X158228Y9998D02*
X158697Y10467D01*
X158063Y11101D02*
X160013Y9151D01*
X158063Y11101D02*
Y15001D01*
X159744Y6760D02*
X160560Y5944D01*
X159130Y8072D02*
X160209Y9151D01*
X157070Y32061D02*
X159485Y29647D01*
X155203Y31100D02*
X158137Y28166D01*
X151912Y23481D02*
X161131Y32700D01*
X157784Y26525D02*
X158137Y26878D01*
X147284Y33362D02*
X155204Y25442D01*
X150108Y27334D02*
X154135Y31361D01*
X149206Y29260D02*
X152937Y32991D01*
X152268Y22721D02*
X159026Y15964D01*
X149776Y28042D02*
X158137Y19681D01*
X155521Y15776D02*
X158137Y18393D01*
X156423Y13850D02*
X159230Y16657D01*
X154619Y17703D02*
X158137Y21221D01*
X153717Y19629D02*
X156280Y22192D01*
X154760Y17401D02*
X158063Y14098D01*
X152814Y21555D02*
X154975Y23716D01*
X157326Y11924D02*
X158063Y12661D01*
X157252Y12080D02*
X158063Y11270D01*
X110431Y69682D02*
X116042Y75292D01*
X117418Y62526D02*
X119070Y64178D01*
X119502Y63973D02*
X131693Y51782D01*
X112449Y54729D02*
X121258Y63538D01*
X115954Y63890D02*
X117501Y65437D01*
X110400Y67418D02*
X114130Y63688D01*
X108695Y66294D02*
X112994Y61996D01*
X95802Y63538D02*
X130565Y98300D01*
X97041Y61948D02*
X133447Y98354D01*
X89436Y60000D02*
X129675Y100239D01*
X105381Y78094D02*
X116633Y66842D01*
X90139Y62439D02*
X122638Y95818D01*
X101195Y73795D02*
X106131Y68858D01*
X92823Y65196D02*
X94299Y63720D01*
X91428Y63763D02*
X92719Y62472D01*
X100184Y56606D02*
X136300Y92722D01*
X103986Y76661D02*
X128353Y52294D01*
X99800Y72361D02*
X118333Y53828D01*
X102637Y56231D02*
X116258Y69851D01*
X105090Y55855D02*
X116479Y67244D01*
X98404Y70928D02*
X114994Y54339D01*
X95614Y68062D02*
X108314Y55362D01*
X97009Y69495D02*
X111654Y54850D01*
X95279Y57357D02*
X106142Y68220D01*
X97732Y56982D02*
X107309Y66560D01*
X94218Y66629D02*
X104974Y55873D01*
X139730Y60716D02*
X140855Y59590D01*
X136391Y61226D02*
X138311Y59306D01*
X129725Y60691D02*
X131072Y62038D01*
X128075Y61869D02*
X128619Y62413D01*
X126376Y62756D02*
X127272Y61860D01*
X123037Y63266D02*
X125654Y60650D01*
X133053Y61736D02*
X137511Y57277D01*
X129619Y52100D02*
X138433Y60914D01*
X134525Y51349D02*
X138702Y55525D01*
X132072Y51724D02*
X137525Y57178D01*
X127166Y52475D02*
X135979Y61289D01*
X124713Y52851D02*
X133526Y61664D01*
X128750Y57553D02*
X135032Y51271D01*
X122260Y53226D02*
X126609Y57575D01*
X90579Y58315D02*
X92725Y60461D01*
X92826Y57733D02*
X94315Y59222D01*
X89413Y60121D02*
X91615Y57918D01*
X117355Y53978D02*
X126165Y62788D01*
X117269Y60549D02*
X125013Y52805D01*
X114902Y54353D02*
X123712Y63163D01*
X119808Y53602D02*
X125431Y59225D01*
X115577Y59413D02*
X121673Y53316D01*
X91648Y57913D02*
X136202Y51092D01*
X97037Y60982D02*
X101635Y56384D01*
X107543Y55480D02*
X113077Y61013D01*
X90035Y62327D02*
X94955Y57407D01*
X109996Y55104D02*
X114441Y59549D01*
X95789Y59401D02*
X98295Y56896D01*
D48*
X162463Y13051D02*
D03*
X162537Y19700D02*
D03*
Y26349D02*
D03*
M02*
