M48
;Layer_Color=9474304
;FILE_FORMAT=2:5
INCH,TZ
;TYPE=PLATED
T1F00S00C0.00787
T2F00S00C0.01000
T3F00S00C0.01200
T5F00S00C0.04724
T6F00S00C0.11811
%
T01
X75563Y61169
Y65500
Y69831
X79894
Y65500
Y61169
T02
X23500Y9500
X24500Y16000
Y21500
X24265Y24089
X25500Y27500
X36035Y28537
X38500Y23800
Y21200
X36500Y16500
Y11000
X43000Y7500
X99500Y28000
X124000Y6000
X6000Y176500
X15000
X24000
X45500Y138500
X58497Y132003
X54000Y121000
X72422Y123175
X74200Y132000
X78000Y137500
X87662Y133838
X81800Y125469
X81500Y120500
X78000Y110000
X81800Y106000
X84500Y101500
X88000Y112000
X92500Y91000
X99000Y90000
X93000Y74500
X93500Y62000
X85500Y44000
X70500Y42876
X68500Y40000
X49500
X48000Y36500
X36500Y34500
X28240Y34705
X17000Y79800
X13500Y77800
X24000Y99500
X23500Y108000
X24000Y113500
X47000Y93000
Y85500
X61385Y75615
Y72615
Y69615
X66885Y68115
X67000Y60500
X69000Y97000
X63000Y96500
X124000Y108300
Y74200
Y40100
Y142400
Y176500
X115500
X106500
T03
X29000Y85000
X43081Y88581
X44000Y79000
Y75000
X44078Y71078
X55500Y81252
X54500Y89500
X53500Y106500
X48000
X43500
X42000Y137021
X20000Y123000
X15500Y126000
X80300Y86438
X86000Y86000
T05
X16445Y89043
Y98885
Y108728
X16500Y134158
Y144000
Y153842
X113500
Y144000
Y134158
X113000Y108728
Y98885
Y89043
T06
X24500Y52000
X106000Y69500
M30
