G04*
G04 #@! TF.GenerationSoftware,Altium Limited,Altium Designer,23.4.1 (23)*
G04*
G04 Layer_Physical_Order=4*
G04 Layer_Color=16711680*
%FSLAX25Y25*%
%MOIN*%
G70*
G04*
G04 #@! TF.SameCoordinates,D0A82AA9-F4A3-43A1-B343-99984006E8F9*
G04*
G04*
G04 #@! TF.FilePolarity,Positive*
G04*
G01*
G75*
%ADD15C,0.01000*%
%ADD18C,0.00600*%
%ADD77C,0.01500*%
%ADD78C,0.00546*%
%ADD79C,0.07087*%
%ADD80R,0.07087X0.07087*%
%ADD81O,0.10236X0.04331*%
%ADD82O,0.08268X0.04331*%
%ADD83O,0.04331X0.05906*%
%ADD84C,0.15748*%
%ADD85C,0.01968*%
%ADD86C,0.02000*%
%ADD87C,0.02400*%
%ADD89R,0.10236X0.04331*%
G04:AMPARAMS|DCode=90|XSize=50mil|YSize=60mil|CornerRadius=0mil|HoleSize=0mil|Usage=FLASHONLY|Rotation=90.000|XOffset=0mil|YOffset=0mil|HoleType=Round|Shape=Octagon|*
%AMOCTAGOND90*
4,1,8,-0.03000,-0.01250,-0.03000,0.01250,-0.01750,0.02500,0.01750,0.02500,0.03000,0.01250,0.03000,-0.01250,0.01750,-0.02500,-0.01750,-0.02500,-0.03000,-0.01250,0.0*
%
%ADD90OCTAGOND90*%

%ADD91R,0.03937X0.09843*%
%ADD92R,0.11811X0.04921*%
G36*
X26000Y158635D02*
X25538Y158444D01*
X20405Y163577D01*
X20141Y163754D01*
X19828Y163816D01*
X19828Y163816D01*
X12672D01*
X12359Y163754D01*
X12095Y163577D01*
X12095Y163577D01*
X4423Y155905D01*
X4246Y155641D01*
X4240Y155608D01*
X3740Y155658D01*
Y177980D01*
X26000D01*
Y158635D01*
D02*
G37*
G36*
X126480Y2520D02*
X3740D01*
Y71842D01*
X4240Y71891D01*
X4246Y71859D01*
X4423Y71595D01*
X7095Y68923D01*
X7359Y68746D01*
X7672Y68684D01*
X7672Y68684D01*
X20334D01*
X44684Y44334D01*
Y39000D01*
X44684Y39000D01*
X44746Y38688D01*
X44923Y38423D01*
X46700Y36647D01*
Y36241D01*
X46898Y35764D01*
X47264Y35398D01*
X47741Y35200D01*
X48259D01*
X48736Y35398D01*
X49102Y35764D01*
X49300Y36241D01*
Y36759D01*
X49102Y37236D01*
X48736Y37602D01*
X48259Y37800D01*
X47853D01*
X46316Y39338D01*
Y44360D01*
X46816Y44660D01*
X46848Y44642D01*
Y41836D01*
X46848Y41836D01*
X46911Y41524D01*
X47087Y41259D01*
X48200Y40146D01*
Y39741D01*
X48398Y39264D01*
X48764Y38898D01*
X49241Y38700D01*
X49759D01*
X50236Y38898D01*
X50602Y39264D01*
X50800Y39741D01*
Y40259D01*
X50602Y40736D01*
X50236Y41102D01*
X49759Y41300D01*
X49354D01*
X48480Y42174D01*
Y45336D01*
X48480Y45336D01*
X48418Y45648D01*
X48270Y45870D01*
X48658Y46189D01*
X55423Y39423D01*
X55423Y39423D01*
X55688Y39246D01*
X56000Y39184D01*
X67477D01*
X67764Y38898D01*
X68241Y38700D01*
X68759D01*
X69236Y38898D01*
X69602Y39264D01*
X69800Y39741D01*
Y40259D01*
X69602Y40736D01*
X69236Y41102D01*
X68759Y41300D01*
X68241D01*
X67764Y41102D01*
X67477Y40816D01*
X56338D01*
X55479Y41675D01*
X55762Y42098D01*
X55952Y42061D01*
X55952Y42061D01*
X69477D01*
X69764Y41774D01*
X70241Y41576D01*
X70759D01*
X71236Y41774D01*
X71602Y42140D01*
X71800Y42618D01*
Y43135D01*
X71602Y43613D01*
X71236Y43978D01*
X70759Y44176D01*
X70241D01*
X69764Y43978D01*
X69477Y43692D01*
X56290D01*
X51760Y48222D01*
X51995Y48674D01*
X52005Y48684D01*
X81000D01*
X81000Y48684D01*
X81312Y48746D01*
X81577Y48923D01*
X93353Y60700D01*
X93759D01*
X94236Y60898D01*
X94602Y61264D01*
X94800Y61741D01*
Y62259D01*
X94602Y62736D01*
X94236Y63102D01*
X93759Y63300D01*
X93408D01*
X93172Y63771D01*
X93577Y64176D01*
X93577Y64176D01*
X93754Y64441D01*
X93816Y64753D01*
Y73477D01*
X94102Y73764D01*
X94300Y74241D01*
Y74759D01*
X94102Y75236D01*
X93736Y75602D01*
X93259Y75800D01*
X92741D01*
X92264Y75602D01*
X91898Y75236D01*
X91700Y74759D01*
Y74241D01*
X91898Y73764D01*
X92184Y73477D01*
Y65091D01*
X79409Y52316D01*
X53338D01*
X25577Y80077D01*
X25416Y80184D01*
X25515Y80684D01*
X39552D01*
X39675Y80500D01*
Y67779D01*
X39770Y67549D01*
X40000Y67454D01*
X48731D01*
X48961Y67549D01*
X49666Y68254D01*
X52362Y68254D01*
X52362Y68254D01*
X52409Y68274D01*
X52460Y68269D01*
X52520Y68319D01*
X52592Y68349D01*
X52611Y68396D01*
X52650Y68429D01*
X52878Y68585D01*
X53130Y68674D01*
X53156Y68676D01*
X53732Y68377D01*
X53732Y68279D01*
X54051Y68252D01*
X54091Y68268D01*
X54149Y68267D01*
X54163Y68279D01*
X56675D01*
Y65000D01*
X56770Y64770D01*
X57000Y64675D01*
X73500D01*
X73730Y64770D01*
X73825Y65000D01*
Y78000D01*
X73730Y78230D01*
X73230Y78730D01*
X73000Y78825D01*
X57000D01*
X56770Y78730D01*
X56767Y78721D01*
X54232D01*
X54150Y78721D01*
X54130Y78736D01*
X54079Y78734D01*
X54051Y78746D01*
X53732Y78721D01*
Y78608D01*
X52612Y77936D01*
X52247Y78271D01*
X52299Y78340D01*
X52293Y78382D01*
X52309Y78421D01*
X52276Y78501D01*
X52264Y78586D01*
X52230Y78611D01*
X52214Y78651D01*
X52135Y78684D01*
X52066Y78736D01*
X52024Y78730D01*
X51984Y78746D01*
X51984Y78746D01*
X51981Y78746D01*
X49828D01*
X49824Y80184D01*
X50228Y80662D01*
X50285Y80684D01*
X54111D01*
X54228Y80402D01*
X54650Y79980D01*
X55202Y79752D01*
X55798D01*
X56350Y79980D01*
X56772Y80402D01*
X57000Y80954D01*
Y81550D01*
X56772Y82102D01*
X56350Y82524D01*
X55798Y82752D01*
X55202D01*
X54650Y82524D01*
X54442Y82316D01*
X23424D01*
X23316Y82424D01*
Y92830D01*
X23254Y93142D01*
X23077Y93407D01*
X23077Y93407D01*
X19681Y96803D01*
X20026Y97401D01*
X20288Y98379D01*
Y99391D01*
X20026Y100368D01*
X19520Y101245D01*
X18805Y101960D01*
X17928Y102466D01*
X16951Y102728D01*
X15939D01*
X14961Y102466D01*
X14085Y101960D01*
X13370Y101245D01*
X12864Y100368D01*
X12602Y99391D01*
Y98379D01*
X12864Y97401D01*
X13370Y96525D01*
X14085Y95810D01*
X14961Y95304D01*
X15939Y95042D01*
X16951D01*
X17928Y95304D01*
X18527Y95649D01*
X21684Y92492D01*
Y82086D01*
X21684Y82086D01*
X21746Y81774D01*
X21923Y81509D01*
X22431Y81001D01*
X22147Y80578D01*
X21957Y80616D01*
X21957Y80616D01*
X18023D01*
X17736Y80902D01*
X17259Y81100D01*
X16741D01*
X16264Y80902D01*
X15898Y80536D01*
X15700Y80059D01*
Y79541D01*
X15898Y79064D01*
X15911Y79051D01*
X15859Y78824D01*
X15691Y78563D01*
X14575D01*
X14236Y78902D01*
X13759Y79100D01*
X13241D01*
X12764Y78902D01*
X12398Y78536D01*
X12316Y78338D01*
X11816Y78437D01*
Y116662D01*
X17338Y122184D01*
X18714D01*
X18728Y122150D01*
X19150Y121728D01*
X19702Y121500D01*
X20298D01*
X20850Y121728D01*
X21272Y122150D01*
X21500Y122702D01*
Y123298D01*
X21272Y123850D01*
X20850Y124272D01*
X20298Y124500D01*
X19702D01*
X19150Y124272D01*
X18728Y123850D01*
X18714Y123816D01*
X17000D01*
X16688Y123754D01*
X16423Y123577D01*
X16401Y123587D01*
X16094Y124029D01*
X16157Y124341D01*
Y124648D01*
X16350Y124728D01*
X16772Y125150D01*
X17000Y125702D01*
Y126298D01*
X16772Y126850D01*
X16350Y127272D01*
X15798Y127500D01*
X15202D01*
X14650Y127272D01*
X14228Y126850D01*
X14000Y126298D01*
Y125702D01*
X14228Y125150D01*
X14295Y125083D01*
Y124449D01*
X8423Y118577D01*
X8316Y118416D01*
X7816Y118515D01*
Y154162D01*
X13838Y160184D01*
X18662D01*
X22684Y156162D01*
Y144043D01*
X22684Y144043D01*
X22746Y143731D01*
X22923Y143466D01*
X28082Y138308D01*
Y134531D01*
X38918D01*
Y139461D01*
X29235D01*
X24316Y144381D01*
Y145738D01*
X24816Y145836D01*
X24923Y145675D01*
X26305Y144293D01*
X26305Y144293D01*
X26570Y144116D01*
X26882Y144054D01*
X26882Y144054D01*
X28082D01*
Y142405D01*
X38918D01*
Y147335D01*
X28082D01*
Y145686D01*
X27220D01*
X26316Y146590D01*
Y149000D01*
X104000D01*
Y177980D01*
X126480D01*
X126480Y2520D01*
D02*
G37*
G36*
X54051Y75112D02*
Y71962D01*
X51098Y73500D01*
X53940Y75170D01*
X51098Y76650D01*
X54051Y78421D01*
Y75112D01*
D02*
G37*
G36*
Y68576D02*
X51098Y70114D01*
X54051Y71849D01*
Y68576D01*
D02*
G37*
G36*
X49504Y78421D02*
X51984D01*
X49508Y76967D01*
X49510Y76363D01*
X51984Y75075D01*
X49518Y73626D01*
X49519Y73209D01*
X51984Y71925D01*
X49526Y70450D01*
X49527Y70055D01*
X52362Y68579D01*
X49531D01*
X48731Y67779D01*
X40000D01*
Y80500D01*
X49499D01*
X49504Y78421D01*
D02*
G37*
G36*
X73500Y78000D02*
Y65000D01*
X57000D01*
Y78500D01*
X73000D01*
X73500Y78000D01*
D02*
G37*
%LPC*%
G36*
X117343Y157686D02*
X109657D01*
Y149999D01*
X117343D01*
Y157686D01*
D02*
G37*
G36*
X114006Y147843D02*
X112994D01*
X112016Y147581D01*
X111140Y147075D01*
X110425Y146360D01*
X109919Y145484D01*
X109657Y144506D01*
Y143494D01*
X109919Y142517D01*
X110425Y141640D01*
X111140Y140925D01*
X112016Y140419D01*
X112994Y140157D01*
X114006D01*
X114983Y140419D01*
X115860Y140925D01*
X116575Y141640D01*
X117081Y142517D01*
X117343Y143494D01*
Y144506D01*
X117081Y145484D01*
X116575Y146360D01*
X115860Y147075D01*
X114983Y147581D01*
X114006Y147843D01*
D02*
G37*
G36*
X17006D02*
X15994D01*
X15017Y147581D01*
X14140Y147075D01*
X13425Y146360D01*
X12919Y145484D01*
X12657Y144506D01*
Y143494D01*
X12919Y142517D01*
X13425Y141640D01*
X14140Y140925D01*
X15017Y140419D01*
X15994Y140157D01*
X17006D01*
X17984Y140419D01*
X18860Y140925D01*
X19575Y141640D01*
X20081Y142517D01*
X20343Y143494D01*
Y144506D01*
X20081Y145484D01*
X19575Y146360D01*
X18860Y147075D01*
X17984Y147581D01*
X17006Y147843D01*
D02*
G37*
G36*
X45759Y139800D02*
X45241D01*
X44764Y139602D01*
X44398Y139236D01*
X44200Y138759D01*
Y138241D01*
X44398Y137764D01*
X44764Y137398D01*
X45241Y137200D01*
X45759D01*
X46236Y137398D01*
X46602Y137764D01*
X46800Y138241D01*
Y138759D01*
X46602Y139236D01*
X46236Y139602D01*
X45759Y139800D01*
D02*
G37*
G36*
X78259Y138800D02*
X77741D01*
X77264Y138602D01*
X76898Y138236D01*
X76700Y137759D01*
Y137241D01*
X76898Y136764D01*
X77264Y136398D01*
X77741Y136200D01*
X78259D01*
X78736Y136398D01*
X79102Y136764D01*
X79300Y137241D01*
Y137759D01*
X79102Y138236D01*
X78736Y138602D01*
X78259Y138800D01*
D02*
G37*
G36*
X87920Y135138D02*
X87403D01*
X87248Y135074D01*
X87038Y135116D01*
X87038Y135116D01*
X64047D01*
X63735Y135054D01*
X63471Y134877D01*
X63471Y134877D01*
X60269Y131675D01*
X59797Y131911D01*
Y132261D01*
X59599Y132739D01*
X59234Y133105D01*
X58756Y133303D01*
X58239D01*
X57761Y133105D01*
X57395Y132739D01*
X57197Y132261D01*
Y131744D01*
X57395Y131266D01*
X57761Y130901D01*
X58239Y130703D01*
X58589D01*
X58825Y130231D01*
X50657Y122064D01*
X38918D01*
Y123713D01*
X28082D01*
Y118783D01*
X38918D01*
Y120432D01*
X50995D01*
X50995Y120432D01*
X51307Y120494D01*
X51572Y120671D01*
X52229Y121328D01*
X52700Y121092D01*
Y120741D01*
X52898Y120264D01*
X53264Y119898D01*
X53741Y119700D01*
X54259D01*
X54736Y119898D01*
X55102Y120264D01*
X55300Y120741D01*
Y121259D01*
X55102Y121736D01*
X54736Y122102D01*
X54259Y122300D01*
X53908D01*
X53672Y122771D01*
X64385Y133484D01*
X73179D01*
X73346Y132984D01*
X73098Y132736D01*
X72900Y132259D01*
Y131741D01*
X73098Y131264D01*
X73464Y130898D01*
X73941Y130700D01*
X74459D01*
X74936Y130898D01*
X75223Y131184D01*
X81070D01*
X81292Y130962D01*
X81292Y130961D01*
X81557Y130785D01*
X81869Y130722D01*
X81869Y130723D01*
X89504D01*
X89504Y130722D01*
X89816Y130785D01*
X90080Y130961D01*
X90574Y131455D01*
X91074Y131248D01*
Y129938D01*
X90122D01*
X90122Y129938D01*
X89810Y129876D01*
X89545Y129699D01*
X81647Y121800D01*
X81241D01*
X80764Y121602D01*
X80398Y121236D01*
X80200Y120759D01*
Y120241D01*
X80398Y119764D01*
X80764Y119398D01*
X81241Y119200D01*
X81759D01*
X82236Y119398D01*
X82602Y119764D01*
X82800Y120241D01*
Y120647D01*
X90460Y128306D01*
X91074D01*
Y126657D01*
X101910D01*
Y131104D01*
X102383Y131313D01*
X102684Y131076D01*
Y117767D01*
X100757Y115839D01*
X91074D01*
Y110909D01*
X101910D01*
Y114686D01*
X104077Y116852D01*
X104077Y116852D01*
X104254Y117117D01*
X104316Y117429D01*
X104316Y117429D01*
Y131519D01*
X104316Y131519D01*
X104254Y131831D01*
X104077Y132096D01*
X104077Y132096D01*
X102808Y133364D01*
X102544Y133541D01*
X102232Y133603D01*
X102232Y133603D01*
X90753D01*
X90440Y133541D01*
X90176Y133364D01*
X90176Y133364D01*
X89166Y132354D01*
X88683D01*
X88516Y132854D01*
X88764Y133102D01*
X88962Y133580D01*
Y134097D01*
X88764Y134575D01*
X88398Y134940D01*
X87920Y135138D01*
D02*
G37*
G36*
X101910Y139461D02*
X91074D01*
Y134531D01*
X101910D01*
Y139461D01*
D02*
G37*
G36*
X20343Y138001D02*
X12657D01*
Y130314D01*
X20343D01*
Y138001D01*
D02*
G37*
G36*
X82059Y126769D02*
X81541D01*
X81064Y126571D01*
X80698Y126205D01*
X80500Y125727D01*
Y125210D01*
X80698Y124732D01*
X81064Y124366D01*
X81541Y124169D01*
X82059D01*
X82536Y124366D01*
X82902Y124732D01*
X83100Y125210D01*
Y125727D01*
X82902Y126205D01*
X82536Y126571D01*
X82059Y126769D01*
D02*
G37*
G36*
X101910Y123713D02*
X91074D01*
Y118783D01*
X101910D01*
Y123713D01*
D02*
G37*
G36*
X38918Y131587D02*
X28082D01*
Y127810D01*
X25423Y125152D01*
X25246Y124887D01*
X25184Y124575D01*
X25184Y124575D01*
Y117586D01*
X25184Y117586D01*
X25246Y117274D01*
X25423Y117009D01*
X26009Y116423D01*
X26009Y116423D01*
X26274Y116246D01*
X26586Y116184D01*
X27721D01*
X27721Y116184D01*
X27725Y116185D01*
X28082Y115777D01*
X28082Y115724D01*
Y114316D01*
X25023D01*
X24736Y114602D01*
X24259Y114800D01*
X23741D01*
X23264Y114602D01*
X22898Y114236D01*
X22700Y113759D01*
Y113241D01*
X22898Y112764D01*
X23264Y112398D01*
X23741Y112200D01*
X24259D01*
X24736Y112398D01*
X25023Y112684D01*
X28082D01*
Y110909D01*
X38918D01*
Y115724D01*
X38918Y115839D01*
X39197Y116224D01*
X82623D01*
X86700Y112146D01*
Y111741D01*
X86898Y111264D01*
X87264Y110898D01*
X87741Y110700D01*
X88259D01*
X88736Y110898D01*
X89102Y111264D01*
X89300Y111741D01*
Y112259D01*
X89102Y112736D01*
X88736Y113102D01*
X88259Y113300D01*
X87853D01*
X83537Y117616D01*
X83273Y117793D01*
X82961Y117855D01*
X82961Y117855D01*
X27761D01*
X27563Y117816D01*
X26924D01*
X26816Y117924D01*
Y124237D01*
X29235Y126657D01*
X38918D01*
Y131587D01*
D02*
G37*
G36*
X78259Y111300D02*
X77741D01*
X77264Y111102D01*
X76898Y110736D01*
X76700Y110259D01*
Y109741D01*
X76898Y109264D01*
X77264Y108898D01*
X77741Y108700D01*
X78259D01*
X78736Y108898D01*
X79102Y109264D01*
X79300Y109741D01*
Y110259D01*
X79102Y110736D01*
X78736Y111102D01*
X78259Y111300D01*
D02*
G37*
G36*
X53798Y108000D02*
X53202D01*
X52650Y107772D01*
X52228Y107350D01*
X52000Y106798D01*
Y106202D01*
X52228Y105650D01*
X52650Y105228D01*
X53202Y105000D01*
X53798D01*
X54350Y105228D01*
X54772Y105650D01*
X55000Y106202D01*
Y106798D01*
X54772Y107350D01*
X54350Y107772D01*
X53798Y108000D01*
D02*
G37*
G36*
X48298D02*
X47702D01*
X47150Y107772D01*
X46728Y107350D01*
X46500Y106798D01*
Y106202D01*
X46728Y105650D01*
X47150Y105228D01*
X47702Y105000D01*
X48298D01*
X48850Y105228D01*
X49272Y105650D01*
X49500Y106202D01*
Y106798D01*
X49272Y107350D01*
X48850Y107772D01*
X48298Y108000D01*
D02*
G37*
G36*
X43798D02*
X43202D01*
X42650Y107772D01*
X42228Y107350D01*
X42000Y106798D01*
Y106202D01*
X42228Y105650D01*
X42650Y105228D01*
X43202Y105000D01*
X43798D01*
X44350Y105228D01*
X44772Y105650D01*
X45000Y106202D01*
Y106798D01*
X44772Y107350D01*
X44350Y107772D01*
X43798Y108000D01*
D02*
G37*
G36*
X116843Y112571D02*
X109157D01*
Y104884D01*
X116843D01*
Y112571D01*
D02*
G37*
G36*
X82059Y107300D02*
X81541D01*
X81064Y107102D01*
X80698Y106736D01*
X80500Y106259D01*
Y105741D01*
X80698Y105264D01*
X81064Y104898D01*
X81541Y104700D01*
X82059D01*
X82536Y104898D01*
X82902Y105264D01*
X83100Y105741D01*
Y106259D01*
X82902Y106736D01*
X82536Y107102D01*
X82059Y107300D01*
D02*
G37*
G36*
X101910Y107965D02*
X91074D01*
Y103035D01*
X101910D01*
Y107965D01*
D02*
G37*
G36*
X23759Y109300D02*
X23241D01*
X22764Y109102D01*
X22398Y108736D01*
X22200Y108259D01*
Y107741D01*
X22398Y107264D01*
X22764Y106898D01*
X23241Y106700D01*
X23759D01*
X23794Y106715D01*
X23920Y106589D01*
X24185Y106412D01*
X24497Y106350D01*
X24497Y106350D01*
X28082D01*
Y103035D01*
X38918D01*
Y107965D01*
X31914D01*
X31835Y107981D01*
X31835Y107981D01*
X24835D01*
X24800Y108016D01*
Y108259D01*
X24602Y108736D01*
X24236Y109102D01*
X23759Y109300D01*
D02*
G37*
G36*
X84759Y102800D02*
X84241D01*
X83764Y102602D01*
X83398Y102236D01*
X83200Y101759D01*
Y101241D01*
X83398Y100764D01*
X83764Y100398D01*
X84241Y100200D01*
X84759D01*
X85236Y100398D01*
X85602Y100764D01*
X85800Y101241D01*
Y101759D01*
X85602Y102236D01*
X85236Y102602D01*
X84759Y102800D01*
D02*
G37*
G36*
X101910Y100091D02*
X91074D01*
Y98442D01*
X69788D01*
X69476Y98380D01*
X69319Y98275D01*
X69259Y98300D01*
X68741D01*
X68264Y98102D01*
X67898Y97736D01*
X67700Y97259D01*
Y96741D01*
X67898Y96264D01*
X68264Y95898D01*
X68741Y95700D01*
X69259D01*
X69736Y95898D01*
X70102Y96264D01*
X70300Y96741D01*
Y96810D01*
X91074D01*
Y95161D01*
X101910D01*
Y100091D01*
D02*
G37*
G36*
X24259Y100800D02*
X23741D01*
X23264Y100602D01*
X22898Y100236D01*
X22700Y99759D01*
Y99241D01*
X22898Y98764D01*
X23264Y98398D01*
X23741Y98200D01*
X24259D01*
X24736Y98398D01*
X24814Y98476D01*
X28082D01*
Y95161D01*
X38918D01*
Y100091D01*
X31914D01*
X31835Y100107D01*
X31835Y100107D01*
X25156D01*
X25102Y100236D01*
X24736Y100602D01*
X24259Y100800D01*
D02*
G37*
G36*
X113506Y102728D02*
X112494D01*
X111516Y102466D01*
X110640Y101960D01*
X109925Y101245D01*
X109419Y100368D01*
X109157Y99391D01*
Y98379D01*
X109419Y97401D01*
X109925Y96525D01*
X110640Y95810D01*
X111516Y95304D01*
X112494Y95042D01*
X113506D01*
X114483Y95304D01*
X115360Y95810D01*
X116075Y96525D01*
X116581Y97401D01*
X116843Y98379D01*
Y99391D01*
X116581Y100368D01*
X116075Y101245D01*
X115360Y101960D01*
X114483Y102466D01*
X113506Y102728D01*
D02*
G37*
G36*
X54798Y91000D02*
X54202D01*
X53650Y90772D01*
X53228Y90350D01*
X53000Y89798D01*
Y89202D01*
X53228Y88650D01*
X53650Y88228D01*
X54202Y88000D01*
X54798D01*
X55350Y88228D01*
X55772Y88650D01*
X56000Y89202D01*
Y89798D01*
X55772Y90350D01*
X55350Y90772D01*
X54798Y91000D01*
D02*
G37*
G36*
X43380Y90081D02*
X42783D01*
X42232Y89853D01*
X41810Y89431D01*
X41581Y88880D01*
Y88283D01*
X41810Y87732D01*
X42232Y87310D01*
X42783Y87081D01*
X43380D01*
X43931Y87310D01*
X44353Y87732D01*
X44581Y88283D01*
Y88880D01*
X44353Y89431D01*
X43931Y89853D01*
X43380Y90081D01*
D02*
G37*
G36*
X20288Y92886D02*
X12602D01*
Y85199D01*
X20288D01*
Y92886D01*
D02*
G37*
G36*
X80598Y87938D02*
X80002D01*
X79450Y87709D01*
X79028Y87287D01*
X78800Y86736D01*
Y86139D01*
X79028Y85588D01*
X79450Y85166D01*
X80002Y84938D01*
X80598D01*
X81150Y85166D01*
X81572Y85588D01*
X81800Y86139D01*
Y86736D01*
X81572Y87287D01*
X81150Y87709D01*
X80598Y87938D01*
D02*
G37*
G36*
X86298Y87500D02*
X85702D01*
X85150Y87272D01*
X84728Y86850D01*
X84500Y86298D01*
Y85702D01*
X84728Y85150D01*
X85150Y84728D01*
X85702Y84500D01*
X86298D01*
X86850Y84728D01*
X87272Y85150D01*
X87500Y85702D01*
Y86298D01*
X87272Y86850D01*
X86850Y87272D01*
X86298Y87500D01*
D02*
G37*
G36*
X92759Y92300D02*
X92241D01*
X92042Y92217D01*
X91074D01*
Y87287D01*
X95422D01*
Y84475D01*
X88286Y77339D01*
X84600D01*
X83200Y75939D01*
Y73139D01*
X84600Y71739D01*
X88400D01*
X89800Y73139D01*
Y75825D01*
X97249Y83275D01*
X97481Y83622D01*
X97563Y84031D01*
Y87287D01*
X101910D01*
Y92217D01*
X92958D01*
X92759Y92300D01*
D02*
G37*
G36*
X91409Y147816D02*
X91409Y147816D01*
X42586D01*
X42274Y147754D01*
X42009Y147577D01*
X42009Y147577D01*
X41423Y146991D01*
X41246Y146726D01*
X41184Y146414D01*
X41184Y146414D01*
Y138306D01*
X41150Y138292D01*
X40728Y137870D01*
X40500Y137319D01*
Y136722D01*
X40728Y136171D01*
X41150Y135749D01*
X41702Y135521D01*
X42298D01*
X42850Y135749D01*
X43272Y136171D01*
X43500Y136722D01*
Y137319D01*
X43272Y137870D01*
X42850Y138292D01*
X42816Y138306D01*
Y146076D01*
X42924Y146184D01*
X91072D01*
X91074Y146182D01*
Y142405D01*
X101910D01*
Y143769D01*
X102410Y143936D01*
X105184Y141162D01*
Y83338D01*
X96049Y74203D01*
X95872Y73938D01*
X95810Y73626D01*
X95810Y73626D01*
Y52210D01*
X95810Y52210D01*
X95872Y51898D01*
X96049Y51633D01*
X98684Y48998D01*
Y29023D01*
X98398Y28736D01*
X98200Y28259D01*
Y27741D01*
X98398Y27264D01*
X98764Y26898D01*
X99241Y26700D01*
X99759D01*
X100236Y26898D01*
X100602Y27264D01*
X100800Y27741D01*
Y28259D01*
X100602Y28736D01*
X100316Y29023D01*
Y49336D01*
X100316Y49336D01*
X100254Y49648D01*
X100077Y49912D01*
X100077Y49912D01*
X97442Y52548D01*
Y68064D01*
X97942Y68113D01*
X98140Y67116D01*
X98756Y65628D01*
X99651Y64289D01*
X100789Y63151D01*
X102128Y62256D01*
X103616Y61640D01*
X105195Y61326D01*
X106805D01*
X108384Y61640D01*
X109872Y62256D01*
X111211Y63151D01*
X112349Y64289D01*
X113244Y65628D01*
X113860Y67116D01*
X114174Y68695D01*
Y70305D01*
X113860Y71884D01*
X113244Y73372D01*
X112349Y74711D01*
X111211Y75849D01*
X109872Y76744D01*
X108384Y77360D01*
X106805Y77674D01*
X105195D01*
X103616Y77360D01*
X102128Y76744D01*
X100789Y75849D01*
X99651Y74711D01*
X98756Y73372D01*
X98140Y71884D01*
X97942Y70886D01*
X97442Y70936D01*
Y73288D01*
X106577Y82423D01*
X106577Y82423D01*
X106754Y82688D01*
X106816Y83000D01*
X106816Y83000D01*
Y141500D01*
X106754Y141812D01*
X106577Y142077D01*
X106577Y142077D01*
X103207Y145447D01*
X102942Y145624D01*
X102630Y145686D01*
X102630Y145686D01*
X101910D01*
Y147335D01*
X92228D01*
X91986Y147577D01*
X91722Y147754D01*
X91409Y147816D01*
D02*
G37*
G36*
X117500Y61644D02*
X116538Y61452D01*
X115723Y60907D01*
X115178Y60092D01*
X114986Y59130D01*
Y57555D01*
X115178Y56593D01*
X115723Y55778D01*
X116538Y55233D01*
X117500Y55041D01*
X118462Y55233D01*
X119277Y55778D01*
X119822Y56593D01*
X120014Y57555D01*
Y59130D01*
X119822Y60092D01*
X119277Y60907D01*
X118462Y61452D01*
X117500Y61644D01*
D02*
G37*
G36*
Y51801D02*
X116538Y51610D01*
X115723Y51065D01*
X115178Y50249D01*
X114986Y49287D01*
Y49090D01*
X109149D01*
X107900Y50339D01*
X104100D01*
X102700Y48939D01*
Y46139D01*
X104100Y44739D01*
X107900D01*
X109300Y46139D01*
Y46949D01*
X115138D01*
X115178Y46751D01*
X115723Y45935D01*
X116538Y45390D01*
X117500Y45199D01*
X118462Y45390D01*
X119277Y45935D01*
X119822Y46751D01*
X120014Y47713D01*
Y49287D01*
X119822Y50249D01*
X119277Y51065D01*
X118462Y51610D01*
X117500Y51801D01*
D02*
G37*
G36*
X25305Y60174D02*
X23695D01*
X22116Y59860D01*
X20628Y59244D01*
X19289Y58349D01*
X18151Y57211D01*
X17256Y55872D01*
X16640Y54384D01*
X16326Y52805D01*
Y51195D01*
X16640Y49616D01*
X17256Y48128D01*
X18151Y46789D01*
X19289Y45651D01*
X20628Y44756D01*
X22116Y44140D01*
X23695Y43826D01*
X25305D01*
X26884Y44140D01*
X28372Y44756D01*
X29711Y45651D01*
X30849Y46789D01*
X31744Y48128D01*
X32360Y49616D01*
X32674Y51195D01*
Y52805D01*
X32360Y54384D01*
X31744Y55872D01*
X30849Y57211D01*
X29711Y58349D01*
X28372Y59244D01*
X26884Y59860D01*
X25305Y60174D01*
D02*
G37*
G36*
X85759Y45300D02*
X85241D01*
X84764Y45102D01*
X84398Y44736D01*
X84200Y44259D01*
Y43741D01*
X84398Y43264D01*
X84764Y42898D01*
X85241Y42700D01*
X85759D01*
X86236Y42898D01*
X86602Y43264D01*
X86800Y43741D01*
Y44259D01*
X86602Y44736D01*
X86236Y45102D01*
X85759Y45300D01*
D02*
G37*
G36*
X117500Y41958D02*
X116538Y41767D01*
X115723Y41222D01*
X115178Y40407D01*
X114986Y39445D01*
Y37870D01*
X115178Y36908D01*
X115723Y36093D01*
X116538Y35548D01*
X117500Y35356D01*
X118462Y35548D01*
X119277Y36093D01*
X119822Y36908D01*
X120014Y37870D01*
Y39445D01*
X119822Y40407D01*
X119277Y41222D01*
X118462Y41767D01*
X117500Y41958D01*
D02*
G37*
G36*
X36293Y29837D02*
X35776D01*
X35298Y29639D01*
X34933Y29273D01*
X34735Y28796D01*
Y28278D01*
X34933Y27801D01*
X35298Y27435D01*
X35776Y27237D01*
X36293D01*
X36771Y27435D01*
X37137Y27801D01*
X37335Y28278D01*
Y28796D01*
X37137Y29273D01*
X36771Y29639D01*
X36293Y29837D01*
D02*
G37*
G36*
X25759Y28800D02*
X25241D01*
X24764Y28602D01*
X24398Y28236D01*
X24200Y27759D01*
Y27241D01*
X24398Y26764D01*
X24764Y26398D01*
X25241Y26200D01*
X25759D01*
X26236Y26398D01*
X26602Y26764D01*
X26800Y27241D01*
Y27759D01*
X26602Y28236D01*
X26236Y28602D01*
X25759Y28800D01*
D02*
G37*
G36*
X24524Y25389D02*
X24007D01*
X23529Y25192D01*
X23163Y24826D01*
X22965Y24348D01*
Y23831D01*
X22982Y23791D01*
X21989Y22797D01*
X21807Y22359D01*
Y20641D01*
X21989Y20203D01*
X23595Y18597D01*
X24033Y18415D01*
X26494D01*
X26932Y18597D01*
X27593Y19258D01*
X30591D01*
X31030Y19439D01*
X32947Y21357D01*
X37181D01*
X37200Y21338D01*
Y20941D01*
X37398Y20464D01*
X37764Y20098D01*
X38241Y19900D01*
X38759D01*
X39236Y20098D01*
X39602Y20464D01*
X39800Y20941D01*
Y21459D01*
X39602Y21936D01*
X39339Y22199D01*
X39277Y22500D01*
X39339Y22801D01*
X39602Y23064D01*
X39800Y23541D01*
Y24059D01*
X39602Y24536D01*
X39236Y24902D01*
X38759Y25100D01*
X38241D01*
X37764Y24902D01*
X37398Y24536D01*
X37200Y24059D01*
Y23662D01*
X37181Y23643D01*
X32257D01*
X31819Y23461D01*
X29901Y21544D01*
X26903D01*
X26465Y21362D01*
X26269Y21166D01*
X25800Y21405D01*
Y21759D01*
X25602Y22236D01*
X25253Y22585D01*
X25235Y22614D01*
X25181Y23166D01*
X25368Y23353D01*
X25565Y23831D01*
Y24348D01*
X25368Y24826D01*
X25002Y25192D01*
X24524Y25389D01*
D02*
G37*
G36*
X36759Y17800D02*
X36241D01*
X35764Y17602D01*
X35398Y17236D01*
X35200Y16759D01*
Y16241D01*
X35398Y15764D01*
X35764Y15398D01*
X36241Y15200D01*
X36759D01*
X37236Y15398D01*
X37602Y15764D01*
X37800Y16241D01*
Y16759D01*
X37602Y17236D01*
X37236Y17602D01*
X36759Y17800D01*
D02*
G37*
G36*
X24759Y17300D02*
X24241D01*
X23764Y17102D01*
X23398Y16736D01*
X23200Y16259D01*
Y15741D01*
X23398Y15264D01*
X23764Y14898D01*
X24241Y14700D01*
X24759D01*
X25236Y14898D01*
X25602Y15264D01*
X25800Y15741D01*
Y16259D01*
X25602Y16736D01*
X25236Y17102D01*
X24759Y17300D01*
D02*
G37*
G36*
X23759Y10800D02*
X23241D01*
X22764Y10602D01*
X22398Y10236D01*
X22200Y9759D01*
Y9241D01*
X22398Y8764D01*
X22764Y8398D01*
X23241Y8200D01*
X23759D01*
X24236Y8398D01*
X24602Y8764D01*
X24638Y8851D01*
X34337D01*
X36146Y7041D01*
X36606Y6851D01*
X41862D01*
X41898Y6764D01*
X42264Y6398D01*
X42741Y6200D01*
X43259D01*
X43736Y6398D01*
X44102Y6764D01*
X44300Y7241D01*
Y7759D01*
X44102Y8236D01*
X43736Y8602D01*
X43259Y8800D01*
X42741D01*
X42264Y8602D01*
X41898Y8236D01*
X41862Y8149D01*
X36874D01*
X35065Y9959D01*
X34606Y10149D01*
X24638D01*
X24602Y10236D01*
X24236Y10602D01*
X23759Y10800D01*
D02*
G37*
%LPD*%
D15*
X55252Y81500D02*
X55500Y81252D01*
X23086Y81500D02*
X55252D01*
X25000Y79500D02*
X53000Y51500D01*
X22257Y79500D02*
X25000D01*
X53000Y51500D02*
X79747D01*
X16047Y77500D02*
X24000D01*
X52000Y49500D02*
X81000D01*
X24000Y77500D02*
X52000Y49500D01*
X74200Y132000D02*
X81407D01*
X81500Y120500D02*
X90122Y129122D01*
X50995Y121248D02*
X64047Y134300D01*
X87038D01*
X87499Y133838D01*
X33500Y121248D02*
X50995D01*
X87499Y133838D02*
X87662D01*
X81869Y131538D02*
X89504D01*
X90753Y132787D02*
X102232D01*
X103500Y117429D02*
Y131519D01*
X102232Y132787D02*
X103500Y131519D01*
X89504Y131538D02*
X90753Y132787D01*
X81407Y132000D02*
X81869Y131538D01*
X26000Y117586D02*
Y124575D01*
X82961Y117039D02*
X88000Y112000D01*
X27761Y117039D02*
X82961D01*
X27721Y117000D02*
X27761Y117039D01*
X26586Y117000D02*
X27721D01*
X26000Y117586D02*
X26586Y117000D01*
X30547Y129122D02*
X33500D01*
X26000Y124575D02*
X30547Y129122D01*
X23328Y75500D02*
X55952Y42876D01*
X70500D01*
X9914Y73500D02*
X22500D01*
X56000Y40000D01*
X68500D01*
X11586Y75500D02*
X23328D01*
X47664Y41836D02*
Y45336D01*
X45500Y39000D02*
Y44672D01*
X8500Y71500D02*
X21500D01*
X47664Y45336D01*
X20672Y69500D02*
X45500Y44672D01*
X7672Y69500D02*
X20672D01*
X47664Y41836D02*
X49500Y40000D01*
X45500Y39000D02*
X48000Y36500D01*
X15800Y77747D02*
X16047Y77500D01*
X13553Y77747D02*
X15800D01*
X11000Y76086D02*
X11586Y75500D01*
X11000Y76086D02*
Y117000D01*
X9000Y74414D02*
Y118000D01*
X13500Y77800D02*
X13553Y77747D01*
X9000Y74414D02*
X9914Y73500D01*
X7000Y73000D02*
X8500Y71500D01*
X5000Y72172D02*
X7672Y69500D01*
X5000Y72172D02*
Y155328D01*
X7000Y73000D02*
Y154500D01*
X5000Y155328D02*
X12672Y163000D01*
X7000Y154500D02*
X13500Y161000D01*
X12672Y163000D02*
X19828D01*
X13500Y161000D02*
X19000D01*
X19828Y163000D02*
X25500Y157328D01*
X19000Y161000D02*
X23500Y156500D01*
Y144043D02*
Y156500D01*
Y144043D02*
X30547Y136996D01*
X26882Y144870D02*
X33500D01*
X25500Y146252D02*
X26882Y144870D01*
X25500Y146252D02*
Y157328D01*
X30547Y136996D02*
X33500D01*
X9000Y118000D02*
X15341Y124341D01*
X11000Y117000D02*
X17000Y123000D01*
X15341Y125841D02*
X15500Y126000D01*
X15341Y124341D02*
Y125841D01*
X17000Y123000D02*
X20000D01*
X42586Y147000D02*
X91409D01*
X42000Y137021D02*
Y146414D01*
X42586Y147000D01*
X69788Y97626D02*
X96492D01*
X69162Y97000D02*
X69788Y97626D01*
X69000Y97000D02*
X69162D01*
X99445Y113374D02*
X103500Y117429D01*
X96492Y113374D02*
X99445D01*
X90122Y129122D02*
X96492D01*
X99500Y28000D02*
Y49336D01*
X96626Y52210D02*
X99500Y49336D01*
X96626Y52210D02*
Y73626D01*
X106000Y83000D01*
Y141500D01*
X96492Y144870D02*
X102630D01*
X106000Y141500D01*
X93748Y89752D02*
X96492D01*
X92500Y91000D02*
X93748Y89752D01*
X17000Y79800D02*
X21957D01*
X22500Y82086D02*
X23086Y81500D01*
X22500Y82086D02*
Y92830D01*
X21957Y79800D02*
X22257Y79500D01*
X93000Y64753D02*
Y74500D01*
X79747Y51500D02*
X93000Y64753D01*
X81000Y49500D02*
X93500Y62000D01*
X93539Y144870D02*
X96492D01*
X91409Y147000D02*
X93539Y144870D01*
X16445Y98885D02*
X22500Y92830D01*
X24371Y99291D02*
X31835D01*
X24162Y99500D02*
X24371Y99291D01*
X31835D02*
X33500Y97626D01*
X24000Y99500D02*
X24162D01*
X33374Y97500D02*
X33500Y97626D01*
X31835Y107165D02*
X33500Y105500D01*
X24497Y107165D02*
X31835D01*
X23662Y108000D02*
X24497Y107165D01*
X23500Y108000D02*
X23662D01*
X33374Y113500D02*
X33500Y113374D01*
X24000Y113500D02*
X33374D01*
D18*
X23500Y9500D02*
X34606D01*
X36606Y7500D01*
X43000D01*
D77*
X106000Y47539D02*
X106480Y48020D01*
X117020D01*
X117500Y48500D01*
X86500Y74539D02*
X87000D01*
X96492Y84031D01*
Y89752D01*
D78*
X26494Y19035D02*
X27336Y19878D01*
X30591D02*
X32691Y21977D01*
X27336Y19878D02*
X30591D01*
X30158Y20924D02*
X32257Y23023D01*
X26903Y20924D02*
X30158D01*
X26061Y20081D02*
X26903Y20924D01*
X24500Y21215D02*
Y21500D01*
X24158Y24089D02*
X24265D01*
X25223Y20467D02*
Y20492D01*
X22427Y20641D02*
X24033Y19035D01*
X26494D01*
X22427Y20641D02*
Y22359D01*
X25609Y20081D02*
X26061D01*
X25223Y20467D02*
X25609Y20081D01*
X24500Y21215D02*
X25223Y20492D01*
X22427Y22359D02*
X24158Y24089D01*
X32257Y23023D02*
X37438D01*
X38215Y23800D01*
X38500D01*
X32691Y21977D02*
X37438D01*
X38215Y21200D01*
X38500D01*
D79*
X16445Y108728D02*
D03*
Y98885D02*
D03*
X16500Y144000D02*
D03*
Y153842D02*
D03*
X113000Y98885D02*
D03*
Y89043D02*
D03*
X113500Y134158D02*
D03*
Y144000D02*
D03*
D80*
X16445Y89043D02*
D03*
X16500Y134158D02*
D03*
X113000Y108728D02*
D03*
X113500Y153842D02*
D03*
D81*
X10642Y5492D02*
D03*
Y39508D02*
D03*
D82*
X31744Y5492D02*
D03*
Y39508D02*
D03*
D83*
X117500Y58343D02*
D03*
Y48500D02*
D03*
Y38658D02*
D03*
D84*
X24500Y52000D02*
D03*
X106000Y69500D02*
D03*
D85*
X75563Y69831D02*
D03*
X79894Y65500D02*
D03*
X75563D02*
D03*
X79894Y61169D02*
D03*
X75563D02*
D03*
X79894Y69831D02*
D03*
D86*
X66885Y68115D02*
D03*
X61385Y75615D02*
D03*
Y72615D02*
D03*
Y69615D02*
D03*
X67000Y60500D02*
D03*
X72422Y123175D02*
D03*
X63000Y96500D02*
D03*
X81800Y106000D02*
D03*
Y125469D02*
D03*
X74200Y132000D02*
D03*
X28240Y34705D02*
D03*
X85500Y44000D02*
D03*
X124000Y6000D02*
D03*
Y40100D02*
D03*
Y74200D02*
D03*
Y108300D02*
D03*
Y142400D02*
D03*
X6000Y176500D02*
D03*
X15000D02*
D03*
X24000D02*
D03*
X124000D02*
D03*
X115500D02*
D03*
X106500D02*
D03*
X58497Y132003D02*
D03*
X87662Y133838D02*
D03*
X88000Y112000D02*
D03*
X13500Y77800D02*
D03*
X48000Y36500D02*
D03*
X49500Y40000D02*
D03*
X68500D02*
D03*
X47000Y85500D02*
D03*
X45500Y138500D02*
D03*
X54000Y121000D02*
D03*
X69000Y97000D02*
D03*
X81500Y120500D02*
D03*
X99500Y28000D02*
D03*
X99000Y90000D02*
D03*
X92500Y91000D02*
D03*
X84500Y101500D02*
D03*
X24500Y21500D02*
D03*
X24265Y24089D02*
D03*
X38500Y23800D02*
D03*
Y21200D02*
D03*
X24500Y16000D02*
D03*
X23500Y9500D02*
D03*
X36035Y28537D02*
D03*
X25500Y27500D02*
D03*
X17000Y79800D02*
D03*
X93000Y74500D02*
D03*
X93500Y62000D02*
D03*
X78000Y137500D02*
D03*
Y110000D02*
D03*
X70500Y42876D02*
D03*
X24000Y99500D02*
D03*
X23500Y108000D02*
D03*
X24000Y113500D02*
D03*
X47000Y93000D02*
D03*
X43000Y7500D02*
D03*
X36500Y34500D02*
D03*
Y16500D02*
D03*
Y11000D02*
D03*
D87*
X44000Y79000D02*
D03*
X44078Y71078D02*
D03*
X44000Y75000D02*
D03*
X55500Y81252D02*
D03*
X54500Y89500D02*
D03*
X42000Y137021D02*
D03*
X20000Y123000D02*
D03*
X15500Y126000D02*
D03*
X43081Y88581D02*
D03*
X29000Y85000D02*
D03*
X53500Y106500D02*
D03*
X43500D02*
D03*
X48000D02*
D03*
X80300Y86438D02*
D03*
X86000Y86000D02*
D03*
D89*
X96492Y97626D02*
D03*
Y105500D02*
D03*
Y113374D02*
D03*
Y121248D02*
D03*
Y129122D02*
D03*
Y136996D02*
D03*
Y144870D02*
D03*
X33500D02*
D03*
Y136996D02*
D03*
Y129122D02*
D03*
Y121248D02*
D03*
Y113374D02*
D03*
Y105500D02*
D03*
Y97626D02*
D03*
Y89752D02*
D03*
X96492D02*
D03*
D90*
X86500Y74539D02*
D03*
X106000Y47539D02*
D03*
Y30539D02*
D03*
D91*
X47102Y73500D02*
D03*
X56000D02*
D03*
D92*
X66500Y58579D02*
D03*
Y68421D02*
D03*
M02*
