G04*
G04 #@! TF.GenerationSoftware,Altium Limited,Altium Designer,23.4.1 (23)*
G04*
G04 Layer_Physical_Order=1*
G04 Layer_Color=255*
%FSLAX25Y25*%
%MOIN*%
G70*
G04*
G04 #@! TF.SameCoordinates,D0A82AA9-F4A3-43A1-B343-99984006E8F9*
G04*
G04*
G04 #@! TF.FilePolarity,Positive*
G04*
G01*
G75*
%ADD15C,0.01000*%
%ADD18C,0.00600*%
%ADD19R,0.02756X0.01181*%
%ADD20R,0.02756X0.03937*%
%ADD21R,0.07087X0.05315*%
%ADD22R,0.02362X0.04134*%
%ADD23R,0.03347X0.03937*%
%ADD24R,0.03347X0.03937*%
%ADD25R,0.10000X0.02500*%
%ADD26R,0.09921X0.13386*%
%ADD27R,0.05709X0.02362*%
%ADD28R,0.06299X0.03150*%
%ADD29R,0.03937X0.04331*%
%ADD30R,0.04528X0.07087*%
%ADD31R,0.02165X0.02559*%
%ADD32R,0.01772X0.02165*%
%ADD33R,0.19882X0.11417*%
%ADD34R,0.05315X0.06102*%
%ADD35R,0.03543X0.03937*%
%ADD36R,0.02441X0.02441*%
%ADD37R,0.02441X0.02441*%
%ADD38R,0.03937X0.03543*%
%ADD39R,0.02559X0.02165*%
%ADD40R,0.06102X0.05315*%
%ADD41R,0.03937X0.03347*%
%ADD42R,0.03937X0.03347*%
%ADD43R,0.02165X0.01772*%
%ADD76C,0.02500*%
%ADD77C,0.01500*%
%ADD78C,0.00546*%
%ADD79C,0.07087*%
%ADD80R,0.07087X0.07087*%
%ADD81O,0.10236X0.04331*%
%ADD82O,0.08268X0.04331*%
%ADD83O,0.04331X0.05906*%
%ADD84C,0.15748*%
%ADD85C,0.01968*%
%ADD86C,0.02000*%
%ADD87C,0.02400*%
G36*
X126480Y2520D02*
X3740D01*
X3740Y177980D01*
X26000D01*
Y149000D01*
X104000D01*
Y177980D01*
X126480D01*
X126480Y2520D01*
D02*
G37*
%LPC*%
G36*
X117343Y157686D02*
X109657D01*
Y149999D01*
X117343D01*
Y157686D01*
D02*
G37*
G36*
X114006Y147843D02*
X112994D01*
X112016Y147581D01*
X111140Y147075D01*
X110425Y146360D01*
X109919Y145484D01*
X109657Y144506D01*
Y144013D01*
X108457D01*
X108457Y144013D01*
X108145Y143951D01*
X107880Y143774D01*
X107880Y143774D01*
X99953Y135847D01*
X99080D01*
Y136414D01*
X95920D01*
Y133649D01*
X99080D01*
Y134216D01*
X100291D01*
X100291Y134216D01*
X100603Y134278D01*
X100867Y134455D01*
X108795Y142382D01*
X109996D01*
X110425Y141640D01*
X111140Y140925D01*
X112016Y140419D01*
X112994Y140157D01*
X114006D01*
X114983Y140419D01*
X115860Y140925D01*
X116575Y141640D01*
X117081Y142517D01*
X117343Y143494D01*
Y144506D01*
X117081Y145484D01*
X116575Y146360D01*
X115860Y147075D01*
X114983Y147581D01*
X114006Y147843D01*
D02*
G37*
G36*
X99080Y140351D02*
X95920D01*
Y139784D01*
X89973D01*
Y139993D01*
X86027D01*
Y136609D01*
X81977Y132560D01*
X81965D01*
X81653Y132498D01*
X81388Y132321D01*
X81388Y132321D01*
X80415Y131347D01*
X79580D01*
Y131914D01*
X76420D01*
Y129149D01*
X79580D01*
Y129716D01*
X80753D01*
X80753Y129716D01*
X81065Y129778D01*
X81329Y129955D01*
X81787Y130412D01*
X82287Y130205D01*
Y127161D01*
X81894Y126769D01*
X81541D01*
X81064Y126571D01*
X80777Y126284D01*
X80080D01*
Y126851D01*
X76920D01*
Y124086D01*
X80080D01*
Y124653D01*
X80777D01*
X81064Y124366D01*
X81541Y124169D01*
X82059D01*
X82536Y124366D01*
X82902Y124732D01*
X82951Y124849D01*
X83224Y124858D01*
X83462Y124777D01*
X83506Y124553D01*
X83683Y124289D01*
X84149Y123823D01*
Y121921D01*
X86914D01*
Y125080D01*
X85199D01*
X85075Y125203D01*
Y126007D01*
X86233D01*
Y130544D01*
X82790D01*
X82738Y130687D01*
X82707Y131044D01*
X82892Y131167D01*
X85891Y134166D01*
X86362Y133930D01*
Y133580D01*
X86560Y133102D01*
X86925Y132736D01*
X87403Y132538D01*
X87920D01*
X88398Y132736D01*
X88685Y133023D01*
X91603D01*
X93581Y131044D01*
X93374Y130544D01*
X93293Y130544D01*
X89767D01*
Y127432D01*
X89695Y127384D01*
X89695Y127384D01*
X88892Y126581D01*
X88715Y126316D01*
X88653Y126004D01*
X88653Y126004D01*
Y125080D01*
X88086D01*
Y121921D01*
X90851D01*
Y125080D01*
X90284D01*
Y125666D01*
X90620Y126002D01*
X90646Y126007D01*
X93713D01*
Y127460D01*
X95920D01*
Y126149D01*
X99080D01*
Y128914D01*
X97043D01*
X96871Y129029D01*
X96559Y129091D01*
X96559Y129091D01*
X94067D01*
X93713Y129445D01*
X93713Y130304D01*
X93780Y130400D01*
X93890Y130483D01*
X94156Y130684D01*
X94310Y130653D01*
X94310Y130653D01*
X95920D01*
Y130086D01*
X99080D01*
Y132851D01*
X95920D01*
Y132284D01*
X94648D01*
X92517Y134415D01*
X92253Y134592D01*
X91941Y134654D01*
X91941Y134654D01*
X88714D01*
X88424Y134971D01*
X88544Y135456D01*
X89973D01*
Y138153D01*
X95920D01*
Y137586D01*
X99080D01*
Y140351D01*
D02*
G37*
G36*
X17006Y147843D02*
X15994D01*
X15017Y147581D01*
X14140Y147075D01*
X13425Y146360D01*
X12919Y145484D01*
X12657Y144506D01*
Y143494D01*
X12919Y142517D01*
X13425Y141640D01*
X14140Y140925D01*
X15017Y140419D01*
X15994Y140157D01*
X17006D01*
X17984Y140419D01*
X18860Y140925D01*
X19575Y141640D01*
X20081Y142517D01*
X20260Y143184D01*
X30220D01*
X30220Y143184D01*
X30532Y143246D01*
X30796Y143423D01*
X31837Y144464D01*
X34962D01*
X35060Y143964D01*
X34899Y143856D01*
X34899Y143856D01*
X32859Y141816D01*
X25086D01*
X24774Y141754D01*
X24509Y141577D01*
X24509Y141577D01*
X22298Y139366D01*
X22122Y139102D01*
X22060Y138789D01*
X22060Y138789D01*
Y131663D01*
X20843Y130446D01*
X20343Y130654D01*
Y138001D01*
X12657D01*
Y130314D01*
X20004D01*
X20211Y129814D01*
X17248Y126851D01*
X16772Y126850D01*
X16350Y127272D01*
X15798Y127500D01*
X15202D01*
X14650Y127272D01*
X14228Y126850D01*
X14000Y126298D01*
Y125702D01*
X14228Y125150D01*
X14650Y124728D01*
X15202Y124500D01*
X15798D01*
X16350Y124728D01*
X16772Y125150D01*
X16786Y125184D01*
X17550D01*
X17550Y125184D01*
X17863Y125246D01*
X18127Y125423D01*
X23452Y130748D01*
X23629Y131013D01*
X23691Y131325D01*
X23691Y131325D01*
Y138452D01*
X25424Y140184D01*
X33196D01*
X33196Y140184D01*
X33509Y140246D01*
X33773Y140423D01*
X35814Y142464D01*
X36869D01*
X37149Y142079D01*
X37149Y141964D01*
Y138920D01*
X37153D01*
Y134473D01*
X36456D01*
Y130642D01*
X36456Y130527D01*
X36177Y130142D01*
X34511D01*
X33560Y131094D01*
Y132772D01*
X33560Y132772D01*
X33498Y133084D01*
X33321Y133348D01*
X33321Y133348D01*
X31549Y135120D01*
X31544Y135146D01*
Y138213D01*
X27007D01*
Y134267D01*
X30119D01*
X30167Y134195D01*
X31928Y132434D01*
Y131249D01*
X31683Y130834D01*
X31354Y130733D01*
X31354Y130733D01*
X27007D01*
Y128402D01*
X24587D01*
X24587Y128402D01*
X24274Y128340D01*
X24010Y128163D01*
X24010Y128163D01*
X20332Y124486D01*
X20298Y124500D01*
X19702D01*
X19150Y124272D01*
X18728Y123850D01*
X18500Y123298D01*
Y122702D01*
X18728Y122150D01*
X19150Y121728D01*
X19702Y121500D01*
X20298D01*
X20850Y121728D01*
X21272Y122150D01*
X21500Y122702D01*
Y123298D01*
X21486Y123332D01*
X24924Y126771D01*
X27684D01*
Y124351D01*
X26921D01*
Y121586D01*
X29576D01*
X29628Y121443D01*
X29659Y121086D01*
X29474Y120963D01*
X29474Y120963D01*
X28926Y120414D01*
X26921D01*
Y117649D01*
X30079D01*
Y119229D01*
X30401Y119570D01*
X30713Y119632D01*
X30978Y119809D01*
X32277Y121109D01*
X32277Y121109D01*
X32307Y121154D01*
X32507Y121353D01*
X33007Y121146D01*
X33007Y121109D01*
Y118680D01*
X32006Y117680D01*
X31349D01*
X31037Y117617D01*
X30772Y117441D01*
X30772Y117441D01*
X28537Y115206D01*
X28453Y115079D01*
X27149D01*
Y114316D01*
X25023D01*
X24736Y114602D01*
X24259Y114800D01*
X23741D01*
X23264Y114602D01*
X22898Y114236D01*
X22700Y113759D01*
Y113241D01*
X22898Y112764D01*
X23264Y112398D01*
X23741Y112200D01*
X24259D01*
X24736Y112398D01*
X25023Y112684D01*
X27149D01*
Y111920D01*
X29675D01*
Y109971D01*
X29414Y109580D01*
X29175Y109580D01*
X26649D01*
Y108816D01*
X24523D01*
X24236Y109102D01*
X23759Y109300D01*
X23241D01*
X22764Y109102D01*
X22398Y108736D01*
X22200Y108259D01*
Y107741D01*
X22398Y107264D01*
X22764Y106898D01*
X23241Y106700D01*
X23759D01*
X24236Y106898D01*
X24523Y107184D01*
X26649D01*
Y106421D01*
X29175D01*
X29414Y106421D01*
X29675Y106029D01*
Y97500D01*
X29737Y97351D01*
X29536Y96851D01*
X29074D01*
X25963Y99962D01*
X25699Y100139D01*
X25386Y100201D01*
X25386Y100201D01*
X25117D01*
X25102Y100236D01*
X24736Y100602D01*
X24259Y100800D01*
X23741D01*
X23264Y100602D01*
X22898Y100236D01*
X22700Y99759D01*
Y99241D01*
X22898Y98764D01*
X23264Y98398D01*
X23741Y98200D01*
X24259D01*
X24736Y98398D01*
X24908Y98570D01*
X25049D01*
X27920Y95698D01*
Y94086D01*
X31080D01*
Y96175D01*
X39675D01*
Y87000D01*
X39770Y86770D01*
X40359Y86182D01*
X40147Y85686D01*
X33507Y85825D01*
X33503Y85823D01*
X33500Y85825D01*
X33388Y85778D01*
X33275Y85734D01*
X33274Y85731D01*
X33270Y85730D01*
X31061Y83521D01*
X30751D01*
Y83210D01*
X30019Y82478D01*
X29924Y82249D01*
Y80804D01*
X28479D01*
X28250Y80709D01*
X26770Y79230D01*
X26675Y79000D01*
Y62000D01*
X26700Y61940D01*
Y61876D01*
X26907Y61376D01*
X26953Y61330D01*
X26978Y61270D01*
X27037Y61246D01*
X27083Y61200D01*
X27147D01*
X27207Y61175D01*
X27979D01*
Y61149D01*
X33895D01*
Y61175D01*
X37175D01*
Y47000D01*
X37270Y46770D01*
X37500Y46675D01*
X68445D01*
X68674Y46770D01*
X68770Y47000D01*
Y47324D01*
X69145Y47625D01*
X76044D01*
Y51375D01*
X76044Y51375D01*
X76002Y51845D01*
X76026Y51905D01*
X76072Y51951D01*
X76263Y52412D01*
Y52477D01*
X76288Y52537D01*
X76263Y52596D01*
Y52661D01*
X76218Y52707D01*
X76193Y52766D01*
X71584Y57375D01*
X71524Y57400D01*
X71479Y57446D01*
X71414D01*
X71354Y57470D01*
X71295Y57446D01*
X71230D01*
X70730Y57239D01*
X70684Y57193D01*
X70625Y57168D01*
X70154Y57339D01*
Y59481D01*
X63846D01*
X63470Y59782D01*
Y60181D01*
X63438Y60259D01*
X63428Y60342D01*
X63198Y60745D01*
X63163Y60772D01*
X63146Y60813D01*
X62993Y60966D01*
X63001Y61231D01*
X63081Y61509D01*
X63101Y61554D01*
X63108Y61559D01*
X63140Y61584D01*
X63150Y61663D01*
X63182Y61736D01*
X63288Y65675D01*
X70500D01*
X70730Y65770D01*
X70825Y66000D01*
Y70500D01*
X70752Y70675D01*
X70937Y71175D01*
X71000D01*
X71230Y71270D01*
X71325Y71500D01*
Y85500D01*
X71230Y85730D01*
X71000Y85825D01*
X68632D01*
X68440Y86287D01*
X76577Y94423D01*
X76577Y94423D01*
X76754Y94688D01*
X76816Y95000D01*
X76816Y95000D01*
Y102974D01*
X76754Y103287D01*
X76577Y103551D01*
X76577Y103551D01*
X73816Y106312D01*
Y113149D01*
X74580D01*
Y115914D01*
X71421D01*
Y113149D01*
X72184D01*
Y105974D01*
X72184Y105974D01*
X72246Y105662D01*
X72423Y105398D01*
X75184Y102637D01*
Y95338D01*
X66705Y86859D01*
X62906D01*
X62906Y86859D01*
X62594Y86797D01*
X62330Y86620D01*
X62329Y86620D01*
X60798Y85089D01*
X60447Y85105D01*
X60241Y85173D01*
X60180Y85199D01*
X60134Y85246D01*
X60071Y85247D01*
X60014Y85272D01*
X59843Y85276D01*
X59738Y85732D01*
X59737Y85778D01*
X61230Y87270D01*
X61325Y87500D01*
Y96563D01*
X61305Y96610D01*
X61309Y96661D01*
X61309Y96662D01*
X61259Y96721D01*
X61230Y96792D01*
X61182Y96812D01*
X61149Y96851D01*
X61105Y96874D01*
X61105Y96874D01*
X61040Y96880D01*
X60982Y96909D01*
X60982Y96909D01*
X60953Y96912D01*
X60953Y96912D01*
X60901Y96895D01*
X60847Y96903D01*
X60559Y96830D01*
X60194Y97154D01*
X60161Y97215D01*
X60123Y97246D01*
X60105Y97292D01*
X60031Y97322D01*
X59969Y97373D01*
X59920Y97368D01*
X59875Y97387D01*
X58304D01*
X58256Y97396D01*
X58223Y97390D01*
X58193Y97403D01*
X55056D01*
Y100897D01*
X58944D01*
Y98694D01*
X59039Y98464D01*
X59268Y98369D01*
X61428D01*
X61645Y98326D01*
X61830Y98203D01*
X62016Y98016D01*
X62246Y97921D01*
X62475Y98016D01*
X63880Y99420D01*
X63883D01*
Y99423D01*
X64230Y99770D01*
X64325Y100000D01*
X64230Y100230D01*
X63883Y100576D01*
Y102579D01*
X63825D01*
Y110500D01*
X63730Y110730D01*
X63500Y110825D01*
X40135D01*
X35258Y115701D01*
X35230Y115730D01*
X35230D01*
X35000Y115825D01*
X34770Y115730D01*
X34770D01*
X34284Y115243D01*
X33851Y115079D01*
Y115079D01*
X31425D01*
X31218Y115579D01*
X31687Y116048D01*
X32344D01*
X32344Y116048D01*
X32656Y116110D01*
X32921Y116287D01*
X34161Y117527D01*
X37544D01*
X37544Y121114D01*
X37544Y121134D01*
X38044Y121341D01*
X39745Y119640D01*
Y119628D01*
X39745Y119628D01*
X39807Y119316D01*
X39984Y119052D01*
X42456Y116579D01*
Y113787D01*
X46993D01*
Y117733D01*
X43609D01*
X41376Y119966D01*
Y119978D01*
X41314Y120290D01*
X41137Y120555D01*
X41137Y120555D01*
X38115Y123577D01*
X37851Y123754D01*
X37539Y123816D01*
X37539Y123816D01*
X33000D01*
X33000Y123816D01*
X32688Y123754D01*
X32423Y123577D01*
X32423Y123577D01*
X31124Y122277D01*
X31093Y122232D01*
X30580Y121718D01*
X30079Y121925D01*
Y124351D01*
X29316D01*
Y126787D01*
X31544D01*
Y130237D01*
X31544Y130262D01*
X31545Y130281D01*
X31865Y130348D01*
X32261Y130086D01*
X33597Y128750D01*
X33861Y128573D01*
X34173Y128511D01*
X34173Y128511D01*
X41314D01*
X41314Y128511D01*
X41626Y128573D01*
X41891Y128750D01*
X43283Y130142D01*
X43284Y130142D01*
X43460Y130407D01*
X43522Y130719D01*
X43522Y130719D01*
Y133045D01*
X43630Y133153D01*
X44420D01*
Y132586D01*
X47076D01*
X47128Y132443D01*
X47159Y132086D01*
X46974Y131963D01*
X46974Y131963D01*
X46426Y131414D01*
X44420D01*
Y128649D01*
X45184D01*
Y125213D01*
X42456D01*
Y121267D01*
X46993D01*
Y125213D01*
X46816D01*
Y128649D01*
X47580D01*
Y130229D01*
X47901Y130570D01*
X48213Y130632D01*
X48478Y130809D01*
X49356Y131688D01*
X49356Y131688D01*
X49533Y131952D01*
X49595Y132264D01*
X49595Y132265D01*
Y138672D01*
X49595Y138672D01*
X49533Y138985D01*
X49356Y139249D01*
X49356Y139249D01*
X44749Y143856D01*
X44588Y143964D01*
X44687Y144464D01*
X69835D01*
X73447Y140851D01*
X73240Y140351D01*
X70420D01*
Y139784D01*
X69110D01*
X68798Y139722D01*
X68533Y139545D01*
X68533Y139545D01*
X66528Y137540D01*
X64973D01*
Y138993D01*
X61027D01*
Y136072D01*
X58498D01*
X58498Y136072D01*
X58186Y136010D01*
X57921Y135833D01*
X53423Y131335D01*
X53246Y131070D01*
X53184Y130758D01*
X53184Y130758D01*
Y129351D01*
X52421D01*
Y126586D01*
X55580D01*
Y129351D01*
X54816D01*
Y130420D01*
X56726Y132331D01*
X57197Y132095D01*
Y131744D01*
X57395Y131266D01*
X57761Y130901D01*
X58239Y130703D01*
X58444D01*
Y129544D01*
X57287D01*
Y125007D01*
X60354D01*
X60380Y125002D01*
X60716Y124666D01*
Y124080D01*
X60149D01*
Y120921D01*
X62914D01*
Y124080D01*
X62347D01*
Y125004D01*
X62285Y125316D01*
X62108Y125581D01*
X62108Y125581D01*
X61305Y126384D01*
X61233Y126432D01*
Y129544D01*
X60075D01*
Y131078D01*
X60013Y131390D01*
X59837Y131655D01*
X59837Y131655D01*
X59783Y131709D01*
X59797Y131744D01*
Y132261D01*
X59599Y132739D01*
X59234Y133105D01*
X58756Y133303D01*
X58405D01*
X58170Y133774D01*
X58836Y134440D01*
X61827D01*
X61827Y134440D01*
X61906Y134456D01*
X64973D01*
Y135909D01*
X66866D01*
X66866Y135909D01*
X67178Y135971D01*
X67443Y136148D01*
X69448Y138153D01*
X70420D01*
Y137586D01*
X73076D01*
X73128Y137443D01*
X73159Y137086D01*
X72974Y136963D01*
X72974Y136963D01*
X72426Y136414D01*
X70420D01*
Y133649D01*
X73097D01*
X73105Y133649D01*
X73105Y133649D01*
X73387Y133649D01*
X73517Y133165D01*
X73464Y133102D01*
X73449Y133088D01*
X73181Y132820D01*
X70420D01*
Y130054D01*
X73580D01*
Y130458D01*
X73941Y130700D01*
X74459D01*
X74936Y130898D01*
X75302Y131264D01*
X75500Y131741D01*
Y132259D01*
X75302Y132736D01*
X74936Y133102D01*
X74459Y133300D01*
X74056D01*
X73941Y133300D01*
X73925Y133307D01*
X73580Y133691D01*
X73580Y134099D01*
X73580Y134099D01*
X73580Y134106D01*
Y135229D01*
X73901Y135570D01*
X74213Y135632D01*
X74478Y135809D01*
X75356Y136688D01*
X75356Y136688D01*
X75533Y136952D01*
X75595Y137265D01*
X75595Y137265D01*
Y140673D01*
X75595Y140673D01*
X75533Y140985D01*
X75356Y141249D01*
X75356Y141249D01*
X70749Y145856D01*
X70485Y146033D01*
X70173Y146095D01*
X70173Y146095D01*
X31499D01*
X31187Y146033D01*
X30922Y145856D01*
X30922Y145856D01*
X29882Y144816D01*
X20260D01*
X20081Y145484D01*
X19575Y146360D01*
X18860Y147075D01*
X17984Y147581D01*
X17006Y147843D01*
D02*
G37*
G36*
X78259Y138800D02*
X77741D01*
X77264Y138602D01*
X76898Y138236D01*
X76700Y137759D01*
Y137241D01*
X76898Y136764D01*
X77184Y136477D01*
Y135851D01*
X76420D01*
Y133086D01*
X79580D01*
Y135851D01*
X78816D01*
Y136477D01*
X79102Y136764D01*
X79300Y137241D01*
Y137759D01*
X79102Y138236D01*
X78736Y138602D01*
X78259Y138800D01*
D02*
G37*
G36*
X68713Y129544D02*
X64767D01*
Y125007D01*
X65925D01*
Y124203D01*
X65801Y124080D01*
X64086D01*
Y120921D01*
X66851D01*
Y122823D01*
X67317Y123289D01*
X67317Y123289D01*
X67494Y123553D01*
X67556Y123865D01*
Y125007D01*
X68713D01*
Y126684D01*
X70420D01*
Y126117D01*
X73580D01*
Y128883D01*
X70420D01*
Y128316D01*
X68713D01*
Y129544D01*
D02*
G37*
G36*
X99580Y120351D02*
X96421D01*
Y119784D01*
X90449D01*
X90449Y119784D01*
X90137Y119722D01*
X89872Y119545D01*
X89872Y119545D01*
X89820Y119493D01*
X87027D01*
Y117284D01*
X80080D01*
Y117851D01*
X76920D01*
Y115086D01*
X80080D01*
Y115653D01*
X87027D01*
Y114956D01*
X90973D01*
Y118153D01*
X96421D01*
Y117586D01*
X99580D01*
Y120351D01*
D02*
G37*
G36*
X80080Y122914D02*
X76920D01*
Y120149D01*
X79004D01*
X79083Y120133D01*
X80245D01*
X80398Y119764D01*
X80764Y119398D01*
X81241Y119200D01*
X81759D01*
X82236Y119398D01*
X82602Y119764D01*
X82800Y120241D01*
Y120759D01*
X82602Y121236D01*
X82236Y121602D01*
X81759Y121800D01*
X81241D01*
X81069Y121729D01*
X80889Y121765D01*
X80889Y121765D01*
X80080D01*
Y122914D01*
D02*
G37*
G36*
X74580Y119851D02*
X71421D01*
Y119144D01*
X70221D01*
X69908Y119082D01*
X69644Y118905D01*
X69644Y118905D01*
X67778Y117040D01*
X66473D01*
Y118493D01*
X62527D01*
Y115109D01*
X62265Y114847D01*
X55580D01*
Y115414D01*
X52421D01*
Y112649D01*
X55580D01*
Y113216D01*
X62602D01*
X62602Y113216D01*
X62915Y113278D01*
X63179Y113455D01*
X63680Y113956D01*
X66473D01*
Y115409D01*
X68116D01*
X68116Y115409D01*
X68428Y115471D01*
X68693Y115648D01*
X70558Y117513D01*
X71421D01*
Y117086D01*
X74580D01*
Y119851D01*
D02*
G37*
G36*
X55580Y125414D02*
X52421D01*
Y122649D01*
X53184D01*
Y122023D01*
X52898Y121736D01*
X52700Y121259D01*
Y120741D01*
X52898Y120264D01*
X53184Y119977D01*
Y119351D01*
X52421D01*
Y116586D01*
X55580D01*
Y119351D01*
X54816D01*
Y119977D01*
X55102Y120264D01*
X55300Y120741D01*
Y121259D01*
X55102Y121736D01*
X54816Y122023D01*
Y122649D01*
X55580D01*
Y125414D01*
D02*
G37*
G36*
X99580Y116414D02*
X96421D01*
Y113649D01*
X98144D01*
X98203Y113560D01*
X98788Y112975D01*
X98788Y112974D01*
X98973Y112851D01*
X98942Y112494D01*
X98890Y112351D01*
X96421D01*
Y112060D01*
X89300D01*
Y112259D01*
X89102Y112736D01*
X88736Y113102D01*
X88259Y113300D01*
X87741D01*
X87264Y113102D01*
X86898Y112736D01*
X86700Y112259D01*
Y111741D01*
X86898Y111264D01*
X87264Y110898D01*
X87741Y110700D01*
X88259D01*
X88294Y110715D01*
X88341Y110667D01*
X88606Y110491D01*
X88918Y110428D01*
X88918Y110428D01*
X90488D01*
X90767Y110044D01*
X90767Y109928D01*
Y106599D01*
X90715Y106521D01*
X90653Y106209D01*
X90653Y106209D01*
Y103579D01*
X90086D01*
Y100420D01*
X92851D01*
Y103579D01*
X92284D01*
Y105507D01*
X94713D01*
Y106216D01*
X96421D01*
Y105649D01*
X99580D01*
Y108414D01*
X96421D01*
Y107847D01*
X94713D01*
Y109928D01*
X94713Y110044D01*
X94993Y110428D01*
X96421D01*
Y109586D01*
X99580D01*
Y112012D01*
X100080Y112219D01*
X104641Y107658D01*
Y106429D01*
X104641Y106429D01*
X104703Y106116D01*
X104880Y105852D01*
X109764Y100967D01*
X109419Y100368D01*
X109157Y99391D01*
Y98379D01*
X109419Y97401D01*
X109925Y96525D01*
X110640Y95810D01*
X111516Y95304D01*
X112494Y95042D01*
X113506D01*
X114483Y95304D01*
X115360Y95810D01*
X116075Y96525D01*
X116581Y97401D01*
X116843Y98379D01*
Y99391D01*
X116581Y100368D01*
X116075Y101245D01*
X115360Y101960D01*
X114483Y102466D01*
X113506Y102728D01*
X112494D01*
X111516Y102466D01*
X110918Y102121D01*
X106272Y106766D01*
Y107996D01*
X106210Y108308D01*
X106033Y108572D01*
X106033Y108572D01*
X100478Y114128D01*
X100213Y114305D01*
X99901Y114367D01*
X99580Y114708D01*
Y116414D01*
D02*
G37*
G36*
X80080Y113914D02*
X76920D01*
Y111149D01*
X76920D01*
X76870Y110670D01*
X76700Y110259D01*
Y109741D01*
X76898Y109264D01*
X77264Y108898D01*
X77741Y108700D01*
X78259D01*
X78736Y108898D01*
X79102Y109264D01*
X79300Y109741D01*
Y110259D01*
X79138Y110649D01*
X79271Y110972D01*
X79397Y111149D01*
X80080D01*
Y113914D01*
D02*
G37*
G36*
X87233Y110044D02*
X83287D01*
Y107123D01*
X82486D01*
X82059Y107300D01*
X81541D01*
X81064Y107102D01*
X80698Y106736D01*
X80500Y106259D01*
Y105741D01*
X80698Y105264D01*
X81064Y104898D01*
X81541Y104700D01*
X82059D01*
X82536Y104898D01*
X82902Y105264D01*
X82996Y105491D01*
X84087D01*
X84087Y105491D01*
X84166Y105507D01*
X87233D01*
Y110044D01*
D02*
G37*
G36*
X116843Y112571D02*
X109157D01*
Y104884D01*
X116843D01*
Y112571D01*
D02*
G37*
G36*
X88914Y103579D02*
X86149D01*
Y102816D01*
X85162D01*
X85162Y102816D01*
X84864Y102756D01*
X84759Y102800D01*
X84241D01*
X83764Y102602D01*
X83398Y102236D01*
X83200Y101759D01*
Y101241D01*
X83398Y100764D01*
X83764Y100398D01*
X84241Y100200D01*
X84759D01*
X85236Y100398D01*
X85602Y100764D01*
X85649Y100876D01*
X86149Y100777D01*
Y100420D01*
X88914D01*
Y103579D01*
D02*
G37*
G36*
X70213Y109044D02*
X66267D01*
Y105661D01*
X65860Y105254D01*
X65683Y104989D01*
X65621Y104677D01*
X65621Y104677D01*
Y102579D01*
X65054D01*
Y99420D01*
X67820D01*
Y102579D01*
X67253D01*
Y104339D01*
X67421Y104507D01*
X69060D01*
X70905Y102662D01*
Y101551D01*
X70905Y101551D01*
X70920Y101472D01*
Y99586D01*
X74080D01*
Y102351D01*
X72536D01*
Y103000D01*
X72536Y103000D01*
X72474Y103312D01*
X72297Y103577D01*
X72297Y103577D01*
X70213Y105661D01*
Y109044D01*
D02*
G37*
G36*
X74080Y98414D02*
X70920D01*
Y97831D01*
X70007D01*
X69736Y98102D01*
X69259Y98300D01*
X68741D01*
X68264Y98102D01*
X67898Y97736D01*
X67700Y97259D01*
Y96741D01*
X67898Y96264D01*
X68264Y95898D01*
X68741Y95700D01*
X69259D01*
X69736Y95898D01*
X70039Y96200D01*
X70920D01*
Y95649D01*
X74080D01*
Y98414D01*
D02*
G37*
G36*
X16951Y102728D02*
X15939D01*
X14961Y102466D01*
X14085Y101960D01*
X13370Y101245D01*
X12864Y100368D01*
X12602Y99391D01*
Y98379D01*
X12864Y97401D01*
X13370Y96525D01*
X14085Y95810D01*
X14961Y95304D01*
X15939Y95042D01*
X16951D01*
X17928Y95304D01*
X18805Y95810D01*
X19520Y96525D01*
X20026Y97401D01*
X20288Y98379D01*
Y99391D01*
X20026Y100368D01*
X19520Y101245D01*
X18805Y101960D01*
X17928Y102466D01*
X16951Y102728D01*
D02*
G37*
G36*
X93894Y97351D02*
X87980D01*
Y90649D01*
X91238D01*
X91398Y90264D01*
X91764Y89898D01*
X92241Y89700D01*
X92759D01*
X93236Y89898D01*
X93602Y90264D01*
X93762Y90649D01*
X93894D01*
Y92929D01*
X96228D01*
X96480Y92980D01*
X98249D01*
Y96021D01*
X95208D01*
Y95071D01*
X93894D01*
Y97351D01*
D02*
G37*
G36*
X99259Y91300D02*
X98741D01*
X98264Y91102D01*
X97898Y90736D01*
X97700Y90259D01*
Y89741D01*
X97898Y89264D01*
X98264Y88898D01*
X98741Y88700D01*
X99259D01*
X99736Y88898D01*
X100102Y89264D01*
X100300Y89741D01*
Y90259D01*
X100102Y90736D01*
X99736Y91102D01*
X99259Y91300D01*
D02*
G37*
G36*
X20288Y92886D02*
X12602D01*
Y85199D01*
X20288D01*
Y92886D01*
D02*
G37*
G36*
X17259Y81100D02*
X16741D01*
X16264Y80902D01*
X15898Y80536D01*
X15700Y80059D01*
Y79541D01*
X15898Y79064D01*
X16184Y78777D01*
Y76169D01*
X15768Y75965D01*
X15684Y75965D01*
X14316D01*
Y76777D01*
X14602Y77064D01*
X14800Y77541D01*
Y78059D01*
X14602Y78536D01*
X14236Y78902D01*
X13759Y79100D01*
X13241D01*
X12764Y78902D01*
X12398Y78536D01*
X12200Y78059D01*
Y77541D01*
X12398Y77064D01*
X12684Y76777D01*
Y75965D01*
X11231D01*
Y71035D01*
X15684D01*
X15768Y71035D01*
X16184Y70831D01*
Y69373D01*
X15961Y68965D01*
X11424D01*
Y64035D01*
X15961D01*
Y67127D01*
X16414Y67218D01*
X16726Y67280D01*
X16991Y67457D01*
X17577Y68043D01*
X17577Y68043D01*
X17754Y68308D01*
X17816Y68620D01*
Y78777D01*
X18102Y79064D01*
X18300Y79541D01*
Y80059D01*
X18102Y80536D01*
X17736Y80902D01*
X17259Y81100D01*
D02*
G37*
G36*
X89000Y88825D02*
X72500D01*
X72270Y88730D01*
X72175Y88500D01*
Y85000D01*
Y76000D01*
X72270Y75770D01*
X72500Y75675D01*
X88000D01*
X88230Y75770D01*
X89230Y76770D01*
X89325Y77000D01*
Y88500D01*
X89230Y88730D01*
X89000Y88825D01*
D02*
G37*
G36*
X93259Y75800D02*
X92741D01*
X92264Y75602D01*
X91898Y75236D01*
X91700Y74759D01*
Y74516D01*
X91681Y74497D01*
X89138D01*
X89138Y74497D01*
X89059Y74481D01*
X85302D01*
Y71519D01*
X91611D01*
Y72582D01*
X92019Y72865D01*
X92331Y72927D01*
X92595Y73104D01*
X92706Y73215D01*
X92741Y73200D01*
X93259D01*
X93736Y73398D01*
X94102Y73764D01*
X94300Y74241D01*
Y74759D01*
X94102Y75236D01*
X93736Y75602D01*
X93259Y75800D01*
D02*
G37*
G36*
X91611Y69481D02*
X85302D01*
Y66519D01*
X91611D01*
Y67320D01*
X94117D01*
Y67086D01*
X96883D01*
Y69458D01*
X94117D01*
Y68951D01*
X91611D01*
Y69481D01*
D02*
G37*
G36*
X106805Y77674D02*
X105195D01*
X103616Y77360D01*
X102128Y76744D01*
X100789Y75849D01*
X99651Y74711D01*
X98756Y73372D01*
X98140Y71884D01*
X97826Y70305D01*
Y68695D01*
X98140Y67116D01*
X98756Y65628D01*
X99651Y64289D01*
X100789Y63151D01*
X102128Y62256D01*
X103616Y61640D01*
X105195Y61326D01*
X106805D01*
X108384Y61640D01*
X109872Y62256D01*
X111211Y63151D01*
X112349Y64289D01*
X113244Y65628D01*
X113860Y67116D01*
X114174Y68695D01*
Y70305D01*
X113860Y71884D01*
X113244Y73372D01*
X112349Y74711D01*
X111211Y75849D01*
X109872Y76744D01*
X108384Y77360D01*
X106805Y77674D01*
D02*
G37*
G36*
X119228Y71580D02*
X118927Y71521D01*
X117708D01*
Y70714D01*
X116383Y69389D01*
X116040Y68876D01*
X115920Y68272D01*
Y61039D01*
X115723Y60907D01*
X115178Y60092D01*
X114986Y59130D01*
Y58180D01*
X114486Y57973D01*
X113230Y59230D01*
X113000Y59325D01*
X93825D01*
Y60000D01*
X93730Y60230D01*
X93737Y60352D01*
X93830Y60729D01*
X94236Y60898D01*
X94602Y61264D01*
X94800Y61741D01*
Y62259D01*
X94602Y62736D01*
X94236Y63102D01*
X93759Y63300D01*
X93353D01*
X93077Y63577D01*
X92812Y63754D01*
X92500Y63816D01*
X92500Y63816D01*
X91611D01*
Y64481D01*
X85302D01*
Y61519D01*
X91611D01*
Y62184D01*
X92162D01*
X92200Y62147D01*
Y61741D01*
X92398Y61264D01*
X92764Y60898D01*
X92940Y60825D01*
X92841Y60325D01*
X82989D01*
X82759Y60230D01*
X82664Y60000D01*
Y58832D01*
X80000D01*
X79770Y58737D01*
X79675Y58507D01*
Y47500D01*
X79770Y47270D01*
X80000Y47175D01*
X83865D01*
X85049Y45992D01*
X84955Y45506D01*
X84882Y45451D01*
X84382Y45118D01*
X84040Y44605D01*
X83920Y44000D01*
Y42265D01*
X83645Y42210D01*
X83406Y42050D01*
X78700D01*
Y38950D01*
X83847D01*
X84000Y38920D01*
X85500D01*
X85653Y38950D01*
X89300D01*
Y39170D01*
X90045D01*
X90154Y39191D01*
X92500D01*
X92801Y39251D01*
X94020D01*
Y40470D01*
X94080Y40772D01*
X94020Y41073D01*
Y42292D01*
X92801D01*
X92500Y42352D01*
X90067D01*
X89958Y42330D01*
X87080D01*
Y43307D01*
X87542Y43499D01*
X87770Y43270D01*
X88000Y43175D01*
X122000D01*
X122230Y43270D01*
X122325Y43500D01*
Y50000D01*
X122230Y50230D01*
X117857Y54603D01*
X118021Y55145D01*
X118462Y55233D01*
X119277Y55778D01*
X119822Y56593D01*
X120014Y57555D01*
Y59130D01*
X119822Y60092D01*
X119277Y60907D01*
X119080Y61039D01*
Y67617D01*
X119943Y68480D01*
X120749D01*
Y69699D01*
X120809Y70000D01*
X120749Y70301D01*
Y71521D01*
X119529D01*
X119228Y71580D01*
D02*
G37*
G36*
X25305Y60174D02*
X23695D01*
X22116Y59860D01*
X20628Y59244D01*
X19289Y58349D01*
X18151Y57211D01*
X17256Y55872D01*
X16640Y54384D01*
X16326Y52805D01*
Y51195D01*
X16640Y49616D01*
X17256Y48128D01*
X18151Y46789D01*
X19289Y45651D01*
X20628Y44756D01*
X22116Y44140D01*
X23695Y43826D01*
X25305D01*
X26884Y44140D01*
X28372Y44756D01*
X29711Y45651D01*
X30849Y46789D01*
X31744Y48128D01*
X32360Y49616D01*
X32674Y51195D01*
Y52805D01*
X32360Y54384D01*
X31744Y55872D01*
X30849Y57211D01*
X29711Y58349D01*
X28372Y59244D01*
X26884Y59860D01*
X25305Y60174D01*
D02*
G37*
G36*
X117500Y41958D02*
X116538Y41767D01*
X115723Y41222D01*
X115178Y40407D01*
X114986Y39445D01*
Y37870D01*
X115178Y36908D01*
X115723Y36093D01*
X116538Y35548D01*
X117500Y35356D01*
X118462Y35548D01*
X119277Y36093D01*
X119822Y36908D01*
X120014Y37870D01*
Y39445D01*
X119822Y40407D01*
X119277Y41222D01*
X118462Y41767D01*
X117500Y41958D01*
D02*
G37*
G36*
X89300Y37050D02*
X78700D01*
Y33950D01*
X89300D01*
Y37050D01*
D02*
G37*
G36*
X49759Y41300D02*
X49241D01*
X48764Y41102D01*
X48398Y40736D01*
X48200Y40259D01*
Y39741D01*
X48398Y39264D01*
X48764Y38898D01*
X49241Y38700D01*
X49646D01*
X53423Y34923D01*
X53688Y34746D01*
X54000Y34684D01*
X54000Y34684D01*
X55700D01*
Y33950D01*
X66300D01*
Y37050D01*
X55700D01*
Y36316D01*
X54338D01*
X50800Y39854D01*
Y40259D01*
X50602Y40736D01*
X50236Y41102D01*
X49759Y41300D01*
D02*
G37*
G36*
X70759Y44176D02*
X70241D01*
X69764Y43978D01*
X69398Y43613D01*
X69200Y43135D01*
Y42618D01*
X69398Y42140D01*
X69764Y41774D01*
X69826Y41748D01*
X69861Y41573D01*
X70038Y41308D01*
X70223Y41123D01*
X70246Y41006D01*
X70423Y40742D01*
X75347Y35818D01*
Y31086D01*
X75347Y31086D01*
X75409Y30774D01*
X75586Y30509D01*
X76171Y29923D01*
X76171Y29923D01*
X76332Y29816D01*
X76234Y29316D01*
X75672D01*
X69016Y35972D01*
Y38807D01*
X69236Y38898D01*
X69602Y39264D01*
X69800Y39741D01*
Y40259D01*
X69602Y40736D01*
X69236Y41102D01*
X68759Y41300D01*
X68241D01*
X67764Y41102D01*
X67398Y40736D01*
X67200Y40259D01*
Y39741D01*
X67384Y39296D01*
Y35634D01*
X67384Y35634D01*
X67446Y35322D01*
X67623Y35057D01*
X74757Y27923D01*
X74757Y27923D01*
X75022Y27746D01*
X75334Y27684D01*
X76912D01*
X78700Y25896D01*
Y23950D01*
X89300D01*
Y27050D01*
X79853D01*
X77827Y29077D01*
X77666Y29184D01*
X77764Y29684D01*
X78700D01*
Y28950D01*
X89300D01*
Y32050D01*
X78700D01*
Y31316D01*
X77086D01*
X76978Y31424D01*
Y36156D01*
X76978Y36156D01*
X76916Y36468D01*
X76739Y36733D01*
X71783Y41689D01*
X71775Y41705D01*
X71754Y41812D01*
X71627Y42002D01*
X71582Y42091D01*
X71602Y42140D01*
X71800Y42618D01*
Y43135D01*
X71602Y43613D01*
X71236Y43978D01*
X70759Y44176D01*
D02*
G37*
G36*
X48259Y37800D02*
X47741D01*
X47264Y37602D01*
X46898Y37236D01*
X46700Y36759D01*
Y36241D01*
X46898Y35764D01*
X47264Y35398D01*
X47741Y35200D01*
X48147D01*
X53423Y29923D01*
X53423Y29923D01*
X53688Y29746D01*
X54000Y29684D01*
X55700D01*
Y28950D01*
X66300D01*
Y32050D01*
X55700D01*
Y31316D01*
X54338D01*
X49300Y36353D01*
Y36759D01*
X49102Y37236D01*
X48736Y37602D01*
X48259Y37800D01*
D02*
G37*
G36*
X35036Y33233D02*
X31680D01*
X31680Y31452D01*
X31680Y30952D01*
X31680Y29484D01*
X31680Y28983D01*
X31680Y27515D01*
X31680Y27015D01*
X31680Y25546D01*
X31680Y25046D01*
Y23578D01*
X32738D01*
Y23343D01*
X32920Y22904D01*
X32997Y22827D01*
X33190Y22500D01*
X32997Y22173D01*
X32920Y22096D01*
X32738Y21657D01*
Y21422D01*
X31680D01*
X31680Y19641D01*
X31680Y19141D01*
X31680Y17672D01*
X31680Y17172D01*
X31680Y15704D01*
X31680Y15204D01*
X31680Y13735D01*
X31680Y13235D01*
Y11767D01*
X35036D01*
X35036Y13548D01*
X35036Y14048D01*
X35036Y15334D01*
X35442Y15657D01*
X35513Y15648D01*
X35764Y15398D01*
X36241Y15200D01*
X36759D01*
X37236Y15398D01*
X37602Y15764D01*
X37800Y16241D01*
Y16759D01*
X37602Y17236D01*
X37236Y17602D01*
X36759Y17800D01*
X36241D01*
X35764Y17602D01*
X35536Y17375D01*
X35060Y17480D01*
X35036Y17672D01*
X35036Y17985D01*
X35036Y19454D01*
X35036Y19954D01*
Y21357D01*
X37181D01*
X37200Y21338D01*
Y20941D01*
X37398Y20464D01*
X37764Y20098D01*
X38241Y19900D01*
X38759D01*
X39236Y20098D01*
X39602Y20464D01*
X39800Y20941D01*
Y21338D01*
X39819Y21357D01*
X47887D01*
X52205Y17039D01*
X52644Y16857D01*
X55700D01*
Y13950D01*
X66300D01*
Y17050D01*
X57121D01*
Y17157D01*
X56940Y17596D01*
X56862Y17673D01*
X56669Y18000D01*
X56862Y18327D01*
X56939Y18404D01*
X57121Y18843D01*
Y18950D01*
X66300D01*
Y22050D01*
X55700D01*
Y19143D01*
X53334D01*
X49016Y23461D01*
X48577Y23643D01*
X39819D01*
X39800Y23662D01*
Y24059D01*
X39602Y24536D01*
X39236Y24902D01*
X38759Y25100D01*
X38241D01*
X37764Y24902D01*
X37398Y24536D01*
X37200Y24059D01*
Y23662D01*
X37181Y23643D01*
X35390D01*
X35036Y23997D01*
X35036Y25359D01*
X35209Y25788D01*
X41543D01*
Y25117D01*
X43914D01*
Y27883D01*
X41543D01*
Y27086D01*
X37130D01*
X36923Y27586D01*
X37137Y27801D01*
X37335Y28278D01*
Y28796D01*
X37137Y29273D01*
X36771Y29639D01*
X36293Y29837D01*
X35776D01*
X35536Y29738D01*
X35037Y30030D01*
X35036Y30031D01*
X35036Y31265D01*
X35036Y31765D01*
Y33233D01*
D02*
G37*
G36*
X9076Y75965D02*
X4539D01*
Y71035D01*
X5991D01*
Y68965D01*
X4732D01*
Y64035D01*
X5991D01*
Y62613D01*
X5761Y62383D01*
X4543D01*
Y59617D01*
X6914D01*
Y61229D01*
X7384Y61699D01*
X7384Y61699D01*
X7561Y61963D01*
X7586Y62090D01*
X8086Y62041D01*
X8086Y61898D01*
X8086Y61883D01*
Y59617D01*
X8622D01*
Y51728D01*
X8812Y51269D01*
X24851Y35231D01*
Y28638D01*
X24764Y28602D01*
X24398Y28236D01*
X24200Y27759D01*
Y27241D01*
X24398Y26764D01*
X24764Y26398D01*
X25241Y26200D01*
X25759D01*
X26062Y26326D01*
X26501Y26102D01*
X26562Y26033D01*
X26562Y24562D01*
X26460Y24104D01*
X25565D01*
Y24348D01*
X25368Y24826D01*
X25002Y25192D01*
X24524Y25389D01*
X24007D01*
X23529Y25192D01*
X23163Y24826D01*
X22965Y24348D01*
Y23831D01*
X23163Y23353D01*
X23512Y23004D01*
X23530Y22975D01*
X23585Y22423D01*
X23398Y22236D01*
X23200Y21759D01*
Y21241D01*
X23398Y20764D01*
X23764Y20398D01*
X23864Y20356D01*
X23912Y20134D01*
X23908Y19797D01*
X21941Y17829D01*
X21751Y17370D01*
Y10804D01*
X21941Y10345D01*
X22296Y9990D01*
X22200Y9759D01*
Y9241D01*
X22398Y8764D01*
X22764Y8398D01*
X23241Y8200D01*
X23759D01*
X24236Y8398D01*
X24602Y8764D01*
X24800Y9241D01*
Y9759D01*
X24602Y10236D01*
X24236Y10602D01*
X23759Y10800D01*
X23323D01*
X23049Y11073D01*
Y14905D01*
X23549Y15112D01*
X23764Y14898D01*
X24241Y14700D01*
X24759D01*
X25236Y14898D01*
X25602Y15264D01*
X25800Y15741D01*
Y16210D01*
X25829Y16291D01*
X26170Y16672D01*
X26459Y16651D01*
X26562Y16501D01*
X26562Y16188D01*
X26562Y14720D01*
X26562Y14220D01*
Y12751D01*
X29918D01*
X29918Y14532D01*
X29918Y15032D01*
X29918Y16501D01*
X29918Y17001D01*
X29918Y18469D01*
X29918Y18969D01*
X29918Y20438D01*
X29918Y20938D01*
Y22406D01*
X29918D01*
Y22594D01*
X29918Y22594D01*
X29918Y24375D01*
X29918Y24875D01*
X29918Y26343D01*
X29918Y26843D01*
X29918Y28312D01*
X29918Y28812D01*
X29918Y30280D01*
X29918Y30780D01*
Y32249D01*
X26649D01*
X26562Y32249D01*
X26149Y32459D01*
Y35500D01*
X25959Y35959D01*
X9921Y51997D01*
Y59617D01*
X10458D01*
Y62383D01*
X8123Y62383D01*
X8086Y62383D01*
X7623Y62472D01*
X7623Y62584D01*
Y64035D01*
X9268D01*
Y68965D01*
X7623D01*
Y71035D01*
X9076D01*
Y75965D01*
D02*
G37*
G36*
X47792Y33020D02*
X44751D01*
Y29980D01*
X46639D01*
X51695Y24923D01*
X51695Y24923D01*
X51960Y24746D01*
X52272Y24684D01*
X52272Y24684D01*
X55700D01*
Y23950D01*
X66300D01*
Y27050D01*
X55700D01*
Y26316D01*
X52609D01*
X47792Y31133D01*
Y33020D01*
D02*
G37*
G36*
X99759Y29300D02*
X99241D01*
X98764Y29102D01*
X98398Y28736D01*
X98200Y28259D01*
Y27741D01*
X98398Y27264D01*
X98684Y26977D01*
Y26127D01*
X95657D01*
Y20212D01*
X103343D01*
Y23456D01*
X106980D01*
Y22751D01*
X110020D01*
Y25792D01*
X106980D01*
Y25087D01*
X103343D01*
Y26127D01*
X100316D01*
Y26977D01*
X100602Y27264D01*
X100800Y27741D01*
Y28259D01*
X100602Y28736D01*
X100236Y29102D01*
X99759Y29300D01*
D02*
G37*
G36*
X89300Y22050D02*
X78700D01*
Y18950D01*
X89300D01*
Y22050D01*
D02*
G37*
G36*
Y17050D02*
X78700D01*
Y13950D01*
X89300D01*
Y17050D01*
D02*
G37*
G36*
Y12050D02*
X78700D01*
Y8950D01*
X89300D01*
Y12050D01*
D02*
G37*
G36*
X66300D02*
X55700D01*
Y8950D01*
X66300D01*
Y12050D01*
D02*
G37*
G36*
X46914Y8883D02*
X44543D01*
Y8449D01*
X44323Y8343D01*
X44043Y8296D01*
X43736Y8602D01*
X43259Y8800D01*
X42741D01*
X42264Y8602D01*
X41898Y8236D01*
X41700Y7759D01*
Y7241D01*
X41898Y6764D01*
X42264Y6398D01*
X42741Y6200D01*
X43259D01*
X43736Y6398D01*
X44043Y6704D01*
X44323Y6657D01*
X44543Y6551D01*
Y6117D01*
X46914D01*
Y8883D01*
D02*
G37*
G36*
X89300Y7050D02*
X78700D01*
Y3950D01*
X89300D01*
Y7050D01*
D02*
G37*
G36*
X66300D02*
X55700D01*
Y3950D01*
X66300D01*
Y7050D01*
D02*
G37*
%LPD*%
G36*
X40000Y110500D02*
X63500D01*
Y100500D01*
X64000Y100000D01*
X62246Y98246D01*
X62037Y98455D01*
X61772Y98632D01*
X61460Y98694D01*
X61460Y98694D01*
X59268D01*
Y101221D01*
X54732D01*
Y97078D01*
X58193D01*
X58272Y97062D01*
X58272Y97062D01*
X59875D01*
X60142Y96562D01*
X60101Y96500D01*
X31080D01*
Y96851D01*
X30649D01*
X30000Y97500D01*
Y114362D01*
X30138Y114500D01*
X34000D01*
X35000Y115500D01*
X40000Y110500D01*
D02*
G37*
G36*
X60956Y96586D02*
X61000Y96563D01*
Y87500D01*
X59500Y86000D01*
X48527D01*
X48394Y86220D01*
X48481Y86720D01*
X48481D01*
Y91453D01*
X47816D01*
Y91977D01*
X48102Y92264D01*
X48300Y92741D01*
Y93259D01*
X48102Y93736D01*
X47736Y94102D01*
X47259Y94300D01*
X46741D01*
X46264Y94102D01*
X45898Y93736D01*
X45700Y93259D01*
Y92741D01*
X45898Y92264D01*
X46184Y91977D01*
Y91453D01*
X45519D01*
Y86720D01*
X45519D01*
X45606Y86220D01*
X45473Y86000D01*
X41000D01*
X40000Y87000D01*
Y96175D01*
X60086D01*
X60101Y96175D01*
X60101Y96175D01*
X60131Y96188D01*
X60164Y96181D01*
X60164Y96182D01*
X60243Y96234D01*
X60330Y96270D01*
X60330Y96271D01*
X60343Y96301D01*
X60371Y96320D01*
X60412Y96382D01*
X60412Y96382D01*
X60639Y96515D01*
X60927Y96588D01*
X60956Y96586D01*
D02*
G37*
G36*
X71000Y71500D02*
X62744D01*
X62538Y72000D01*
X62685Y72356D01*
Y72873D01*
X62500Y73321D01*
Y74909D01*
X62685Y75356D01*
Y75873D01*
X62500Y76320D01*
Y84484D01*
X63244Y85228D01*
X67043D01*
X67043Y85228D01*
X67356Y85290D01*
X67620Y85466D01*
X67654Y85500D01*
X71000D01*
Y71500D01*
D02*
G37*
G36*
X38000Y63500D02*
X60000D01*
X60358Y63142D01*
X60151Y62642D01*
X60077Y62642D01*
X60077Y62642D01*
X60061Y62642D01*
X50000D01*
Y56433D01*
X60441D01*
X60441Y62262D01*
Y62278D01*
D01*
X60441Y62352D01*
X60567Y62404D01*
X60941Y62559D01*
X62916Y60584D01*
X63146Y60181D01*
X63146D01*
X63146Y60181D01*
Y58500D01*
X67000D01*
Y58000D01*
X67500D01*
Y55819D01*
X70854D01*
Y56939D01*
X71354Y57146D01*
X75963Y52537D01*
X75772Y52075D01*
X73094D01*
Y49500D01*
X72594D01*
Y49000D01*
X68445D01*
Y47000D01*
X37500D01*
Y63347D01*
X37962Y63538D01*
X38000Y63500D01*
D02*
G37*
G36*
X45700Y85246D02*
Y85241D01*
X45898Y84764D01*
X46264Y84398D01*
X46741Y84200D01*
X47259D01*
X47736Y84398D01*
X48102Y84764D01*
X48280Y85192D01*
X60007Y84948D01*
X60193Y84484D01*
X57862Y82153D01*
X56721D01*
X56350Y82524D01*
X55798Y82752D01*
X55202D01*
X54650Y82524D01*
X54228Y82102D01*
X54000Y81550D01*
Y80954D01*
X54166Y80552D01*
X53925Y80052D01*
X45069D01*
X44850Y80272D01*
X44298Y80500D01*
X43702D01*
X43150Y80272D01*
X42931Y80052D01*
X39259D01*
Y68035D01*
X59741D01*
Y80052D01*
X58403D01*
X58354Y80552D01*
X58512Y80584D01*
X58777Y80760D01*
X61713Y83697D01*
X62175Y83505D01*
Y76320D01*
X62200Y76261D01*
Y76196D01*
X62361Y75809D01*
Y75421D01*
X62200Y75033D01*
Y74969D01*
X62175Y74909D01*
Y73321D01*
X62200Y73261D01*
Y73196D01*
X62361Y72809D01*
Y72421D01*
X62238Y72124D01*
Y72005D01*
X62238Y71876D01*
X62444Y71376D01*
X62490Y71330D01*
X62515Y71270D01*
X62574Y71246D01*
X62620Y71200D01*
X62684Y71200D01*
X62744Y71175D01*
X69825D01*
X70500Y70500D01*
Y66000D01*
X63097D01*
X62968Y65871D01*
X62858Y61745D01*
X62354Y61605D01*
X61171Y62789D01*
X61114Y62812D01*
X61111Y62814D01*
X61065Y62859D01*
X60831Y63032D01*
X60658Y63266D01*
X60613Y63312D01*
X60588Y63371D01*
X60230Y63730D01*
X60000Y63825D01*
X38100D01*
X38086Y63838D01*
X38022D01*
X37962Y63863D01*
X37902Y63838D01*
X37838D01*
X37376Y63647D01*
X37330Y63601D01*
X37270Y63576D01*
X37246Y63517D01*
X37200Y63471D01*
Y63406D01*
X37175Y63347D01*
Y61500D01*
X27207D01*
X27000Y62000D01*
Y79000D01*
X28479Y80480D01*
X30249D01*
Y82249D01*
X33500Y85500D01*
X45700Y85246D01*
D02*
G37*
%LPC*%
G36*
X52221Y102280D02*
X49259D01*
Y97546D01*
X52221D01*
Y102280D01*
D02*
G37*
G36*
X49000Y62642D02*
X38559D01*
Y56433D01*
X49000D01*
Y62642D01*
D02*
G37*
G36*
X66500Y57500D02*
X63146D01*
Y55819D01*
X66500D01*
Y57500D01*
D02*
G37*
G36*
X72095Y52075D02*
X68445D01*
Y50000D01*
X72095D01*
Y52075D01*
D02*
G37*
G36*
X60441Y55433D02*
X50000D01*
Y49224D01*
X60441D01*
Y55433D01*
D02*
G37*
G36*
X49000D02*
X38559D01*
Y49224D01*
X49000D01*
Y55433D01*
D02*
G37*
%LPD*%
G36*
X89000Y77000D02*
X88000Y76000D01*
X72500D01*
Y85000D01*
Y88500D01*
X89000D01*
Y77000D01*
D02*
G37*
G36*
X93500Y59000D02*
X113000D01*
X115121Y56879D01*
X115178Y56593D01*
X115723Y55778D01*
X116538Y55233D01*
X116824Y55176D01*
X122000Y50000D01*
Y43500D01*
X88000D01*
X86976Y44524D01*
X86960Y44605D01*
X86617Y45118D01*
X86105Y45460D01*
X86024Y45476D01*
X84000Y47500D01*
X80000D01*
Y58507D01*
X82989D01*
Y60000D01*
X93500D01*
Y59000D01*
D02*
G37*
D15*
X67000Y63000D02*
X75228D01*
X67000Y60500D02*
Y63000D01*
X58200Y81337D02*
X62906Y86043D01*
X55585Y81337D02*
X58200D01*
X55500Y81252D02*
X55585Y81337D01*
X57000Y99150D02*
X58272Y97878D01*
X61460D01*
X62838Y96500D01*
X63000D01*
X67043Y86043D02*
X76000Y95000D01*
X62906Y86043D02*
X67043D01*
X82269Y106307D02*
X84087D01*
X72448Y131885D02*
X74085D01*
X81800Y106000D02*
X81962D01*
X82269Y106307D01*
X78500Y125469D02*
X81800D01*
X74085Y131885D02*
X74200Y132000D01*
X84087Y106307D02*
X85260Y107480D01*
X81748Y125469D02*
X84260Y127980D01*
Y124865D02*
Y127980D01*
X84949Y124279D02*
X85532Y123697D01*
X84260Y124865D02*
X84846Y124279D01*
X84949D01*
X72000Y131437D02*
X72448Y131885D01*
X58497Y131840D02*
X59260Y131078D01*
X54000Y127969D02*
Y130758D01*
X59260Y126980D02*
Y131078D01*
X54000Y130758D02*
X58498Y135256D01*
X58497Y131840D02*
Y132003D01*
X58498Y135256D02*
X61827D01*
X91941Y133838D02*
X94310Y131468D01*
X87662Y133838D02*
X91941D01*
X94310Y131468D02*
X97500D01*
X88000Y137429D02*
Y137724D01*
X82315Y131744D02*
X88000Y137429D01*
X81965Y131744D02*
X82315D01*
X80753Y130532D02*
X81965Y131744D01*
X88000Y137724D02*
Y137795D01*
X78000Y130532D02*
X80753D01*
X97724Y111244D02*
X98000Y110968D01*
X88918Y111244D02*
X97724D01*
X88162Y112000D02*
X88918Y111244D01*
X88000Y112000D02*
X88162D01*
X13500Y73500D02*
Y77800D01*
X54000Y30500D02*
X61000D01*
X48000Y36500D02*
X54000Y30500D01*
Y35500D02*
X61000D01*
X49500Y40000D02*
X54000Y35500D01*
X52272Y25500D02*
X61000D01*
X46272Y31500D02*
X52272Y25500D01*
X70615Y41885D02*
Y42761D01*
X71000Y41318D02*
X76162Y36156D01*
X70615Y41885D02*
X71000Y41500D01*
Y41318D02*
Y41500D01*
X70500Y42876D02*
X70615Y42761D01*
X76162Y31086D02*
Y36156D01*
X68200Y35634D02*
Y40000D01*
X76162Y31086D02*
X76748Y30500D01*
X84000D01*
X47000Y85500D02*
Y89087D01*
Y93000D01*
X44354Y138615D02*
X45385D01*
X43248Y139720D02*
X44354Y138615D01*
X45385D02*
X45500Y138500D01*
X43051Y139720D02*
X43248D01*
X40091Y135111D02*
X42000Y137021D01*
X39020Y132500D02*
X40091Y133571D01*
X44172Y143280D02*
X48779Y138672D01*
X40091Y133571D02*
Y135111D01*
X48779Y132264D02*
Y138672D01*
X35476Y143280D02*
X44172D01*
X54000Y121000D02*
X54000Y121000D01*
X54000Y121000D02*
Y124031D01*
X72484Y97016D02*
X72500Y97031D01*
X69016Y97016D02*
X72484D01*
X69000Y97000D02*
X69016Y97016D01*
X78500Y121531D02*
X79083Y120949D01*
X80889D01*
X81338Y120500D01*
X81500D01*
X100602Y24272D02*
X108500D01*
X99500Y23169D02*
X100602Y24272D01*
X99500Y23169D02*
Y28000D01*
X85162Y102000D02*
X87532D01*
X84662Y101500D02*
X85162Y102000D01*
X84500Y101500D02*
X84662D01*
X15161Y68034D02*
X16414D01*
X13693Y66500D02*
Y66565D01*
X15161Y68034D01*
X16414D02*
X17000Y68620D01*
Y79800D01*
X88457Y73000D02*
X89138Y73681D01*
X92019D01*
X92838Y74500D01*
X93000D01*
X88457Y63000D02*
X92500D01*
X93500Y62000D01*
X88457Y68000D02*
X88592Y68136D01*
X95364D01*
X95500Y68272D01*
X78000Y134468D02*
X78000Y134468D01*
X78000Y134468D02*
Y137500D01*
X78115Y112146D02*
X78500Y112531D01*
X78115Y110115D02*
Y112146D01*
X78000Y110000D02*
X78115Y110115D01*
X78500Y116469D02*
X88244D01*
X89000Y117224D01*
X54000Y114032D02*
X62602D01*
X64500Y116224D02*
X68116D01*
X62602Y114032D02*
X64500Y115929D01*
X61827Y135256D02*
X63000Y136429D01*
Y136724D01*
X54000Y117968D02*
Y121000D01*
X54000Y124031D02*
X54000Y124031D01*
X72000Y135031D02*
X72197D01*
X73551Y136386D01*
X73901D01*
X74779Y137265D01*
Y140673D01*
X70173Y145280D02*
X74779Y140673D01*
X31499Y145280D02*
X70173D01*
X42469Y140303D02*
Y140500D01*
Y140303D02*
X43051Y139720D01*
X37969Y133551D02*
X39020Y132500D01*
X15500Y126000D02*
X17550D01*
X22875Y131325D01*
X24587Y127587D02*
X28102D01*
X28500Y122968D02*
Y127587D01*
Y127984D01*
X20000Y123000D02*
X24587Y127587D01*
X22875Y138789D02*
X25086Y141000D01*
X22875Y131325D02*
Y138789D01*
X25086Y141000D02*
X33196D01*
X35476Y143280D01*
X47551Y131386D02*
X47901D01*
X48779Y132264D01*
X46000Y130032D02*
X46197D01*
X47551Y131386D01*
X30220Y144000D02*
X31499Y145280D01*
X16500Y144000D02*
X30220D01*
X28500Y127984D02*
X29276Y128760D01*
X28102Y127587D02*
X28500Y127984D01*
X68200Y35634D02*
X75334Y28500D01*
X77250D02*
X80250Y25500D01*
X75334Y28500D02*
X77250D01*
X80250Y25500D02*
X84000D01*
X6807Y62276D02*
Y73500D01*
X5728Y61197D02*
X6807Y62276D01*
X5728Y61000D02*
Y61197D01*
X43260Y88760D02*
Y89087D01*
X43081Y88581D02*
X43260Y88760D01*
X73000Y105974D02*
X76000Y102974D01*
Y95000D02*
Y102974D01*
X73000Y105974D02*
Y114532D01*
X68116Y116224D02*
X70221Y118329D01*
X72860D01*
X73000Y118468D01*
X68240Y106480D02*
Y106776D01*
Y106480D02*
X71720Y103000D01*
Y101551D02*
Y103000D01*
Y101551D02*
X72303Y100969D01*
X72500D01*
X64500Y115929D02*
Y116224D01*
X42707Y130719D02*
Y133383D01*
X43292Y133968D02*
X46000D01*
X42707Y133383D02*
X43292Y133968D01*
X41314Y129327D02*
X42707Y130719D01*
X29571Y136240D02*
X30744Y135067D01*
Y134772D02*
Y135067D01*
Y134772D02*
X32744Y132772D01*
Y130756D02*
Y132772D01*
X29276Y136240D02*
X29571D01*
X32744Y130756D02*
X34173Y129327D01*
X41314D01*
X37969Y133551D02*
Y140500D01*
X28500Y119032D02*
X28697D01*
X30051Y120386D01*
X30401D01*
X31700Y121685D01*
Y121700D01*
X33000Y123000D01*
X44429Y115760D02*
X44724D01*
X40561Y119628D02*
X44429Y115760D01*
X40561Y119628D02*
Y119978D01*
X37539Y123000D02*
X40561Y119978D01*
X33000Y123000D02*
X37539D01*
X66866Y136724D02*
X69110Y138969D01*
X63000Y136724D02*
X66866D01*
X69110Y138969D02*
X72000D01*
X44827Y123240D02*
X46000Y124413D01*
Y130032D01*
X44724Y123240D02*
X44827D01*
X25386Y99385D02*
X29303Y95468D01*
X24115Y99385D02*
X25386D01*
X24000Y99500D02*
X24115Y99385D01*
X29303Y95468D02*
X29500D01*
X28032Y108000D02*
X28032Y108000D01*
X23500Y108000D02*
X28032D01*
X34980Y119500D02*
X35276D01*
X32344Y116864D02*
X34980Y119500D01*
X31349Y116864D02*
X32344D01*
X29114Y114629D02*
X31349Y116864D01*
X29114Y114083D02*
Y114629D01*
X28532Y113500D02*
X29114Y114083D01*
X28532Y113500D02*
X28532Y113500D01*
X24000Y113500D02*
X28532D01*
X61532Y122500D02*
Y125004D01*
X60728Y125807D02*
X61532Y125004D01*
X60433Y125807D02*
X60728D01*
X59260Y126980D02*
X60433Y125807D01*
X66740Y123865D02*
Y127276D01*
X66154Y123280D02*
X66740Y123865D01*
X66051Y123280D02*
X66154D01*
X65469Y122697D02*
X66051Y123280D01*
X65469Y122500D02*
Y122697D01*
X66965Y127500D02*
X72000D01*
X66740Y127276D02*
X66965Y127500D01*
X84260Y127980D02*
Y128276D01*
X85532Y123500D02*
Y123697D01*
X85260Y107480D02*
Y107776D01*
X33358Y34311D02*
X33449Y34402D01*
X36402D01*
X36500Y34500D01*
X33358Y10689D02*
X36027D01*
X36338Y11000D01*
X36500D01*
X75228Y63000D02*
X77728Y65500D01*
X98197Y115032D02*
X98779Y114449D01*
Y114137D02*
X99365Y113551D01*
X99901D02*
X105456Y107996D01*
Y106429D02*
X113000Y98885D01*
X98000Y115032D02*
X98197D01*
X98779Y114137D02*
Y114449D01*
X99365Y113551D02*
X99901D01*
X105456Y106429D02*
Y107996D01*
X66437Y104677D02*
X68240Y106480D01*
X66437Y101000D02*
Y104677D01*
X96559Y128276D02*
X97303Y127532D01*
X91740Y128276D02*
X96559D01*
X97303Y127532D02*
X97500D01*
X90272Y126807D02*
X90567D01*
X91740Y127980D01*
X89468Y123500D02*
Y126004D01*
X90272Y126807D01*
X91740Y127980D02*
Y128276D01*
X91469Y106209D02*
X92740Y107480D01*
Y107776D01*
X91469Y102000D02*
Y106209D01*
X92740Y107776D02*
X93484Y107032D01*
X98000D01*
X89000Y117224D02*
Y117520D01*
X90449Y118968D02*
X98000D01*
X89000Y117520D02*
X90449Y118968D01*
X88000Y137795D02*
X89173Y138969D01*
X97500D01*
Y135031D02*
X100291D01*
X112698Y143198D02*
X113500Y144000D01*
X108457Y143198D02*
X112698D01*
X100291Y135031D02*
X108457Y143198D01*
D18*
X25500Y27500D02*
Y35500D01*
X9272Y51728D02*
X25500Y35500D01*
X9272Y51728D02*
Y61000D01*
X22400Y17370D02*
X24430Y19400D01*
X25696D02*
X25896Y19600D01*
X28187D01*
X24430Y19400D02*
X25696D01*
X22400Y10804D02*
X23500Y9704D01*
X25789Y17539D02*
X28201D01*
X24500Y16250D02*
X25789Y17539D01*
X23500Y9500D02*
Y9704D01*
X24500Y16000D02*
Y16250D01*
X22400Y10804D02*
Y17370D01*
X28201Y17539D02*
X28240Y17579D01*
X28187Y19600D02*
X28240Y19547D01*
X33358Y16594D02*
X33406Y16547D01*
X36453D01*
X36500Y16500D01*
X33358Y28405D02*
X33424Y28471D01*
X35969D01*
X36035Y28537D01*
X33358Y26437D02*
X42937D01*
X43000Y26500D01*
X28201Y27461D02*
X28240Y27421D01*
X25539Y27461D02*
X28201D01*
X25500Y27500D02*
X25539Y27461D01*
X43000Y7500D02*
X45728D01*
X28240Y27421D02*
X28262Y27399D01*
D19*
X28240Y21516D02*
D03*
Y19547D02*
D03*
Y23484D02*
D03*
Y25453D02*
D03*
Y17579D02*
D03*
Y27421D02*
D03*
Y15610D02*
D03*
Y29390D02*
D03*
Y13642D02*
D03*
Y31358D02*
D03*
X33358Y34311D02*
D03*
Y10689D02*
D03*
Y32342D02*
D03*
Y12657D02*
D03*
Y30374D02*
D03*
Y14626D02*
D03*
Y28405D02*
D03*
Y16594D02*
D03*
Y26437D02*
D03*
Y24468D02*
D03*
Y18563D02*
D03*
Y20531D02*
D03*
D20*
X28240Y10295D02*
D03*
Y34705D02*
D03*
D21*
X99500Y6831D02*
D03*
Y23169D02*
D03*
D22*
X43260Y99913D02*
D03*
X50740D02*
D03*
Y89087D02*
D03*
X47000D02*
D03*
X43260D02*
D03*
D23*
X88000Y137724D02*
D03*
X84260Y128276D02*
D03*
X60760Y106776D02*
D03*
X64500Y116224D02*
D03*
X63000Y136724D02*
D03*
X59260Y127276D02*
D03*
X89000Y117224D02*
D03*
X85260Y107776D02*
D03*
D24*
X91740Y128276D02*
D03*
X68240Y106776D02*
D03*
X66740Y127276D02*
D03*
X92740Y107776D02*
D03*
D25*
X84000Y40500D02*
D03*
Y35500D02*
D03*
Y30500D02*
D03*
Y25500D02*
D03*
Y20500D02*
D03*
Y15500D02*
D03*
Y10500D02*
D03*
Y5500D02*
D03*
X61000D02*
D03*
Y10500D02*
D03*
Y15500D02*
D03*
Y20500D02*
D03*
Y25500D02*
D03*
Y30500D02*
D03*
Y35500D02*
D03*
Y40500D02*
D03*
D26*
X77728Y65500D02*
D03*
D27*
X67000Y73000D02*
D03*
Y68000D02*
D03*
Y63000D02*
D03*
Y58000D02*
D03*
X88457Y73000D02*
D03*
Y68000D02*
D03*
Y63000D02*
D03*
Y58000D02*
D03*
D28*
X84405Y49500D02*
D03*
X72594D02*
D03*
D29*
X7000Y66500D02*
D03*
X13693D02*
D03*
X6807Y73500D02*
D03*
X13500D02*
D03*
D30*
X65791Y81000D02*
D03*
X77209D02*
D03*
D31*
X32469Y113500D02*
D03*
X28532D02*
D03*
X66437Y101000D02*
D03*
X62500D02*
D03*
X65469Y122500D02*
D03*
X61532D02*
D03*
X91469Y102000D02*
D03*
X87532D02*
D03*
X42469Y140500D02*
D03*
X38532D02*
D03*
X89468Y123500D02*
D03*
X85532D02*
D03*
X31969Y108000D02*
D03*
X28032D02*
D03*
D32*
X5728Y61000D02*
D03*
X9272D02*
D03*
X42728Y26500D02*
D03*
X46272D02*
D03*
X45728Y7500D02*
D03*
X49272D02*
D03*
D33*
X49500Y55933D02*
D03*
Y74043D02*
D03*
D34*
X83063Y94000D02*
D03*
X90937D02*
D03*
X23063Y64500D02*
D03*
X30937D02*
D03*
X23063Y74500D02*
D03*
X30937D02*
D03*
D35*
X85350Y81000D02*
D03*
X91650D02*
D03*
D36*
X119228Y70000D02*
D03*
X122772D02*
D03*
X96728Y94500D02*
D03*
X100272D02*
D03*
X46272Y31500D02*
D03*
X42728D02*
D03*
X32272Y82000D02*
D03*
X28728D02*
D03*
D37*
X92500Y40772D02*
D03*
Y37228D02*
D03*
X108500Y24272D02*
D03*
Y20728D02*
D03*
D38*
X57000Y92850D02*
D03*
Y99150D02*
D03*
X35500Y98650D02*
D03*
Y92350D02*
D03*
D39*
X54000Y114032D02*
D03*
Y117968D02*
D03*
X54000Y127969D02*
D03*
Y124031D02*
D03*
X46000Y130032D02*
D03*
Y133968D02*
D03*
X28500Y122968D02*
D03*
Y119032D02*
D03*
X78500Y116469D02*
D03*
Y112531D02*
D03*
Y125469D02*
D03*
Y121531D02*
D03*
X78000Y130532D02*
D03*
Y134468D02*
D03*
X29500Y95468D02*
D03*
Y91531D02*
D03*
X98000Y110968D02*
D03*
Y107032D02*
D03*
X97500Y131468D02*
D03*
Y127532D02*
D03*
X72000Y127500D02*
D03*
Y131437D02*
D03*
X72500Y100969D02*
D03*
Y97031D02*
D03*
X73000Y118468D02*
D03*
Y114532D02*
D03*
X72000Y138969D02*
D03*
Y135031D02*
D03*
X98000Y118968D02*
D03*
Y115032D02*
D03*
X97500Y138969D02*
D03*
Y135031D02*
D03*
D40*
X108500Y38563D02*
D03*
Y46437D02*
D03*
X99000Y38563D02*
D03*
Y46437D02*
D03*
D41*
X38724Y132500D02*
D03*
X29276Y136240D02*
D03*
X44724Y115760D02*
D03*
X35276Y119500D02*
D03*
D42*
X29276Y128760D02*
D03*
X44724Y123240D02*
D03*
D43*
X95500Y68272D02*
D03*
Y64728D02*
D03*
D76*
X117500Y68272D02*
X119228Y70000D01*
X117500Y58343D02*
Y68272D01*
X84000Y40500D02*
X85500D01*
Y44000D01*
X90067Y40772D02*
X92500D01*
X90045Y40750D02*
X90067Y40772D01*
X84250Y40750D02*
X90045D01*
X84000Y40500D02*
X84250Y40750D01*
D77*
X90937Y94000D02*
X96228D01*
X96728Y94500D01*
D78*
X24500Y21500D02*
X24508Y21508D01*
X24551Y24089D02*
X25156Y23484D01*
X28240D01*
X28232Y21508D02*
X28240Y21516D01*
X24508Y21508D02*
X28232D01*
X24265Y24089D02*
X24551D01*
X33358Y23343D02*
Y24468D01*
X53077Y18523D02*
X56181D01*
X56501Y18843D02*
Y19523D01*
X48577Y23023D02*
X53077Y18523D01*
X56181D02*
X56501Y18843D01*
X57478Y20500D02*
X61000D01*
X56501Y19523D02*
X57478Y20500D01*
X33358Y23343D02*
X33678Y23023D01*
X37438D01*
X38215Y23800D01*
X38785D02*
X39562Y23023D01*
X48577D01*
X38500Y23800D02*
X38785D01*
X38215D02*
X38500D01*
X33358Y20531D02*
Y21657D01*
X33678Y21977D01*
X52644Y17477D02*
X56181D01*
X56501Y17157D01*
X48144Y21977D02*
X52644Y17477D01*
X56501Y16477D02*
X57478Y15500D01*
X61000D01*
X56501Y16477D02*
Y17157D01*
X37438Y21977D02*
X38215Y21200D01*
X38500D01*
X33678Y21977D02*
X37438D01*
X38500Y21200D02*
X38785D01*
X39562Y21977D01*
X48144D01*
D79*
X16445Y108728D02*
D03*
Y98885D02*
D03*
X16500Y144000D02*
D03*
Y153842D02*
D03*
X113000Y98885D02*
D03*
Y89043D02*
D03*
X113500Y134158D02*
D03*
Y144000D02*
D03*
D80*
X16445Y89043D02*
D03*
X16500Y134158D02*
D03*
X113000Y108728D02*
D03*
X113500Y153842D02*
D03*
D81*
X10642Y5492D02*
D03*
Y39508D02*
D03*
D82*
X31744Y5492D02*
D03*
Y39508D02*
D03*
D83*
X117500Y58343D02*
D03*
Y48500D02*
D03*
Y38658D02*
D03*
D84*
X24500Y52000D02*
D03*
X106000Y69500D02*
D03*
D85*
X75563Y69831D02*
D03*
X79894Y65500D02*
D03*
X75563D02*
D03*
X79894Y61169D02*
D03*
X75563D02*
D03*
X79894Y69831D02*
D03*
D86*
X66885Y68115D02*
D03*
X61385Y75615D02*
D03*
Y72615D02*
D03*
Y69615D02*
D03*
X67000Y60500D02*
D03*
X72422Y123175D02*
D03*
X63000Y96500D02*
D03*
X81800Y106000D02*
D03*
Y125469D02*
D03*
X74200Y132000D02*
D03*
X28240Y34705D02*
D03*
X85500Y44000D02*
D03*
X124000Y6000D02*
D03*
Y40100D02*
D03*
Y74200D02*
D03*
Y108300D02*
D03*
Y142400D02*
D03*
X6000Y176500D02*
D03*
X15000D02*
D03*
X24000D02*
D03*
X124000D02*
D03*
X115500D02*
D03*
X106500D02*
D03*
X58497Y132003D02*
D03*
X87662Y133838D02*
D03*
X88000Y112000D02*
D03*
X13500Y77800D02*
D03*
X48000Y36500D02*
D03*
X49500Y40000D02*
D03*
X68500D02*
D03*
X47000Y85500D02*
D03*
X45500Y138500D02*
D03*
X54000Y121000D02*
D03*
X69000Y97000D02*
D03*
X81500Y120500D02*
D03*
X99500Y28000D02*
D03*
X99000Y90000D02*
D03*
X92500Y91000D02*
D03*
X84500Y101500D02*
D03*
X24500Y21500D02*
D03*
X24265Y24089D02*
D03*
X38500Y23800D02*
D03*
Y21200D02*
D03*
X24500Y16000D02*
D03*
X23500Y9500D02*
D03*
X36035Y28537D02*
D03*
X25500Y27500D02*
D03*
X17000Y79800D02*
D03*
X93000Y74500D02*
D03*
X93500Y62000D02*
D03*
X78000Y137500D02*
D03*
Y110000D02*
D03*
X70500Y42876D02*
D03*
X24000Y99500D02*
D03*
X23500Y108000D02*
D03*
X24000Y113500D02*
D03*
X47000Y93000D02*
D03*
X43000Y7500D02*
D03*
X36500Y34500D02*
D03*
Y16500D02*
D03*
Y11000D02*
D03*
D87*
X44000Y79000D02*
D03*
X44078Y71078D02*
D03*
X44000Y75000D02*
D03*
X55500Y81252D02*
D03*
X54500Y89500D02*
D03*
X42000Y137021D02*
D03*
X20000Y123000D02*
D03*
X15500Y126000D02*
D03*
X43081Y88581D02*
D03*
X29000Y85000D02*
D03*
X53500Y106500D02*
D03*
X43500D02*
D03*
X48000D02*
D03*
X80300Y86438D02*
D03*
X86000Y86000D02*
D03*
M02*
