G04*
G04 #@! TF.GenerationSoftware,Altium Limited,Altium Designer,23.4.1 (23)*
G04*
G04 Layer_Color=128*
%FSLAX25Y25*%
%MOIN*%
G70*
G04*
G04 #@! TF.SameCoordinates,D0A82AA9-F4A3-43A1-B343-99984006E8F9*
G04*
G04*
G04 #@! TF.FilePolarity,Positive*
G04*
G01*
G75*
%ADD100C,0.00200*%
D100*
X14083Y108728D02*
X18807D01*
X16445Y106365D02*
Y111090D01*
X14083Y98885D02*
X18807D01*
X16445Y96523D02*
Y101247D01*
X14083Y89043D02*
X18807D01*
X16445Y86680D02*
Y91405D01*
X9461Y5492D02*
X11823D01*
X10642Y4311D02*
Y6673D01*
X30563Y5492D02*
X32925D01*
X31744Y4311D02*
Y6673D01*
X30563Y39508D02*
X32925D01*
X31744Y38327D02*
Y40689D01*
X9461Y39508D02*
X11823D01*
X10642Y38327D02*
Y40689D01*
X116319Y58343D02*
X118681D01*
X117500Y57161D02*
Y59524D01*
X116319Y48500D02*
X118681D01*
X117500Y47319D02*
Y49681D01*
X116319Y38658D02*
X118681D01*
X117500Y37476D02*
Y39838D01*
X14138Y134158D02*
X18862D01*
X16500Y131795D02*
Y136520D01*
X14138Y144000D02*
X18862D01*
X16500Y141638D02*
Y146362D01*
X14138Y153842D02*
X18862D01*
X16500Y151480D02*
Y156205D01*
X110638Y108728D02*
X115362D01*
X113000Y106365D02*
Y111090D01*
X110638Y98885D02*
X115362D01*
X113000Y96523D02*
Y101247D01*
X110638Y89043D02*
X115362D01*
X113000Y86680D02*
Y91405D01*
X111138Y134158D02*
X115862D01*
X113500Y131795D02*
Y136520D01*
X111138Y144000D02*
X115862D01*
X113500Y141638D02*
Y146362D01*
X111138Y153842D02*
X115862D01*
X113500Y151480D02*
Y156205D01*
X18595Y52000D02*
X30406D01*
X24500Y46095D02*
Y57906D01*
X100094Y69500D02*
X111906D01*
X106000Y63595D02*
Y75406D01*
X75169Y69831D02*
X75957D01*
X75563Y69437D02*
Y70224D01*
X79500Y65500D02*
X80287D01*
X79894Y65106D02*
Y65894D01*
X75169Y65500D02*
X75957D01*
X75563Y65106D02*
Y65894D01*
X79500Y61169D02*
X80287D01*
X79894Y60776D02*
Y61563D01*
X75169Y61169D02*
X75957D01*
X75563Y60776D02*
Y61563D01*
X79500Y69831D02*
X80287D01*
X79894Y69437D02*
Y70224D01*
X66385Y68115D02*
X67385D01*
X66885Y67615D02*
Y68615D01*
X60885Y75615D02*
X61885D01*
X61385Y75115D02*
Y76115D01*
X60885Y72615D02*
X61885D01*
X61385Y72115D02*
Y73115D01*
X60885Y69615D02*
X61885D01*
X61385Y69115D02*
Y70115D01*
X43400Y79000D02*
X44600D01*
X44000Y78400D02*
Y79600D01*
X43478Y71078D02*
X44678D01*
X44078Y70478D02*
Y71678D01*
X43400Y75000D02*
X44600D01*
X44000Y74400D02*
Y75600D01*
X66500Y60500D02*
X67500D01*
X67000Y60000D02*
Y61000D01*
X54900Y81252D02*
X56100D01*
X55500Y80652D02*
Y81852D01*
X71922Y123175D02*
X72922D01*
X72422Y122675D02*
Y123675D01*
X62500Y96500D02*
X63500D01*
X63000Y96000D02*
Y97000D01*
X81300Y106000D02*
X82300D01*
X81800Y105500D02*
Y106500D01*
X81300Y125469D02*
X82300D01*
X81800Y124969D02*
Y125969D01*
X73700Y132000D02*
X74700D01*
X74200Y131500D02*
Y132500D01*
X27740Y34705D02*
X28740D01*
X28240Y34205D02*
Y35205D01*
X85000Y44000D02*
X86000D01*
X85500Y43500D02*
Y44500D01*
X123500Y6000D02*
X124500D01*
X124000Y5500D02*
Y6500D01*
X123500Y40100D02*
X124500D01*
X124000Y39600D02*
Y40600D01*
X123500Y74200D02*
X124500D01*
X124000Y73700D02*
Y74700D01*
X123500Y108300D02*
X124500D01*
X124000Y107800D02*
Y108800D01*
X123500Y142400D02*
X124500D01*
X124000Y141900D02*
Y142900D01*
X5500Y176500D02*
X6500D01*
X6000Y176000D02*
Y177000D01*
X14500Y176500D02*
X15500D01*
X15000Y176000D02*
Y177000D01*
X23500Y176500D02*
X24500D01*
X24000Y176000D02*
Y177000D01*
X123500Y176500D02*
X124500D01*
X124000Y176000D02*
Y177000D01*
X115000Y176500D02*
X116000D01*
X115500Y176000D02*
Y177000D01*
X106000Y176500D02*
X107000D01*
X106500Y176000D02*
Y177000D01*
X57997Y132003D02*
X58997D01*
X58497Y131503D02*
Y132503D01*
X87162Y133838D02*
X88162D01*
X87662Y133338D02*
Y134338D01*
X87500Y112000D02*
X88500D01*
X88000Y111500D02*
Y112500D01*
X13000Y77800D02*
X14000D01*
X13500Y77300D02*
Y78300D01*
X47500Y36500D02*
X48500D01*
X48000Y36000D02*
Y37000D01*
X49000Y40000D02*
X50000D01*
X49500Y39500D02*
Y40500D01*
X68000Y40000D02*
X69000D01*
X68500Y39500D02*
Y40500D01*
X46500Y85500D02*
X47500D01*
X47000Y85000D02*
Y86000D01*
X53900Y89500D02*
X55100D01*
X54500Y88900D02*
Y90100D01*
X45000Y138500D02*
X46000D01*
X45500Y138000D02*
Y139000D01*
X41400Y137021D02*
X42600D01*
X42000Y136421D02*
Y137620D01*
X53500Y121000D02*
X54500D01*
X54000Y120500D02*
Y121500D01*
X68500Y97000D02*
X69500D01*
X69000Y96500D02*
Y97500D01*
X81000Y120500D02*
X82000D01*
X81500Y120000D02*
Y121000D01*
X99000Y28000D02*
X100000D01*
X99500Y27500D02*
Y28500D01*
X98500Y90000D02*
X99500D01*
X99000Y89500D02*
Y90500D01*
X92000Y91000D02*
X93000D01*
X92500Y90500D02*
Y91500D01*
X84000Y101500D02*
X85000D01*
X84500Y101000D02*
Y102000D01*
X24000Y21500D02*
X25000D01*
X24500Y21000D02*
Y22000D01*
X23765Y24089D02*
X24766D01*
X24265Y23589D02*
Y24589D01*
X38000Y23800D02*
X39000D01*
X38500Y23300D02*
Y24300D01*
X38000Y21200D02*
X39000D01*
X38500Y20700D02*
Y21700D01*
X24000Y16000D02*
X25000D01*
X24500Y15500D02*
Y16500D01*
X23000Y9500D02*
X24000D01*
X23500Y9000D02*
Y10000D01*
X35535Y28537D02*
X36535D01*
X36035Y28037D02*
Y29037D01*
X25000Y27500D02*
X26000D01*
X25500Y27000D02*
Y28000D01*
X16500Y79800D02*
X17500D01*
X17000Y79300D02*
Y80300D01*
X92500Y74500D02*
X93500D01*
X93000Y74000D02*
Y75000D01*
Y62000D02*
X94000D01*
X93500Y61500D02*
Y62500D01*
X77500Y137500D02*
X78500D01*
X78000Y137000D02*
Y138000D01*
X77500Y110000D02*
X78500D01*
X78000Y109500D02*
Y110500D01*
X19400Y123000D02*
X20600D01*
X20000Y122400D02*
Y123600D01*
X14900Y126000D02*
X16100D01*
X15500Y125400D02*
Y126600D01*
X70000Y42876D02*
X71000D01*
X70500Y42376D02*
Y43376D01*
X42481Y88581D02*
X43681D01*
X43081Y87981D02*
Y89181D01*
X28400Y85000D02*
X29600D01*
X29000Y84400D02*
Y85600D01*
X52900Y106500D02*
X54100D01*
X53500Y105900D02*
Y107100D01*
X42900Y106500D02*
X44100D01*
X43500Y105900D02*
Y107100D01*
X47400Y106500D02*
X48600D01*
X48000Y105900D02*
Y107100D01*
X23500Y99500D02*
X24500D01*
X24000Y99000D02*
Y100000D01*
X23000Y108000D02*
X24000D01*
X23500Y107500D02*
Y108500D01*
Y113500D02*
X24500D01*
X24000Y113000D02*
Y114000D01*
X46500Y93000D02*
X47500D01*
X47000Y92500D02*
Y93500D01*
X42500Y7500D02*
X43500D01*
X43000Y7000D02*
Y8000D01*
X36000Y34500D02*
X37000D01*
X36500Y34000D02*
Y35000D01*
X36000Y16500D02*
X37000D01*
X36500Y16000D02*
Y17000D01*
X36000Y11000D02*
X37000D01*
X36500Y10500D02*
Y11500D01*
X79700Y86438D02*
X80900D01*
X80300Y85838D02*
Y87038D01*
X85400Y86000D02*
X86600D01*
X86000Y85400D02*
Y86600D01*
M02*
