G04*
G04 #@! TF.GenerationSoftware,Altium Limited,Altium Designer,23.4.1 (23)*
G04*
G04 Layer_Color=16711935*
%FSLAX25Y25*%
%MOIN*%
G70*
G04*
G04 #@! TF.SameCoordinates,D0A82AA9-F4A3-43A1-B343-99984006E8F9*
G04*
G04*
G04 #@! TF.FilePolarity,Negative*
G04*
G01*
G75*
%ADD69C,0.07887*%
%ADD70R,0.07887X0.07887*%
%ADD71O,0.11036X0.05131*%
%ADD72O,0.09068X0.05131*%
%ADD73O,0.05131X0.06706*%
%ADD74C,0.16548*%
%ADD93R,0.11036X0.05131*%
G04:AMPARAMS|DCode=94|XSize=58mil|YSize=68mil|CornerRadius=0mil|HoleSize=0mil|Usage=FLASHONLY|Rotation=90.000|XOffset=0mil|YOffset=0mil|HoleType=Round|Shape=Octagon|*
%AMOCTAGOND94*
4,1,8,-0.03400,-0.01450,-0.03400,0.01450,-0.01950,0.02900,0.01950,0.02900,0.03400,0.01450,0.03400,-0.01450,0.01950,-0.02900,-0.01950,-0.02900,-0.03400,-0.01450,0.0*
%
%ADD94OCTAGOND94*%

%ADD95R,0.04737X0.10642*%
%ADD96R,0.12611X0.05721*%
G36*
X44701Y68185D02*
X58480D01*
Y78815D01*
X44701D01*
Y68185D01*
D02*
G37*
D69*
X16445Y108728D02*
D03*
Y98885D02*
D03*
X16500Y144000D02*
D03*
Y153842D02*
D03*
X113000Y98885D02*
D03*
Y89043D02*
D03*
X113500Y134158D02*
D03*
Y144000D02*
D03*
D70*
X16445Y89043D02*
D03*
X16500Y134158D02*
D03*
X113000Y108728D02*
D03*
X113500Y153842D02*
D03*
D71*
X10642Y5492D02*
D03*
Y39508D02*
D03*
D72*
X31744Y5492D02*
D03*
Y39508D02*
D03*
D73*
X117500Y58343D02*
D03*
Y48500D02*
D03*
Y38658D02*
D03*
D74*
X24500Y52000D02*
D03*
X106000Y69500D02*
D03*
D93*
X96492Y97626D02*
D03*
Y105500D02*
D03*
Y113374D02*
D03*
Y121248D02*
D03*
Y129122D02*
D03*
Y136996D02*
D03*
Y144870D02*
D03*
X33500D02*
D03*
Y136996D02*
D03*
Y129122D02*
D03*
Y121248D02*
D03*
Y113374D02*
D03*
Y105500D02*
D03*
Y97626D02*
D03*
Y89752D02*
D03*
X96492D02*
D03*
D94*
X86500Y74539D02*
D03*
X106000Y47539D02*
D03*
Y30539D02*
D03*
D95*
X47102Y73500D02*
D03*
X56000D02*
D03*
D96*
X66500Y58579D02*
D03*
Y68421D02*
D03*
M02*
