G04*
G04 #@! TF.GenerationSoftware,Altium Limited,Altium Designer,23.4.1 (23)*
G04*
G04 Layer_Physical_Order=2*
G04 Layer_Color=36540*
%FSLAX25Y25*%
%MOIN*%
G70*
G04*
G04 #@! TF.SameCoordinates,D0A82AA9-F4A3-43A1-B343-99984006E8F9*
G04*
G04*
G04 #@! TF.FilePolarity,Positive*
G04*
G01*
G75*
%ADD79C,0.07087*%
%ADD81O,0.10236X0.04331*%
%ADD82O,0.08268X0.04331*%
%ADD85C,0.01968*%
%ADD86C,0.02000*%
%ADD87C,0.02400*%
G36*
X126480Y2520D02*
X3740D01*
X3740Y177980D01*
X26000D01*
Y149000D01*
X104000D01*
Y177980D01*
X126480D01*
X126480Y2520D01*
D02*
G37*
%LPC*%
G36*
X117343Y157686D02*
X109657D01*
Y149999D01*
X117343D01*
Y157686D01*
D02*
G37*
G36*
X114006Y147843D02*
X112994D01*
X112016Y147581D01*
X111140Y147075D01*
X110425Y146360D01*
X109919Y145484D01*
X109657Y144506D01*
Y143494D01*
X109919Y142517D01*
X110425Y141640D01*
X111140Y140925D01*
X112016Y140419D01*
X112994Y140157D01*
X114006D01*
X114983Y140419D01*
X115860Y140925D01*
X116575Y141640D01*
X117081Y142517D01*
X117343Y143494D01*
Y144506D01*
X117081Y145484D01*
X116575Y146360D01*
X115860Y147075D01*
X114983Y147581D01*
X114006Y147843D01*
D02*
G37*
G36*
X17006D02*
X15994D01*
X15017Y147581D01*
X14140Y147075D01*
X13425Y146360D01*
X12919Y145484D01*
X12657Y144506D01*
Y143494D01*
X12919Y142517D01*
X13425Y141640D01*
X14140Y140925D01*
X15017Y140419D01*
X15994Y140157D01*
X17006D01*
X17984Y140419D01*
X18860Y140925D01*
X19575Y141640D01*
X20081Y142517D01*
X20343Y143494D01*
Y144506D01*
X20081Y145484D01*
X19575Y146360D01*
X18860Y147075D01*
X17984Y147581D01*
X17006Y147843D01*
D02*
G37*
G36*
X45759Y139800D02*
X45241D01*
X44764Y139602D01*
X44398Y139236D01*
X44200Y138759D01*
Y138241D01*
X44398Y137764D01*
X44764Y137398D01*
X45241Y137200D01*
X45759D01*
X46236Y137398D01*
X46602Y137764D01*
X46800Y138241D01*
Y138759D01*
X46602Y139236D01*
X46236Y139602D01*
X45759Y139800D01*
D02*
G37*
G36*
X78259Y138800D02*
X77741D01*
X77264Y138602D01*
X76898Y138236D01*
X76700Y137759D01*
Y137241D01*
X76898Y136764D01*
X77264Y136398D01*
X77741Y136200D01*
X78259D01*
X78736Y136398D01*
X79102Y136764D01*
X79300Y137241D01*
Y137759D01*
X79102Y138236D01*
X78736Y138602D01*
X78259Y138800D01*
D02*
G37*
G36*
X42298Y138521D02*
X41702D01*
X41150Y138292D01*
X40728Y137870D01*
X40500Y137319D01*
Y136722D01*
X40728Y136171D01*
X41150Y135749D01*
X41702Y135521D01*
X42298D01*
X42850Y135749D01*
X43272Y136171D01*
X43500Y136722D01*
Y137319D01*
X43272Y137870D01*
X42850Y138292D01*
X42298Y138521D01*
D02*
G37*
G36*
X87920Y135138D02*
X87403D01*
X86925Y134940D01*
X86560Y134575D01*
X86362Y134097D01*
Y133580D01*
X86560Y133102D01*
X86925Y132736D01*
X87403Y132538D01*
X87920D01*
X88398Y132736D01*
X88764Y133102D01*
X88962Y133580D01*
Y134097D01*
X88764Y134575D01*
X88398Y134940D01*
X87920Y135138D01*
D02*
G37*
G36*
X58756Y133303D02*
X58239D01*
X57761Y133105D01*
X57395Y132739D01*
X57197Y132261D01*
Y131744D01*
X57395Y131266D01*
X57761Y130901D01*
X58239Y130703D01*
X58756D01*
X59234Y130901D01*
X59599Y131266D01*
X59797Y131744D01*
Y132261D01*
X59599Y132739D01*
X59234Y133105D01*
X58756Y133303D01*
D02*
G37*
G36*
X74459Y133300D02*
X73941D01*
X73464Y133102D01*
X73098Y132736D01*
X72900Y132259D01*
Y131741D01*
X73098Y131264D01*
X73464Y130898D01*
X73941Y130700D01*
X74459D01*
X74936Y130898D01*
X75302Y131264D01*
X75500Y131741D01*
Y132259D01*
X75302Y132736D01*
X74936Y133102D01*
X74459Y133300D01*
D02*
G37*
G36*
X20343Y138001D02*
X12657D01*
Y130314D01*
X20343D01*
Y138001D01*
D02*
G37*
G36*
X15798Y127500D02*
X15202D01*
X14650Y127272D01*
X14228Y126850D01*
X14000Y126298D01*
Y125702D01*
X14228Y125150D01*
X14650Y124728D01*
X15202Y124500D01*
X15798D01*
X16350Y124728D01*
X16772Y125150D01*
X17000Y125702D01*
Y126298D01*
X16772Y126850D01*
X16350Y127272D01*
X15798Y127500D01*
D02*
G37*
G36*
X82059Y126769D02*
X81541D01*
X81064Y126571D01*
X80698Y126205D01*
X80500Y125727D01*
Y125210D01*
X80698Y124732D01*
X81064Y124366D01*
X81541Y124169D01*
X82059D01*
X82536Y124366D01*
X82902Y124732D01*
X83100Y125210D01*
Y125727D01*
X82902Y126205D01*
X82536Y126571D01*
X82059Y126769D01*
D02*
G37*
G36*
X20298Y124500D02*
X19702D01*
X19150Y124272D01*
X18728Y123850D01*
X18500Y123298D01*
Y122702D01*
X18728Y122150D01*
X19150Y121728D01*
X19702Y121500D01*
X20298D01*
X20850Y121728D01*
X21272Y122150D01*
X21500Y122702D01*
Y123298D01*
X21272Y123850D01*
X20850Y124272D01*
X20298Y124500D01*
D02*
G37*
G36*
X54259Y122300D02*
X53741D01*
X53264Y122102D01*
X52898Y121736D01*
X52700Y121259D01*
Y120741D01*
X52898Y120264D01*
X53264Y119898D01*
X53741Y119700D01*
X54259D01*
X54736Y119898D01*
X55102Y120264D01*
X55300Y120741D01*
Y121259D01*
X55102Y121736D01*
X54736Y122102D01*
X54259Y122300D01*
D02*
G37*
G36*
X81759Y121800D02*
X81241D01*
X80764Y121602D01*
X80398Y121236D01*
X80200Y120759D01*
Y120241D01*
X80398Y119764D01*
X80764Y119398D01*
X81241Y119200D01*
X81759D01*
X82236Y119398D01*
X82602Y119764D01*
X82800Y120241D01*
Y120759D01*
X82602Y121236D01*
X82236Y121602D01*
X81759Y121800D01*
D02*
G37*
G36*
X24259Y114800D02*
X23741D01*
X23264Y114602D01*
X22898Y114236D01*
X22700Y113759D01*
Y113241D01*
X22898Y112764D01*
X23264Y112398D01*
X23741Y112200D01*
X24259D01*
X24736Y112398D01*
X25102Y112764D01*
X25300Y113241D01*
Y113759D01*
X25102Y114236D01*
X24736Y114602D01*
X24259Y114800D01*
D02*
G37*
G36*
X88259Y113300D02*
X87741D01*
X87264Y113102D01*
X86898Y112736D01*
X86700Y112259D01*
Y111741D01*
X86898Y111264D01*
X87264Y110898D01*
X87741Y110700D01*
X88259D01*
X88736Y110898D01*
X89102Y111264D01*
X89300Y111741D01*
Y112259D01*
X89102Y112736D01*
X88736Y113102D01*
X88259Y113300D01*
D02*
G37*
G36*
X78259Y111300D02*
X77741D01*
X77264Y111102D01*
X76898Y110736D01*
X76700Y110259D01*
Y109741D01*
X76898Y109264D01*
X77264Y108898D01*
X77741Y108700D01*
X78259D01*
X78736Y108898D01*
X79102Y109264D01*
X79300Y109741D01*
Y110259D01*
X79102Y110736D01*
X78736Y111102D01*
X78259Y111300D01*
D02*
G37*
G36*
X23759Y109300D02*
X23241D01*
X22764Y109102D01*
X22398Y108736D01*
X22200Y108259D01*
Y107741D01*
X22398Y107264D01*
X22764Y106898D01*
X23241Y106700D01*
X23759D01*
X24236Y106898D01*
X24602Y107264D01*
X24800Y107741D01*
Y108259D01*
X24602Y108736D01*
X24236Y109102D01*
X23759Y109300D01*
D02*
G37*
G36*
X53798Y108000D02*
X53202D01*
X52650Y107772D01*
X52228Y107350D01*
X52000Y106798D01*
Y106202D01*
X52228Y105650D01*
X52650Y105228D01*
X53202Y105000D01*
X53798D01*
X54350Y105228D01*
X54772Y105650D01*
X55000Y106202D01*
Y106798D01*
X54772Y107350D01*
X54350Y107772D01*
X53798Y108000D01*
D02*
G37*
G36*
X48298D02*
X47702D01*
X47150Y107772D01*
X46728Y107350D01*
X46500Y106798D01*
Y106202D01*
X46728Y105650D01*
X47150Y105228D01*
X47702Y105000D01*
X48298D01*
X48850Y105228D01*
X49272Y105650D01*
X49500Y106202D01*
Y106798D01*
X49272Y107350D01*
X48850Y107772D01*
X48298Y108000D01*
D02*
G37*
G36*
X43798D02*
X43202D01*
X42650Y107772D01*
X42228Y107350D01*
X42000Y106798D01*
Y106202D01*
X42228Y105650D01*
X42650Y105228D01*
X43202Y105000D01*
X43798D01*
X44350Y105228D01*
X44772Y105650D01*
X45000Y106202D01*
Y106798D01*
X44772Y107350D01*
X44350Y107772D01*
X43798Y108000D01*
D02*
G37*
G36*
X116843Y112571D02*
X109157D01*
Y104884D01*
X116843D01*
Y112571D01*
D02*
G37*
G36*
X82059Y107300D02*
X81541D01*
X81064Y107102D01*
X80698Y106736D01*
X80500Y106259D01*
Y105741D01*
X80698Y105264D01*
X81064Y104898D01*
X81541Y104700D01*
X82059D01*
X82536Y104898D01*
X82902Y105264D01*
X83100Y105741D01*
Y106259D01*
X82902Y106736D01*
X82536Y107102D01*
X82059Y107300D01*
D02*
G37*
G36*
X84759Y102800D02*
X84241D01*
X83764Y102602D01*
X83398Y102236D01*
X83200Y101759D01*
Y101241D01*
X83398Y100764D01*
X83764Y100398D01*
X84241Y100200D01*
X84759D01*
X85236Y100398D01*
X85602Y100764D01*
X85800Y101241D01*
Y101759D01*
X85602Y102236D01*
X85236Y102602D01*
X84759Y102800D01*
D02*
G37*
G36*
X24259Y100800D02*
X23741D01*
X23264Y100602D01*
X22898Y100236D01*
X22700Y99759D01*
Y99241D01*
X22898Y98764D01*
X23264Y98398D01*
X23741Y98200D01*
X24259D01*
X24736Y98398D01*
X25102Y98764D01*
X25300Y99241D01*
Y99759D01*
X25102Y100236D01*
X24736Y100602D01*
X24259Y100800D01*
D02*
G37*
G36*
X69259Y98300D02*
X68741D01*
X68264Y98102D01*
X67898Y97736D01*
X67700Y97259D01*
Y96741D01*
X67898Y96264D01*
X68264Y95898D01*
X68741Y95700D01*
X69259D01*
X69736Y95898D01*
X70102Y96264D01*
X70300Y96741D01*
Y97259D01*
X70102Y97736D01*
X69736Y98102D01*
X69259Y98300D01*
D02*
G37*
G36*
X113506Y102728D02*
X112494D01*
X111516Y102466D01*
X110640Y101960D01*
X109925Y101245D01*
X109419Y100368D01*
X109157Y99391D01*
Y98379D01*
X109419Y97401D01*
X109925Y96525D01*
X110640Y95810D01*
X111516Y95304D01*
X112494Y95042D01*
X113506D01*
X114483Y95304D01*
X115360Y95810D01*
X116075Y96525D01*
X116581Y97401D01*
X116843Y98379D01*
Y99391D01*
X116581Y100368D01*
X116075Y101245D01*
X115360Y101960D01*
X114483Y102466D01*
X113506Y102728D01*
D02*
G37*
G36*
X16951D02*
X15939D01*
X14961Y102466D01*
X14085Y101960D01*
X13370Y101245D01*
X12864Y100368D01*
X12602Y99391D01*
Y98379D01*
X12864Y97401D01*
X13370Y96525D01*
X14085Y95810D01*
X14961Y95304D01*
X15939Y95042D01*
X16951D01*
X17928Y95304D01*
X18805Y95810D01*
X19520Y96525D01*
X20026Y97401D01*
X20288Y98379D01*
Y99391D01*
X20026Y100368D01*
X19520Y101245D01*
X18805Y101960D01*
X17928Y102466D01*
X16951Y102728D01*
D02*
G37*
G36*
X92759Y92300D02*
X92241D01*
X91764Y92102D01*
X91398Y91736D01*
X91200Y91259D01*
Y90741D01*
X91398Y90264D01*
X91764Y89898D01*
X92241Y89700D01*
X92759D01*
X93236Y89898D01*
X93602Y90264D01*
X93800Y90741D01*
Y91259D01*
X93602Y91736D01*
X93236Y92102D01*
X92759Y92300D01*
D02*
G37*
G36*
X99259Y91300D02*
X98741D01*
X98264Y91102D01*
X97898Y90736D01*
X97700Y90259D01*
Y89741D01*
X97898Y89264D01*
X98264Y88898D01*
X98741Y88700D01*
X99259D01*
X99736Y88898D01*
X100102Y89264D01*
X100300Y89741D01*
Y90259D01*
X100102Y90736D01*
X99736Y91102D01*
X99259Y91300D01*
D02*
G37*
G36*
X54798Y91000D02*
X54202D01*
X53650Y90772D01*
X53228Y90350D01*
X53000Y89798D01*
Y89202D01*
X53228Y88650D01*
X53650Y88228D01*
X54202Y88000D01*
X54798D01*
X55350Y88228D01*
X55772Y88650D01*
X56000Y89202D01*
Y89798D01*
X55772Y90350D01*
X55350Y90772D01*
X54798Y91000D01*
D02*
G37*
G36*
X43380Y90081D02*
X42783D01*
X42232Y89853D01*
X41810Y89431D01*
X41581Y88880D01*
Y88283D01*
X41810Y87732D01*
X42232Y87310D01*
X42783Y87081D01*
X43380D01*
X43931Y87310D01*
X44353Y87732D01*
X44581Y88283D01*
Y88880D01*
X44353Y89431D01*
X43931Y89853D01*
X43380Y90081D01*
D02*
G37*
G36*
X20288Y92886D02*
X12602D01*
Y85199D01*
X20288D01*
Y92886D01*
D02*
G37*
G36*
X80598Y87938D02*
X80002D01*
X79450Y87709D01*
X79028Y87287D01*
X78800Y86736D01*
Y86139D01*
X79028Y85588D01*
X79450Y85166D01*
X80002Y84938D01*
X80598D01*
X81150Y85166D01*
X81572Y85588D01*
X81800Y86139D01*
Y86736D01*
X81572Y87287D01*
X81150Y87709D01*
X80598Y87938D01*
D02*
G37*
G36*
X86298Y87500D02*
X85702D01*
X85150Y87272D01*
X84728Y86850D01*
X84500Y86298D01*
Y85702D01*
X84728Y85150D01*
X85150Y84728D01*
X85702Y84500D01*
X86298D01*
X86850Y84728D01*
X87272Y85150D01*
X87500Y85702D01*
Y86298D01*
X87272Y86850D01*
X86850Y87272D01*
X86298Y87500D01*
D02*
G37*
G36*
X55798Y82752D02*
X55202D01*
X54650Y82524D01*
X54228Y82102D01*
X54000Y81550D01*
Y80954D01*
X54228Y80402D01*
X54650Y79980D01*
X55202Y79752D01*
X55798D01*
X56350Y79980D01*
X56772Y80402D01*
X57000Y80954D01*
Y81550D01*
X56772Y82102D01*
X56350Y82524D01*
X55798Y82752D01*
D02*
G37*
G36*
X17259Y81100D02*
X16741D01*
X16264Y80902D01*
X15898Y80536D01*
X15700Y80059D01*
Y79541D01*
X15898Y79064D01*
X16264Y78698D01*
X16741Y78500D01*
X17259D01*
X17736Y78698D01*
X18102Y79064D01*
X18300Y79541D01*
Y80059D01*
X18102Y80536D01*
X17736Y80902D01*
X17259Y81100D01*
D02*
G37*
G36*
X44298Y80500D02*
X43702D01*
X43150Y80272D01*
X42728Y79850D01*
X42500Y79298D01*
Y78702D01*
X42728Y78150D01*
X43150Y77728D01*
X43702Y77500D01*
X44298D01*
X44850Y77728D01*
X45272Y78150D01*
X45500Y78702D01*
Y79298D01*
X45272Y79850D01*
X44850Y80272D01*
X44298Y80500D01*
D02*
G37*
G36*
X13759Y79100D02*
X13241D01*
X12764Y78902D01*
X12398Y78536D01*
X12200Y78059D01*
Y77541D01*
X12398Y77064D01*
X12764Y76698D01*
X13241Y76500D01*
X13759D01*
X14236Y76698D01*
X14602Y77064D01*
X14800Y77541D01*
Y78059D01*
X14602Y78536D01*
X14236Y78902D01*
X13759Y79100D01*
D02*
G37*
G36*
X44298Y76500D02*
X43702D01*
X43150Y76272D01*
X42728Y75850D01*
X42500Y75298D01*
Y74702D01*
X42728Y74150D01*
X43150Y73728D01*
X43702Y73500D01*
X44298D01*
X44850Y73728D01*
X45272Y74150D01*
X45500Y74702D01*
Y75298D01*
X45272Y75850D01*
X44850Y76272D01*
X44298Y76500D01*
D02*
G37*
G36*
X93259Y75800D02*
X92741D01*
X92264Y75602D01*
X91898Y75236D01*
X91700Y74759D01*
Y74241D01*
X91898Y73764D01*
X92264Y73398D01*
X92741Y73200D01*
X93259D01*
X93736Y73398D01*
X94102Y73764D01*
X94300Y74241D01*
Y74759D01*
X94102Y75236D01*
X93736Y75602D01*
X93259Y75800D01*
D02*
G37*
G36*
X44377Y72578D02*
X43780D01*
X43229Y72350D01*
X42807Y71928D01*
X42578Y71377D01*
Y70780D01*
X42807Y70229D01*
X43229Y69807D01*
X43780Y69578D01*
X44377D01*
X44928Y69807D01*
X45350Y70229D01*
X45578Y70780D01*
Y71377D01*
X45350Y71928D01*
X44928Y72350D01*
X44377Y72578D01*
D02*
G37*
G36*
X61644Y76915D02*
X61127D01*
X60649Y76717D01*
X60283Y76351D01*
X60085Y75873D01*
Y75356D01*
X60283Y74878D01*
X60649Y74513D01*
X60977Y74377D01*
Y73853D01*
X60649Y73717D01*
X60283Y73351D01*
X60085Y72873D01*
Y72356D01*
X60283Y71878D01*
X60649Y71513D01*
X60977Y71377D01*
Y70853D01*
X60649Y70717D01*
X60283Y70351D01*
X60085Y69873D01*
Y69356D01*
X60283Y68878D01*
X60649Y68513D01*
X61127Y68315D01*
X61644D01*
X62122Y68513D01*
X62487Y68878D01*
X62685Y69356D01*
Y69873D01*
X62487Y70351D01*
X62122Y70717D01*
X61793Y70853D01*
Y71377D01*
X62122Y71513D01*
X62487Y71878D01*
X62685Y72356D01*
Y72873D01*
X62487Y73351D01*
X62122Y73717D01*
X61793Y73853D01*
Y74377D01*
X62122Y74513D01*
X62487Y74878D01*
X62685Y75356D01*
Y75873D01*
X62487Y76351D01*
X62122Y76717D01*
X61644Y76915D01*
D02*
G37*
G36*
X67144Y69415D02*
X66627D01*
X66149Y69217D01*
X65783Y68851D01*
X65585Y68373D01*
Y67856D01*
X65783Y67378D01*
X66149Y67013D01*
X66627Y66815D01*
X67144D01*
X67622Y67013D01*
X67987Y67378D01*
X68185Y67856D01*
Y68373D01*
X67987Y68851D01*
X67622Y69217D01*
X67144Y69415D01*
D02*
G37*
G36*
X106805Y77674D02*
X105195D01*
X103616Y77360D01*
X102128Y76744D01*
X100789Y75849D01*
X99651Y74711D01*
X98756Y73372D01*
X98140Y71884D01*
X97826Y70305D01*
Y68695D01*
X98140Y67116D01*
X98756Y65628D01*
X99651Y64289D01*
X100789Y63151D01*
X102128Y62256D01*
X103616Y61640D01*
X105195Y61326D01*
X106805D01*
X108384Y61640D01*
X109872Y62256D01*
X111211Y63151D01*
X112349Y64289D01*
X113244Y65628D01*
X113860Y67116D01*
X114174Y68695D01*
Y70305D01*
X113860Y71884D01*
X113244Y73372D01*
X112349Y74711D01*
X111211Y75849D01*
X109872Y76744D01*
X108384Y77360D01*
X106805Y77674D01*
D02*
G37*
G36*
X93759Y63300D02*
X93241D01*
X92764Y63102D01*
X92398Y62736D01*
X92200Y62259D01*
Y61741D01*
X92398Y61264D01*
X92764Y60898D01*
X93241Y60700D01*
X93759D01*
X94236Y60898D01*
X94602Y61264D01*
X94800Y61741D01*
Y62259D01*
X94602Y62736D01*
X94236Y63102D01*
X93759Y63300D01*
D02*
G37*
G36*
X117500Y61644D02*
X116538Y61452D01*
X115723Y60907D01*
X115178Y60092D01*
X114986Y59130D01*
Y57555D01*
X115178Y56593D01*
X115723Y55778D01*
X116538Y55233D01*
X117500Y55041D01*
X118462Y55233D01*
X119277Y55778D01*
X119822Y56593D01*
X120014Y57555D01*
Y59130D01*
X119822Y60092D01*
X119277Y60907D01*
X118462Y61452D01*
X117500Y61644D01*
D02*
G37*
G36*
Y51801D02*
X116538Y51610D01*
X115723Y51065D01*
X115178Y50249D01*
X114986Y49287D01*
Y47713D01*
X115178Y46751D01*
X115723Y45935D01*
X116538Y45390D01*
X117500Y45199D01*
X118462Y45390D01*
X119277Y45935D01*
X119822Y46751D01*
X120014Y47713D01*
Y49287D01*
X119822Y50249D01*
X119277Y51065D01*
X118462Y51610D01*
X117500Y51801D01*
D02*
G37*
G36*
X25305Y60174D02*
X23695D01*
X22116Y59860D01*
X20628Y59244D01*
X19289Y58349D01*
X18151Y57211D01*
X17256Y55872D01*
X16640Y54384D01*
X16326Y52805D01*
Y51195D01*
X16640Y49616D01*
X17256Y48128D01*
X18151Y46789D01*
X19289Y45651D01*
X20628Y44756D01*
X22116Y44140D01*
X23695Y43826D01*
X25305D01*
X26884Y44140D01*
X28372Y44756D01*
X29711Y45651D01*
X30849Y46789D01*
X31744Y48128D01*
X32360Y49616D01*
X32674Y51195D01*
Y52805D01*
X32360Y54384D01*
X31744Y55872D01*
X30849Y57211D01*
X29711Y58349D01*
X28372Y59244D01*
X26884Y59860D01*
X25305Y60174D01*
D02*
G37*
G36*
X85759Y45300D02*
X85241D01*
X84764Y45102D01*
X84398Y44736D01*
X84200Y44259D01*
Y43741D01*
X84398Y43264D01*
X84764Y42898D01*
X85241Y42700D01*
X85759D01*
X86236Y42898D01*
X86602Y43264D01*
X86800Y43741D01*
Y44259D01*
X86602Y44736D01*
X86236Y45102D01*
X85759Y45300D01*
D02*
G37*
G36*
X70759Y44176D02*
X70241D01*
X69764Y43978D01*
X69398Y43613D01*
X69200Y43135D01*
Y42618D01*
X69398Y42140D01*
X69764Y41774D01*
X70241Y41576D01*
X70759D01*
X71236Y41774D01*
X71602Y42140D01*
X71800Y42618D01*
Y43135D01*
X71602Y43613D01*
X71236Y43978D01*
X70759Y44176D01*
D02*
G37*
G36*
X68759Y41300D02*
X68241D01*
X67764Y41102D01*
X67398Y40736D01*
X67200Y40259D01*
Y39741D01*
X67398Y39264D01*
X67764Y38898D01*
X68241Y38700D01*
X68759D01*
X69236Y38898D01*
X69602Y39264D01*
X69800Y39741D01*
Y40259D01*
X69602Y40736D01*
X69236Y41102D01*
X68759Y41300D01*
D02*
G37*
G36*
X49759D02*
X49241D01*
X48764Y41102D01*
X48398Y40736D01*
X48200Y40259D01*
Y39741D01*
X48398Y39264D01*
X48764Y38898D01*
X49241Y38700D01*
X49759D01*
X50236Y38898D01*
X50602Y39264D01*
X50800Y39741D01*
Y40259D01*
X50602Y40736D01*
X50236Y41102D01*
X49759Y41300D01*
D02*
G37*
G36*
X117500Y41958D02*
X116538Y41767D01*
X115723Y41222D01*
X115178Y40407D01*
X114986Y39445D01*
Y37870D01*
X115178Y36908D01*
X115723Y36093D01*
X116538Y35548D01*
X117500Y35356D01*
X118462Y35548D01*
X119277Y36093D01*
X119822Y36908D01*
X120014Y37870D01*
Y39445D01*
X119822Y40407D01*
X119277Y41222D01*
X118462Y41767D01*
X117500Y41958D01*
D02*
G37*
G36*
X48259Y37800D02*
X47741D01*
X47264Y37602D01*
X46898Y37236D01*
X46700Y36759D01*
Y36241D01*
X46898Y35764D01*
X47264Y35398D01*
X47741Y35200D01*
X48259D01*
X48736Y35398D01*
X49102Y35764D01*
X49300Y36241D01*
Y36759D01*
X49102Y37236D01*
X48736Y37602D01*
X48259Y37800D01*
D02*
G37*
G36*
X36293Y29837D02*
X35776D01*
X35298Y29639D01*
X34933Y29273D01*
X34735Y28796D01*
Y28278D01*
X34933Y27801D01*
X35298Y27435D01*
X35776Y27237D01*
X36293D01*
X36771Y27435D01*
X37137Y27801D01*
X37335Y28278D01*
Y28796D01*
X37137Y29273D01*
X36771Y29639D01*
X36293Y29837D01*
D02*
G37*
G36*
X99759Y29300D02*
X99241D01*
X98764Y29102D01*
X98398Y28736D01*
X98200Y28259D01*
Y27741D01*
X98398Y27264D01*
X98764Y26898D01*
X99241Y26700D01*
X99759D01*
X100236Y26898D01*
X100602Y27264D01*
X100800Y27741D01*
Y28259D01*
X100602Y28736D01*
X100236Y29102D01*
X99759Y29300D01*
D02*
G37*
G36*
X25759Y28800D02*
X25241D01*
X24764Y28602D01*
X24398Y28236D01*
X24200Y27759D01*
Y27241D01*
X24398Y26764D01*
X24764Y26398D01*
X25241Y26200D01*
X25759D01*
X26236Y26398D01*
X26602Y26764D01*
X26800Y27241D01*
Y27759D01*
X26602Y28236D01*
X26236Y28602D01*
X25759Y28800D01*
D02*
G37*
G36*
X24524Y25389D02*
X24007D01*
X23529Y25192D01*
X23163Y24826D01*
X22965Y24348D01*
Y23831D01*
X23163Y23353D01*
X23512Y23004D01*
X23530Y22975D01*
X23585Y22423D01*
X23398Y22236D01*
X23200Y21759D01*
Y21241D01*
X23398Y20764D01*
X23764Y20398D01*
X24241Y20200D01*
X24759D01*
X25236Y20398D01*
X25602Y20764D01*
X25800Y21241D01*
Y21759D01*
X25602Y22236D01*
X25253Y22585D01*
X25235Y22614D01*
X25181Y23166D01*
X25368Y23353D01*
X25565Y23831D01*
Y24348D01*
X25368Y24826D01*
X25002Y25192D01*
X24524Y25389D01*
D02*
G37*
G36*
X38759Y25100D02*
X38241D01*
X37764Y24902D01*
X37398Y24536D01*
X37200Y24059D01*
Y23541D01*
X37398Y23064D01*
X37661Y22801D01*
X37723Y22500D01*
X37661Y22199D01*
X37398Y21936D01*
X37200Y21459D01*
Y20941D01*
X37398Y20464D01*
X37764Y20098D01*
X38241Y19900D01*
X38759D01*
X39236Y20098D01*
X39602Y20464D01*
X39800Y20941D01*
Y21459D01*
X39602Y21936D01*
X39339Y22199D01*
X39277Y22500D01*
X39339Y22801D01*
X39602Y23064D01*
X39800Y23541D01*
Y24059D01*
X39602Y24536D01*
X39236Y24902D01*
X38759Y25100D01*
D02*
G37*
G36*
X36759Y17800D02*
X36241D01*
X35764Y17602D01*
X35398Y17236D01*
X35200Y16759D01*
Y16241D01*
X35398Y15764D01*
X35764Y15398D01*
X36241Y15200D01*
X36759D01*
X37236Y15398D01*
X37602Y15764D01*
X37800Y16241D01*
Y16759D01*
X37602Y17236D01*
X37236Y17602D01*
X36759Y17800D01*
D02*
G37*
G36*
X24759Y17300D02*
X24241D01*
X23764Y17102D01*
X23398Y16736D01*
X23200Y16259D01*
Y15741D01*
X23398Y15264D01*
X23764Y14898D01*
X24241Y14700D01*
X24759D01*
X25236Y14898D01*
X25602Y15264D01*
X25800Y15741D01*
Y16259D01*
X25602Y16736D01*
X25236Y17102D01*
X24759Y17300D01*
D02*
G37*
G36*
X23759Y10800D02*
X23241D01*
X22764Y10602D01*
X22398Y10236D01*
X22200Y9759D01*
Y9241D01*
X22398Y8764D01*
X22764Y8398D01*
X23241Y8200D01*
X23759D01*
X24236Y8398D01*
X24602Y8764D01*
X24800Y9241D01*
Y9759D01*
X24602Y10236D01*
X24236Y10602D01*
X23759Y10800D01*
D02*
G37*
G36*
X43259Y8800D02*
X42741D01*
X42264Y8602D01*
X41898Y8236D01*
X41700Y7759D01*
Y7241D01*
X41898Y6764D01*
X42264Y6398D01*
X42741Y6200D01*
X43259D01*
X43736Y6398D01*
X44102Y6764D01*
X44300Y7241D01*
Y7759D01*
X44102Y8236D01*
X43736Y8602D01*
X43259Y8800D01*
D02*
G37*
%LPD*%
D79*
X16445Y108728D02*
D03*
X16500Y153842D02*
D03*
X113000Y89043D02*
D03*
X113500Y134158D02*
D03*
D81*
X10642Y5492D02*
D03*
Y39508D02*
D03*
D82*
X31744Y5492D02*
D03*
Y39508D02*
D03*
D85*
X75563Y69831D02*
D03*
X79894Y65500D02*
D03*
X75563D02*
D03*
X79894Y61169D02*
D03*
X75563D02*
D03*
X79894Y69831D02*
D03*
D86*
X67000Y60500D02*
D03*
X72422Y123175D02*
D03*
X63000Y96500D02*
D03*
X28240Y34705D02*
D03*
X124000Y6000D02*
D03*
Y40100D02*
D03*
Y74200D02*
D03*
Y108300D02*
D03*
Y142400D02*
D03*
X6000Y176500D02*
D03*
X15000D02*
D03*
X24000D02*
D03*
X124000D02*
D03*
X115500D02*
D03*
X106500D02*
D03*
X47000Y85500D02*
D03*
Y93000D02*
D03*
X36500Y34500D02*
D03*
Y11000D02*
D03*
D87*
X29000Y85000D02*
D03*
M02*
