G04*
G04 #@! TF.GenerationSoftware,Altium Limited,Altium Designer,23.4.1 (23)*
G04*
G04 Layer_Color=8388736*
%FSLAX25Y25*%
%MOIN*%
G70*
G04*
G04 #@! TF.SameCoordinates,D0A82AA9-F4A3-43A1-B343-99984006E8F9*
G04*
G04*
G04 #@! TF.FilePolarity,Negative*
G04*
G01*
G75*
%ADD44R,0.03556X0.01981*%
%ADD45R,0.03556X0.04737*%
%ADD46R,0.07887X0.06115*%
%ADD47R,0.03162X0.04934*%
%ADD48R,0.04147X0.04737*%
%ADD49R,0.04147X0.04737*%
%ADD50R,0.10800X0.03300*%
%ADD51R,0.10721X0.14186*%
%ADD52R,0.06509X0.03162*%
%ADD53R,0.07099X0.03950*%
%ADD54R,0.04737X0.05131*%
%ADD55R,0.05328X0.07887*%
%ADD56R,0.02965X0.03359*%
%ADD57R,0.02572X0.02965*%
%ADD58R,0.20682X0.12217*%
%ADD59R,0.06115X0.06902*%
%ADD60R,0.04343X0.04737*%
%ADD61R,0.03241X0.03241*%
%ADD62R,0.03241X0.03241*%
%ADD63R,0.04737X0.04343*%
%ADD64R,0.03359X0.02965*%
%ADD65R,0.06902X0.06115*%
%ADD66R,0.04737X0.04147*%
%ADD67R,0.04737X0.04147*%
%ADD68R,0.02965X0.02572*%
%ADD69C,0.07887*%
%ADD70R,0.07887X0.07887*%
%ADD71O,0.11036X0.05131*%
%ADD72O,0.09068X0.05131*%
%ADD73O,0.05131X0.06706*%
%ADD74C,0.16548*%
%ADD75C,0.02769*%
D44*
X28240Y21516D02*
D03*
Y19547D02*
D03*
Y23484D02*
D03*
Y25453D02*
D03*
Y17579D02*
D03*
Y27421D02*
D03*
Y15610D02*
D03*
Y29390D02*
D03*
Y13642D02*
D03*
Y31358D02*
D03*
X33358Y34311D02*
D03*
Y10689D02*
D03*
Y32342D02*
D03*
Y12657D02*
D03*
Y30374D02*
D03*
Y14626D02*
D03*
Y28405D02*
D03*
Y16594D02*
D03*
Y26437D02*
D03*
Y24468D02*
D03*
Y18563D02*
D03*
Y20531D02*
D03*
D45*
X28240Y10295D02*
D03*
Y34705D02*
D03*
D46*
X99500Y6831D02*
D03*
Y23169D02*
D03*
D47*
X43260Y99913D02*
D03*
X50740D02*
D03*
Y89087D02*
D03*
X47000D02*
D03*
X43260D02*
D03*
D48*
X88000Y137724D02*
D03*
X84260Y128276D02*
D03*
X60760Y106776D02*
D03*
X64500Y116224D02*
D03*
X63000Y136724D02*
D03*
X59260Y127276D02*
D03*
X89000Y117224D02*
D03*
X85260Y107776D02*
D03*
D49*
X91740Y128276D02*
D03*
X68240Y106776D02*
D03*
X66740Y127276D02*
D03*
X92740Y107776D02*
D03*
D50*
X84000Y40500D02*
D03*
Y35500D02*
D03*
Y30500D02*
D03*
Y25500D02*
D03*
Y20500D02*
D03*
Y15500D02*
D03*
Y10500D02*
D03*
Y5500D02*
D03*
X61000D02*
D03*
Y10500D02*
D03*
Y15500D02*
D03*
Y20500D02*
D03*
Y25500D02*
D03*
Y30500D02*
D03*
Y35500D02*
D03*
Y40500D02*
D03*
D51*
X77728Y65500D02*
D03*
D52*
X67000Y73000D02*
D03*
Y68000D02*
D03*
Y63000D02*
D03*
Y58000D02*
D03*
X88457Y73000D02*
D03*
Y68000D02*
D03*
Y63000D02*
D03*
Y58000D02*
D03*
D53*
X84405Y49500D02*
D03*
X72594D02*
D03*
D54*
X7000Y66500D02*
D03*
X13693D02*
D03*
X6807Y73500D02*
D03*
X13500D02*
D03*
D55*
X65791Y81000D02*
D03*
X77209D02*
D03*
D56*
X32469Y113500D02*
D03*
X28532D02*
D03*
X66437Y101000D02*
D03*
X62500D02*
D03*
X65469Y122500D02*
D03*
X61532D02*
D03*
X91469Y102000D02*
D03*
X87532D02*
D03*
X42469Y140500D02*
D03*
X38532D02*
D03*
X89468Y123500D02*
D03*
X85532D02*
D03*
X31969Y108000D02*
D03*
X28032D02*
D03*
D57*
X5728Y61000D02*
D03*
X9272D02*
D03*
X42728Y26500D02*
D03*
X46272D02*
D03*
X45728Y7500D02*
D03*
X49272D02*
D03*
D58*
X49500Y55933D02*
D03*
Y74043D02*
D03*
D59*
X83063Y94000D02*
D03*
X90937D02*
D03*
X23063Y64500D02*
D03*
X30937D02*
D03*
X23063Y74500D02*
D03*
X30937D02*
D03*
D60*
X85350Y81000D02*
D03*
X91650D02*
D03*
D61*
X119228Y70000D02*
D03*
X122772D02*
D03*
X96728Y94500D02*
D03*
X100272D02*
D03*
X46272Y31500D02*
D03*
X42728D02*
D03*
X32272Y82000D02*
D03*
X28728D02*
D03*
D62*
X92500Y40772D02*
D03*
Y37228D02*
D03*
X108500Y24272D02*
D03*
Y20728D02*
D03*
D63*
X57000Y92850D02*
D03*
Y99150D02*
D03*
X35500Y98650D02*
D03*
Y92350D02*
D03*
D64*
X54000Y114032D02*
D03*
Y117968D02*
D03*
X54000Y127969D02*
D03*
Y124031D02*
D03*
X46000Y130032D02*
D03*
Y133968D02*
D03*
X28500Y122968D02*
D03*
Y119032D02*
D03*
X78500Y116469D02*
D03*
Y112531D02*
D03*
Y125469D02*
D03*
Y121531D02*
D03*
X78000Y130532D02*
D03*
Y134468D02*
D03*
X29500Y95468D02*
D03*
Y91531D02*
D03*
X98000Y110968D02*
D03*
Y107032D02*
D03*
X97500Y131468D02*
D03*
Y127532D02*
D03*
X72000Y127500D02*
D03*
Y131437D02*
D03*
X72500Y100969D02*
D03*
Y97031D02*
D03*
X73000Y118468D02*
D03*
Y114532D02*
D03*
X72000Y138969D02*
D03*
Y135031D02*
D03*
X98000Y118968D02*
D03*
Y115032D02*
D03*
X97500Y138969D02*
D03*
Y135031D02*
D03*
D65*
X108500Y38563D02*
D03*
Y46437D02*
D03*
X99000Y38563D02*
D03*
Y46437D02*
D03*
D66*
X38724Y132500D02*
D03*
X29276Y136240D02*
D03*
X44724Y115760D02*
D03*
X35276Y119500D02*
D03*
D67*
X29276Y128760D02*
D03*
X44724Y123240D02*
D03*
D68*
X95500Y68272D02*
D03*
Y64728D02*
D03*
D69*
X16445Y108728D02*
D03*
Y98885D02*
D03*
X16500Y144000D02*
D03*
Y153842D02*
D03*
X113000Y98885D02*
D03*
Y89043D02*
D03*
X113500Y134158D02*
D03*
Y144000D02*
D03*
D70*
X16445Y89043D02*
D03*
X16500Y134158D02*
D03*
X113000Y108728D02*
D03*
X113500Y153842D02*
D03*
D71*
X10642Y5492D02*
D03*
Y39508D02*
D03*
D72*
X31744Y5492D02*
D03*
Y39508D02*
D03*
D73*
X117500Y58343D02*
D03*
Y48500D02*
D03*
Y38658D02*
D03*
D74*
X24500Y52000D02*
D03*
X106000Y69500D02*
D03*
D75*
X75563Y69831D02*
D03*
X79894Y65500D02*
D03*
X75563D02*
D03*
X79894Y61169D02*
D03*
X75563D02*
D03*
X79894Y69831D02*
D03*
M02*
