G04*
G04 #@! TF.GenerationSoftware,Altium Limited,Altium Designer,23.4.1 (23)*
G04*
G04 Layer_Color=32896*
%FSLAX25Y25*%
%MOIN*%
G70*
G04*
G04 #@! TF.SameCoordinates,D0A82AA9-F4A3-43A1-B343-99984006E8F9*
G04*
G04*
G04 #@! TF.FilePolarity,Positive*
G04*
G01*
G75*
%ADD14C,0.00500*%
%ADD15C,0.01000*%
D14*
X56008Y60813D02*
X55674Y61146D01*
Y61813D01*
X56008Y62146D01*
X57341D01*
X57674Y61813D01*
Y61146D01*
X57341Y60813D01*
X57674Y60147D02*
X55674D01*
X57674Y58814D01*
X55674D01*
X57674Y56815D02*
Y58148D01*
X56341Y56815D01*
X56008D01*
X55674Y57148D01*
Y57814D01*
X56008Y58148D01*
D15*
X93468Y67256D02*
Y82059D01*
X79374D02*
X93468D01*
X79374Y67256D02*
X93468D01*
X79374D02*
Y82059D01*
X73500Y55000D02*
Y72000D01*
X60000Y55000D02*
X73500D01*
X60000Y72000D02*
X73500D01*
X98874Y40256D02*
Y55059D01*
Y40256D02*
X112969D01*
X98874Y55059D02*
X112969D01*
Y40256D02*
Y55059D01*
X98874Y23256D02*
Y38059D01*
Y23256D02*
X112969D01*
X98874Y38059D02*
X112969D01*
Y23256D02*
Y38059D01*
X93498Y174999D02*
Y170001D01*
X92499Y169001D01*
X90499D01*
X89500Y170001D01*
Y174999D01*
X84501Y169001D02*
Y174999D01*
X87500Y172000D01*
X83502D01*
X91832Y63833D02*
X91165Y64499D01*
X89832D01*
X89166Y63833D01*
Y63166D01*
X89832Y62500D01*
X90499D01*
X89832D01*
X89166Y61834D01*
Y61167D01*
X89832Y60501D01*
X91165D01*
X91832Y61167D01*
X87833Y64499D02*
Y61834D01*
X86500Y60501D01*
X85167Y61834D01*
Y64499D01*
X83834Y63833D02*
X83168Y64499D01*
X81835D01*
X81168Y63833D01*
Y63166D01*
X81835Y62500D01*
X82501D01*
X81835D01*
X81168Y61834D01*
Y61167D01*
X81835Y60501D01*
X83168D01*
X83834Y61167D01*
X106667Y60499D02*
X109332D01*
Y58500D01*
X107999Y59166D01*
X107333D01*
X106667Y58500D01*
Y57167D01*
X107333Y56501D01*
X108666D01*
X109332Y57167D01*
X105333Y60499D02*
Y57834D01*
X104001Y56501D01*
X102668Y57834D01*
Y60499D01*
X108666Y20833D02*
X109332Y21499D01*
X110665D01*
X111332Y20833D01*
Y18167D01*
X110665Y17501D01*
X109332D01*
X108666Y18167D01*
Y19500D01*
X109999D01*
X107333Y17501D02*
Y21499D01*
X104667Y17501D01*
Y21499D01*
X103334D02*
Y17501D01*
X101335D01*
X100668Y18167D01*
Y20833D01*
X101335Y21499D01*
X103334D01*
X60999Y52498D02*
X59999Y53498D01*
X58000D01*
X57000Y52498D01*
Y48500D01*
X58000Y47500D01*
X59999D01*
X60999Y48500D01*
Y50499D01*
X58999D01*
X62998Y47500D02*
Y53498D01*
X66997Y47500D01*
Y53498D01*
X68996D02*
Y47500D01*
X71995D01*
X72995Y48500D01*
Y52498D01*
X71995Y53498D01*
X68996D01*
X62000Y80498D02*
Y76499D01*
X63999Y74500D01*
X65999Y76499D01*
Y80498D01*
X67998Y77499D02*
X71997D01*
X69997Y79498D02*
Y75500D01*
M02*
