G04*
G04 #@! TF.GenerationSoftware,Altium Limited,Altium Designer,23.4.1 (23)*
G04*
G04 Layer_Color=8421504*
%FSLAX25Y25*%
%MOIN*%
G70*
G04*
G04 #@! TF.SameCoordinates,D0A82AA9-F4A3-43A1-B343-99984006E8F9*
G04*
G04*
G04 #@! TF.FilePolarity,Positive*
G04*
G01*
G75*
%ADD19R,0.02756X0.01181*%
%ADD20R,0.02756X0.03937*%
%ADD21R,0.07087X0.05315*%
%ADD22R,0.02362X0.04134*%
%ADD23R,0.03347X0.03937*%
%ADD24R,0.03347X0.03937*%
%ADD25R,0.10000X0.02500*%
%ADD26R,0.09921X0.13386*%
%ADD27R,0.05709X0.02362*%
%ADD28R,0.06299X0.03150*%
%ADD29R,0.03937X0.04331*%
%ADD30R,0.04528X0.07087*%
%ADD31R,0.02165X0.02559*%
%ADD32R,0.01772X0.02165*%
%ADD33R,0.19882X0.11417*%
%ADD34R,0.05315X0.06102*%
%ADD35R,0.03543X0.03937*%
%ADD36R,0.02441X0.02441*%
%ADD37R,0.02441X0.02441*%
%ADD38R,0.03937X0.03543*%
%ADD39R,0.02559X0.02165*%
%ADD40R,0.06102X0.05315*%
%ADD41R,0.03937X0.03347*%
%ADD42R,0.03937X0.03347*%
%ADD43R,0.02165X0.01772*%
D19*
X28240Y21516D02*
D03*
Y19547D02*
D03*
Y23484D02*
D03*
Y25453D02*
D03*
Y17579D02*
D03*
Y27421D02*
D03*
Y15610D02*
D03*
Y29390D02*
D03*
Y13642D02*
D03*
Y31358D02*
D03*
X33358Y34311D02*
D03*
Y10689D02*
D03*
Y32342D02*
D03*
Y12657D02*
D03*
Y30374D02*
D03*
Y14626D02*
D03*
Y28405D02*
D03*
Y16594D02*
D03*
Y26437D02*
D03*
Y24468D02*
D03*
Y18563D02*
D03*
Y20531D02*
D03*
D20*
X28240Y10295D02*
D03*
Y34705D02*
D03*
D21*
X99500Y6831D02*
D03*
Y23169D02*
D03*
D22*
X43260Y99913D02*
D03*
X50740D02*
D03*
Y89087D02*
D03*
X47000D02*
D03*
X43260D02*
D03*
D23*
X88000Y137724D02*
D03*
X84260Y128276D02*
D03*
X60760Y106776D02*
D03*
X64500Y116224D02*
D03*
X63000Y136724D02*
D03*
X59260Y127276D02*
D03*
X89000Y117224D02*
D03*
X85260Y107776D02*
D03*
D24*
X91740Y128276D02*
D03*
X68240Y106776D02*
D03*
X66740Y127276D02*
D03*
X92740Y107776D02*
D03*
D25*
X84000Y40500D02*
D03*
Y35500D02*
D03*
Y30500D02*
D03*
Y25500D02*
D03*
Y20500D02*
D03*
Y15500D02*
D03*
Y10500D02*
D03*
Y5500D02*
D03*
X61000D02*
D03*
Y10500D02*
D03*
Y15500D02*
D03*
Y20500D02*
D03*
Y25500D02*
D03*
Y30500D02*
D03*
Y35500D02*
D03*
Y40500D02*
D03*
D26*
X77728Y65500D02*
D03*
D27*
X67000Y73000D02*
D03*
Y68000D02*
D03*
Y63000D02*
D03*
Y58000D02*
D03*
X88457Y73000D02*
D03*
Y68000D02*
D03*
Y63000D02*
D03*
Y58000D02*
D03*
D28*
X84405Y49500D02*
D03*
X72594D02*
D03*
D29*
X7000Y66500D02*
D03*
X13693D02*
D03*
X6807Y73500D02*
D03*
X13500D02*
D03*
D30*
X65791Y81000D02*
D03*
X77209D02*
D03*
D31*
X32469Y113500D02*
D03*
X28532D02*
D03*
X66437Y101000D02*
D03*
X62500D02*
D03*
X65469Y122500D02*
D03*
X61532D02*
D03*
X91469Y102000D02*
D03*
X87532D02*
D03*
X42469Y140500D02*
D03*
X38532D02*
D03*
X89468Y123500D02*
D03*
X85532D02*
D03*
X31969Y108000D02*
D03*
X28032D02*
D03*
D32*
X5728Y61000D02*
D03*
X9272D02*
D03*
X42728Y26500D02*
D03*
X46272D02*
D03*
X45728Y7500D02*
D03*
X49272D02*
D03*
D33*
X49500Y55933D02*
D03*
Y74043D02*
D03*
D34*
X83063Y94000D02*
D03*
X90937D02*
D03*
X23063Y64500D02*
D03*
X30937D02*
D03*
X23063Y74500D02*
D03*
X30937D02*
D03*
D35*
X85350Y81000D02*
D03*
X91650D02*
D03*
D36*
X119228Y70000D02*
D03*
X122772D02*
D03*
X96728Y94500D02*
D03*
X100272D02*
D03*
X46272Y31500D02*
D03*
X42728D02*
D03*
X32272Y82000D02*
D03*
X28728D02*
D03*
D37*
X92500Y40772D02*
D03*
Y37228D02*
D03*
X108500Y24272D02*
D03*
Y20728D02*
D03*
D38*
X57000Y92850D02*
D03*
Y99150D02*
D03*
X35500Y98650D02*
D03*
Y92350D02*
D03*
D39*
X54000Y114032D02*
D03*
Y117968D02*
D03*
X54000Y127969D02*
D03*
Y124031D02*
D03*
X46000Y130032D02*
D03*
Y133968D02*
D03*
X28500Y122968D02*
D03*
Y119032D02*
D03*
X78500Y116469D02*
D03*
Y112531D02*
D03*
Y125469D02*
D03*
Y121531D02*
D03*
X78000Y130532D02*
D03*
Y134468D02*
D03*
X29500Y95468D02*
D03*
Y91531D02*
D03*
X98000Y110968D02*
D03*
Y107032D02*
D03*
X97500Y131468D02*
D03*
Y127532D02*
D03*
X72000Y127500D02*
D03*
Y131437D02*
D03*
X72500Y100969D02*
D03*
Y97031D02*
D03*
X73000Y118468D02*
D03*
Y114532D02*
D03*
X72000Y138969D02*
D03*
Y135031D02*
D03*
X98000Y118968D02*
D03*
Y115032D02*
D03*
X97500Y138969D02*
D03*
Y135031D02*
D03*
D40*
X108500Y38563D02*
D03*
Y46437D02*
D03*
X99000Y38563D02*
D03*
Y46437D02*
D03*
D41*
X38724Y132500D02*
D03*
X29276Y136240D02*
D03*
X44724Y115760D02*
D03*
X35276Y119500D02*
D03*
D42*
X29276Y128760D02*
D03*
X44724Y123240D02*
D03*
D43*
X95500Y68272D02*
D03*
Y64728D02*
D03*
M02*
