G04*
G04 #@! TF.GenerationSoftware,Altium Limited,Altium Designer,23.4.1 (23)*
G04*
G04 Layer_Physical_Order=3*
G04 Layer_Color=16440176*
%FSLAX25Y25*%
%MOIN*%
G70*
G04*
G04 #@! TF.SameCoordinates,D0A82AA9-F4A3-43A1-B343-99984006E8F9*
G04*
G04*
G04 #@! TF.FilePolarity,Positive*
G04*
G01*
G75*
%ADD80R,0.07087X0.07087*%
%ADD83O,0.04331X0.05906*%
%ADD86C,0.02000*%
%ADD87C,0.02400*%
%ADD88C,0.04000*%
G36*
X126480Y2520D02*
X33968D01*
X33919Y3019D01*
X34675Y3170D01*
X35490Y3715D01*
X36035Y4530D01*
X36226Y5492D01*
X36035Y6454D01*
X35490Y7270D01*
X34675Y7814D01*
X33713Y8006D01*
X29776D01*
X28814Y7814D01*
X27998Y7270D01*
X27453Y6454D01*
X27262Y5492D01*
X27453Y4530D01*
X27998Y3715D01*
X28814Y3170D01*
X29569Y3019D01*
X29520Y2520D01*
X13850D01*
X13801Y3019D01*
X14556Y3170D01*
X15372Y3715D01*
X15917Y4530D01*
X16108Y5492D01*
X15917Y6454D01*
X15372Y7270D01*
X14556Y7814D01*
X13595Y8006D01*
X7689D01*
X6727Y7814D01*
X5912Y7270D01*
X5367Y6454D01*
X5175Y5492D01*
X5367Y4530D01*
X5912Y3715D01*
X6727Y3170D01*
X7482Y3019D01*
X7433Y2520D01*
X3740D01*
X3740Y177980D01*
X4970D01*
X5142Y177480D01*
X4898Y177236D01*
X4700Y176759D01*
Y176241D01*
X4898Y175764D01*
X5264Y175398D01*
X5741Y175200D01*
X6259D01*
X6736Y175398D01*
X7102Y175764D01*
X7300Y176241D01*
Y176759D01*
X7102Y177236D01*
X6858Y177480D01*
X7030Y177980D01*
X13970D01*
X14142Y177480D01*
X13898Y177236D01*
X13700Y176759D01*
Y176241D01*
X13898Y175764D01*
X14264Y175398D01*
X14741Y175200D01*
X15259D01*
X15736Y175398D01*
X16102Y175764D01*
X16300Y176241D01*
Y176759D01*
X16102Y177236D01*
X15858Y177480D01*
X16030Y177980D01*
X22970D01*
X23142Y177480D01*
X22898Y177236D01*
X22700Y176759D01*
Y176241D01*
X22898Y175764D01*
X23264Y175398D01*
X23741Y175200D01*
X24259D01*
X24736Y175398D01*
X25102Y175764D01*
X25300Y176241D01*
Y176759D01*
X25102Y177236D01*
X24858Y177480D01*
X25030Y177980D01*
X26000D01*
Y149325D01*
X25886Y149278D01*
X25772Y149231D01*
X25772Y149230D01*
X25770Y149230D01*
X25723Y149116D01*
X25675Y149003D01*
X25407Y114639D01*
X24905Y114433D01*
X24736Y114602D01*
X24259Y114800D01*
X23741D01*
X23264Y114602D01*
X22898Y114236D01*
X22700Y113759D01*
Y113241D01*
X22898Y112764D01*
X23264Y112398D01*
X23741Y112200D01*
X24259D01*
X24736Y112398D01*
X24891Y112552D01*
X25389Y112343D01*
X25298Y100747D01*
X24797Y100542D01*
X24736Y100602D01*
X24259Y100800D01*
X23741D01*
X23264Y100602D01*
X22898Y100236D01*
X22700Y99759D01*
Y99241D01*
X22898Y98764D01*
X23264Y98398D01*
X23741Y98200D01*
X24259D01*
X24736Y98398D01*
X24780Y98442D01*
X25279Y98233D01*
X25272Y97357D01*
X25272Y97357D01*
X25272Y97356D01*
X25318Y97243D01*
X25365Y97127D01*
X25366Y97127D01*
X25366Y97126D01*
X25718Y96771D01*
X25719Y96771D01*
X25719Y96770D01*
X25833Y96723D01*
X25947Y96675D01*
X25948Y96675D01*
X25949Y96675D01*
X61700D01*
Y96241D01*
X61898Y95764D01*
X62264Y95398D01*
X62741Y95200D01*
X63259D01*
X63736Y95398D01*
X64102Y95764D01*
X64300Y96241D01*
Y96675D01*
X67700D01*
X67733Y96662D01*
X67898Y96264D01*
X68264Y95898D01*
X68741Y95700D01*
X69259D01*
X69736Y95898D01*
X70102Y96264D01*
X70267Y96662D01*
X70300Y96675D01*
X75355D01*
X75585Y96770D01*
X75680Y97000D01*
Y128031D01*
X75839Y128834D01*
X75925Y128962D01*
X75943Y129055D01*
X75980Y129142D01*
Y130909D01*
X75955Y130969D01*
Y131034D01*
X75909Y131079D01*
X75885Y131139D01*
X75825Y131164D01*
X75779Y131209D01*
X75353Y131386D01*
X75500Y131741D01*
Y132259D01*
X75353Y132614D01*
X75779Y132791D01*
X75825Y132836D01*
X75885Y132861D01*
X75909Y132921D01*
X75955Y132966D01*
Y133031D01*
X75980Y133091D01*
Y135155D01*
X75885Y135385D01*
X75655Y135480D01*
X72971D01*
X72742Y135385D01*
X56951Y119594D01*
X56271Y119139D01*
X55468Y118980D01*
X54032D01*
X53229Y119139D01*
X52576Y119576D01*
X52139Y120229D01*
X51986Y121000D01*
X52139Y121771D01*
X52576Y122424D01*
X53229Y122861D01*
X54032Y123020D01*
X54529D01*
X54758Y123116D01*
X70549Y138906D01*
X71229Y139361D01*
X72032Y139520D01*
X77968D01*
X78771Y139361D01*
X79424Y138924D01*
X79861Y138271D01*
X80020Y137468D01*
Y128395D01*
X79861Y127592D01*
X79775Y127464D01*
X79757Y127371D01*
X79720Y127284D01*
Y121591D01*
X79745Y121531D01*
Y121466D01*
X79791Y121421D01*
X79815Y121361D01*
X79875Y121336D01*
X79921Y121291D01*
X80347Y121114D01*
X80200Y120759D01*
Y120241D01*
X80347Y119886D01*
X79921Y119709D01*
X79875Y119664D01*
X79815Y119639D01*
X79791Y119579D01*
X79745Y119534D01*
Y119469D01*
X79720Y119409D01*
Y97000D01*
X79815Y96770D01*
X80045Y96675D01*
X84175D01*
Y91000D01*
X84270Y90770D01*
X85754Y89287D01*
X85563Y88825D01*
X79000D01*
X78770Y88730D01*
X76770Y86730D01*
X76675Y86500D01*
Y77500D01*
X76770Y77270D01*
X81675Y72365D01*
Y70093D01*
X81178Y70086D01*
X80982Y70558D01*
X80621Y70919D01*
X80149Y71115D01*
X79638D01*
X79166Y70919D01*
X78805Y70558D01*
X78610Y70086D01*
Y69575D01*
X78805Y69103D01*
X79166Y68742D01*
X79638Y68546D01*
X80149D01*
X80621Y68742D01*
X80982Y69103D01*
X81178Y69575D01*
X81675Y69569D01*
Y65762D01*
X81178Y65755D01*
X80982Y66228D01*
X80621Y66589D01*
X80149Y66784D01*
X79638D01*
X79166Y66589D01*
X78805Y66228D01*
X78610Y65755D01*
Y65245D01*
X78805Y64772D01*
X79166Y64411D01*
X79638Y64216D01*
X80149D01*
X80621Y64411D01*
X80982Y64772D01*
X81178Y65245D01*
X81675Y65238D01*
Y61431D01*
X81178Y61425D01*
X80982Y61897D01*
X80621Y62258D01*
X80149Y62454D01*
X79638D01*
X79166Y62258D01*
X78805Y61897D01*
X78610Y61425D01*
Y60914D01*
X78805Y60442D01*
X79166Y60081D01*
X79638Y59885D01*
X80149D01*
X80621Y60081D01*
X80982Y60442D01*
X81178Y60914D01*
X81675Y60907D01*
Y36134D01*
X75114Y29574D01*
X21358Y30071D01*
X21357Y30071D01*
X21357Y30071D01*
X21242Y30025D01*
X21128Y29978D01*
X21127Y29978D01*
X21127Y29977D01*
X20771Y29625D01*
X20771Y29625D01*
X20770Y29624D01*
X20723Y29510D01*
X20675Y29396D01*
X20676Y29395D01*
X20675Y29395D01*
Y14500D01*
X20770Y14270D01*
X21000Y14175D01*
X76500D01*
X76730Y14270D01*
X90230Y27770D01*
X90325Y28000D01*
Y85175D01*
X104000D01*
X104230Y85270D01*
X104325Y85500D01*
Y149000D01*
X104230Y149230D01*
X104000Y149325D01*
Y177980D01*
X105470D01*
X105642Y177480D01*
X105398Y177236D01*
X105200Y176759D01*
Y176241D01*
X105398Y175764D01*
X105764Y175398D01*
X106241Y175200D01*
X106759D01*
X107236Y175398D01*
X107602Y175764D01*
X107800Y176241D01*
Y176759D01*
X107602Y177236D01*
X107358Y177480D01*
X107530Y177980D01*
X114470D01*
X114642Y177480D01*
X114398Y177236D01*
X114200Y176759D01*
Y176241D01*
X114398Y175764D01*
X114764Y175398D01*
X115241Y175200D01*
X115759D01*
X116236Y175398D01*
X116602Y175764D01*
X116800Y176241D01*
Y176759D01*
X116602Y177236D01*
X116358Y177480D01*
X116530Y177980D01*
X122970D01*
X123142Y177480D01*
X122898Y177236D01*
X122700Y176759D01*
Y176241D01*
X122898Y175764D01*
X123264Y175398D01*
X123741Y175200D01*
X124259D01*
X124736Y175398D01*
X125102Y175764D01*
X125300Y176241D01*
Y176759D01*
X125102Y177236D01*
X124858Y177480D01*
X125030Y177980D01*
X126480D01*
X126480Y2520D01*
D02*
G37*
G36*
X104000Y85500D02*
X90325D01*
Y88500D01*
X90230Y88730D01*
X90000Y88825D01*
X86675D01*
X84500Y91000D01*
Y97000D01*
X80045D01*
Y119409D01*
X80545Y119616D01*
X80764Y119398D01*
X81241Y119200D01*
X81759D01*
X82236Y119398D01*
X82602Y119764D01*
X82800Y120241D01*
Y120759D01*
X82602Y121236D01*
X82236Y121602D01*
X81759Y121800D01*
X81241D01*
X80764Y121602D01*
X80545Y121384D01*
X80045Y121591D01*
Y127284D01*
X80167Y127466D01*
X80345Y128363D01*
Y137500D01*
X80167Y138397D01*
X79658Y139158D01*
X78897Y139667D01*
X78000Y139845D01*
X72000D01*
X71103Y139667D01*
X70342Y139158D01*
X54529Y123345D01*
X54000D01*
X53103Y123167D01*
X52342Y122658D01*
X51833Y121897D01*
X51655Y121000D01*
X51833Y120103D01*
X52342Y119342D01*
X53103Y118833D01*
X54000Y118655D01*
X55500D01*
X56397Y118833D01*
X57158Y119342D01*
X72971Y135155D01*
X75655D01*
Y133091D01*
X75155Y132884D01*
X74936Y133102D01*
X74459Y133300D01*
X73941D01*
X73464Y133102D01*
X73098Y132736D01*
X72900Y132259D01*
Y131741D01*
X73098Y131264D01*
X73464Y130898D01*
X73941Y130700D01*
X74459D01*
X74936Y130898D01*
X75155Y131116D01*
X75655Y130909D01*
Y129142D01*
X75533Y128960D01*
X75355Y128063D01*
Y97000D01*
X70300D01*
Y97259D01*
X70102Y97736D01*
X69736Y98102D01*
X69259Y98300D01*
X68741D01*
X68264Y98102D01*
X67898Y97736D01*
X67700Y97259D01*
Y97000D01*
X64200D01*
X64102Y97236D01*
X63736Y97602D01*
X63259Y97800D01*
X62741D01*
X62264Y97602D01*
X61898Y97236D01*
X61800Y97000D01*
X25949D01*
X25596Y97355D01*
X26000Y149000D01*
X104000D01*
Y85500D01*
D02*
G37*
G36*
X90000Y28000D02*
X76500Y14500D01*
X21000D01*
Y29395D01*
X21355Y29747D01*
X75248Y29248D01*
X82000Y36000D01*
Y72500D01*
X77000Y77500D01*
Y86500D01*
X79000Y88500D01*
X90000D01*
Y28000D01*
D02*
G37*
%LPC*%
G36*
X17006Y157686D02*
X15994D01*
X15017Y157424D01*
X14140Y156918D01*
X13425Y156202D01*
X12919Y155326D01*
X12657Y154349D01*
Y153337D01*
X12919Y152359D01*
X13425Y151483D01*
X14140Y150767D01*
X15017Y150261D01*
X15994Y149999D01*
X17006D01*
X17984Y150261D01*
X18860Y150767D01*
X19575Y151483D01*
X20081Y152359D01*
X20343Y153337D01*
Y154349D01*
X20081Y155326D01*
X19575Y156202D01*
X18860Y156918D01*
X17984Y157424D01*
X17006Y157686D01*
D02*
G37*
G36*
X124259Y143700D02*
X123741D01*
X123264Y143502D01*
X122898Y143136D01*
X122700Y142659D01*
Y142141D01*
X122898Y141664D01*
X123264Y141298D01*
X123741Y141100D01*
X124259D01*
X124736Y141298D01*
X125102Y141664D01*
X125300Y142141D01*
Y142659D01*
X125102Y143136D01*
X124736Y143502D01*
X124259Y143700D01*
D02*
G37*
G36*
X114006Y147843D02*
X112994D01*
X112016Y147581D01*
X111140Y147075D01*
X110425Y146360D01*
X109919Y145484D01*
X109657Y144506D01*
Y143494D01*
X109919Y142517D01*
X110425Y141640D01*
X111140Y140925D01*
X112016Y140419D01*
X112994Y140157D01*
X114006D01*
X114983Y140419D01*
X115860Y140925D01*
X116575Y141640D01*
X117081Y142517D01*
X117343Y143494D01*
Y144506D01*
X117081Y145484D01*
X116575Y146360D01*
X115860Y147075D01*
X114983Y147581D01*
X114006Y147843D01*
D02*
G37*
G36*
X17006D02*
X15994D01*
X15017Y147581D01*
X14140Y147075D01*
X13425Y146360D01*
X12919Y145484D01*
X12657Y144506D01*
Y143494D01*
X12919Y142517D01*
X13425Y141640D01*
X14140Y140925D01*
X15017Y140419D01*
X15994Y140157D01*
X17006D01*
X17984Y140419D01*
X18860Y140925D01*
X19575Y141640D01*
X20081Y142517D01*
X20343Y143494D01*
Y144506D01*
X20081Y145484D01*
X19575Y146360D01*
X18860Y147075D01*
X17984Y147581D01*
X17006Y147843D01*
D02*
G37*
G36*
X114006Y138001D02*
X112994D01*
X112016Y137739D01*
X111140Y137233D01*
X110425Y136517D01*
X109919Y135641D01*
X109657Y134663D01*
Y133651D01*
X109919Y132674D01*
X110425Y131798D01*
X111140Y131082D01*
X112016Y130576D01*
X112994Y130314D01*
X114006D01*
X114983Y130576D01*
X115860Y131082D01*
X116575Y131798D01*
X117081Y132674D01*
X117343Y133651D01*
Y134663D01*
X117081Y135641D01*
X116575Y136517D01*
X115860Y137233D01*
X114983Y137739D01*
X114006Y138001D01*
D02*
G37*
G36*
X15798Y127500D02*
X15202D01*
X14650Y127272D01*
X14228Y126850D01*
X14000Y126298D01*
Y125702D01*
X14228Y125150D01*
X14650Y124728D01*
X15202Y124500D01*
X15798D01*
X16350Y124728D01*
X16772Y125150D01*
X17000Y125702D01*
Y126298D01*
X16772Y126850D01*
X16350Y127272D01*
X15798Y127500D01*
D02*
G37*
G36*
X20298Y124500D02*
X19702D01*
X19150Y124272D01*
X18728Y123850D01*
X18500Y123298D01*
Y122702D01*
X18728Y122150D01*
X19150Y121728D01*
X19702Y121500D01*
X20298D01*
X20850Y121728D01*
X21272Y122150D01*
X21500Y122702D01*
Y123298D01*
X21272Y123850D01*
X20850Y124272D01*
X20298Y124500D01*
D02*
G37*
G36*
X124259Y109600D02*
X123741D01*
X123264Y109402D01*
X122898Y109036D01*
X122700Y108559D01*
Y108041D01*
X122898Y107564D01*
X123264Y107198D01*
X123741Y107000D01*
X124259D01*
X124736Y107198D01*
X125102Y107564D01*
X125300Y108041D01*
Y108559D01*
X125102Y109036D01*
X124736Y109402D01*
X124259Y109600D01*
D02*
G37*
G36*
X23759Y109300D02*
X23241D01*
X22764Y109102D01*
X22398Y108736D01*
X22200Y108259D01*
Y107741D01*
X22398Y107264D01*
X22764Y106898D01*
X23241Y106700D01*
X23759D01*
X24236Y106898D01*
X24602Y107264D01*
X24800Y107741D01*
Y108259D01*
X24602Y108736D01*
X24236Y109102D01*
X23759Y109300D01*
D02*
G37*
G36*
X16951Y112571D02*
X15939D01*
X14961Y112309D01*
X14085Y111803D01*
X13370Y111087D01*
X12864Y110211D01*
X12602Y109233D01*
Y108221D01*
X12864Y107244D01*
X13370Y106368D01*
X14085Y105652D01*
X14961Y105146D01*
X15939Y104884D01*
X16951D01*
X17928Y105146D01*
X18805Y105652D01*
X19520Y106368D01*
X20026Y107244D01*
X20288Y108221D01*
Y109233D01*
X20026Y110211D01*
X19520Y111087D01*
X18805Y111803D01*
X17928Y112309D01*
X16951Y112571D01*
D02*
G37*
G36*
X113506Y102728D02*
X112494D01*
X111516Y102466D01*
X110640Y101960D01*
X109925Y101245D01*
X109419Y100368D01*
X109157Y99391D01*
Y98379D01*
X109419Y97401D01*
X109925Y96525D01*
X110640Y95810D01*
X111516Y95304D01*
X112494Y95042D01*
X113506D01*
X114483Y95304D01*
X115360Y95810D01*
X116075Y96525D01*
X116581Y97401D01*
X116843Y98379D01*
Y99391D01*
X116581Y100368D01*
X116075Y101245D01*
X115360Y101960D01*
X114483Y102466D01*
X113506Y102728D01*
D02*
G37*
G36*
X16951D02*
X15939D01*
X14961Y102466D01*
X14085Y101960D01*
X13370Y101245D01*
X12864Y100368D01*
X12602Y99391D01*
Y98379D01*
X12864Y97401D01*
X13370Y96525D01*
X14085Y95810D01*
X14961Y95304D01*
X15939Y95042D01*
X16951D01*
X17928Y95304D01*
X18805Y95810D01*
X19520Y96525D01*
X20026Y97401D01*
X20288Y98379D01*
Y99391D01*
X20026Y100368D01*
X19520Y101245D01*
X18805Y101960D01*
X17928Y102466D01*
X16951Y102728D01*
D02*
G37*
G36*
X47259Y94300D02*
X46741D01*
X46264Y94102D01*
X45898Y93736D01*
X45700Y93259D01*
Y92741D01*
X45898Y92264D01*
X46264Y91898D01*
X46741Y91700D01*
X47259D01*
X47736Y91898D01*
X48102Y92264D01*
X48300Y92741D01*
Y93259D01*
X48102Y93736D01*
X47736Y94102D01*
X47259Y94300D01*
D02*
G37*
G36*
X113506Y92886D02*
X112494D01*
X111516Y92624D01*
X110640Y92118D01*
X109925Y91402D01*
X109419Y90526D01*
X109157Y89548D01*
Y88537D01*
X109419Y87559D01*
X109925Y86683D01*
X110640Y85967D01*
X111516Y85461D01*
X112494Y85199D01*
X113506D01*
X114483Y85461D01*
X115360Y85967D01*
X116075Y86683D01*
X116581Y87559D01*
X116843Y88537D01*
Y89548D01*
X116581Y90526D01*
X116075Y91402D01*
X115360Y92118D01*
X114483Y92624D01*
X113506Y92886D01*
D02*
G37*
G36*
X47259Y86800D02*
X46741D01*
X46264Y86602D01*
X45898Y86236D01*
X45700Y85759D01*
Y85241D01*
X45898Y84764D01*
X46264Y84398D01*
X46741Y84200D01*
X47259D01*
X47736Y84398D01*
X48102Y84764D01*
X48300Y85241D01*
Y85759D01*
X48102Y86236D01*
X47736Y86602D01*
X47259Y86800D01*
D02*
G37*
G36*
X29298Y86500D02*
X28702D01*
X28150Y86272D01*
X27728Y85850D01*
X27500Y85298D01*
Y84702D01*
X27728Y84150D01*
X28150Y83728D01*
X28702Y83500D01*
X29298D01*
X29850Y83728D01*
X30272Y84150D01*
X30500Y84702D01*
Y85298D01*
X30272Y85850D01*
X29850Y86272D01*
X29298Y86500D01*
D02*
G37*
G36*
X55798Y82752D02*
X55202D01*
X54650Y82524D01*
X54228Y82102D01*
X54000Y81550D01*
Y80954D01*
X54228Y80402D01*
X54650Y79980D01*
X55202Y79752D01*
X55798D01*
X56350Y79980D01*
X56772Y80402D01*
X57000Y80954D01*
Y81550D01*
X56772Y82102D01*
X56350Y82524D01*
X55798Y82752D01*
D02*
G37*
G36*
X17259Y81100D02*
X16741D01*
X16264Y80902D01*
X15898Y80536D01*
X15700Y80059D01*
Y79541D01*
X15898Y79064D01*
X16264Y78698D01*
X16741Y78500D01*
X17259D01*
X17736Y78698D01*
X18102Y79064D01*
X18300Y79541D01*
Y80059D01*
X18102Y80536D01*
X17736Y80902D01*
X17259Y81100D01*
D02*
G37*
G36*
X44298Y80500D02*
X43702D01*
X43150Y80272D01*
X42728Y79850D01*
X42500Y79298D01*
Y78702D01*
X42728Y78150D01*
X43150Y77728D01*
X43702Y77500D01*
X44298D01*
X44850Y77728D01*
X45272Y78150D01*
X45500Y78702D01*
Y79298D01*
X45272Y79850D01*
X44850Y80272D01*
X44298Y80500D01*
D02*
G37*
G36*
X13759Y79100D02*
X13241D01*
X12764Y78902D01*
X12398Y78536D01*
X12200Y78059D01*
Y77541D01*
X12398Y77064D01*
X12764Y76698D01*
X13241Y76500D01*
X13759D01*
X14236Y76698D01*
X14602Y77064D01*
X14800Y77541D01*
Y78059D01*
X14602Y78536D01*
X14236Y78902D01*
X13759Y79100D01*
D02*
G37*
G36*
X44298Y76500D02*
X43702D01*
X43150Y76272D01*
X42728Y75850D01*
X42500Y75298D01*
Y74702D01*
X42728Y74150D01*
X43150Y73728D01*
X43702Y73500D01*
X44298D01*
X44850Y73728D01*
X45272Y74150D01*
X45500Y74702D01*
Y75298D01*
X45272Y75850D01*
X44850Y76272D01*
X44298Y76500D01*
D02*
G37*
G36*
X93259Y75800D02*
X92741D01*
X92264Y75602D01*
X91898Y75236D01*
X91700Y74759D01*
Y74241D01*
X91898Y73764D01*
X92264Y73398D01*
X92741Y73200D01*
X93259D01*
X93736Y73398D01*
X94102Y73764D01*
X94300Y74241D01*
Y74759D01*
X94102Y75236D01*
X93736Y75602D01*
X93259Y75800D01*
D02*
G37*
G36*
X124259Y75500D02*
X123741D01*
X123264Y75302D01*
X122898Y74936D01*
X122700Y74459D01*
Y73941D01*
X122898Y73464D01*
X123264Y73098D01*
X123741Y72900D01*
X124259D01*
X124736Y73098D01*
X125102Y73464D01*
X125300Y73941D01*
Y74459D01*
X125102Y74936D01*
X124736Y75302D01*
X124259Y75500D01*
D02*
G37*
G36*
X44377Y72578D02*
X43780D01*
X43229Y72350D01*
X42807Y71928D01*
X42578Y71377D01*
Y70780D01*
X42807Y70229D01*
X43229Y69807D01*
X43780Y69578D01*
X44377D01*
X44928Y69807D01*
X45350Y70229D01*
X45578Y70780D01*
Y71377D01*
X45350Y71928D01*
X44928Y72350D01*
X44377Y72578D01*
D02*
G37*
G36*
X75818Y71115D02*
X75308D01*
X74835Y70919D01*
X74474Y70558D01*
X74279Y70086D01*
Y69575D01*
X74474Y69103D01*
X74835Y68742D01*
X75308Y68546D01*
X75818D01*
X76291Y68742D01*
X76652Y69103D01*
X76847Y69575D01*
Y70086D01*
X76652Y70558D01*
X76291Y70919D01*
X75818Y71115D01*
D02*
G37*
G36*
X61644Y76915D02*
X61127D01*
X60649Y76717D01*
X60283Y76351D01*
X60085Y75873D01*
Y75356D01*
X60283Y74878D01*
X60649Y74513D01*
X60977Y74377D01*
Y73853D01*
X60649Y73717D01*
X60283Y73351D01*
X60085Y72873D01*
Y72356D01*
X60283Y71878D01*
X60649Y71513D01*
X60977Y71377D01*
Y70853D01*
X60649Y70717D01*
X60283Y70351D01*
X60085Y69873D01*
Y69356D01*
X60283Y68878D01*
X60649Y68513D01*
X61127Y68315D01*
X61644D01*
X62122Y68513D01*
X62487Y68878D01*
X62685Y69356D01*
Y69873D01*
X62487Y70351D01*
X62122Y70717D01*
X61793Y70853D01*
Y71377D01*
X62122Y71513D01*
X62487Y71878D01*
X62685Y72356D01*
Y72873D01*
X62487Y73351D01*
X62122Y73717D01*
X61793Y73853D01*
Y74377D01*
X62122Y74513D01*
X62487Y74878D01*
X62685Y75356D01*
Y75873D01*
X62487Y76351D01*
X62122Y76717D01*
X61644Y76915D01*
D02*
G37*
G36*
X67144Y69415D02*
X66627D01*
X66149Y69217D01*
X65783Y68851D01*
X65585Y68373D01*
Y67856D01*
X65783Y67378D01*
X66149Y67013D01*
X66627Y66815D01*
X67144D01*
X67622Y67013D01*
X67987Y67378D01*
X68185Y67856D01*
Y68373D01*
X67987Y68851D01*
X67622Y69217D01*
X67144Y69415D01*
D02*
G37*
G36*
X75818Y66784D02*
X75308D01*
X74835Y66589D01*
X74474Y66228D01*
X74279Y65755D01*
Y65245D01*
X74474Y64772D01*
X74835Y64411D01*
X75308Y64216D01*
X75818D01*
X76291Y64411D01*
X76652Y64772D01*
X76847Y65245D01*
Y65755D01*
X76652Y66228D01*
X76291Y66589D01*
X75818Y66784D01*
D02*
G37*
G36*
X106805Y77674D02*
X105195D01*
X103616Y77360D01*
X102128Y76744D01*
X100789Y75849D01*
X99651Y74711D01*
X98756Y73372D01*
X98140Y71884D01*
X97826Y70305D01*
Y68695D01*
X98140Y67116D01*
X98756Y65628D01*
X99651Y64289D01*
X100789Y63151D01*
X102128Y62256D01*
X103616Y61640D01*
X105195Y61326D01*
X106805D01*
X108384Y61640D01*
X109872Y62256D01*
X111211Y63151D01*
X112349Y64289D01*
X113244Y65628D01*
X113860Y67116D01*
X114174Y68695D01*
Y70305D01*
X113860Y71884D01*
X113244Y73372D01*
X112349Y74711D01*
X111211Y75849D01*
X109872Y76744D01*
X108384Y77360D01*
X106805Y77674D01*
D02*
G37*
G36*
X93759Y63300D02*
X93241D01*
X92764Y63102D01*
X92398Y62736D01*
X92200Y62259D01*
Y61741D01*
X92398Y61264D01*
X92764Y60898D01*
X93241Y60700D01*
X93759D01*
X94236Y60898D01*
X94602Y61264D01*
X94800Y61741D01*
Y62259D01*
X94602Y62736D01*
X94236Y63102D01*
X93759Y63300D01*
D02*
G37*
G36*
X75818Y62454D02*
X75308D01*
X74835Y62258D01*
X74474Y61897D01*
X74279Y61425D01*
Y60914D01*
X74474Y60442D01*
X74835Y60081D01*
X75308Y59885D01*
X75818D01*
X76291Y60081D01*
X76652Y60442D01*
X76847Y60914D01*
Y61425D01*
X76652Y61897D01*
X76291Y62258D01*
X75818Y62454D01*
D02*
G37*
G36*
X67259Y61800D02*
X66741D01*
X66264Y61602D01*
X65898Y61236D01*
X65700Y60759D01*
Y60241D01*
X65898Y59764D01*
X66264Y59398D01*
X66741Y59200D01*
X67259D01*
X67736Y59398D01*
X68102Y59764D01*
X68300Y60241D01*
Y60759D01*
X68102Y61236D01*
X67736Y61602D01*
X67259Y61800D01*
D02*
G37*
G36*
X117500Y51801D02*
X116538Y51610D01*
X115723Y51065D01*
X115178Y50249D01*
X114986Y49287D01*
Y47713D01*
X115178Y46751D01*
X115723Y45935D01*
X116538Y45390D01*
X117500Y45199D01*
X118462Y45390D01*
X119277Y45935D01*
X119822Y46751D01*
X120014Y47713D01*
Y49287D01*
X119822Y50249D01*
X119277Y51065D01*
X118462Y51610D01*
X117500Y51801D01*
D02*
G37*
G36*
X25305Y60174D02*
X23695D01*
X22116Y59860D01*
X20628Y59244D01*
X19289Y58349D01*
X18151Y57211D01*
X17256Y55872D01*
X16640Y54384D01*
X16326Y52805D01*
Y51195D01*
X16640Y49616D01*
X17256Y48128D01*
X18151Y46789D01*
X19289Y45651D01*
X20628Y44756D01*
X22116Y44140D01*
X23695Y43826D01*
X25305D01*
X26884Y44140D01*
X28372Y44756D01*
X29711Y45651D01*
X30849Y46789D01*
X31744Y48128D01*
X32360Y49616D01*
X32674Y51195D01*
Y52805D01*
X32360Y54384D01*
X31744Y55872D01*
X30849Y57211D01*
X29711Y58349D01*
X28372Y59244D01*
X26884Y59860D01*
X25305Y60174D01*
D02*
G37*
G36*
X70759Y44176D02*
X70241D01*
X69764Y43978D01*
X69398Y43613D01*
X69200Y43135D01*
Y42618D01*
X69398Y42140D01*
X69764Y41774D01*
X70241Y41576D01*
X70759D01*
X71236Y41774D01*
X71602Y42140D01*
X71800Y42618D01*
Y43135D01*
X71602Y43613D01*
X71236Y43978D01*
X70759Y44176D01*
D02*
G37*
G36*
X124259Y41400D02*
X123741D01*
X123264Y41202D01*
X122898Y40836D01*
X122700Y40359D01*
Y39841D01*
X122898Y39364D01*
X123264Y38998D01*
X123741Y38800D01*
X124259D01*
X124736Y38998D01*
X125102Y39364D01*
X125300Y39841D01*
Y40359D01*
X125102Y40836D01*
X124736Y41202D01*
X124259Y41400D01*
D02*
G37*
G36*
X68759Y41300D02*
X68241D01*
X67764Y41102D01*
X67398Y40736D01*
X67200Y40259D01*
Y39741D01*
X67398Y39264D01*
X67764Y38898D01*
X68241Y38700D01*
X68759D01*
X69236Y38898D01*
X69602Y39264D01*
X69800Y39741D01*
Y40259D01*
X69602Y40736D01*
X69236Y41102D01*
X68759Y41300D01*
D02*
G37*
G36*
X49759D02*
X49241D01*
X48764Y41102D01*
X48398Y40736D01*
X48200Y40259D01*
Y39741D01*
X48398Y39264D01*
X48764Y38898D01*
X49241Y38700D01*
X49759D01*
X50236Y38898D01*
X50602Y39264D01*
X50800Y39741D01*
Y40259D01*
X50602Y40736D01*
X50236Y41102D01*
X49759Y41300D01*
D02*
G37*
G36*
X33713Y42022D02*
X29776D01*
X28814Y41830D01*
X27998Y41285D01*
X27453Y40470D01*
X27262Y39508D01*
X27453Y38546D01*
X27998Y37731D01*
X28814Y37186D01*
X29776Y36994D01*
X33713D01*
X34675Y37186D01*
X35490Y37731D01*
X36035Y38546D01*
X36226Y39508D01*
X36035Y40470D01*
X35490Y41285D01*
X34675Y41830D01*
X33713Y42022D01*
D02*
G37*
G36*
X13595D02*
X7689D01*
X6727Y41830D01*
X5912Y41285D01*
X5367Y40470D01*
X5175Y39508D01*
X5367Y38546D01*
X5912Y37731D01*
X6727Y37186D01*
X7689Y36994D01*
X13595D01*
X14556Y37186D01*
X15372Y37731D01*
X15917Y38546D01*
X16108Y39508D01*
X15917Y40470D01*
X15372Y41285D01*
X14556Y41830D01*
X13595Y42022D01*
D02*
G37*
G36*
X117500Y41958D02*
X116538Y41767D01*
X115723Y41222D01*
X115178Y40407D01*
X114986Y39445D01*
Y37870D01*
X115178Y36908D01*
X115723Y36093D01*
X116538Y35548D01*
X117500Y35356D01*
X118462Y35548D01*
X119277Y36093D01*
X119822Y36908D01*
X120014Y37870D01*
Y39445D01*
X119822Y40407D01*
X119277Y41222D01*
X118462Y41767D01*
X117500Y41958D01*
D02*
G37*
G36*
X48259Y37800D02*
X47741D01*
X47264Y37602D01*
X46898Y37236D01*
X46700Y36759D01*
Y36241D01*
X46898Y35764D01*
X47264Y35398D01*
X47741Y35200D01*
X48259D01*
X48736Y35398D01*
X49102Y35764D01*
X49300Y36241D01*
Y36759D01*
X49102Y37236D01*
X48736Y37602D01*
X48259Y37800D01*
D02*
G37*
G36*
X28499Y36005D02*
X27982D01*
X27504Y35807D01*
X27138Y35441D01*
X26940Y34963D01*
Y34446D01*
X27138Y33968D01*
X27504Y33603D01*
X27982Y33405D01*
X28499D01*
X28977Y33603D01*
X29342Y33968D01*
X29540Y34446D01*
Y34963D01*
X29342Y35441D01*
X28977Y35807D01*
X28499Y36005D01*
D02*
G37*
G36*
X36759Y35800D02*
X36241D01*
X35764Y35602D01*
X35398Y35236D01*
X35200Y34759D01*
Y34241D01*
X35398Y33764D01*
X35764Y33398D01*
X36241Y33200D01*
X36759D01*
X37236Y33398D01*
X37602Y33764D01*
X37800Y34241D01*
Y34759D01*
X37602Y35236D01*
X37236Y35602D01*
X36759Y35800D01*
D02*
G37*
G36*
X99759Y29300D02*
X99241D01*
X98764Y29102D01*
X98398Y28736D01*
X98200Y28259D01*
Y27741D01*
X98398Y27264D01*
X98764Y26898D01*
X99241Y26700D01*
X99759D01*
X100236Y26898D01*
X100602Y27264D01*
X100800Y27741D01*
Y28259D01*
X100602Y28736D01*
X100236Y29102D01*
X99759Y29300D01*
D02*
G37*
G36*
X36759Y12300D02*
X36241D01*
X35764Y12102D01*
X35398Y11736D01*
X35200Y11259D01*
Y10741D01*
X35398Y10264D01*
X35764Y9898D01*
X36241Y9700D01*
X36759D01*
X37236Y9898D01*
X37602Y10264D01*
X37800Y10741D01*
Y11259D01*
X37602Y11736D01*
X37236Y12102D01*
X36759Y12300D01*
D02*
G37*
G36*
X23759Y10800D02*
X23241D01*
X22764Y10602D01*
X22398Y10236D01*
X22200Y9759D01*
Y9241D01*
X22398Y8764D01*
X22764Y8398D01*
X23241Y8200D01*
X23759D01*
X24236Y8398D01*
X24602Y8764D01*
X24800Y9241D01*
Y9759D01*
X24602Y10236D01*
X24236Y10602D01*
X23759Y10800D01*
D02*
G37*
G36*
X43259Y8800D02*
X42741D01*
X42264Y8602D01*
X41898Y8236D01*
X41700Y7759D01*
Y7241D01*
X41898Y6764D01*
X42264Y6398D01*
X42741Y6200D01*
X43259D01*
X43736Y6398D01*
X44102Y6764D01*
X44300Y7241D01*
Y7759D01*
X44102Y8236D01*
X43736Y8602D01*
X43259Y8800D01*
D02*
G37*
G36*
X124259Y7300D02*
X123741D01*
X123264Y7102D01*
X122898Y6736D01*
X122700Y6259D01*
Y5741D01*
X122898Y5264D01*
X123264Y4898D01*
X123741Y4700D01*
X124259D01*
X124736Y4898D01*
X125102Y5264D01*
X125300Y5741D01*
Y6259D01*
X125102Y6736D01*
X124736Y7102D01*
X124259Y7300D01*
D02*
G37*
G36*
X42298Y138521D02*
X41702D01*
X41150Y138292D01*
X40728Y137870D01*
X40500Y137319D01*
Y136722D01*
X40728Y136171D01*
X41150Y135749D01*
X41702Y135521D01*
X42298D01*
X42850Y135749D01*
X43272Y136171D01*
X43500Y136722D01*
Y137319D01*
X43272Y137870D01*
X42850Y138292D01*
X42298Y138521D01*
D02*
G37*
G36*
X87920Y135138D02*
X87403D01*
X86925Y134940D01*
X86560Y134575D01*
X86362Y134097D01*
Y133580D01*
X86560Y133102D01*
X86925Y132736D01*
X87403Y132538D01*
X87920D01*
X88398Y132736D01*
X88764Y133102D01*
X88962Y133580D01*
Y134097D01*
X88764Y134575D01*
X88398Y134940D01*
X87920Y135138D01*
D02*
G37*
G36*
X72681Y124475D02*
X72164D01*
X71686Y124277D01*
X71320Y123911D01*
X71122Y123433D01*
Y122916D01*
X71320Y122438D01*
X71686Y122073D01*
X72164Y121875D01*
X72681D01*
X73159Y122073D01*
X73524Y122438D01*
X73722Y122916D01*
Y123433D01*
X73524Y123911D01*
X73159Y124277D01*
X72681Y124475D01*
D02*
G37*
G36*
X88259Y113300D02*
X87741D01*
X87264Y113102D01*
X86898Y112736D01*
X86700Y112259D01*
Y111741D01*
X86898Y111264D01*
X87264Y110898D01*
X87741Y110700D01*
X88259D01*
X88736Y110898D01*
X89102Y111264D01*
X89300Y111741D01*
Y112259D01*
X89102Y112736D01*
X88736Y113102D01*
X88259Y113300D01*
D02*
G37*
G36*
X24524Y25389D02*
X24007D01*
X23529Y25192D01*
X23163Y24826D01*
X22965Y24348D01*
Y23831D01*
X23163Y23353D01*
X23512Y23004D01*
X23530Y22975D01*
X23585Y22423D01*
X23398Y22236D01*
X23200Y21759D01*
Y21241D01*
X23398Y20764D01*
X23764Y20398D01*
X24241Y20200D01*
X24759D01*
X25236Y20398D01*
X25602Y20764D01*
X25800Y21241D01*
Y21759D01*
X25602Y22236D01*
X25253Y22585D01*
X25235Y22614D01*
X25181Y23166D01*
X25368Y23353D01*
X25565Y23831D01*
Y24348D01*
X25368Y24826D01*
X25002Y25192D01*
X24524Y25389D01*
D02*
G37*
G36*
X38759Y25100D02*
X38241D01*
X37764Y24902D01*
X37398Y24536D01*
X37200Y24059D01*
Y23541D01*
X37398Y23064D01*
X37661Y22801D01*
X37723Y22500D01*
X37661Y22199D01*
X37398Y21936D01*
X37200Y21459D01*
Y20941D01*
X37398Y20464D01*
X37764Y20098D01*
X38241Y19900D01*
X38759D01*
X39236Y20098D01*
X39602Y20464D01*
X39800Y20941D01*
Y21459D01*
X39602Y21936D01*
X39339Y22199D01*
X39277Y22500D01*
X39339Y22801D01*
X39602Y23064D01*
X39800Y23541D01*
Y24059D01*
X39602Y24536D01*
X39236Y24902D01*
X38759Y25100D01*
D02*
G37*
%LPD*%
D80*
X16445Y89043D02*
D03*
X16500Y134158D02*
D03*
X113000Y108728D02*
D03*
X113500Y153842D02*
D03*
D83*
X117500Y58343D02*
D03*
D86*
X81800Y106000D02*
D03*
Y125469D02*
D03*
X85500Y44000D02*
D03*
X58497Y132003D02*
D03*
X45500Y138500D02*
D03*
X54000Y121000D02*
D03*
X99000Y90000D02*
D03*
X92500Y91000D02*
D03*
X84500Y101500D02*
D03*
X24500Y16000D02*
D03*
X36035Y28537D02*
D03*
X25500Y27500D02*
D03*
X78000Y137500D02*
D03*
Y110000D02*
D03*
X36500Y16500D02*
D03*
D87*
X54500Y89500D02*
D03*
X43081Y88581D02*
D03*
X53500Y106500D02*
D03*
X43500D02*
D03*
X48000D02*
D03*
X80300Y86438D02*
D03*
X86000Y86000D02*
D03*
D88*
X77700Y92800D02*
Y128063D01*
X54500Y89500D02*
X74400D01*
X77700Y92800D01*
Y128063D02*
X78000Y128363D01*
Y137500D01*
X72000D02*
X78000D01*
X55500Y121000D02*
X72000Y137500D01*
X54000Y121000D02*
X55500D01*
M02*
