G04*
G04 #@! TF.GenerationSoftware,Altium Limited,Altium Designer,23.4.1 (23)*
G04*
G04 Layer_Color=16711935*
%FSLAX25Y25*%
%MOIN*%
G70*
G04*
G04 #@! TF.SameCoordinates,D0A82AA9-F4A3-43A1-B343-99984006E8F9*
G04*
G04*
G04 #@! TF.FilePolarity,Positive*
G04*
G01*
G75*
%ADD15C,0.01000*%
D15*
X33500Y144870D02*
X96492D01*
Y83846D02*
Y178335D01*
X33500D02*
X96492D01*
X33500Y83846D02*
Y178335D01*
Y83846D02*
X96492D01*
X76600Y1800D02*
Y44200D01*
X67800Y1800D02*
X76600D01*
X67800D02*
Y44400D01*
X68000Y44200D01*
X76600D01*
X81470Y120947D02*
X85469D01*
Y114949D01*
X81470D01*
X85469Y117948D02*
X83469D01*
X75472Y119947D02*
X76471Y120947D01*
X78471D01*
X79470Y119947D01*
Y118948D01*
X78471Y117948D01*
X76471D01*
X75472Y116948D01*
Y115948D01*
X76471Y114949D01*
X78471D01*
X79470Y115948D01*
X73472Y114949D02*
Y120947D01*
X70473D01*
X69474Y119947D01*
Y117948D01*
X70473Y116948D01*
X73472D01*
X67474Y117948D02*
X63476D01*
X61476Y114949D02*
X59477D01*
X60477D01*
Y120947D01*
X61476Y119947D01*
X52479Y114949D02*
X56478D01*
X52479Y118948D01*
Y119947D01*
X53479Y120947D01*
X55478D01*
X56478Y119947D01*
X46481D02*
X47481Y120947D01*
X49480D01*
X50480Y119947D01*
Y118948D01*
X49480Y117948D01*
X47481D01*
X46481Y116948D01*
Y115948D01*
X47481Y114949D01*
X49480D01*
X50480Y115948D01*
X82319Y159831D02*
Y163829D01*
X80320Y165829D01*
X78320Y163829D01*
Y159831D01*
Y162830D01*
X82319D01*
X76321Y159831D02*
Y163829D01*
X73322D01*
X72322Y162830D01*
Y159831D01*
X69323Y164829D02*
Y163829D01*
X70323D01*
X68323D01*
X69323D01*
Y160830D01*
X68323Y159831D01*
X62325D02*
X64325D01*
X65324Y160830D01*
Y162830D01*
X64325Y163829D01*
X62325D01*
X61326Y162830D01*
Y161830D01*
X65324D01*
X59326Y159831D02*
Y163829D01*
X56327D01*
X55328Y162830D01*
Y159831D01*
X53328D02*
Y163829D01*
X50329D01*
X49330Y162830D01*
Y159831D01*
X46330Y163829D02*
X44331D01*
X43332Y162830D01*
Y159831D01*
X46330D01*
X47330Y160830D01*
X46330Y161830D01*
X43332D01*
M02*
