G04*
G04 #@! TF.GenerationSoftware,Altium Limited,Altium Designer,23.4.1 (23)*
G04*
G04 Layer_Color=2752767*
%FSLAX25Y25*%
%MOIN*%
G70*
G04*
G04 #@! TF.SameCoordinates,D0A82AA9-F4A3-43A1-B343-99984006E8F9*
G04*
G04*
G04 #@! TF.FilePolarity,Positive*
G04*
G01*
G75*
%ADD100C,0.00200*%
%ADD101C,0.00267*%
D100*
X15645Y107928D02*
X16045D01*
X16445Y108327D01*
X16845Y107928D01*
X17245D01*
Y108327D01*
X16845Y108728D01*
X17245Y109127D01*
Y109528D01*
X16845D01*
X16445Y109127D01*
X16045Y109528D01*
X15645D01*
Y109127D01*
X16045Y108728D01*
X15645Y108327D01*
Y107928D01*
Y98085D02*
X16045D01*
X16445Y98485D01*
X16845Y98085D01*
X17245D01*
Y98485D01*
X16845Y98885D01*
X17245Y99285D01*
Y99685D01*
X16845D01*
X16445Y99285D01*
X16045Y99685D01*
X15645D01*
Y99285D01*
X16045Y98885D01*
X15645Y98485D01*
Y98085D01*
Y88243D02*
X16045D01*
X16445Y88643D01*
X16845Y88243D01*
X17245D01*
Y88643D01*
X16845Y89043D01*
X17245Y89442D01*
Y89842D01*
X16845D01*
X16445Y89442D01*
X16045Y89842D01*
X15645D01*
Y89442D01*
X16045Y89043D01*
X15645Y88643D01*
Y88243D01*
X10642Y4692D02*
X9842Y6292D01*
X11442D01*
X10642Y4692D01*
X31744D02*
X32144Y5092D01*
X32544D01*
X32144Y5492D01*
X32544Y5892D01*
X32144D01*
X31744Y6292D01*
X31344Y5892D01*
X30944D01*
X31344Y5492D01*
X30944Y5092D01*
X31344D01*
X31744Y4692D01*
Y38708D02*
X32144Y39108D01*
X32544D01*
X32144Y39508D01*
X32544Y39908D01*
X32144D01*
X31744Y40308D01*
X31344Y39908D01*
X30944D01*
X31344Y39508D01*
X30944Y39108D01*
X31344D01*
X31744Y38708D01*
X10642D02*
X9842Y40308D01*
X11442D01*
X10642Y38708D01*
X116700Y57543D02*
Y59143D01*
X118300D01*
Y57543D01*
X116700D01*
Y47700D02*
Y49300D01*
X118300D01*
Y47700D01*
X116700D01*
X15700Y133358D02*
X16100D01*
X16500Y133757D01*
X16900Y133358D01*
X17300D01*
Y133757D01*
X16900Y134158D01*
X17300Y134557D01*
Y134958D01*
X16900D01*
X16500Y134557D01*
X16100Y134958D01*
X15700D01*
Y134557D01*
X16100Y134158D01*
X15700Y133757D01*
Y133358D01*
Y143200D02*
X16100D01*
X16500Y143600D01*
X16900Y143200D01*
X17300D01*
Y143600D01*
X16900Y144000D01*
X17300Y144400D01*
Y144800D01*
X16900D01*
X16500Y144400D01*
X16100Y144800D01*
X15700D01*
Y144400D01*
X16100Y144000D01*
X15700Y143600D01*
Y143200D01*
Y153042D02*
X16100D01*
X16500Y153443D01*
X16900Y153042D01*
X17300D01*
Y153443D01*
X16900Y153842D01*
X17300Y154243D01*
Y154642D01*
X16900D01*
X16500Y154243D01*
X16100Y154642D01*
X15700D01*
Y154243D01*
X16100Y153842D01*
X15700Y153443D01*
Y153042D01*
X112200Y107928D02*
X112600D01*
X113000Y108327D01*
X113400Y107928D01*
X113800D01*
Y108327D01*
X113400Y108728D01*
X113800Y109127D01*
Y109528D01*
X113400D01*
X113000Y109127D01*
X112600Y109528D01*
X112200D01*
Y109127D01*
X112600Y108728D01*
X112200Y108327D01*
Y107928D01*
Y98085D02*
X112600D01*
X113000Y98485D01*
X113400Y98085D01*
X113800D01*
Y98485D01*
X113400Y98885D01*
X113800Y99285D01*
Y99685D01*
X113400D01*
X113000Y99285D01*
X112600Y99685D01*
X112200D01*
Y99285D01*
X112600Y98885D01*
X112200Y98485D01*
Y98085D01*
Y88243D02*
X112600D01*
X113000Y88643D01*
X113400Y88243D01*
X113800D01*
Y88643D01*
X113400Y89043D01*
X113800Y89442D01*
Y89842D01*
X113400D01*
X113000Y89442D01*
X112600Y89842D01*
X112200D01*
Y89442D01*
X112600Y89043D01*
X112200Y88643D01*
Y88243D01*
X112700Y133358D02*
X113100D01*
X113500Y133757D01*
X113900Y133358D01*
X114300D01*
Y133757D01*
X113900Y134158D01*
X114300Y134557D01*
Y134958D01*
X113900D01*
X113500Y134557D01*
X113100Y134958D01*
X112700D01*
Y134557D01*
X113100Y134158D01*
X112700Y133757D01*
Y133358D01*
Y143200D02*
X113100D01*
X113500Y143600D01*
X113900Y143200D01*
X114300D01*
Y143600D01*
X113900Y144000D01*
X114300Y144400D01*
Y144800D01*
X113900D01*
X113500Y144400D01*
X113100Y144800D01*
X112700D01*
Y144400D01*
X113100Y144000D01*
X112700Y143600D01*
Y143200D01*
Y153042D02*
X113100D01*
X113500Y153443D01*
X113900Y153042D01*
X114300D01*
Y153443D01*
X113900Y153842D01*
X114300Y154243D01*
Y154642D01*
X113900D01*
X113500Y154243D01*
X113100Y154642D01*
X112700D01*
Y154243D01*
X113100Y153842D01*
X112700Y153443D01*
Y153042D01*
X23700Y51200D02*
X24100Y52000D01*
X23700Y52800D01*
X24500Y52400D01*
X25300Y52800D01*
X24900Y52000D01*
X25300Y51200D01*
X24500Y51600D01*
X23700Y51200D01*
X105200Y68700D02*
X105600Y69500D01*
X105200Y70300D01*
X106000Y69900D01*
X106800Y70300D01*
X106400Y69500D01*
X106800Y68700D01*
X106000Y69100D01*
X105200Y68700D01*
X75163Y69431D02*
Y69031D01*
X75963D01*
Y69431D01*
X76363D01*
Y70231D01*
X75963D01*
Y70631D01*
X75163D01*
Y70231D01*
X74763D01*
Y69431D01*
X75163D01*
X79494Y65100D02*
Y64700D01*
X80294D01*
Y65100D01*
X80694D01*
Y65900D01*
X80294D01*
Y66300D01*
X79494D01*
Y65900D01*
X79094D01*
Y65100D01*
X79494D01*
X75163D02*
Y64700D01*
X75963D01*
Y65100D01*
X76363D01*
Y65900D01*
X75963D01*
Y66300D01*
X75163D01*
Y65900D01*
X74763D01*
Y65100D01*
X75163D01*
X79494Y60769D02*
Y60369D01*
X80294D01*
Y60769D01*
X80694D01*
Y61569D01*
X80294D01*
Y61969D01*
X79494D01*
Y61569D01*
X79094D01*
Y60769D01*
X79494D01*
X75163D02*
Y60369D01*
X75963D01*
Y60769D01*
X76363D01*
Y61569D01*
X75963D01*
Y61969D01*
X75163D01*
Y61569D01*
X74763D01*
Y60769D01*
X75163D01*
X79494Y69431D02*
Y69031D01*
X80294D01*
Y69431D01*
X80694D01*
Y70231D01*
X80294D01*
Y70631D01*
X79494D01*
Y70231D01*
X79094D01*
Y69431D01*
X79494D01*
X66085Y68115D02*
X66885Y68915D01*
X67685Y68115D01*
X66885Y67315D01*
X66085Y68115D01*
X60585Y75615D02*
X61385Y76415D01*
X62185Y75615D01*
X61385Y74815D01*
X60585Y75615D01*
Y72615D02*
X61385Y73415D01*
X62185Y72615D01*
X61385Y71815D01*
X60585Y72615D01*
Y69615D02*
X61385Y70415D01*
X62185Y69615D01*
X61385Y68815D01*
X60585Y69615D01*
X43200Y78200D02*
Y79800D01*
X44800D01*
Y78200D01*
X43200D01*
X43600Y78600D02*
Y79400D01*
X44400D01*
Y78600D01*
X43600D01*
X43278Y70278D02*
Y71878D01*
X44878D01*
Y70278D01*
X43278D01*
X43678Y70678D02*
Y71478D01*
X44478D01*
Y70678D01*
X43678D01*
X43200Y74200D02*
Y75800D01*
X44800D01*
Y74200D01*
X43200D01*
X43600Y74600D02*
Y75400D01*
X44400D01*
Y74600D01*
X43600D01*
X66200Y60500D02*
X67000Y61300D01*
X67800Y60500D01*
X67000Y59700D01*
X66200Y60500D01*
X54700Y80452D02*
Y82052D01*
X56300D01*
Y80452D01*
X54700D01*
X55100Y80852D02*
Y81652D01*
X55900D01*
Y80852D01*
X55100D01*
X71622Y123175D02*
X72422Y123975D01*
X73222Y123175D01*
X72422Y122375D01*
X71622Y123175D01*
X62200Y96500D02*
X63000Y97300D01*
X63800Y96500D01*
X63000Y95700D01*
X62200Y96500D01*
X81000Y106000D02*
X81800Y106800D01*
X82600Y106000D01*
X81800Y105200D01*
X81000Y106000D01*
Y125469D02*
X81800Y126268D01*
X82600Y125469D01*
X81800Y124669D01*
X81000Y125469D01*
X73400Y132000D02*
X74200Y132800D01*
X75000Y132000D01*
X74200Y131200D01*
X73400Y132000D01*
X27440Y34705D02*
X28240Y35505D01*
X29040Y34705D01*
X28240Y33905D01*
X27440Y34705D01*
X84700Y44000D02*
X85500Y44800D01*
X86300Y44000D01*
X85500Y43200D01*
X84700Y44000D01*
X123200Y6000D02*
X124000Y6800D01*
X124800Y6000D01*
X124000Y5200D01*
X123200Y6000D01*
Y40100D02*
X124000Y40900D01*
X124800Y40100D01*
X124000Y39300D01*
X123200Y40100D01*
Y74200D02*
X124000Y75000D01*
X124800Y74200D01*
X124000Y73400D01*
X123200Y74200D01*
Y108300D02*
X124000Y109100D01*
X124800Y108300D01*
X124000Y107500D01*
X123200Y108300D01*
Y142400D02*
X124000Y143200D01*
X124800Y142400D01*
X124000Y141600D01*
X123200Y142400D01*
X5200Y176500D02*
X6000Y177300D01*
X6800Y176500D01*
X6000Y175700D01*
X5200Y176500D01*
X14200D02*
X15000Y177300D01*
X15800Y176500D01*
X15000Y175700D01*
X14200Y176500D01*
X23200D02*
X24000Y177300D01*
X24800Y176500D01*
X24000Y175700D01*
X23200Y176500D01*
X123200D02*
X124000Y177300D01*
X124800Y176500D01*
X124000Y175700D01*
X123200Y176500D01*
X114700D02*
X115500Y177300D01*
X116300Y176500D01*
X115500Y175700D01*
X114700Y176500D01*
X105700D02*
X106500Y177300D01*
X107300Y176500D01*
X106500Y175700D01*
X105700Y176500D01*
X57697Y132003D02*
X58497Y132803D01*
X59297Y132003D01*
X58497Y131203D01*
X57697Y132003D01*
X86862Y133838D02*
X87662Y134638D01*
X88462Y133838D01*
X87662Y133038D01*
X86862Y133838D01*
X87200Y112000D02*
X88000Y112800D01*
X88800Y112000D01*
X88000Y111200D01*
X87200Y112000D01*
X12700Y77800D02*
X13500Y78600D01*
X14300Y77800D01*
X13500Y77000D01*
X12700Y77800D01*
X47200Y36500D02*
X48000Y37300D01*
X48800Y36500D01*
X48000Y35700D01*
X47200Y36500D01*
X48700Y40000D02*
X49500Y40800D01*
X50300Y40000D01*
X49500Y39200D01*
X48700Y40000D01*
X67700D02*
X68500Y40800D01*
X69300Y40000D01*
X68500Y39200D01*
X67700Y40000D01*
X46200Y85500D02*
X47000Y86300D01*
X47800Y85500D01*
X47000Y84700D01*
X46200Y85500D01*
X53700Y88700D02*
Y90300D01*
X55300D01*
Y88700D01*
X53700D01*
X54100Y89100D02*
Y89900D01*
X54900D01*
Y89100D01*
X54100D01*
X44700Y138500D02*
X45500Y139300D01*
X46300Y138500D01*
X45500Y137700D01*
X44700Y138500D01*
X41200Y136221D02*
Y137820D01*
X42800D01*
Y136221D01*
X41200D01*
X41600Y136620D02*
Y137420D01*
X42400D01*
Y136620D01*
X41600D01*
X53200Y121000D02*
X54000Y121800D01*
X54800Y121000D01*
X54000Y120200D01*
X53200Y121000D01*
X68200Y97000D02*
X69000Y97800D01*
X69800Y97000D01*
X69000Y96200D01*
X68200Y97000D01*
X80700Y120500D02*
X81500Y121300D01*
X82300Y120500D01*
X81500Y119700D01*
X80700Y120500D01*
X98700Y28000D02*
X99500Y28800D01*
X100300Y28000D01*
X99500Y27200D01*
X98700Y28000D01*
X98200Y90000D02*
X99000Y90800D01*
X99800Y90000D01*
X99000Y89200D01*
X98200Y90000D01*
X91700Y91000D02*
X92500Y91800D01*
X93300Y91000D01*
X92500Y90200D01*
X91700Y91000D01*
X83700Y101500D02*
X84500Y102300D01*
X85300Y101500D01*
X84500Y100700D01*
X83700Y101500D01*
X23700Y21500D02*
X24500Y22300D01*
X25300Y21500D01*
X24500Y20700D01*
X23700Y21500D01*
X23465Y24089D02*
X24265Y24889D01*
X25065Y24089D01*
X24265Y23289D01*
X23465Y24089D01*
X37700Y23800D02*
X38500Y24600D01*
X39300Y23800D01*
X38500Y23000D01*
X37700Y23800D01*
Y21200D02*
X38500Y22000D01*
X39300Y21200D01*
X38500Y20400D01*
X37700Y21200D01*
X23700Y16000D02*
X24500Y16800D01*
X25300Y16000D01*
X24500Y15200D01*
X23700Y16000D01*
X22700Y9500D02*
X23500Y10300D01*
X24300Y9500D01*
X23500Y8700D01*
X22700Y9500D01*
X35235Y28537D02*
X36035Y29337D01*
X36835Y28537D01*
X36035Y27737D01*
X35235Y28537D01*
X24700Y27500D02*
X25500Y28300D01*
X26300Y27500D01*
X25500Y26700D01*
X24700Y27500D01*
X16200Y79800D02*
X17000Y80600D01*
X17800Y79800D01*
X17000Y79000D01*
X16200Y79800D01*
X92200Y74500D02*
X93000Y75300D01*
X93800Y74500D01*
X93000Y73700D01*
X92200Y74500D01*
X92700Y62000D02*
X93500Y62800D01*
X94300Y62000D01*
X93500Y61200D01*
X92700Y62000D01*
X77200Y137500D02*
X78000Y138300D01*
X78800Y137500D01*
X78000Y136700D01*
X77200Y137500D01*
Y110000D02*
X78000Y110800D01*
X78800Y110000D01*
X78000Y109200D01*
X77200Y110000D01*
X19200Y122200D02*
Y123800D01*
X20800D01*
Y122200D01*
X19200D01*
X19600Y122600D02*
Y123400D01*
X20400D01*
Y122600D01*
X19600D01*
X14700Y125200D02*
Y126800D01*
X16300D01*
Y125200D01*
X14700D01*
X15100Y125600D02*
Y126400D01*
X15900D01*
Y125600D01*
X15100D01*
X69700Y42876D02*
X70500Y43676D01*
X71300Y42876D01*
X70500Y42076D01*
X69700Y42876D01*
X42281Y87781D02*
Y89381D01*
X43881D01*
Y87781D01*
X42281D01*
X42681Y88181D02*
Y88981D01*
X43481D01*
Y88181D01*
X42681D01*
X28200Y84200D02*
Y85800D01*
X29800D01*
Y84200D01*
X28200D01*
X28600Y84600D02*
Y85400D01*
X29400D01*
Y84600D01*
X28600D01*
X52700Y105700D02*
Y107300D01*
X54300D01*
Y105700D01*
X52700D01*
X53100Y106100D02*
Y106900D01*
X53900D01*
Y106100D01*
X53100D01*
X42700Y105700D02*
Y107300D01*
X44300D01*
Y105700D01*
X42700D01*
X43100Y106100D02*
Y106900D01*
X43900D01*
Y106100D01*
X43100D01*
X47200Y105700D02*
Y107300D01*
X48800D01*
Y105700D01*
X47200D01*
X47600Y106100D02*
Y106900D01*
X48400D01*
Y106100D01*
X47600D01*
X23200Y99500D02*
X24000Y100300D01*
X24800Y99500D01*
X24000Y98700D01*
X23200Y99500D01*
X22700Y108000D02*
X23500Y108800D01*
X24300Y108000D01*
X23500Y107200D01*
X22700Y108000D01*
X23200Y113500D02*
X24000Y114300D01*
X24800Y113500D01*
X24000Y112700D01*
X23200Y113500D01*
X46200Y93000D02*
X47000Y93800D01*
X47800Y93000D01*
X47000Y92200D01*
X46200Y93000D01*
X42200Y7500D02*
X43000Y8300D01*
X43800Y7500D01*
X43000Y6700D01*
X42200Y7500D01*
X35700Y34500D02*
X36500Y35300D01*
X37300Y34500D01*
X36500Y33700D01*
X35700Y34500D01*
Y16500D02*
X36500Y17300D01*
X37300Y16500D01*
X36500Y15700D01*
X35700Y16500D01*
Y11000D02*
X36500Y11800D01*
X37300Y11000D01*
X36500Y10200D01*
X35700Y11000D01*
X79500Y85638D02*
Y87238D01*
X81100D01*
Y85638D01*
X79500D01*
X79900Y86038D02*
Y86838D01*
X80700D01*
Y86038D01*
X79900D01*
X85200Y85200D02*
Y86800D01*
X86800D01*
Y85200D01*
X85200D01*
X85600Y85600D02*
Y86400D01*
X86400D01*
Y85600D01*
X85600D01*
D101*
X118300Y38658D02*
X117747Y39418D01*
X116853Y39128D01*
Y38187D01*
X117747Y37897D01*
X118300Y38658D01*
M02*
