M48
;Layer_Color=9474304
;FILE_FORMAT=2:5
INCH,TZ
;TYPE=PLATED
T1F00S00C0.00800
%
T01
X162700Y5100
X163500Y18900
X162800Y26700
X157200Y24300
X155200Y33400
X149887Y44548
X173826Y40825
X178926Y51825
X168626Y29725
X192390Y58959
X204590Y60759
X216690Y62459
X214377Y72686
X206077Y81086
X197377Y89486
X194107Y106474
X196207Y118674
X198407Y130774
X188825Y132165
X178225Y126065
X167725Y119865
X151424Y123315
X140724Y129715
X129924Y135615
X127672Y124419
X129972Y112219
X131972Y100119
X125414Y86577
X117014Y77377
X108414Y68577
X115274Y61693
X127700Y59600
X139795Y57549
X230042Y61185
X204575Y145628
X120744Y145130
X94790Y61473
M30
